<svg xmlns="http://www.w3.org/2000/svg" xmlns:xlink="http://www.w3.org/1999/xlink" viewBox="0 0 99.11 216.05"><defs><style>.cls-1{fill:url(#Degradado_sin_nombre_45);}</style><linearGradient id="Degradado_sin_nombre_45" x1="-7275.88" y1="108.03" x2="-7176.77" y2="108.03" gradientTransform="matrix(-1, 0, 0, 1, -7176.77, 0)" gradientUnits="userSpaceOnUse"><stop offset="0" stop-color="#ab8957"/><stop offset="0.31" stop-color="#bfa176"/><stop offset="0.54" stop-color="#cfb693"/><stop offset="0.74" stop-color="#cead80"/><stop offset="1" stop-color="#cea66d"/></linearGradient></defs><g id="Layer_2" data-name="Layer 2"><g id="texto"><path class="cls-1" d="M.29,49a55,55,0,0,0,4.33,4.17C6,54.27,7.56,55.52,9.36,55.6a13.85,13.85,0,0,0,1.91-.18,17.66,17.66,0,0,1,2.3,0,11.89,11.89,0,0,1,4.22,1.12,9.08,9.08,0,0,0-5.17.25,10.92,10.92,0,0,0-6.38,6.38,14.68,14.68,0,0,0,.11,9.42c2.33,7.27,9,12.08,15,16.21l.34.22a106.51,106.51,0,0,0,10.1,17.54c4.63,6.67,9.82,13,13.37,20.34a37.76,37.76,0,0,1,3.51,11.14,28.58,28.58,0,0,1,.15,6.2c-2.27,2.89-4.84,5.56-7.16,8.41-3.49,4.28-6.94,9.51-5.65,15.31a1.12,1.12,0,0,0,1.85.49c.71-.57,1.39-1.16,2.05-1.78A35.53,35.53,0,0,0,50.57,148c.19-1,.33-1.93.43-2.89a29,29,0,0,0,4.4-7.63,46.24,46.24,0,0,1,1.72,5.78,57.23,57.23,0,0,1,1.18,14.42c-.1,2.85-.37,5.7-.75,8.53-3.22,6.17-8.2,11.37-12.53,16.76a49.11,49.11,0,0,0-5,7.56,28.92,28.92,0,0,0-1.8,3.87c-.3.86-.65,2,0,2.82a1.53,1.53,0,0,0,1.45.56,15.11,15.11,0,0,0,3-.65,17.89,17.89,0,0,0,5.3-2.81,24.68,24.68,0,0,0,7.61-10.21,60.08,60.08,0,0,0,3.56-13.51c.21-1.25.4-2.5.58-3.75a40.22,40.22,0,0,0,3.56-11.15,76,76,0,0,0,1.1-14.45,112.6,112.6,0,0,1,1.72,11.68,140.22,140.22,0,0,1,.52,17.63A105.52,105.52,0,0,1,65,187c-.09.48-.2,1-.3,1.44q-2.44,3.71-5.24,7.19c-4.57,5.71-9.64,11.6-11,19a1.13,1.13,0,0,0,1.07,1.4,6.22,6.22,0,0,0,3.83-1.46,28.18,28.18,0,0,0,5.5-6.18,42.34,42.34,0,0,0,4-7.16,60,60,0,0,0,3.83-11.92,78.64,78.64,0,0,0,8.42-17.05C80,158.42,80.45,143.1,75,129.36a53.42,53.42,0,0,0-10.86-17.17,46.58,46.58,0,0,0-7.88-6.61c-1.35-.9-2.74-1.72-4.16-2.49a56.8,56.8,0,0,1,10,.87,36.51,36.51,0,0,1,8.86,3c.74,1.24,1.44,2.51,2.11,3.8,1.68,3.24,3.5,6.41,5.42,9.51.81,1.31,1.64,2.61,2.52,3.87.58.84,1.32,2.25,2.43,2.38,1.58.19,2.37-1.7,2.59-3a9.4,9.4,0,0,0-1-5.79,28.1,28.1,0,0,0-12.48-12.5,48.39,48.39,0,0,0-4.83-6.65A39.17,39.17,0,0,0,54.3,88.79a31.63,31.63,0,0,0,3.33-1.1c4.3-1.7,8.41-3.81,13.11-4.14l.83,0c.23.12.46.24.68.37a54.09,54.09,0,0,1,9.93,7.57,24,24,0,0,0,5.09,3.89c1.14.6,2.7,1.27,4,.74A1.18,1.18,0,0,0,92.07,95c.4-4.92-3.72-8.8-7.74-10.87A26,26,0,0,0,72.1,81.27L71,80.69a47.28,47.28,0,0,0-12.15-4l-.71-.13c2.41-.31,4.81-.65,7.19-1.08a33.55,33.55,0,0,0,11-3.67A18.13,18.13,0,0,0,84,62.68c1.43-3.5,2.08-7.3,3.56-10.78,4.2-1.89,8.14-4.17,11.25-7.73a1.12,1.12,0,0,0-.49-1.85c-4.94-1-9.38,2.33-11.7,6.45-.26.48-.51,1-.73,1.45-2.37,1-4.82,2-7.23,2.93a49,49,0,0,0,2.71-5.94A24.78,24.78,0,0,0,83,38.88c0-3-.28-5.91,0-8.85a15,15,0,0,1,.26-1.78c3.49-2,7.71-4.08,8.81-8.21A1.12,1.12,0,0,0,91,18.64a8.46,8.46,0,0,0-7.09,3.22,12.8,12.8,0,0,0-2.56,4.93c-2.82,1.57-5.67,3.07-8.36,4.85a26.13,26.13,0,0,0-4.9,4.06,17.54,17.54,0,0,0-1.23,1.48c-.29-3.33-.69-6.65-.91-10a37.75,37.75,0,0,1,.74-12c.74-.54,1.48-1.08,2.23-1.61,1.35-1,2.71-1.88,4.07-2.81S75.7,9,77,8c2.25-1.71,4.51-4.16,3.75-7.22A1.13,1.13,0,0,0,79.68,0a13.37,13.37,0,0,0-2.52.4C70.88,2,66.47,7.9,64.7,13.92l-.67.49a122,122,0,0,0-23.3,23.17A74.68,74.68,0,0,0,30.31,55a9,9,0,0,0-1.54-5.38,12.32,12.32,0,0,0-7.37-4.48c-3.19-.63-6.21,0-9.32.71-3.6.81-7.3,1.58-11,1.21C.08,47-.32,48.36.29,49ZM33.48,87.13A65.83,65.83,0,0,0,41,97.27l.52.6a163.8,163.8,0,0,1-17.1-9.71l-1.14-1.11c-.31-.73-.61-1.46-.89-2.21-1.19-3.09-2.83-6.78-1.19-10a3.23,3.23,0,0,1,1.22-1.49,5.47,5.47,0,0,1,1.83-.72,4.82,4.82,0,0,1,3.6.41,1,1,0,0,0,.21.1l.06.33A49.1,49.1,0,0,0,33.48,87.13ZM19.34,83A27.9,27.9,0,0,1,15,76.79a12.43,12.43,0,0,1-1.31-4.54,8.4,8.4,0,0,1,.41-3.46c.8-2.47,3.13-4.59,6-4a9.63,9.63,0,0,1,4.26,2.53,13.53,13.53,0,0,1,2.48,3,8.5,8.5,0,0,0-4.38.53A6,6,0,0,0,19,74.38C17.77,77.26,18.38,80.18,19.34,83ZM68,11.59C70,7.13,73.76,3.15,78.66,2.35A4.65,4.65,0,0,1,77.17,5a24.47,24.47,0,0,1-3.94,3Q70.57,9.75,68,11.59Zm-4,5.66c-1.27,7.88.53,16,.9,23.88a104.47,104.47,0,0,1-.23,13.59A43.17,43.17,0,0,1,63.86,61,15.07,15.07,0,0,1,61.69,66a14.14,14.14,0,0,1-6.4,5,51,51,0,0,1-8.35,2.74c-2.94.75-5.9,1.37-8.87,2-2.21.46-4.44.88-6.61,1.49a56.54,56.54,0,0,1-2-8.34c0-.19,0-.38-.07-.57h0a44.52,44.52,0,0,1,5.53-17.84c4.89-9.15,11.8-17,19-24.4A98.89,98.89,0,0,1,64,17.25ZM84.35,25a9.44,9.44,0,0,1,1.15-1.68A7,7,0,0,1,89.23,21a10.93,10.93,0,0,1-3.54,3.25C85.25,24.5,84.8,24.77,84.35,25Zm-9,29.48a38.55,38.55,0,0,0-9.06,5.24c.31-1.9.45-3.84.59-5.77a103,103,0,0,0,.19-12.3.79.79,0,0,0,.1-.27,10.86,10.86,0,0,1,3.56-5.29,26.93,26.93,0,0,1,4.8-3.5c1.74-1,3.48-2,5.23-3a82.94,82.94,0,0,0,0,8.78C80.76,44.28,78.21,49.52,75.38,54.52ZM90.8,47.77c-.45.26-.9.5-1.36.74a9.73,9.73,0,0,1,6-4.1A27.74,27.74,0,0,1,90.8,47.77ZM49.35,75.46l-.33,0,.67-.18a42,42,0,0,0,8.2-3.1,15.5,15.5,0,0,0,6.44-6.27,16.14,16.14,0,0,0,1-2.21.6.6,0,0,0,.12-.11,26.84,26.84,0,0,1,6.64-5c1.42-.78,2.89-1.48,4.39-2.13a1.39,1.39,0,0,0,.28-.12c2.62-1.13,5.33-2.14,8-3.23-.94,2.75-1.59,5.6-2.62,8.31A17,17,0,0,1,79,66.82a16.23,16.23,0,0,1-4.33,3.35,34.7,34.7,0,0,1-10.83,3.3c-4.67.78-9.4,1.28-14.1,1.89A1.64,1.64,0,0,0,49.35,75.46Zm31.94,12.2a56.74,56.74,0,0,0-5-3.85,23.24,23.24,0,0,1,7.2,2.4c3,1.58,6.08,4.27,6.35,7.79l-.09,0-.55-.17a11.13,11.13,0,0,1-2.3-1.3A72,72,0,0,1,81.29,87.66ZM57.55,85.34A27.64,27.64,0,0,1,51,87.25l-.49,0a.84.84,0,0,0-.48,0,22.6,22.6,0,0,1-16.45-5l-.19-.13c-.44-1-.84-1.94-1.22-2.93a53.78,53.78,0,0,1,14.67-1.7,56.22,56.22,0,0,1,21,4.12,26.6,26.6,0,0,0-3.61.94C62,83.4,59.78,84.44,57.55,85.34ZM84,124.47Zm-.67,0s0,0,0,0Zm-5.88-10.2c-.94-1.65-1.81-3.32-2.7-5a27.52,27.52,0,0,1,4.07,3.48,24,24,0,0,1,2.88,3.7,13.73,13.73,0,0,1,2.13,4.65,5.5,5.5,0,0,1-.06,2.32,3.14,3.14,0,0,1-.19.59l0,0c-.35-.46-.68-.94-1-1.42C80.73,119.85,79.06,117.05,77.46,114.23ZM47.25,100.64l-.53-.25c-1.76-2-3.54-3.93-5.25-6a61.36,61.36,0,0,1-5.84-8,25.27,25.27,0,0,0,9.31,3.08,23.68,23.68,0,0,0,5.32.06c.9.32,1.79.66,2.67,1a37.55,37.55,0,0,1,15.45,12.47c.14.19.26.38.39.57a40.17,40.17,0,0,0-8.42-2.21C56,100.76,51.62,101,47.25,100.64Zm15.86,93.83A50.3,50.3,0,0,1,60,202.32,39.29,39.29,0,0,1,55.67,209a33.51,33.51,0,0,1-2.7,3,7.4,7.4,0,0,1-2,1.47,22.17,22.17,0,0,1,1.08-3.19C54.64,204.35,59.17,199.55,63.11,194.47Zm.12-66v0a.78.78,0,0,0-.11-.28,84.07,84.07,0,0,0-5.16-12,71.66,71.66,0,0,0-7.55-11.47c1.54.82,3.06,1.69,4.52,2.65a44.6,44.6,0,0,1,8,6.75,51,51,0,0,1,10.64,17.64c5.13,14.34,3.77,30-2,43.93a73.75,73.75,0,0,1-3.7,7.58,125.32,125.32,0,0,0,1.08-15,137.45,137.45,0,0,0-.86-18A106.2,106.2,0,0,0,63.23,128.5ZM40,196.12s0,.07,0,0Zm0,0s0,0,0,0Zm-.65-.54Zm17.24-23.62s0,.07,0,.11a46.78,46.78,0,0,1-4,13.25A20.27,20.27,0,0,1,44.37,194a14.65,14.65,0,0,1-2.69,1.11,14.3,14.3,0,0,1-1.47.35h0c.08-.28.18-.57.29-.85a40.65,40.65,0,0,1,4.12-7.44,47.36,47.36,0,0,1,3-3.83c1.39-1.69,2.8-3.36,4.2-5.05C53.45,176.21,55.12,174.11,56.63,171.92Zm-3.14-44a174.91,174.91,0,0,0-15.36-24.16c-2.29-3-4.63-6.08-7.17-8.93,4.12,2.36,8.35,4.53,12.64,6.57l1.75.84c1.25,1.4,2.48,2.82,3.65,4.28a68.32,68.32,0,0,1,8.06,12.83,82.32,82.32,0,0,1,4,9.73v0q.51,3.15.76,6.33a85.06,85.06,0,0,1,0,13.73,58.79,58.79,0,0,1-1.38,9.11c0-.76.06-1.53.07-2.29A57.37,57.37,0,0,0,59,141.57,61.32,61.32,0,0,0,53.49,127.87Zm-5.32,20.65c0,.12-.05.24-.08.36A33.8,33.8,0,0,1,38,165.47a13.8,13.8,0,0,1,2.25-7C42.43,154.8,45.4,151.72,48.17,148.52ZM26,92.75c.72.71,1.43,1.43,2.13,2.17a121.08,121.08,0,0,1,8.56,10.48,174,174,0,0,1,15.27,24.25c.75,1.45,1.45,2.91,2.11,4.4a20.1,20.1,0,0,1-2.88,7l0,0a38.28,38.28,0,0,0-4-15.28c-3.49-7.22-8.56-13.44-13.13-20A118.77,118.77,0,0,1,26,92.75ZM22.3,60.87a1,1,0,0,0,.38.29,9.41,9.41,0,0,1,.76.63,14.33,14.33,0,0,1,2.84,3.37,7.26,7.26,0,0,1,.64,1.7c-.13-.14-.25-.28-.38-.41-2.46-2.58-5.86-4.69-9.53-3.61a8.12,8.12,0,0,0-5.36,6.46c-.87,4.32.84,8.32,3.34,11.84l-.52-.47a21.11,21.11,0,0,1-5.9-8.43,12.55,12.55,0,0,1-.09-8.75c1-2.46,3.63-4.76,6.39-4.94A12,12,0,0,1,22.3,60.87ZM3.81,49.41A47.86,47.86,0,0,0,12.88,48c2.81-.63,5.59-1.24,8.46-.54a9.56,9.56,0,0,1,6.09,4.22s.23.46.22.43a.87.87,0,0,1,.07.17c.05.19.11.38.15.57A7,7,0,0,1,28,53.94a31.09,31.09,0,0,1,.06,3.48c-.06,2-.26,4-.3,5.95A16.28,16.28,0,0,0,26,61.19a17.49,17.49,0,0,0-2-1.78,11.64,11.64,0,0,0-4.77-4.66A14.59,14.59,0,0,0,14,53.25a16.59,16.59,0,0,0-2.34-.07q-.59,0-1.17.09l-.62.08-.17,0H9.36l-.13,0a4.28,4.28,0,0,1-.51-.15,5.85,5.85,0,0,1-.88-.43,15.18,15.18,0,0,1-2.15-1.6C5,50.61,4.42,50,3.81,49.41Z"/></g></g></svg>