<svg version="1.2" xmlns="http://www.w3.org/2000/svg" viewBox="0 0 346 92" width="346" height="92">
	<title>&lt;Group&gt;</title>
	<defs>
		<linearGradient id="g1" x1="343.5" y1="91.2" x2="770.3" y2="91.2" gradientUnits="userSpaceOnUse">
			<stop offset="0" stop-color="#a08256"/>
			<stop offset=".3" stop-color="#b59973"/>
			<stop offset=".5" stop-color="#c7ae8d"/>
			<stop offset=".7" stop-color="#c7a67c"/>
			<stop offset="1" stop-color="#c7a06c"/>
		</linearGradient>
		<linearGradient id="g2" x1="343.6" y1="92.6" x2="758.5" y2="92.6" gradientUnits="userSpaceOnUse">
			<stop offset="0" stop-color="#a08256"/>
			<stop offset=".3" stop-color="#b59973"/>
			<stop offset=".5" stop-color="#c7ae8d"/>
			<stop offset=".7" stop-color="#c7a67c"/>
			<stop offset="1" stop-color="#c7a06c"/>
		</linearGradient>
		<linearGradient id="g3" x1="343.3" y1="94.2" x2="746.1" y2="94.2" gradientUnits="userSpaceOnUse">
			<stop offset="0" stop-color="#a08256"/>
			<stop offset=".3" stop-color="#b59973"/>
			<stop offset=".5" stop-color="#c7ae8d"/>
			<stop offset=".7" stop-color="#c7a67c"/>
			<stop offset="1" stop-color="#c7a06c"/>
		</linearGradient>
		<linearGradient id="g4" x1="343" y1="95.7" x2="733.4" y2="95.7" gradientUnits="userSpaceOnUse">
			<stop offset="0" stop-color="#a08256"/>
			<stop offset=".3" stop-color="#b59973"/>
			<stop offset=".5" stop-color="#c7ae8d"/>
			<stop offset=".7" stop-color="#c7a67c"/>
			<stop offset="1" stop-color="#c7a06c"/>
		</linearGradient>
		<linearGradient id="g5" x1="342.7" y1="97.1" x2="721.9" y2="97.1" gradientUnits="userSpaceOnUse">
			<stop offset="0" stop-color="#a08256"/>
			<stop offset=".3" stop-color="#b59973"/>
			<stop offset=".5" stop-color="#c7ae8d"/>
			<stop offset=".7" stop-color="#c7a67c"/>
			<stop offset="1" stop-color="#c7a06c"/>
		</linearGradient>
		<linearGradient id="g6" x1="342.4" y1="98.6" x2="710.6" y2="98.6" gradientUnits="userSpaceOnUse">
			<stop offset="0" stop-color="#a08256"/>
			<stop offset=".3" stop-color="#b59973"/>
			<stop offset=".5" stop-color="#c7ae8d"/>
			<stop offset=".7" stop-color="#c7a67c"/>
			<stop offset="1" stop-color="#c7a06c"/>
		</linearGradient>
		<linearGradient id="g7" x1="342.1" y1="100.2" x2="700.7" y2="100.2" gradientUnits="userSpaceOnUse">
			<stop offset="0" stop-color="#a08256"/>
			<stop offset=".3" stop-color="#b59973"/>
			<stop offset=".5" stop-color="#c7ae8d"/>
			<stop offset=".7" stop-color="#c7a67c"/>
			<stop offset="1" stop-color="#c7a06c"/>
		</linearGradient>
		<linearGradient id="g8" x1="341.2" y1="101.6" x2="690" y2="101.6" gradientUnits="userSpaceOnUse">
			<stop offset="0" stop-color="#a08256"/>
			<stop offset=".3" stop-color="#b59973"/>
			<stop offset=".5" stop-color="#c7ae8d"/>
			<stop offset=".7" stop-color="#c7a67c"/>
			<stop offset="1" stop-color="#c7a06c"/>
		</linearGradient>
		<linearGradient id="g9" x1="338.6" y1="103.1" x2="678.6" y2="103.1" gradientUnits="userSpaceOnUse">
			<stop offset="0" stop-color="#a08256"/>
			<stop offset=".3" stop-color="#b59973"/>
			<stop offset=".5" stop-color="#c7ae8d"/>
			<stop offset=".7" stop-color="#c7a67c"/>
			<stop offset="1" stop-color="#c7a06c"/>
		</linearGradient>
		<linearGradient id="g10" x1="334.5" y1="104.6" x2="668.1" y2="104.6" gradientUnits="userSpaceOnUse">
			<stop offset="0" stop-color="#a08256"/>
			<stop offset=".3" stop-color="#b59973"/>
			<stop offset=".5" stop-color="#c7ae8d"/>
			<stop offset=".7" stop-color="#c7a67c"/>
			<stop offset="1" stop-color="#c7a06c"/>
		</linearGradient>
		<linearGradient id="g11" x1="330.8" y1="106.1" x2="658" y2="106.1" gradientUnits="userSpaceOnUse">
			<stop offset="0" stop-color="#a08256"/>
			<stop offset=".3" stop-color="#b59973"/>
			<stop offset=".5" stop-color="#c7ae8d"/>
			<stop offset=".7" stop-color="#c7a67c"/>
			<stop offset="1" stop-color="#c7a06c"/>
		</linearGradient>
		<linearGradient id="g12" x1="325.8" y1="107.7" x2="650.3" y2="107.7" gradientUnits="userSpaceOnUse">
			<stop offset="0" stop-color="#a08256"/>
			<stop offset=".3" stop-color="#b59973"/>
			<stop offset=".5" stop-color="#c7ae8d"/>
			<stop offset=".7" stop-color="#c7a67c"/>
			<stop offset="1" stop-color="#c7a06c"/>
		</linearGradient>
		<linearGradient id="g13" x1="320.2" y1="109.2" x2="643.9" y2="109.2" gradientUnits="userSpaceOnUse">
			<stop offset="0" stop-color="#a08256"/>
			<stop offset=".3" stop-color="#b59973"/>
			<stop offset=".5" stop-color="#c7ae8d"/>
			<stop offset=".7" stop-color="#c7a67c"/>
			<stop offset="1" stop-color="#c7a06c"/>
		</linearGradient>
		<linearGradient id="g14" x1="314.7" y1="110.6" x2="636.6" y2="110.6" gradientUnits="userSpaceOnUse">
			<stop offset="0" stop-color="#a08256"/>
			<stop offset=".3" stop-color="#b59973"/>
			<stop offset=".5" stop-color="#c7ae8d"/>
			<stop offset=".7" stop-color="#c7a67c"/>
			<stop offset="1" stop-color="#c7a06c"/>
		</linearGradient>
		<linearGradient id="g15" x1="307.7" y1="112.1" x2="629.4" y2="112.1" gradientUnits="userSpaceOnUse">
			<stop offset="0" stop-color="#a08256"/>
			<stop offset=".3" stop-color="#b59973"/>
			<stop offset=".5" stop-color="#c7ae8d"/>
			<stop offset=".7" stop-color="#c7a67c"/>
			<stop offset="1" stop-color="#c7a06c"/>
		</linearGradient>
		<linearGradient id="g16" x1="300.2" y1="113.6" x2="623.6" y2="113.6" gradientUnits="userSpaceOnUse">
			<stop offset="0" stop-color="#a08256"/>
			<stop offset=".3" stop-color="#b59973"/>
			<stop offset=".5" stop-color="#c7ae8d"/>
			<stop offset=".7" stop-color="#c7a67c"/>
			<stop offset="1" stop-color="#c7a06c"/>
		</linearGradient>
		<linearGradient id="g17" x1="292.4" y1="115.1" x2="618.9" y2="115.1" gradientUnits="userSpaceOnUse">
			<stop offset="0" stop-color="#a08256"/>
			<stop offset=".3" stop-color="#b59973"/>
			<stop offset=".5" stop-color="#c7ae8d"/>
			<stop offset=".7" stop-color="#c7a67c"/>
			<stop offset="1" stop-color="#c7a06c"/>
		</linearGradient>
		<linearGradient id="g18" x1="284.3" y1="116.6" x2="614.7" y2="116.6" gradientUnits="userSpaceOnUse">
			<stop offset="0" stop-color="#a08256"/>
			<stop offset=".3" stop-color="#b59973"/>
			<stop offset=".5" stop-color="#c7ae8d"/>
			<stop offset=".7" stop-color="#c7a67c"/>
			<stop offset="1" stop-color="#c7a06c"/>
		</linearGradient>
		<linearGradient id="g19" x1="276.6" y1="118" x2="610.9" y2="118" gradientUnits="userSpaceOnUse">
			<stop offset="0" stop-color="#a08256"/>
			<stop offset=".3" stop-color="#b59973"/>
			<stop offset=".5" stop-color="#c7ae8d"/>
			<stop offset=".7" stop-color="#c7a67c"/>
			<stop offset="1" stop-color="#c7a06c"/>
		</linearGradient>
		<linearGradient id="g20" x1="262.3" y1="119.4" x2="606.7" y2="119.4" gradientUnits="userSpaceOnUse">
			<stop offset="0" stop-color="#a08256"/>
			<stop offset=".3" stop-color="#b59973"/>
			<stop offset=".5" stop-color="#c7ae8d"/>
			<stop offset=".7" stop-color="#c7a67c"/>
			<stop offset="1" stop-color="#c7a06c"/>
		</linearGradient>
		<linearGradient id="g21" x1="243" y1="120.6" x2="602.3" y2="120.6" gradientUnits="userSpaceOnUse">
			<stop offset="0" stop-color="#a08256"/>
			<stop offset=".3" stop-color="#b59973"/>
			<stop offset=".5" stop-color="#c7ae8d"/>
			<stop offset=".7" stop-color="#c7a67c"/>
			<stop offset="1" stop-color="#c7a06c"/>
		</linearGradient>
		<linearGradient id="g22" x1="223.7" y1="121.8" x2="597.9" y2="121.8" gradientUnits="userSpaceOnUse">
			<stop offset="0" stop-color="#a08256"/>
			<stop offset=".3" stop-color="#b59973"/>
			<stop offset=".5" stop-color="#c7ae8d"/>
			<stop offset=".7" stop-color="#c7a67c"/>
			<stop offset="1" stop-color="#c7a06c"/>
		</linearGradient>
		<linearGradient id="g23" x1="204.4" y1="123" x2="593.6" y2="123" gradientUnits="userSpaceOnUse">
			<stop offset="0" stop-color="#a08256"/>
			<stop offset=".3" stop-color="#b59973"/>
			<stop offset=".5" stop-color="#c7ae8d"/>
			<stop offset=".7" stop-color="#c7a67c"/>
			<stop offset="1" stop-color="#c7a06c"/>
		</linearGradient>
		<linearGradient id="g24" x1="185.1" y1="124" x2="589.4" y2="124" gradientUnits="userSpaceOnUse">
			<stop offset="0" stop-color="#a08256"/>
			<stop offset=".3" stop-color="#b59973"/>
			<stop offset=".5" stop-color="#c7ae8d"/>
			<stop offset=".7" stop-color="#c7a67c"/>
			<stop offset="1" stop-color="#c7a06c"/>
		</linearGradient>
		<linearGradient id="g25" x1="165.9" y1="125" x2="585.6" y2="125" gradientUnits="userSpaceOnUse">
			<stop offset="0" stop-color="#a08256"/>
			<stop offset=".3" stop-color="#b59973"/>
			<stop offset=".5" stop-color="#c7ae8d"/>
			<stop offset=".7" stop-color="#c7a67c"/>
			<stop offset="1" stop-color="#c7a06c"/>
		</linearGradient>
		<linearGradient id="g26" x1="146.6" y1="126" x2="581.2" y2="126" gradientUnits="userSpaceOnUse">
			<stop offset="0" stop-color="#a08256"/>
			<stop offset=".3" stop-color="#b59973"/>
			<stop offset=".5" stop-color="#c7ae8d"/>
			<stop offset=".7" stop-color="#c7a67c"/>
			<stop offset="1" stop-color="#c7a06c"/>
		</linearGradient>
		<linearGradient id="g27" x1="127.3" y1="126.9" x2="575.5" y2="126.9" gradientUnits="userSpaceOnUse">
			<stop offset="0" stop-color="#a08256"/>
			<stop offset=".3" stop-color="#b59973"/>
			<stop offset=".5" stop-color="#c7ae8d"/>
			<stop offset=".7" stop-color="#c7a67c"/>
			<stop offset="1" stop-color="#c7a06c"/>
		</linearGradient>
		<linearGradient id="g28" x1="108" y1="118.3" x2="571.1" y2="118.3" gradientUnits="userSpaceOnUse">
			<stop offset="0" stop-color="#a08256"/>
			<stop offset=".3" stop-color="#b59973"/>
			<stop offset=".5" stop-color="#c7ae8d"/>
			<stop offset=".7" stop-color="#c7a67c"/>
			<stop offset="1" stop-color="#c7a06c"/>
		</linearGradient>
		<linearGradient id="g29" x1="88.7" y1="105.4" x2="566.7" y2="105.4" gradientUnits="userSpaceOnUse">
			<stop offset="0" stop-color="#a08256"/>
			<stop offset=".3" stop-color="#b59973"/>
			<stop offset=".5" stop-color="#c7ae8d"/>
			<stop offset=".7" stop-color="#c7a67c"/>
			<stop offset="1" stop-color="#c7a06c"/>
		</linearGradient>
		<linearGradient id="g30" x1="69.4" y1="90.8" x2="562.4" y2="90.8" gradientUnits="userSpaceOnUse">
			<stop offset="0" stop-color="#a08256"/>
			<stop offset=".3" stop-color="#b59973"/>
			<stop offset=".5" stop-color="#c7ae8d"/>
			<stop offset=".7" stop-color="#c7a67c"/>
			<stop offset="1" stop-color="#c7a06c"/>
		</linearGradient>
		<linearGradient id="g31" x1="50.1" y1="77.8" x2="559.4" y2="77.8" gradientUnits="userSpaceOnUse">
			<stop offset="0" stop-color="#a08256"/>
			<stop offset=".3" stop-color="#b59973"/>
			<stop offset=".5" stop-color="#c7ae8d"/>
			<stop offset=".7" stop-color="#c7a67c"/>
			<stop offset="1" stop-color="#c7a06c"/>
		</linearGradient>
		<linearGradient id="g32" x1="30.8" y1="66" x2="555" y2="66" gradientUnits="userSpaceOnUse">
			<stop offset="0" stop-color="#a08256"/>
			<stop offset=".3" stop-color="#b59973"/>
			<stop offset=".5" stop-color="#c7ae8d"/>
			<stop offset=".7" stop-color="#c7a67c"/>
			<stop offset="1" stop-color="#c7a06c"/>
		</linearGradient>
		<linearGradient id="g33" x1="11.5" y1="52.3" x2="550.7" y2="52.3" gradientUnits="userSpaceOnUse">
			<stop offset="0" stop-color="#a08256"/>
			<stop offset=".3" stop-color="#b59973"/>
			<stop offset=".5" stop-color="#c7ae8d"/>
			<stop offset=".7" stop-color="#c7a67c"/>
			<stop offset="1" stop-color="#c7a06c"/>
		</linearGradient>
		<linearGradient id="g34" x1="-7.8" y1="38.9" x2="546.3" y2="38.9" gradientUnits="userSpaceOnUse">
			<stop offset="0" stop-color="#a08256"/>
			<stop offset=".3" stop-color="#b59973"/>
			<stop offset=".5" stop-color="#c7ae8d"/>
			<stop offset=".7" stop-color="#c7a67c"/>
			<stop offset="1" stop-color="#c7a06c"/>
		</linearGradient>
		<linearGradient id="g35" x1="-27.1" y1="25.3" x2="541.3" y2="25.3" gradientUnits="userSpaceOnUse">
			<stop offset="0" stop-color="#a08256"/>
			<stop offset=".3" stop-color="#b59973"/>
			<stop offset=".5" stop-color="#c7ae8d"/>
			<stop offset=".7" stop-color="#c7a67c"/>
			<stop offset="1" stop-color="#c7a06c"/>
		</linearGradient>
		<linearGradient id="g36" x1="-46.4" y1="11.5" x2="536.8" y2="11.5" gradientUnits="userSpaceOnUse">
			<stop offset="0" stop-color="#a08256"/>
			<stop offset=".3" stop-color="#b59973"/>
			<stop offset=".5" stop-color="#c7ae8d"/>
			<stop offset=".7" stop-color="#c7a67c"/>
			<stop offset="1" stop-color="#c7a06c"/>
		</linearGradient>
		<linearGradient id="g37" x1="-66.4" y1="-2.1" x2="531.8" y2="-2.1" gradientUnits="userSpaceOnUse">
			<stop offset="0" stop-color="#a08256"/>
			<stop offset=".3" stop-color="#b59973"/>
			<stop offset=".5" stop-color="#c7ae8d"/>
			<stop offset=".7" stop-color="#c7a67c"/>
			<stop offset="1" stop-color="#c7a06c"/>
		</linearGradient>
	</defs>
	<style>
		.s0 { fill: url(#g1) } 
		.s1 { fill: url(#g2) } 
		.s2 { fill: url(#g3) } 
		.s3 { fill: url(#g4) } 
		.s4 { fill: url(#g5) } 
		.s5 { fill: url(#g6) } 
		.s6 { fill: url(#g7) } 
		.s7 { fill: url(#g8) } 
		.s8 { fill: url(#g9) } 
		.s9 { fill: url(#g10) } 
		.s10 { fill: url(#g11) } 
		.s11 { fill: url(#g12) } 
		.s12 { fill: url(#g13) } 
		.s13 { fill: url(#g14) } 
		.s14 { fill: url(#g15) } 
		.s15 { fill: url(#g16) } 
		.s16 { fill: url(#g17) } 
		.s17 { fill: url(#g18) } 
		.s18 { fill: url(#g19) } 
		.s19 { fill: url(#g20) } 
		.s20 { fill: url(#g21) } 
		.s21 { fill: url(#g22) } 
		.s22 { fill: url(#g23) } 
		.s23 { fill: url(#g24) } 
		.s24 { fill: url(#g25) } 
		.s25 { fill: url(#g26) } 
		.s26 { fill: url(#g27) } 
		.s27 { fill: url(#g28) } 
		.s28 { fill: url(#g29) } 
		.s29 { fill: url(#g30) } 
		.s30 { fill: url(#g31) } 
		.s31 { fill: url(#g32) } 
		.s32 { fill: url(#g33) } 
		.s33 { fill: url(#g34) } 
		.s34 { fill: url(#g35) } 
		.s35 { fill: url(#g36) } 
		.s36 { fill: url(#g37) } 
	</style>
	<g id="&lt;Group&gt;">
		<g id="&lt;Group&gt;">
			<g id="&lt;Group&gt;">
				<g id="&lt;Group&gt;">
					<path id="&lt;Path&gt;" class="s0" d="m629.5 93.5q3.4 4.8 7 9.4c13.5 17.7 27.7 34.9 41.6 52.3 16.1 20.3 32.1 40.7 47.1 61.9 13.3 18.8 26.5 38.3 36.1 59.3 3.5 7.6 6.6 15.5 8.1 23.7 2.6 14.4 2.9 29.3 1.5 43.8-2.8 30.3-13.2 59.6-28 86-15.1 26.8-34.9 50.6-58.3 70.4-22.8 19.2-48.1 34.7-75.1 47.3-27.8 12.9-56.6 23.7-84.7 36.1-31.9 13.9-63.7 28.1-94.3 44.6-30.5 16.4-59.8 35.3-85.9 58.3-0.5 0.5-1.3 0-1.2-0.8q0.9-5.8 1.8-11.7c6.4-42.2 12.4-84.8 24.9-125.7 5.7-18.5 12.6-37.4 23.9-53.2 4.4-6.1 9.5-11.8 15.7-16 3.3-2.3 7-3.9 10.7-5.5q7.7-3.4 15.2-7.1c42.2-20.7 81.2-48.5 113.8-82.4 34.1-35.5 61-78.1 75.6-125.3 16.6-53.5 16.3-110.5 3.1-164.8-0.2-0.9 1.2-1.3 1.5-0.4q2.7 11.1 4.7 22.3c9.4 52.8 5.9 107.5-12.8 158-16.9 45.6-45.1 86.3-79.9 120.1-33.4 32.6-72.8 59-115.2 78.5-7.8 3.6-15.3 6.5-21.7 12.5-6.2 5.7-11 12.7-15.2 20-10.5 18.3-16.9 38.8-22.3 59-10.6 40.1-15.9 81.3-22.4 122.1q-0.6-0.3-1.2-0.7 9-7.9 18.4-15.2c27.3-21.1 57.2-38.4 88-53.8 30.5-15.3 61.8-29.2 93.2-42.4 26.9-11.4 54.3-21.7 80.3-35 27-13.8 52.3-31.3 74-52.5 43.4-42.2 74.7-103.2 72.6-164.7-0.4-11.2-1.7-22.4-5.3-33-3.3-9.3-7.7-18.2-12.5-26.8-11.8-21.3-25.9-41.2-40.4-60.7-15.3-20.6-31.3-40.7-47.4-60.7-12.3-15.3-24.8-30.5-36.3-46.4-0.6-0.8 0.7-1.5 1.3-0.8z"/>
				</g>
			</g>
			<g id="&lt;Group&gt;">
				<g id="&lt;Group&gt;">
					<path id="&lt;Path&gt;" class="s1" d="m610.3 95.2q2.7 10.7 4.7 21.6c9.5 50.7 6.7 103.3-10.8 151.9-15.8 43.9-42.6 83.1-75.9 115.6-32.1 31.3-69.9 56.7-110.6 75.6-7.4 3.4-14.3 6.2-20.2 12-5.7 5.6-10.1 12.4-13.8 19.4-9.6 18-15.3 37.9-20 57.6-9.5 39.5-13.8 80-19.1 120.3q-0.7-0.3-1.3-0.6 9.1-7.6 18.7-14.6c27.2-19.9 56.9-36.1 87.3-50.4 30.2-14.2 61.1-27 92.3-39 27-10.4 54.7-19.7 80.9-32.3 26.9-12.9 53.2-29.5 73.8-51.4 20.8-22.1 37.3-48.4 48.1-76.8 10.8-28.2 16-58.8 13-88.9-1.1-10.3-3.1-20.1-6.9-29.7-3.8-9.4-8.6-18.5-13.7-27.3-12.4-21.2-27-41.2-42-60.6-15.3-19.9-31.4-39.2-47.8-58.2-12.5-14.6-25.3-29-38-43.5-0.6-0.7 0.4-1.8 1.1-1q3.8 4.4 7.6 8.7c14.3 16.2 28.5 32.4 42.4 48.9 16.6 19.6 32.9 39.6 48.1 60.4 13.9 18.8 27.3 38.2 37.8 59.2 4 7.9 7.6 16.2 9.9 24.9 3.3 12.6 4.1 26.1 3.8 39.1-0.6 30.1-8.7 59.8-21.8 86.8-6.7 13.8-14.6 26.9-23.8 39.1-8.6 11.5-18.2 22.9-29.2 32.1-22.8 19.1-48.6 34.2-75.9 46-27.4 11.8-55.8 21.2-83.5 32.5-32.1 12.9-64.1 26.2-94.9 41.8-30.5 15.5-59.9 33.4-86.2 55.3-0.5 0.3-1.4 0.2-1.3-0.5q0.7-5.8 1.4-11.6c5.2-41.2 10.2-82.7 21.2-122.8 5-18 11.1-36.5 21.4-52.2 3.9-6 8.5-11.7 14.3-16 2.8-2.1 5.9-3.7 9.2-5.1q7.4-3.3 14.6-6.9c40.8-19.9 78.5-46.6 110-79.4 32.7-34 58.3-74.9 72-120.2 15.7-51.9 14.8-107.1 1.6-159.4-0.2-0.9 1.2-1.3 1.5-0.4z"/>
				</g>
			</g>
			<g id="&lt;Group&gt;">
				<g id="&lt;Group&gt;">
					<path id="&lt;Path&gt;" class="s2" d="m591 96.7q2.7 10.4 4.8 21c9.5 48.8 7.4 99.6-9.2 146.7-14.9 42.2-40.6 79.8-72.5 110.8-30.8 30.1-67.3 54.4-106.3 72.5-6.8 3.2-12.8 6-17.9 11.6-5.2 5.6-9.1 12.3-12.5 19.1-8.5 17.7-13.4 37.1-17.5 56.2-8.1 38.8-11.5 78.3-15.6 117.7q-0.7-0.3-1.3-0.6 9.4-7.3 19.2-14c27.5-18.9 57.3-34.2 87.8-47.5 30.3-13.2 61.2-25 92.4-35.8 26.8-9.3 54.2-17.4 80.1-29.1 13-5.9 25.6-12.7 37.6-20.6 6.8-4.4 14-9 20.1-14.4 5.3-4.6 10-10 14.6-15.3 19.3-22.7 33.8-49.6 42.5-78.1 8.9-29.1 11.7-60.2 6.3-90.3-3.4-19-12.9-36.5-22.9-52.8-12.8-20.9-27.5-40.6-42.9-59.6-15.4-19.3-31.7-37.9-48.4-56.1-12.9-13.9-26-27.6-39.7-40.7-0.7-0.6 0.4-1.7 1.1-1q4.1 3.9 8.1 7.9c15.1 15 29.7 30.5 43.9 46.3 16.8 18.9 33.1 38.2 48.5 58.3 14.3 18.7 28.1 38.1 39.3 59 4.4 8.2 8.4 16.6 11.3 25.5 3.7 11.2 5.1 23.2 5.7 35 1.5 30-4.3 60.1-15.6 87.9-10.9 26.7-27 51.6-47.5 71.9-5.4 5.5-12 9.9-18.3 14.3q-9.3 6.3-19.1 11.9c-12.1 7-24.8 12.9-37.7 18.1-27.4 11-55.9 19.2-83.6 29.4-32 11.7-63.9 23.9-94.7 38.5-30.7 14.5-60.3 31.5-87 52.4-0.5 0.4-1.4 0.2-1.3-0.5q0.6-5.7 1.1-11.4c4-40.2 8-80.7 17.6-120 4.3-17.5 9.6-35.5 18.9-51.1 3.5-5.9 7.7-11.6 13-15.9 6.3-5.1 14.4-7.8 21.6-11.3 39.1-19.2 75.4-44.6 105.7-76 31.3-32.6 55.8-71.9 68.6-115.4 14.9-50.3 13.3-103.6 0.2-154.1-0.2-0.9 1.2-1.3 1.5-0.4z"/>
				</g>
			</g>
			<g id="&lt;Group&gt;">
				<g id="&lt;Group&gt;">
					<path id="&lt;Path&gt;" class="s3" d="m571.7 98.2q2.7 10.1 4.8 20.4c9.6 46.9 8.3 96-7.5 141.5-13.9 40.3-38.4 76.3-69 106-29.6 28.8-64.6 51.9-102 69.4-6.2 2.8-11.2 5.8-15.7 11.1-4.6 5.6-8.1 12.2-11 18.8-7.5 17.4-11.7 36.3-15 54.9-6.9 38-9.4 76.6-12.3 115.1q-0.6-0.3-1.1-0.6 9.8-7.3 20.1-13.8c27.5-17.6 57.1-31.7 87.3-43.9 30.3-12.2 61.3-23 92.6-32.5 26.7-8.1 54-15.1 79.7-26.1 13.3-5.6 26-12.3 38.2-20 6.5-4.1 13.3-8.3 18.6-13.9q7.4-7.7 13.8-16.3c17.4-23.2 29.6-50.2 36.1-78.5 6.5-28.3 7.7-59.2 0.7-87.6-4.7-18.8-14.9-36.3-25.3-52.6-13.3-20.6-28.3-40.1-44.1-58.9-15.5-18.6-31.9-36.6-49-53.8-13.1-13.2-26.6-26.3-41.2-38-0.7-0.6 0.3-1.6 1.1-1q4.4 3.5 8.7 7.3c15.8 13.7 30.6 28.5 45 43.6 17.4 18.3 34 37.2 49.6 57 14.7 18.5 28.7 37.7 40.4 58.3 4.7 8.4 9.1 17.1 12.5 26.1 3.9 10.2 5.9 20.8 7.1 31.5 3.4 29.8-0.2 60.2-9.7 88.6-9 26.7-23.1 51.9-42.2 72.8-2.3 2.4-4.5 5.2-7.3 7.1q-4.9 3.6-9.9 6.9-9.4 6.3-19.4 11.7c-12.1 6.5-24.7 12.1-37.6 16.8-27.3 10.1-55.6 17-83.2 26-32 10.4-64 21.8-94.9 35.4-30.5 13.4-60 29.3-87 49.1-0.4 0.3-1.1-0.2-1.1-0.7q0.4-5.6 0.8-11.3c2.9-39.2 5.9-78.7 14.1-117.2 3.6-17 8.1-34.5 16.4-49.9 3-5.8 6.8-11.4 11.6-15.8 5.6-5 12.9-7.4 19.5-10.7 37.5-18.4 72.3-42.6 101.3-72.7 30-31.2 53.3-68.8 65.3-110.5 14-48.7 11.7-100.1-1.3-148.7-0.2-0.9 1.2-1.3 1.5-0.4z"/>
				</g>
			</g>
			<g id="&lt;Group&gt;">
				<g id="&lt;Group&gt;">
					<path id="&lt;Path&gt;" class="s4" d="m552.4 99.7q2.7 9.8 4.8 19.7c9.7 45.1 9.1 92.3-5.7 136.2-13.1 38.6-36.4 73-65.5 101.3-28.3 27.5-61.9 49.5-97.6 66.3-5.6 2.6-9.9 5.9-13.5 10.9-4.2 5.6-7.2 12.1-9.6 18.6-6.5 17-9.9 35.3-12.6 53.2-5.6 37.3-7.2 75-9 112.6q-0.6-0.3-1.1-0.6 9.9-6.8 20.3-13c27.5-16.4 56.9-29.4 86.9-40.5 30.2-11.2 61.1-20.8 92.2-28.9 26.5-7 53.5-12.8 79.1-22.8 13.6-5.3 26.7-11.8 39.2-19.3 3.3-2.1 6.6-4.1 9.8-6.3 2.9-2.1 5.2-5 7.5-7.6 4.5-5.3 8.7-10.9 12.5-16.7 15.9-24 25.9-51.6 30.3-79.9 2.3-15 3-30.2 2.1-45.2-0.8-13-2.5-26.4-6.4-38.8-5.9-19-16.4-36.5-27.3-52.9-13.5-20.4-28.8-39.5-44.8-57.9-15.7-18.1-32.3-35.4-49.7-51.8-13.6-12.8-27.6-25.3-43-35.8-0.8-0.5-0.1-1.8 0.7-1.2q4.7 3.2 9.2 6.6c16.3 12.4 31.4 26.4 46 40.8 17.6 17.4 34.4 35.7 50.2 54.9 15.1 18.3 29.4 37.4 41.6 57.7 10.3 17.1 18.6 34.8 22.1 54.5 5.3 29.5 4.1 60-3.2 89.1-6.9 27.1-19.1 53-36.8 74.7q-3.3 4-6.7 7.7c-2.6 2.7-5.7 4.5-8.9 6.5q-9.5 6.1-19.6 11.4c-12.2 6.3-25 11.5-38 15.9-27.2 9-55.3 14.7-82.8 22.5-31.7 9-63.2 19.2-93.8 31.5-30.8 12.4-60.6 27.4-88 46.1-0.4 0.3-1.1-0.1-1.1-0.7q0.3-5.5 0.5-11.1c1.8-38.3 3.8-76.8 10.6-114.5 3-16.6 6.7-33.5 14-48.8 2.7-5.6 5.9-11.1 10.3-15.5 4.9-4.9 11.3-7.2 17.4-10.3 35.7-17.6 69.1-40.7 96.9-69.5 28.6-29.6 50.7-65.6 61.8-105.4 13.1-47 10.2-96.6-2.8-143.3-0.2-0.9 1.2-1.3 1.5-0.4z"/>
				</g>
			</g>
			<g id="&lt;Group&gt;">
				<g id="&lt;Group&gt;">
					<path id="&lt;Path&gt;" class="s5" d="m533.1 101.2q2.7 9.5 4.9 19.1c9.7 43.3 9.8 88.9-4.3 131.4-12.2 36.8-34.3 69.4-62.1 96.2-13.5 13.1-28.4 24.9-44 35.4-15.7 10.5-32.3 19.4-49.2 27.8-10.6 5.2-15.7 18.3-19.1 28.8-5.5 16.9-8.2 34.8-10.3 52.4-4.2 36.3-4.9 72.8-5.6 109.3q-0.6-0.3-1.1-0.6 10-6.4 20.4-12.1c27.8-15.3 57.3-27.4 87.4-37.4 30.1-10 60.7-18.4 91.7-25.1 26.5-5.8 53.4-10.5 79-19.7 13.7-5 27-11.2 39.7-18.6 3.3-2 6.4-3.8 9-6.7q3.4-3.9 6.4-8c4-5.3 7.6-10.8 10.9-16.6 14.1-24.9 21.8-53.2 23.9-81.7 1.2-15.1 0.8-30.3-1.1-45.3-1.5-11.6-3.6-23.3-7.6-34.3-7-19.2-17.9-36.9-29.5-53.6-13.9-20.1-29.5-39-45.9-57-15.8-17.5-32.5-34.1-50.2-49.6-13.9-12.2-28.4-24.1-44.4-33.3-0.9-0.4-0.1-1.7 0.7-1.2q5 2.8 9.7 6c16.9 11.3 32.5 24.6 47.3 38.5 17.9 16.6 34.8 34.4 50.7 52.9 15.5 18 30.1 36.9 42.7 57 10 15.9 19.5 33 23.9 51.4 6.9 29.1 7.8 60 2.6 89.4-4.7 27.3-14.7 54-31.1 76.4-3.6 5-7.5 11-12.8 14.2q-9.7 6.1-20 11.1c-12.3 6.1-25.2 11-38.4 15-27 8.1-54.9 12.5-82.3 19-31.7 7.6-63.2 16.8-93.9 28-30.6 11.3-60.4 25.1-88.1 42.6-0.4 0.3-1.1-0.1-1.1-0.7q0.1-5.4 0.2-10.9c0.8-37.2 1.8-74.7 7.2-111.6 2.3-16.2 5.3-32.9 11.7-48.1 2.3-5.4 5.1-10.7 9-15.2 4.1-4.7 9.6-6.9 15.2-9.7 33.8-16.8 65.6-38.6 92-65.8 27.4-28.3 48.4-62.7 58.7-100.9 12.2-45.4 8.6-93-4.3-137.8-0.3-0.9 1.2-1.3 1.5-0.4z"/>
				</g>
			</g>
			<g id="&lt;Group&gt;">
				<g id="&lt;Group&gt;">
					<path id="&lt;Path&gt;" class="s6" d="m513.7 102.7q2.8 9.1 5 18.4c9.8 41.4 10.7 85.2-2.4 126-11.3 34.9-32.2 65.9-58.5 91.3-13 12.6-27.3 23.9-42.3 33.9q-11.2 7.5-22.9 14.1c-7.4 4.2-15.2 7.8-22.7 11.9-4.2 2.4-7.2 6.5-9.5 10.6-3.1 5.7-5.2 11.9-6.9 18.2-4.5 16.4-6.5 33.5-7.9 50.3-3 35.7-2.8 71.6-2.5 107.4q-0.5-0.3-1.1-0.7 10.1-5.9 20.6-11.2c27.9-14.1 57.3-25.1 87.3-34 30.1-8.8 60.7-16 91.5-21.3 26.6-4.6 53.6-8.2 79.3-16.7 13.8-4.6 27.2-10.6 39.9-17.8 3.3-1.8 5.4-5 7.6-7.9q2.8-3.7 5.3-7.6c3.5-5.5 6.6-11.1 9.3-17 12.2-25.8 17.3-54.7 17.3-83.1 0-15.6-1.4-31.2-4.3-46.5-1.9-10-4.4-19.8-8.3-29.3-8-19.3-19.4-37.2-31.6-54.1-14.1-19.6-29.9-38.1-46.5-55.7-16-16.8-32.8-32.8-50.8-47.4-14.2-11.7-29.3-22.9-46-31-0.8-0.4-0.1-1.7 0.8-1.2q5.2 2.5 10.2 5.4c17.3 10.2 33.2 22.8 48.3 36 18.2 15.9 35.3 33.1 51.4 51.2 15.8 17.7 30.7 36.3 43.7 56.2 10.6 16.2 20.6 33.5 26.2 52.1 4 13.1 6 27.1 7.3 40.7 1.4 15 1.5 30.2 0.1 45.3-2.7 27.1-10.2 54.2-24.7 77.4-3.3 5.3-7 10.3-11 15.1-2.2 2.6-5.8 4-8.7 5.6q-5.1 2.7-10.3 5.1c-12.6 6-25.8 10.6-39.2 14.2-26.9 7.1-54.7 10.2-82 15.5-31.5 6.2-62.8 14.2-93.3 24.2-30.8 10.1-60.7 22.9-88.7 39.1-0.4 0.3-1.1-0.1-1.1-0.6q0-5.4-0.1-10.8c-0.2-36.4-0.2-72.9 3.8-109.1 1.8-15.7 4.1-31.8 9.4-46.7 1.9-5.3 4.2-10.5 7.6-15 3.5-4.5 7.7-6.5 12.7-9.1 32.3-16.3 62.8-36.9 88-63 26-26.8 45.7-59.5 55.1-95.8 11.3-43.6 7-89.4-5.8-132.2-0.3-0.9 1.2-1.3 1.4-0.4z"/>
				</g>
			</g>
			<g id="&lt;Group&gt;">
				<g id="&lt;Group&gt;">
					<path id="&lt;Path&gt;" class="s7" d="m494.4 104.2q2.8 8.8 5 17.8c9.9 39.5 11.6 81.4-0.7 120.5-10.3 33.2-30.1 62.5-55 86.6-12.3 11.9-25.9 22.5-40.1 32.1q-10.7 7.1-21.8 13.5-5.5 3.1-11.1 6.1c-3.1 1.6-6.4 3-9.2 4.9-3.8 2.5-6.2 6.6-8 10.6-2.7 5.7-4.3 11.8-5.6 17.9-3.6 16-4.9 32.6-5.7 49-1.7 34.9-0.7 69.8 0.6 104.7q-0.5-0.3-1.1-0.7 10.3-5.4 20.8-10.3c28.1-12.9 57.6-22.8 87.5-30.5 29.9-7.6 60.2-13.4 90.8-17.3 26.7-3.4 53.8-5.9 79.7-13.7q10.1-3 19.8-7.1 5.5-2.2 10.8-4.8 2.6-1.3 5.2-2.6c2-1 3-2.2 4.3-3.9 7.6-10.1 13.5-21.4 17.8-33.2 9.7-26.7 12.1-55.7 10.2-83.8-1.7-24.7-5.8-50-16.2-72.6-8.7-19.1-20.4-36.9-33-53.6-14.3-19.2-30.2-37.2-47-54.3-16.2-16.4-33.4-32-51.8-45.9-14.6-11-30.1-21.6-47.1-28.5-0.9-0.3-0.5-1.8 0.4-1.4q5.4 2.2 10.6 4.8c17.7 9.1 33.9 21 49.3 33.6 18.3 15.1 35.6 31.5 51.7 48.9 16.2 17.4 31.3 35.7 44.8 55.3 11.3 16.5 21.8 34 28.6 52.9 4.2 11.7 6.6 24.1 8.5 36.4 2.3 15.1 3.5 30.3 3.2 45.5-0.4 27.1-5.3 54.8-17.8 79.1-2.8 5.6-6 10.9-9.7 16q-1.2 1.6-2.5 3.2c-1.1 1.4-2 2-3.6 2.8q-5.1 2.6-10.3 5c-12.8 5.7-26.1 10.2-39.7 13.4-27 6.3-54.8 8.1-82.3 12.2-31.4 4.6-62.7 11.4-93.2 20.2-30.7 9-60.7 20.5-89 35.5-0.6 0.3-1.1 0-1.2-0.6q-0.2-5.3-0.4-10.6c-1.2-35.4-2.1-71 0.6-106.3 1.1-15.3 2.7-30.9 7-45.6 1.5-5.1 3.4-10.3 6.3-14.8 2.7-4.1 5.9-6.3 10.2-8.5 30.6-15.7 59.6-35.3 83.6-60 24.6-25.4 43.2-56.3 51.7-90.8 10.4-41.9 5.4-85.8-7.3-126.7-0.3-0.9 1.2-1.3 1.4-0.4z"/>
				</g>
			</g>
			<g id="&lt;Group&gt;">
				<g id="&lt;Group&gt;">
					<path id="&lt;Path&gt;" class="s8" d="m475.1 105.7q2.8 8.5 5.1 17.1c9.9 37.6 12.3 77.7 1 115.3-9.6 31.5-28.3 59.2-51.9 81.8-11.6 11.2-24.4 21.3-37.9 30.3q-10.2 6.9-20.8 13-5.4 3.1-10.9 6.1c-2.3 1.2-4.9 2.2-6.8 4-3.2 2.8-5 7-6.4 10.9-2 5.6-3.3 11.5-4.2 17.4-2.6 15.8-3.2 31.9-3.4 47.8-0.5 33.9 1.4 67.8 3.6 101.6q-0.5-0.3-1.1-0.6 10-4.8 20.3-9.1c28.6-12 58.4-20.8 88.6-27.3 29.8-6.4 60-10.8 90.4-13.2 27-2.1 54.2-3.5 80.4-10.8q10.4-2.9 20.5-6.8c3.7-1.5 7.5-3 11.1-4.9 2.6-1.3 4.2-4.6 5.8-7 6.5-10.4 11.1-21.9 14.3-33.7 7.2-27.3 7.1-56.4 3.5-84.4-3-23.7-8-47.3-18.5-68.9-9.5-19.3-21.7-37.3-34.8-54.2-14.6-18.7-30.6-36.4-47.6-52.9-16.4-15.9-33.8-30.9-52.5-44.1-15.1-10.6-31.2-20.5-48.7-26.5-0.9-0.3-0.5-1.7 0.4-1.4q5.6 1.9 10.9 4.3c18.3 8.2 35.2 19.6 51 31.8 18.5 14.4 35.9 30.2 52.2 47.1 16.4 17 31.8 35.1 45.5 54.3 11.9 16.6 22.8 34.3 30.4 53.3 4.2 10.4 6.8 21.3 9 32.3 3.1 15 5.3 30.3 6.1 45.6 1.6 27-0.6 55.1-10.9 80.4-2.2 5.4-4.7 10.6-7.8 15.6q-2.3 3.9-4.9 7.6c-1.9 2.6-5.6 3.5-8.5 4.8-13 5.6-26.6 9.8-40.5 12.6-26.9 5.5-54.4 6.1-81.7 8.7-31.5 3.1-63.1 8.6-93.9 16.3-30.7 7.7-60.7 18.1-89.3 31.8-0.6 0.2-1.1-0.1-1.2-0.7q-0.3-5.2-0.6-10.4c-2.2-34.4-4-69-2.7-103.5 0.5-14.7 1.4-29.6 4.7-43.9 1.8-8.1 4.5-18.8 12.4-23 28.9-15.4 56.4-33.6 79.3-57.1 23.2-23.9 40.7-53 48.4-85.6 9.5-40.4 3.8-82.4-8.8-121.4-0.3-0.9 1.1-1.3 1.4-0.4z"/>
				</g>
			</g>
			<g id="&lt;Group&gt;">
				<g id="&lt;Group&gt;">
					<path id="&lt;Path&gt;" class="s9" d="m455.8 107.2q2.8 8.2 5.2 16.5c9.9 35.7 13.1 73.9 2.6 109.8-8.6 29.7-26.2 55.7-48.4 76.9-11 10.6-23.1 20-35.7 28.6q-9.7 6.6-19.8 12.5-5 3-10.2 5.9c-1.7 1-3.4 1.8-4.7 3.4-2.6 3-3.9 7.1-4.9 10.9-1.6 5.6-2.4 11.5-3 17.3-1.6 15.3-1.6 30.9-1.3 46.3 0.7 33 3.5 66 6.6 98.8q-0.5-0.3-1.1-0.6 10.3-4.4 20.7-8.3c28.9-10.7 58.8-18.3 89.1-23.5 29.9-5.2 60-8 90.3-8.9 27.1-0.8 54.4-1.1 80.8-7.8q10.7-2.8 21.1-6.7c1.8-0.7 3.6-1.4 5.4-2.2 1.6-0.8 2.2-2.1 3.2-3.5q2.2-3.6 4.1-7.4c5.4-10.7 8.7-22.5 10.6-34.3 4.6-28.3 1.9-57.7-3.3-85.7-2.5-13.2-5.2-26.5-9.4-39.3-3-8.7-6.8-17.2-11.1-25.4-10-19.1-22.5-37-36-53.8-14.8-18.4-31.1-35.7-48.4-51.8-16.6-15.5-34.2-29.9-53.2-42.3-15.5-10.2-32.2-19.4-50.1-24.5-0.9-0.2-0.5-1.7 0.4-1.4q5.9 1.7 11.6 3.9c18.6 7.3 35.7 18 51.7 29.6 18.9 13.7 36.5 29 53 45.4 16.7 16.7 32.3 34.5 46.3 53.4 12.5 16.8 23.9 34.6 32.2 53.7 4 9.2 6.9 18.6 9.3 28.3 3.7 15.1 6.6 30.3 8.5 45.7 3.4 26.8 3.9 55-3.7 81.2-1.7 5.5-3.7 10.9-6.1 16q-1.8 3.9-4 7.5c-1.1 2-2.3 4.9-4.5 5.8-13.4 5.7-27.5 9.8-41.8 12.4-27.2 4.8-55 4-82.4 5.3-31.4 1.4-62.8 5.5-93.5 11.9-30.9 6.4-61.1 15.6-90 28-0.6 0.2-1.1 0-1.2-0.7q-0.4-5.1-0.9-10.2c-3.1-33.4-5.7-67-5.8-100.6-0.1-14.3 0.2-28.7 2.5-42.7 0.8-5 1.8-10 3.7-14.7 1.2-3.1 2.9-6.3 5.8-8.2 2.8-1.9 6-3.4 8.9-5.1q5-2.9 9.9-5.9 9.8-6 19.3-12.7c12.6-9 24.7-18.9 35.5-30.1 21.9-22.4 38.2-49.8 45.1-80.5 8.6-38.6 2.2-78.8-10.3-115.8-0.3-0.9 1.1-1.3 1.4-0.4z"/>
				</g>
			</g>
			<g id="&lt;Group&gt;">
				<g id="&lt;Group&gt;">
					<path id="&lt;Path&gt;" class="s10" d="m436.5 108.7q2.8 7.9 5.2 15.9c10 33.8 14 70.2 4.2 104.6-7.8 27.7-24.2 51.8-44.9 71.6-10.4 10-21.8 18.9-33.7 27.1-6.1 4.3-12.4 8.3-18.7 12.2-3 1.8-6.2 3.5-9.1 5.5-1.1 0.7-1.9 1.6-2.6 2.7-2 3.4-2.9 7.4-3.5 11.1-1.1 5.7-1.5 11.4-1.8 17.1-0.6 15 0 30.1 0.9 45 1.9 32.1 5.5 64 9.5 95.8q-0.5-0.4-1-0.8 10.7-4 21.6-7.5c28.9-9.3 58.6-15.6 88.7-19.4 30-3.8 60.1-5 90.4-4.4 27.4 0.6 54.9 1.3 81.8-5.1q5.4-1.3 10.7-2.9 2.7-0.8 5.3-1.7c1.6-0.5 3.9-0.9 5.4-1.9 1.1-0.7 1.7-2.3 2.3-3.4q1-1.7 1.8-3.5 1.9-3.8 3.4-7.8c4.1-11.1 6-22.9 6.7-34.6 1.7-28.8-3.2-57.9-9.7-85.8-2.7-12-5.5-24.1-9.8-35.5-3.4-8.9-7.5-17.5-12.1-25.9-10.6-19.1-23.4-36.9-37.4-53.7-15-18-31.4-35-48.9-50.6-16.8-15-34.8-28.9-54.1-40.6-16-9.7-33.1-18.3-51.5-22.6-0.9-0.2-0.5-1.7 0.4-1.4q6.1 1.4 12.1 3.5c18.9 6.4 36.5 16.5 53 27.7 19.1 13 36.9 27.9 53.6 43.9 17 16.3 32.9 33.8 47.2 52.5 12.9 16.8 24.7 34.7 33.7 53.9 3.7 8 7 16.3 9.3 24.8 4.2 15.4 7.9 30.9 10.7 46.5 4.8 26.5 7.8 54.3 2.9 80.9-2 11-5.5 21.7-11.3 31.3-0.8 1.4-1.1 1.6-2.7 2.2q-2.6 0.9-5.3 1.8-5.4 1.8-10.8 3.2-10.4 2.8-20.9 4.3c-27.5 4-55.3 1.9-82.9 1.8-31.2-0.2-62.5 2.4-93.3 7.5-30.7 5.1-60.8 13.1-89.9 24-0.5 0.2-0.9-0.3-0.9-0.7q-0.7-5-1.3-10c-3.9-32.4-7.4-64.8-8.8-97.3-0.6-14-1-28.2 0.3-42.2 0.5-4.7 1.1-9.6 2.5-14.2 0.8-3 2-6.3 4.3-8.4 1.9-1.8 4.5-2.9 6.6-4.2q4.7-2.8 9.4-5.7 9.2-5.9 18-12.2c11.9-8.5 23.2-17.8 33.4-28.3 20.4-20.9 35.7-46.3 41.8-75.1 8-37 0.8-75.4-11.6-110.6-0.3-0.9 1.1-1.3 1.4-0.4z"/>
				</g>
			</g>
			<g id="&lt;Group&gt;">
				<g id="&lt;Group&gt;">
					<path id="&lt;Path&gt;" class="s11" d="m417.2 110.2q2.8 7.6 5.3 15.3c10 31.8 14.7 66.3 5.8 99-7.1 25.9-22.5 48.2-41.7 66.6-9.8 9.4-20.5 17.8-31.6 25.7-5.7 4.1-11.6 8-17.5 11.9-3.3 2.1-6.7 3.5-8.2 7.3-1.4 3.6-1.9 7.5-2.2 11.3-0.5 5.5-0.6 11.1-0.5 16.6 0.2 14.5 1.4 29 2.8 43.5 3.1 31.1 7.5 62 12.2 92.8q-0.4-0.3-0.9-0.5 10.9-3.5 21.9-6.5c29-8 58.8-13.1 88.8-15.5 15.4-1.2 30.9-1.8 46.4-1.8 14.7 0.1 29.4 1.1 44 2.1 27.7 2 55.5 3.7 82.8-2.2q5.5-1.2 11-2.8 1.4-0.4 2.8-0.8c0.7-0.3 2-0.4 2.6-1 0.8-0.8 1.3-2.4 1.7-3.4 2.3-4.7 4-9.7 5.2-14.8 2.8-11.6 3.3-23.6 2.8-35.4-1.2-29.3-8.1-58.3-15.6-86.5-2.9-10.7-5.7-21.3-9.9-31.5-3.7-9-8.2-17.6-13.1-26-11-19.1-24.3-36.9-38.7-53.6-15.2-17.7-31.9-34.3-49.7-49.5-17-14.5-35.2-27.8-54.6-38.8-16.5-9.2-34.1-17.1-52.8-20.6-0.9-0.2-0.5-1.6 0.4-1.4q6.3 1.2 12.5 3c19.2 5.6 37.2 15.1 54 25.8 19.4 12.3 37.5 26.8 54.4 42.3 17.3 16 33.5 33.2 48.1 51.7 13.2 16.8 25.4 34.6 35 53.7 4 8.1 7.7 16.5 10.4 25.2 4.5 13.9 7.9 28.2 11.2 42.4 6.3 26.8 11.8 54.7 9.7 82.3-0.8 10.7-2.9 21.4-7.4 31.2q-0.8 1.8-1.7 3.6c-0.8 1.4-0.9 1.7-2.4 2.2q-5.5 1.7-11.1 3.1-10.3 2.5-20.9 3.8c-27.9 3.4-55.9 0-83.8-1.6-30.8-1.9-61.8-0.9-92.5 2.7-30.9 3.7-61.4 10.4-91.1 20-0.3 0.1-0.8-0.1-0.9-0.5q-0.8-4.9-1.5-9.8c-4.7-31.2-9-62.6-11.8-94.1-1.1-13.4-2.1-27-1.8-40.5 0.1-4.9 0.4-9.7 1.2-14.5 0.5-3 1.2-6.3 2.9-8.8 1-1.3 2.2-2.1 3.6-2.9q4.4-2.9 8.9-5.8c5.7-3.9 11.3-7.8 16.9-11.8 11-8.2 21.6-16.9 31.2-26.7 19.2-19.4 33.6-43.1 39.1-70.1 7.1-35.3-0.8-71.8-13.1-105-0.3-0.9 1.1-1.3 1.4-0.4z"/>
				</g>
			</g>
			<g id="&lt;Group&gt;">
				<g id="&lt;Group&gt;">
					<path id="&lt;Path&gt;" class="s12" d="m397.9 111.7q2.9 7.3 5.4 14.7c9.9 29.8 15.4 62.5 7.2 93.3-6.5 24.4-21.4 45-39.4 62.1-9.3 8.9-19.3 16.9-29.5 24.6-5.2 3.9-10.5 7.7-15.8 11.6-1.2 0.9-2.2 1.4-2.9 2.8-0.5 1.1-0.8 2.4-1 3.6-0.7 3.8-0.8 7.7-0.8 11.6 0 5.4 0.3 10.8 0.7 16.2 1.1 14.1 2.8 28.2 4.8 42.2 4.2 29.7 9.4 59.3 14.7 88.9q-0.4-0.2-0.9-0.5 11-3 22-5.5c29.3-6.5 59.2-10.3 89.2-11.2 15.5-0.5 31-0.3 46.4 0.6 14.7 0.9 29.3 2.7 43.9 4.5 28 3.5 56.1 6.2 84 0.6q2.9-0.6 5.8-1.3c1.3-0.3 4.1-0.5 5-1.5 0.7-0.9 1.1-2.6 1.5-3.7q0.7-1.6 1.2-3.3c1.6-4.9 2.6-10 3.2-15.2 1.2-11.8 0.4-23.9-1.2-35.6-4.1-29.4-12.6-58-20.8-86.3-2.7-9.7-5.8-19.2-9.9-28.4-4-9-8.7-17.6-13.8-26.1-11.5-18.9-25.1-36.6-39.8-53.2-15.5-17.5-32.3-33.7-50.4-48.5-17.3-14.1-35.8-26.9-55.5-37.2-17-8.9-35.2-16.1-54.2-18.9-0.9-0.1-0.5-1.6 0.4-1.4q6.5 0.9 12.8 2.5c19.6 4.9 38 13.8 55.2 24.1 19.7 11.7 38.1 25.7 55.2 40.8 17.7 15.7 34.2 32.7 49.1 51 13.6 16.7 26 34.4 36.1 53.5 4.4 8.2 8.3 16.8 11.4 25.6 1.9 5.2 3.4 10.5 4.9 15.8q3.3 11.5 6.5 23c7.4 26.8 15 54.5 16 82.5 0.4 10.7-0.3 21.7-3.6 32q-1.1 3.3-2.5 6.5c-0.5 1.2-0.7 2-2 2.3-1.8 0.5-3.6 1-5.5 1.4q-10.7 2.5-21.7 3.5c-28.3 2.9-56.4-1.9-84.5-5.1-30.6-3.5-61.6-4.2-92.4-2.1-31 2.2-61.6 7.6-91.6 15.7-0.3 0.1-0.8-0.1-0.9-0.5q-0.9-4.7-1.7-9.4c-5.4-29.9-10.5-59.8-14.4-89.9-1.8-13.2-3.3-26.4-4-39.7-0.2-4.8-0.3-9.7-0.1-14.5 0.2-3.1 0.5-6.4 1.6-9.3 1.3-3.5 5.1-5.2 7.9-7.2 5.4-3.9 10.8-7.9 16-11.9 10.2-7.9 20.1-16.1 29.2-25.3 17.8-17.9 31.4-39.5 36.3-64.6 6.7-33.6-2-68.5-14.2-99.8-0.4-0.9 1.1-1.3 1.4-0.4z"/>
				</g>
			</g>
			<g id="&lt;Group&gt;">
				<g id="&lt;Group&gt;">
					<path id="&lt;Path&gt;" class="s13" d="m378.6 113.2q2.8 6.8 5.4 13.8c10.3 28.5 17.2 60 11.4 90.3-4.3 22.7-16.3 42.7-33.2 58.3-8.5 7.9-17.9 14.6-27.8 20.6-5.2 3.2-10.6 6.1-16 8.8-0.7 0.4-1.7 0.7-2.1 1.3-0.2 0.3-0.2 0.8-0.3 1.1-0.3 1.2-0.4 2.4-0.4 3.6-0.4 9 0.9 18.2 2.1 27.1 1.7 13.7 4 27.3 6.4 40.9 5.1 29.3 10.8 58.4 17 87.4q-0.5-0.2-1-0.5c21.8-4.7 43.8-8.2 66-9.9 39-3.2 78.4-1.1 117 5.4 17.7 3 35.4 6.7 53.3 8.4 18.8 1.8 37.6 1.3 56.1-2.7q-0.3 0.3-0.6 0.5 1.7-4.2 2.7-8.6c3.2-14.4 1.3-29.7-1.4-44-3.5-18.3-8.9-36.2-14.3-54.1-3.1-9.9-6.2-19.8-9.2-29.8-2.2-7.5-4.3-15-7-22.3-4.7-12.4-10.8-24.3-17.6-35.7-15.7-26.2-35.3-50.1-56.9-71.8-22.1-22.2-46.7-42.3-73.6-58.4-23.4-14-49.3-25.8-76.7-28.8-0.9-0.1-1-1.6 0-1.5q6.6 0.8 13.1 2.1c20.2 4.3 39.3 12.7 57.2 22.7 20.1 11.3 38.9 25 56.4 40 18 15.3 34.7 32.2 49.8 50.4 14 16.8 26.8 34.6 37.3 53.8 4.6 8.4 8.7 17.1 12.1 26 4.6 12.1 7.9 24.7 11.7 37.1 4.3 14.3 8.8 28.6 12.7 43 3.5 12.6 6.5 25.3 8.3 38.2 1.4 10.3 1.9 20.9 0 31.2q-0.6 3.4-1.6 6.7-0.5 1.7-1.2 3.3c-0.5 1.4-0.7 1.4-2.2 1.7-7.2 1.5-14.5 2.6-21.9 3.1-28.1 2.1-55.7-3.6-83.2-8.4-30.7-5.3-61.8-8-92.9-7.4-31.3 0.6-62.4 4.6-93 11.3-0.3 0-0.8-0.1-0.9-0.6q-1-4.6-1.9-9.2c-6.1-29.4-11.9-58.9-16.8-88.5-2.2-12.8-4.2-25.6-5.6-38.5-0.6-4.7-1-9.3-1.2-13.9-0.1-3-0.2-6.1 0.3-9 0.1-0.8 0.3-1.8 0.8-2.4 0.6-0.9 1.9-1.3 2.8-1.7q2.1-1.1 4.2-2.2c5.3-2.8 10.5-5.9 15.6-9.1 9.8-6.2 19.1-13.3 27.3-21.5 16.6-16.8 27.3-38.1 30-61.6 3.9-32.7-5.6-65.7-17.9-95.6-0.4-0.9 1.1-1.3 1.4-0.4z"/>
				</g>
			</g>
			<g id="&lt;Group&gt;">
				<g id="&lt;Group&gt;">
					<path id="&lt;Path&gt;" class="s14" d="m359.2 114.5q2.8 6.3 5.3 12.7c10.5 26.9 18.5 56.7 13.8 85.7-3.4 21-14.2 39.4-29.9 53.6-8 7.3-16.9 13.5-26.2 19q-3.8 2.2-7.6 4.3-2 1.1-4 2.1c-0.5 0.3-1.2 0.5-1.7 0.9 0 0 0.1-0.3-0.1 0.1-0.2 0.5-0.1 1.6-0.1 2.2 0 1.3 0.1 2.6 0.3 3.9 0.9 9 2.7 18 4.4 26.9 2.5 13.1 5.2 26.2 8.1 39.3 6.1 28.2 12.5 56.3 19.3 84.4q-0.5-0.3-1-0.6c21.9-3.5 43.9-5.9 66-6.6 38.6-1.2 77.2 2.9 114.9 11.4 17.3 3.9 34.5 8.3 52.1 11 18.3 2.7 36.9 3.2 55.3 0.2q-0.3 0.3-0.5 0.5 1.3-3.9 1.8-8.1c2-14.1-1.2-28.7-4.8-42.3-4.8-17.9-11.1-35.4-17.2-52.8-3.3-9.6-6.6-19.3-9.7-28.9-2.5-7.7-4.6-15.4-7.4-22.9-4.8-12.7-11.1-24.9-18-36.5-16-26.5-36-50.7-58-72.5-22.7-22.4-48-42.6-75.7-58.5-24.5-14-51.6-25.2-80-27.4-1 0-1-1.5 0-1.5q4.7 0.4 9.4 1.1c28.8 4.2 56 16.8 80.5 32 27.5 17.1 52.6 38.2 75 61.6 21.3 22.1 40.5 46.7 55.4 73.7 6.2 11.4 11.8 23.4 15.7 35.9 6.2 19.5 12.7 38.8 19.3 58.1 5.8 16.6 11.6 33.4 15.1 50.7 2.5 12.6 4.1 26.3 0 38.7-0.1 0.3-0.2 0.5-0.5 0.5-20 3.3-40.2 2.5-60.2-0.8-17.5-2.9-34.6-7.5-51.9-11.3q-28.9-6.3-58.3-8.9c-39.4-3.5-78.9-1.3-117.9 5.1-0.3 0.1-0.8-0.1-0.9-0.5q-1.1-4.5-2.1-9c-6.7-28.3-13.2-56.7-19.3-85.1-2.6-12.3-5.1-24.7-7.4-37-1.3-7.6-2.9-15.3-3.3-23.1 0-0.9 0-1.8 0.1-2.7 0.2-1.8 1.8-2.1 3.2-2.8 5-2.7 9.9-5.4 14.7-8.4 9.2-5.7 17.9-12.1 25.6-19.7 7.3-7.2 13.5-15.4 18.1-24.6 4.9-9.9 7.8-20.7 8.8-31.7 2.8-31.2-7.5-62.5-19.7-90.6-0.4-0.9 0.9-1.7 1.2-0.8z"/>
				</g>
			</g>
			<g id="&lt;Group&gt;">
				<g id="&lt;Group&gt;">
					<path id="&lt;Path&gt;" class="s15" d="m339.9 116c8.4 18.1 15.7 37 19.6 56.7 4.5 22.7 3.6 46.9-9.2 66.8-11.8 18.3-30.7 30.4-49.5 40.3q0.2-0.3 0.4-0.6c0.1 1.4 0.6 3.5 1 5.1q1.2 5.2 2.5 10.5c5.2 21.5 10.7 42.9 16.3 64.3 6.4 24.6 12.9 49.1 19.5 73.6q-0.4-0.3-0.7-0.6c21.7-2.4 43.6-3.7 65.6-3.2 38.4 0.7 76.3 7 113.2 17.4 16.9 4.8 33.7 10.1 50.9 13.6 18 3.6 36.2 4.9 54.4 3q-0.3 0.3-0.7 0.5 0.9-3.9 1.1-8c0.5-13.8-3.9-27.6-8.3-40.4-5.9-17-13-33.6-19.5-50.3-3.7-9.5-7.3-19-10.6-28.6-2.7-7.8-5-15.8-7.9-23.5-4.9-13-11.2-25.4-18.4-37.3-16.2-27-36.6-51.6-59.2-73.6-23.3-22.7-49.3-42.9-77.8-58.5-25.6-14-53.9-24.7-83.3-26.1-1 0-1-1.5 0-1.5q5 0.3 9.9 0.8c29.7 3.5 57.9 15.6 83.4 30.8 28.3 16.8 54.1 38 77.1 61.7 21.8 22.4 41.4 47.4 56.5 74.9 6.5 11.7 12.1 23.9 16.2 36.7 6.1 19.4 13.3 38.3 20.8 57.1 6.4 16.1 13.2 32.1 18 48.8 3.5 11.9 6.4 25.1 3.4 37.4 0 0.4-0.4 0.5-0.7 0.6-20 2.1-40 0.2-59.6-4.1-17.2-3.8-34-9.2-51-13.9-18.8-5.2-37.8-9.2-57.1-11.9-38.7-5.5-77.7-5.1-116.4-0.9-0.4 0.1-0.7-0.2-0.8-0.5q-5.4-20.1-10.7-40.2c-6.5-24.6-12.9-49.4-19.2-74.1-2.3-8.9-4.5-17.9-6.7-26.9-1-4.1-2.3-8.4-2.7-12.7 0-0.2 0.1-0.5 0.3-0.6 11-5.8 21.7-12.2 31.2-20.2 7.7-6.4 14.5-13.8 19.5-22.5 5.2-9 8.3-19.1 9.4-29.5 1.3-12.9-0.3-26-3.2-38.7-4.1-17.6-10.7-34.5-18.3-50.9-0.4-0.9 0.9-1.7 1.3-0.8z"/>
				</g>
			</g>
			<g id="&lt;Group&gt;">
				<g id="&lt;Group&gt;">
					<path id="&lt;Path&gt;" class="s16" d="m320.6 117.5c8.3 16.8 15.8 34.3 20.4 52.5 5 20.1 6.2 42.1-4.7 60.5-9.8 16.5-26.8 27.3-43.3 36.2q0.2-0.5 0.3-1c1 1.4 1.5 3.2 2.1 4.7 1.2 3.3 2.3 6.5 3.4 9.8 6.9 20.7 13.2 41.7 19.5 62.6 7.3 24.3 14.6 48.7 21.9 73q-0.4-0.3-0.7-0.5c21.7-1.3 43.5-1.5 65.2 0.1 37.8 2.8 74.8 11 110.6 23.2 16.7 5.7 33.3 11.9 50.4 16.3 17.6 4.5 35.6 6.9 53.8 5.9q-0.3 0.3-0.7 0.5c0.4-2.4 0.4-4.9 0.3-7.4-0.7-13.3-6.2-26.4-11.4-38.5-7.1-16.3-15-32.3-22.1-48.5-4-9-7.8-18-11.2-27.2-3-8.1-5.4-16.3-8.4-24.3-4.9-13.3-11.3-25.9-18.6-38.1-16.5-27.6-37.3-52.7-60.5-75.1-24-23-50.9-43.4-80.4-58.9-26.6-14-56.2-24.1-86.5-24.7-1 0-1-1.5 0-1.5q5.3 0.1 10.6 0.6c14.8 1.3 29.3 4.8 43.3 9.7 15.1 5.3 29.6 12.2 43.4 20.1 14.5 8.3 28.3 17.8 41.4 28.2 13.3 10.5 25.9 21.8 37.8 34 11.5 11.8 22.4 24.3 32.3 37.5 9.4 12.3 17.9 25.2 25.3 38.8 6.7 12.2 12.3 24.9 16.5 38.2 6.2 19.3 14.3 37.8 22.7 56.2 7 15.2 14.5 30.3 20.5 46.1 4.1 11 8.2 23.3 6.5 35.2-0.1 0.4-0.5 0.6-0.8 0.6-20.2 1.1-40.2-2-59.7-7.5-17.1-4.7-33.7-11-50.5-16.6-18.3-6.1-36.8-11-55.7-14.7-37.7-7.4-75.9-8.9-114.1-6.7-0.4 0-0.7-0.3-0.8-0.6q-5.9-19.8-11.8-39.7c-7.2-24-14.4-48-21.9-71.9-2.7-8.7-5.4-17.4-8.3-26.1-1-2.7-1.9-5.4-2.9-8.1-0.5-1.3-1-2.8-1.8-3.9-0.2-0.4-0.1-0.9 0.3-1.1 9.7-5.3 19.3-11 27.7-18.2 6.6-5.7 12.4-12.3 16.4-20 4.4-8.2 6.5-17.4 6.8-26.6 0.5-11.9-1.8-23.8-5-35.2-4.6-16.3-11.4-31.9-18.9-47.1-0.4-0.9 0.9-1.7 1.3-0.8z"/>
				</g>
			</g>
			<g id="&lt;Group&gt;">
				<g id="&lt;Group&gt;">
					<path id="&lt;Path&gt;" class="s17" d="m301.3 119c8.2 15.6 15.9 31.7 21.2 48.5 5.5 17.3 8.7 37.1-0.1 53.8-7.8 14.9-23 24.3-37.1 32.3q0-0.6 0-1.3c1.5 1 2.4 2.9 3.2 4.4 1.7 3 3.1 6.1 4.5 9.3 8.5 19.8 15.5 40.3 22.6 60.7 8.3 24 16.3 48.1 24.3 72.2q-0.4-0.2-0.7-0.5c21.5-0.1 43.1 0.9 64.4 3.6 37.4 4.7 73.6 15 108.5 29 16.5 6.6 32.7 13.6 49.6 18.9 17.4 5.4 35.3 8.8 53.5 8.8q-0.4 0.4-0.8 0.7c0.1-2.3 0-4.7-0.4-7.1-2.1-12.8-8.4-24.8-14.4-36.2-8-15.5-16.7-30.7-24.5-46.4-4.2-8.5-8.2-17.1-11.8-26-3.4-8.2-6-16.7-9.1-25.1-4.9-13.6-11.4-26.6-18.8-39-8.2-13.8-17.4-26.9-27.5-39.3-10.6-13.2-22-25.6-34.2-37.2-12.5-11.9-25.7-23-39.7-33.1-13.7-9.9-28.1-18.8-43.2-26.4-14.4-7.2-29.4-13.3-45-17.4-14.7-4-29.9-6.2-45.1-6.1-1 0-1-1.5 0-1.5q5.5 0 11.1 0.3c15.4 1 30.5 4.3 45.2 9 15.6 5.1 30.6 11.9 44.9 19.8 14.8 8.3 29 17.8 42.4 28.1 13.8 10.7 26.8 22.3 39 34.6 11.7 12 22.8 24.6 32.9 38 9.5 12.7 18.3 25.9 25.8 39.9 3.5 6.4 6.7 13 9.6 19.7 2.8 6.6 5.1 13.3 7.4 20.1 6.4 18.6 14.9 36.5 24.1 53.9 7.7 14.7 16.1 29.1 23.2 44.1 4.9 10.2 10.1 21.7 9.6 33.3 0 0.4-0.3 0.8-0.7 0.8-20.3 0-40-4.2-59.2-10.6-16.8-5.7-33.1-12.8-49.7-19.3-17.8-7-36-13-54.6-17.7-18.1-4.6-36.5-7.9-55.1-10-19-2-38.2-2.8-57.4-2.7-0.4 0-0.6-0.3-0.8-0.6q-6.4-19.5-12.9-39.1c-7.9-23.4-15.9-46.8-24.5-69.9-3.2-8.5-6.4-17-10.1-25.3-1.2-2.6-2.4-5.2-3.7-7.7-0.7-1.2-1.6-3-2.7-3.7-0.4-0.3-0.5-1 0-1.3 8.5-4.8 17-9.9 24.3-16.5 5.5-4.9 10.3-10.6 13.4-17.4 3.4-7.3 4.5-15.4 4.1-23.4-0.4-10.8-3.2-21.5-6.7-31.7-5.2-15-12.2-29.5-19.6-43.5-0.4-0.9 0.9-1.7 1.3-0.8z"/>
				</g>
			</g>
			<g id="&lt;Group&gt;">
				<g id="&lt;Group&gt;">
					<path id="&lt;Path&gt;" class="s18" d="m282 120.5c8.1 14.4 16 29 22 44.4 5.8 14.5 11.2 32.2 4.5 47.4-5.8 13.1-19.2 21.2-31 28.2q-0.1-0.7-0.2-1.4c1.9 0.7 3.3 2.5 4.4 4 2.1 2.7 3.8 5.7 5.4 8.7 4.5 8.3 8.4 16.8 12.1 25.4 4.8 11.1 9.3 22.3 13.8 33.6 9.2 23.6 18 47.4 26.6 71.3q-0.4-0.3-0.7-0.6c21.2 1.1 42.4 3.2 63.4 7 36.8 6.7 72.2 19 106.2 34.7 16.2 7.5 32.2 15.4 49 21.6 17.1 6.4 35 10.8 53.3 11.8q-0.4 0.4-0.7 0.7c-0.2-2.2-0.6-4.5-1.2-6.7-3.4-12.2-10.7-23.4-17.3-34.1-9-14.7-18.5-29.1-26.9-44.2-4.6-8.3-8.9-16.7-12.7-25.4-3.7-8.2-6.6-16.6-9.6-25.1-5-13.9-11.6-27.2-19.1-39.9-8.3-14.1-17.7-27.6-28-40.3-10.8-13.4-22.5-26-35-37.9-12.8-12-26.4-23.3-40.7-33.4-14.1-10-28.9-18.9-44.3-26.4-15-7.2-30.6-13.1-46.8-17.1-15.4-3.7-31.2-5.7-47.1-5.2-1 0.1-1-1.4 0-1.5q5.8-0.2 11.6 0.1c15.9 0.6 31.8 3.6 47.1 8.2 16.1 4.9 31.7 11.7 46.5 19.6 15.4 8.3 30.1 17.9 44 28.5 14 10.7 27.3 22.4 39.7 34.9 12 12.1 23.3 25.1 33.5 38.7 9.7 12.9 18.6 26.4 26.2 40.6 3.5 6.6 6.8 13.3 9.7 20.2 3 7.1 5.3 14.4 8 21.6 6.6 18 15.7 35 25.5 51.5 8.4 14.1 17.6 27.7 25.9 42 5.5 9.5 11.7 20.1 12.5 31.3 0 0.4-0.4 0.8-0.8 0.8-20.3-1.1-40-6.4-58.8-13.8-16.5-6.5-32.3-14.4-48.4-21.7-17.6-8.1-35.6-15.1-54.1-20.9-17.4-5.5-35.2-9.7-53.2-12.8-19-3.1-38.2-4.9-57.4-5.9-0.4 0-0.6-0.2-0.7-0.5q-7-19.4-14.2-38.6c-8.6-23-17.4-46-27.3-68.5-3.5-8.2-7.2-16.4-11.6-24.1-1.4-2.6-2.9-5.1-4.7-7.5-0.9-1.1-2.1-2.7-3.5-3.3-0.5-0.2-0.7-1-0.1-1.3 7.2-4.3 14.5-8.8 20.7-14.6 4.5-4.2 8.4-9.2 10.5-15 2.3-6.5 2.4-13.5 1.5-20.3-1.4-9.7-4.8-19.1-8.6-28.2-5.8-13.7-12.8-26.9-20.2-39.8-0.4-0.9 0.9-1.6 1.3-0.8z"/>
				</g>
			</g>
			<g id="&lt;Group&gt;">
				<g id="&lt;Group&gt;">
					<path id="&lt;Path&gt;" class="s19" d="m262.7 122c8.1 13.2 16.2 26.6 23 40.6 3.7 7.6 7.3 15.5 9.1 23.8 1.2 5.5 1.6 11.4-0.2 16.8-3.7 11.3-15.3 18.2-24.8 24.1q-0.1-0.6-0.2-1.3c2.1 0.4 3.9 2.1 5.3 3.5 2.5 2.6 4.5 5.5 6.5 8.4 5.2 7.8 9.5 16.1 13.7 24.5 5.4 10.7 10.5 21.7 15.3 32.7 10.2 23.1 19.7 46.5 28.9 70.1q-0.3-0.3-0.7-0.6c21 2.3 41.9 5.4 62.5 10.4 36.2 8.7 70.7 23 103.6 40.3 16 8.4 31.9 17.2 48.5 24.4 17 7.4 34.8 12.8 53.2 14.8q-0.3 0.5-0.7 1c-0.4-2.2-1-4.3-1.8-6.3-2-5.3-4.9-10.1-7.9-14.9-3.8-5.9-7.9-11.6-12.1-17.3-9.8-13.6-19.9-27.1-28.9-41.4-9.9-15.7-18-32.1-24.1-49.7-5-14.3-11.6-28-19.2-41.1-8.4-14.4-17.9-28.1-28.4-41.1-11-13.7-23-26.7-35.8-38.7-13.1-12.4-27.1-23.9-41.9-34.2-14.5-10-29.8-19-45.8-26.5-15.5-7.2-31.6-13-48.3-16.8-16.2-3.6-32.8-5.3-49.4-4.4-1 0.1-1-1.4 0-1.5q6.1-0.3 12.2-0.2c16.6 0.3 33.1 3.1 49 7.6 16.7 4.7 32.7 11.3 48.1 19.3 15.8 8.2 30.9 17.9 45.2 28.6 14.4 10.8 27.9 22.7 40.6 35.4 12.4 12.4 23.9 25.6 34.4 39.6 9.8 13.1 18.8 27 26.5 41.5q5.4 10 9.8 20.6c3.1 7.4 5.5 15.1 8.4 22.5 7.1 17.5 16.7 33.8 27.2 49.3 9.1 13.4 19 26.2 28.2 39.5 3.7 5.3 7.2 10.6 10.3 16.2 2.2 4.3 4.3 8.8 5.2 13.6 0 0.4-0.2 1-0.8 0.9-20.2-2.2-39.6-8.5-58.1-16.8-16.3-7.4-32-16.2-47.9-24.5-17.2-8.9-34.7-17-52.8-23.8-17.1-6.4-34.6-11.7-52.4-15.7-18.6-4.2-37.6-7-56.6-9.1q-0.5 0-0.7-0.5-7.4-19.1-15.2-37.9c-9.4-22.7-19-45.2-30.1-67-4.1-8-8.3-15.9-13.3-23.3-1.7-2.4-3.5-4.8-5.6-6.9-1.2-1.3-2.7-2.7-4.5-3.1-0.7-0.1-0.7-1-0.2-1.3 6-3.8 12.2-7.7 17.3-12.8 3.5-3.5 6.3-7.7 7.4-12.5 1.3-5.7 0.4-11.6-1.1-17.1-2.5-8.8-6.5-17.1-10.6-25.2-6.3-12.2-13.4-24-20.6-35.7-0.5-0.9 0.8-1.6 1.3-0.8z"/>
				</g>
			</g>
			<g id="&lt;Group&gt;">
				<g id="&lt;Group&gt;">
					<path id="&lt;Path&gt;" class="s20" d="m243.4 123.5c8.1 12.1 16.2 24.1 23.8 36.4 4.1 6.6 8.2 13.3 11.1 20.5 1.7 4.3 3.1 9 2.4 13.7-1.4 9.4-11.5 15.3-18.7 20.1q-0.2-0.7-0.4-1.4c5.9 0.7 10.6 6.8 14 11 5.8 7.4 10.7 15.4 15.4 23.5 5.9 10.4 11.4 21 16.7 31.7 11.2 22.7 21.5 45.9 31.3 69.3q-0.2-0.3-0.5-0.5c20.9 3.4 41.6 7.7 61.9 13.8 35.6 10.8 69.2 27.2 101.2 46.1 15.7 9.3 31.3 18.9 47.6 27 16.8 8.3 34.5 14.7 53.1 17.7q-0.5 0.5-1 1c-0.6-2.1-1.5-4.1-2.5-6.1-5.9-11-14.6-20.6-22.6-30.2-10.7-12.7-21.4-25.3-31-38.9-10.5-14.8-19.6-30.7-25.7-47.8-5.3-14.8-11.7-29-19.5-42.6-8.5-14.8-18.2-28.9-28.9-42.3-11.2-14-23.4-27.2-36.4-39.4-13.4-12.6-27.7-24.2-42.9-34.6-15-10.3-30.8-19.4-47.3-26.9-16.1-7.2-33-12.9-50.3-16.5-16.9-3.4-34.2-4.7-51.4-3.5-1 0.1-1-1.4 0-1.5q6.3-0.4 12.6-0.5c17.3 0 34.5 2.5 51.2 6.9 17.3 4.6 33.9 11.2 49.9 19.2 16.3 8.3 31.9 18.1 46.6 29 14.7 10.9 28.5 23 41.5 35.9 12.6 12.6 24.3 26.1 34.9 40.4 10.1 13.5 19.2 27.7 27 42.6 3.6 6.9 6.9 13.9 9.8 21.1 3.2 7.8 5.7 15.8 9.1 23.5 7.5 16.8 17.7 32.2 28.8 46.7 9.8 12.8 20.5 24.9 30.7 37.4 4 4.8 7.8 9.7 11.3 14.9 2.7 4 5.1 8.2 6.6 12.8 0.2 0.6-0.4 1-0.9 0.9q-6.1-1-12-2.4c-31.6-7.6-59.4-24.9-87-41.3-28.6-17-58.3-32.1-89.9-42.9-15.1-5.2-30.5-9.4-46.1-12.7-8.4-1.8-16.8-3.4-25.2-4.8-1.6-0.2-3.6 0-4.3-1.5-0.7-1.6-1.3-3.2-2-4.8q-2.1-4.9-4.2-9.7c-11.4-26.4-23.4-52.7-37.2-78-5.4-9.9-11.2-19.9-18-29-2.4-3.1-4.9-6.2-7.8-8.8-1.8-1.6-4.1-3.4-6.6-3.7-0.7-0.1-1-0.9-0.3-1.4 4.8-3.2 9.9-6.5 13.8-10.9 2.5-2.8 4.2-6.2 4.3-10 0.1-4.9-1.8-9.7-3.8-14.1-3.5-7.4-7.9-14.4-12.2-21.4-6.9-10.8-14.1-21.5-21.3-32.2-0.5-0.9 0.8-1.6 1.3-0.8z"/>
				</g>
			</g>
			<g id="&lt;Group&gt;">
				<g id="&lt;Group&gt;">
					<path id="&lt;Path&gt;" class="s21" d="m224.1 125c8.1 11 16.4 21.8 24.9 32.5 4.4 5.5 8.9 11 12.9 16.9 2.1 3.1 4.5 6.6 5 10.4 1 7.4-7.6 12.5-12.6 16.3q-0.2-0.7-0.4-1.4c1.3 0.1 2.5 0.4 3.7 0.8 7.2 2.8 12.8 9.6 17.5 15.5 7.7 9.6 14.3 20.1 20.6 30.7 15.1 25.5 28.2 52.2 40.5 79.1q0.6 1.3 1.2 2.6c0.2 0.6 0.6 2 1 2.4 0.7 0.6 2.3 0.6 3.1 0.8q1.3 0.3 2.6 0.6 6.3 1.5 12.6 3 12 3 23.7 6.6c14.8 4.6 29.3 10.1 43.5 16.4 15.2 6.9 29.9 14.7 44.3 23 14.3 8.3 28 17.5 41.8 26.7 27.3 18 55.5 35.4 87.9 42.4q-0.4 0.6-0.9 1.1c-0.8-1.9-1.9-3.7-3-5.4-6.9-10.4-16.2-19.2-24.9-28.1-11.6-12-23.1-24.1-33.5-37.2-10.9-13.8-20.6-28.7-27.1-45.1-3-7.4-5.5-14.9-8.8-22.2-3.3-7.5-7-14.8-11-21.9-17.5-31.2-40.4-59.4-66.4-83.8-27.1-25.6-58.2-47.4-92.4-62.4-33.4-14.6-70-22.5-106.4-19.2-1 0.1-1-1.4 0-1.5q6.5-0.6 13-0.7c36.4-0.8 72.2 9.1 104.7 25.1 33.7 16.5 64.2 39.4 90.7 65.8 24.9 25 46.9 53.6 63 85.1 3.6 7.1 7 14.3 9.9 21.6 3.2 8 5.9 16.2 9.7 24 8 16.1 18.8 30.7 30.6 44.3 10.4 12.1 21.7 23.4 32.7 34.9 4.4 4.6 8.7 9.2 12.7 14.1 3 3.7 5.9 7.6 7.8 11.9 0.3 0.6-0.1 1.2-0.8 1.1q-6-1.3-11.9-3.1c-30.9-9.2-57.9-27.3-84.6-45-27.6-18.3-56.2-35.2-86.9-48.1-14.3-6-29-11-43.9-15.2-8.1-2.3-16.3-4.4-24.6-6.3q-3.2-0.7-6.5-1.5c-0.6-0.1-1.3-0.1-1.7-0.6-0.5-0.6-0.8-1.7-1.1-2.3q-2.1-4.7-4.3-9.4c-12.3-26.7-25.5-53.1-40.8-78.2-6.1-10-12.6-20-20.3-28.8-2.8-3.2-5.8-6.3-9.2-8.8-2.3-1.6-4.9-3.2-7.8-3.3-0.8 0-1-1-0.4-1.4 3.6-2.7 7.7-5.4 10.3-9.1 4.4-6.2-1.6-13.5-5.2-18.4-4.6-6.2-9.5-12.2-14.2-18.3-7.4-9.3-14.6-18.7-21.6-28.2-0.5-0.8 0.8-1.6 1.3-0.8z"/>
				</g>
			</g>
			<g id="&lt;Group&gt;">
				<g id="&lt;Group&gt;">
					<path id="&lt;Path&gt;" class="s22" d="m204.7 126.3c8.1 9.9 16.5 19.4 25.7 28.3 4.8 4.7 9.9 9.2 15 13.5 2.6 2.3 5.6 4.5 7.7 7.3 3.6 5.1-3 9.5-6.5 12.5q-0.2-0.7-0.5-1.3c1.5 0 2.9 0.2 4.3 0.6 7.9 2.4 14.5 9.1 20 15.1 8.5 9.3 15.9 19.7 22.8 30.2 16.4 25.2 30.6 51.9 43.7 78.9 0.5 0.9 0.9 2.3 1.7 2.8 0.7 0.5 1.9 0.5 2.7 0.8q3.1 0.8 6.2 1.7 6.2 1.8 12.3 3.8 11.4 3.6 22.4 7.8c14.4 5.4 28.4 11.8 41.9 18.9 14.7 7.8 29 16.5 42.9 25.6 13.8 9.1 27.1 19.1 40.5 28.8 26.5 19.3 54 37.9 86 46.6q-0.4 0.6-0.8 1.2c-1.2-1.9-2.5-3.7-3.9-5.4-8.1-9.8-18.2-18.1-27.7-26.6-12.2-11.1-24.4-22.4-35.3-34.8-11.6-13.2-22-27.7-29-43.9-3.2-7.5-5.8-15.3-9.1-22.8-3.4-7.6-7.1-15-11.2-22.2-17.7-31.9-41-60.6-67.6-85.5-27.8-25.9-59.7-47.9-94.8-62.8-34.6-14.6-72.4-21.9-109.9-17.8-1 0.1-1-1.4 0-1.5q6.8-0.7 13.7-1c37.4-1.4 74.4 8 108 24 34.4 16.4 65.6 39.5 92.6 66.3 25.5 25.4 47.8 54.5 64.2 86.6 3.7 7.3 7.2 14.8 10.2 22.4 3.2 8 6 16.1 10.2 23.8 8.4 15.6 19.8 29.6 32.1 42.4 11.2 11.7 23.4 22.4 35.4 33.3 4.8 4.4 9.6 8.7 14 13.3 3.5 3.5 6.8 7.2 9.4 11.4 0.3 0.6-0.3 1.3-0.9 1.1q-5.9-1.6-11.7-3.7c-30.6-10.8-56.8-30-82.7-48.9-26.6-19.6-54-38.1-83.6-52.8-13.8-6.9-28-12.9-42.5-18-7.9-2.7-15.8-5.3-23.9-7.6q-3.2-1-6.5-1.9-1.3-0.4-2.7-0.8c-0.6-0.2-1.7-0.2-2.3-0.7-0.5-0.4-0.8-1.5-1.1-2.1q-0.6-1.3-1.2-2.5-1.1-2.3-2.2-4.5c-13.2-26.8-27.4-53.2-44.2-77.9-6.8-10.2-14.1-20.2-22.9-28.8-5-5-11.9-11.4-19.5-11.4-0.6 0-1-0.9-0.5-1.3 2.3-2 5.8-4.3 6.9-7.2 0.7-1.8-0.6-3.4-1.8-4.7-2.8-2.9-6-5.4-9-8-13.9-12-26.5-25.3-38.1-39.5-0.6-0.7 0.5-1.8 1.1-1.1z"/>
				</g>
			</g>
			<g id="&lt;Group&gt;">
				<g id="&lt;Group&gt;">
					<path id="&lt;Path&gt;" class="s23" d="m185.4 127.8c8.1 8.9 16.9 17.2 26.7 24.2 5.3 3.8 11 7.2 17 9.9 3.3 1.5 6.8 2.7 10.2 4.1 1.4 0.5 3.5 1.3 3.5 3.1 0 2.2-2.6 4.3-3.9 5.6q-0.3-0.6-0.5-1.3c1.6 0 3.2 0.2 4.8 0.5 8.8 2 16.3 8.5 22.5 14.6 9.5 9.1 17.7 19.5 25.3 30.2 8.9 12.4 17.1 25.3 24.9 38.5q6.1 10.2 11.8 20.7 2.6 4.8 5.2 9.7 1.4 2.6 2.8 5.2c0.7 1.4 1.4 3.8 2.6 4.6 0.9 0.6 2.4 0.8 3.4 1.1q1.7 0.6 3.4 1.2 2.7 0.9 5.5 1.9 5.8 2.1 11.6 4.3 10.9 4.2 21.6 9c13.8 6.3 27.2 13.5 40.2 21.4 14.2 8.8 28 18.2 41.4 28.2 13.3 9.8 26 20.2 38.9 30.5 25.9 20.7 53 40.7 84.8 51.2q-0.3 0.6-0.7 1.2c-1.4-1.7-2.9-3.4-4.4-5-9.2-9.1-19.9-16.8-30-24.8-13.1-10.4-26.1-21.1-37.8-33.1-12.2-12.4-23.2-26.3-30.7-42.1-3.5-7.4-6-15.3-9.3-22.9-3.5-7.8-7.3-15.5-11.5-23-17.9-32.5-41.5-61.8-68.6-87.1-28.5-26.6-61.5-49.1-97.8-63.8-35.8-14.6-74.8-21.3-113.4-16.5-1 0.1-1-1.4 0-1.5q7.2-0.9 14.4-1.3c38.5-2.1 76.8 7 111.7 23.1 35.1 16.3 66.9 39.6 94.4 66.8 26.1 25.9 48.7 55.7 65.4 88.5 3.7 7.4 7.2 14.9 10.2 22.7 3.2 8 6.2 15.8 10.6 23.3 9 15.5 21.2 28.9 34.2 41.1 11.9 11.1 24.7 21.2 37.5 31.3 5.3 4.1 10.5 8.2 15.6 12.6 3.7 3.3 7.5 6.7 10.6 10.6 0.4 0.6 0 1.6-0.8 1.3q-5.7-1.9-11.3-4.2c-30.2-12.3-56-32.7-81.2-52.9-25.7-20.7-51.9-40.7-80.4-57.3-13.2-7.7-26.8-14.5-40.8-20.5-7.6-3.3-15.4-6.3-23.2-9.1q-5.9-2.1-11.8-4.1c-0.8-0.3-2.4-0.5-3-1-0.5-0.4-0.7-1.3-1-1.8q-1.2-2.3-2.4-4.7c-14.1-26.9-29.5-53.4-47.7-77.7-7.6-10.2-15.7-20.2-25.3-28.5-6-5.2-13.8-11.1-22.2-10.9-0.7 0.1-1-0.8-0.6-1.2 1.1-1.1 2.2-2.2 3-3.5 0.4-0.6 0.6-1.1 0.4-1.5-0.8-1.1-3.6-1.8-5-2.3-4-1.5-8-3.1-11.8-5.1-15.3-7.9-28.4-19.8-40.1-32.4-0.6-0.7 0.4-1.8 1.1-1.1z"/>
				</g>
			</g>
			<g id="&lt;Group&gt;">
				<g id="&lt;Group&gt;">
					<path id="&lt;Path&gt;" class="s24" d="m166.1 129.3c8.3 7.9 17.4 14.9 27.7 20 10 4.9 20.8 7.3 31.9 7.2 1.7 0 4.7-0.6 6.2 0.5 1.7 1.1 0.1 3.3-0.7 4.5q-0.3-0.6-0.6-1.2 2.8-0.1 5.5 0.4c9.5 1.6 18 7.9 25.1 14 10.4 8.9 19.4 19.3 27.8 30 9.7 12.4 18.6 25.4 27 38.7q6.3 10 12.2 20.2 2.9 5 5.7 10 1.4 2.6 2.9 5.1c0.6 1.1 0.8 1.6 1.9 2.1 0.9 0.4 1.9 0.7 2.8 1.1 29.1 11.5 56.8 25.9 82.5 43.9 13.5 9.5 26.5 19.5 39.2 30 13 10.6 25.5 21.9 38.1 32.9 25.3 22 51.9 43.2 83.5 55.4q-0.4 0.6-0.8 1.2c-1.5-1.6-3.2-3.1-4.9-4.5-10.3-8.7-21.8-15.9-32.8-23.6-13.9-9.8-27.7-19.9-40.2-31.5-12.7-11.7-24.3-25.1-32.3-40.5-3.7-7.4-6.3-15.2-9.5-22.8-3.5-7.9-7.3-15.7-11.5-23.3-18.2-33.3-42.3-63.4-70.1-89.1-29-26.9-62.6-49.4-99.5-64-37.2-14.8-77.6-21-117.4-15.4-1 0.1-1.4-1.3-0.4-1.5q7.3-1 14.7-1.5c39.5-2.9 79.1 5.6 115.1 21.8 36.1 16.2 68.9 39.8 97 67.6 26.6 26.3 49.6 56.7 66.5 90.1 3.8 7.5 7.3 15.1 10.3 22.9 3.2 8.1 6.5 15.9 11.2 23.3 9.6 15.1 22.5 27.9 36.1 39.4 12.8 10.7 26.5 20.3 40.3 29.8 9.7 6.7 20.2 13.2 28.5 21.8 0.5 0.5 0 1.5-0.7 1.2q-5.6-2.2-11.1-4.7c-29.8-13.7-55-35.2-79.5-56.7-25-21.9-50.3-43.5-77.9-62-12.6-8.4-25.6-16.1-39.1-22.9q-10.6-5.3-21.5-10-6.1-2.6-12.2-5.1-1.7-0.6-3.4-1.3c-0.8-0.3-2.1-0.6-2.8-1.1-1-0.8-1.5-2.4-2.2-3.6-15-27.3-31.7-54.2-51.6-78.3-8.3-10.1-17.2-19.9-27.6-27.8-7-5.4-15.7-10.8-24.9-10.2-0.6 0.1-1-0.6-0.6-1.1 0.4-0.7 1.2-1.7 1.1-2.5 0.1 0.2 0.1 0-0.1 0q-0.5-0.2-1-0.2c-2.8-0.3-5.7 0.1-8.4 0-4.8-0.2-9.6-0.9-14.3-2.1-16.2-4.1-30.3-14.1-42.3-25.5-0.7-0.7 0.4-1.7 1.1-1.1z"/>
				</g>
			</g>
			<g id="&lt;Group&gt;">
				<g id="&lt;Group&gt;">
					<path id="&lt;Path&gt;" class="s25" d="m146.8 130.8c8.6 7 18.3 12.7 29 15.8 12 3.5 24.4 3.2 36.6 0.4 2.1-0.6 12.7-4.6 11.2 1.1q-0.4-0.4-0.8-0.9 3.2-0.3 6.3 0.2c10.4 1.4 19.8 7.3 27.9 13.6 11.2 8.6 21 19 30.1 29.7 10.4 12.3 20 25.2 29 38.6q6.8 10.1 13.2 20.5 3 5 5.9 10c0.6 0.9 1 1.9 1.7 2.8 0.6 1 1.3 1.3 2.4 1.8q3.1 1.4 6.1 2.8c28.1 13 54.3 29.2 78.5 48.4 26.4 21 50.5 44.3 75 67.4 24.6 23.1 50.6 45.3 81.7 59q-0.5 0.6-0.9 1.2c-1.8-1.5-3.8-3-5.7-4.3-11.3-8-23.5-14.8-35.2-22.1-14.7-9.1-29.1-18.6-42.3-29.7-13.2-11-25.5-23.7-34-38.8-4.1-7.3-6.8-15.2-10.1-22.9-3.5-8.2-7.5-16.2-11.7-24.1-18.4-33.7-42.8-64.2-70.9-90.3-29.7-27.5-64.2-50.4-102.2-64.9-38.5-14.8-80.2-20.3-121.1-14-1 0.1-1.4-1.3-0.4-1.5q7.3-1.1 14.7-1.8c40.8-3.6 81.8 4.4 119.2 20.8 36.9 16.1 70.4 40 99.1 68.2 27.1 26.7 50.5 57.7 67.6 91.8 3.9 7.7 7.4 15.6 10.6 23.7 3.2 8.1 6.9 15.7 11.9 22.8 10.2 14.7 23.7 26.8 37.9 37.5 13.6 10.3 28.1 19.3 42.7 28.2 10.4 6.4 21.6 12.4 30.9 20.4 0.7 0.6-0.2 1.5-0.9 1.1q-5.7-2.5-11.3-5.4c-29.4-15.4-54-38-77.9-60.7-24.1-23-48.4-46-75-66.2-11.8-9-24.1-17.3-36.9-24.8q-10.1-5.9-20.5-11.2-5.8-2.9-11.5-5.6-3.1-1.4-6.1-2.8c-1.4-0.6-3.6-1.1-4.6-2.4-1.1-1.5-1.9-3.4-2.9-5q-1.4-2.5-2.9-4.9-3-5.1-6.2-10.1-6.5-10.4-13.6-20.5c-9.1-13.1-18.8-25.9-29.5-37.8-9.1-10.2-19-20-30.3-27.7-8.1-5.4-17.7-10.4-27.8-9.5-0.5 0-0.8-0.5-0.7-1 0.2-0.7 0.3-1-0.4-1.1-1.1-0.2-2.5 0.3-3.5 0.5-9.4 2.1-18.5 4.1-28.1 3.5-16.6-1-31.6-8.4-44.4-18.7-0.7-0.6 0.4-1.7 1.1-1.1z"/>
				</g>
			</g>
			<g id="&lt;Group&gt;">
				<g id="&lt;Group&gt;">
					<path id="&lt;Path&gt;" class="s26" d="m127.3 132.2c9.1 6 19.2 10.2 30 11.5 14 1.7 27.9-1.3 41-6.1 4.1-1.4 8.1-3.3 12.3-4.3 1.8-0.5 4.5-0.9 5.2 1.3q-0.4-0.3-0.7-0.5 3.5-0.4 7 0c11.1 1.1 21.5 6.7 30.5 13 12 8.3 22.6 18.4 32.4 29.1 11.1 12 21.3 24.9 30.8 38.2q7.3 10.2 14.1 20.7 3.2 5 6.2 10c1.3 2.1 3.6 2.9 5.7 4q2.9 1.4 5.7 3c27.4 14.5 52.4 32.3 75.6 52.9 25.5 22.7 48.9 47.6 72.9 71.9 23.9 24.4 49.4 47.7 80.2 63q-0.4 0.7-0.8 1.3c-2-1.4-4-2.7-6.1-4-12.1-7.3-24.9-13.6-37.3-20.4-15.6-8.6-30.9-17.7-45.1-28.4-13.6-10.3-26.3-22.1-35.4-36.6-4.5-7.2-7.3-15-10.6-22.8-3.6-8.3-7.5-16.4-11.8-24.3-18.6-34.7-43.5-66.1-72.4-92.8-30.3-28-65.5-51-104.2-65.5-40-14.9-83.2-19.9-125.3-12.8-1 0.1-1.4-1.3-0.4-1.5q7.6-1.2 15.3-2c41.8-4.3 84 3.2 122.5 19.6 38 16.1 72.2 40.3 101.5 69.1 27.6 27.2 51.3 58.8 68.6 93.4q6 12 10.9 24.5c3.1 7.8 7.3 15.1 12.3 21.7 10.9 14.4 25.2 26 40 36.1 14.3 9.7 29.5 18.2 44.9 26.4 11.2 6 23 11.6 33.4 19 0.8 0.6 0.1 1.8-0.8 1.3q-5.6-2.8-11.1-6c-29.1-16.8-53.4-40.6-76.7-64.7-23.3-24-46.5-48.1-71.9-70-24-20.6-50.2-37.9-78.5-52.1-1.7-0.8-2.2-2.4-3.2-4q-1.5-2.3-3-4.7-3.2-5.2-6.7-10.3-6.8-10.3-14.1-20.2c-9.7-13.2-20.2-25.9-31.7-37.7-9.8-10.1-20.5-19.8-32.7-27.1-9.2-5.5-19.8-10-30.7-8.8-0.4 0-0.6-0.3-0.7-0.6-0.7-1.9-6.5 0.7-7.6 1.1-10.9 3.9-21.6 7.9-33.2 9.2-16.7 1.8-33-2.5-47-11.8-0.8-0.5-0.1-1.8 0.7-1.3z"/>
				</g>
			</g>
			<g id="&lt;Group&gt;">
				<g id="&lt;Group&gt;">
					<path id="&lt;Path&gt;" class="s27" d="m108 133.7c4.6 2.4 9.5 4.3 14.6 5.5 18 4.2 36.4-0.4 53.2-7.2 6.5-2.6 12.9-5.7 19.4-8.5 3.1-1.4 7.6-3.9 11.1-3.1 0.4 0.1 0.6 0.3 0.9 0.4 0.1 0 0.2 0.1 0.3 0.1 0.1 0 0.3 0 0.3 0 1.6 0.2 3.5-0.3 5.1-0.2 3.4 0 6.9 0.5 10.3 1.3 7.7 1.8 15.1 5.2 21.9 9.2 17.1 9.9 32 23.7 45.4 38.2 14.9 16 28.3 33.4 40.5 51.5q2.2 3.3 4.4 6.7c0.8 1.2 1.4 2.1 2.7 2.9 1.3 0.9 2.8 1.6 4.1 2.4q7.3 4.2 14.4 8.6c8.7 5.5 17.2 11.4 25.4 17.6 15.7 12 30.1 25.4 44 39.3 15.8 16 31.1 32.5 46 49.2 29.9 33.5 60.1 68.1 99.8 90.3q-0.4 0.6-0.7 1.3-3.4-2-6.8-3.8c-13.1-6.8-26.7-12.7-39.9-19.2-16.1-7.8-31.9-16.3-46.7-26.3-14.1-9.7-27.6-21-37.4-35.3-4.8-7-7.8-14.5-11.1-22.3-3.6-8.5-7.7-16.9-12-25-18.9-35.3-44.1-67.3-73.4-94.4-30.9-28.5-67-51.9-106.6-66.2-41.3-15-86-19.4-129.3-11.6-1 0.2-1.4-1.3-0.4-1.5q7.9-1.4 16-2.3c43.1-5 86.8 2.1 126.7 18.8 38.4 16.1 73.1 40.4 102.8 69.5 28.3 27.9 52.5 60.3 70.1 96 4 8.1 7.4 16.4 11 24.7 3.2 7.7 7.8 14.7 13.2 21 11.6 13.8 26.3 24.6 41.5 33.9 15.1 9.3 31 17.2 47 24.8 12 5.7 24.5 11 36 17.9 0.9 0.5 0.1 1.7-0.7 1.3q-7.2-4.1-14.1-8.6c-37.4-24.8-66-59.9-95.8-92.8-27.9-30.8-56.8-61.6-91-85.5-8.9-6.1-18-11.9-27.4-17.3q-2-1.2-4.1-2.4c-1-0.6-2.3-1-3.1-1.8-1.6-1.6-2.6-4.2-3.9-6.1q-4.4-6.8-9.1-13.4c-12.9-18.1-27-35.3-42.9-50.9-13.5-13.1-28.5-25.9-46-33.3-6.9-2.9-14.3-5-21.8-4.9-1.5 0-3.5 0.5-5 0.1-0.4-0.1-0.7-0.4-1.3-0.4-1.6-0.3-3.5 0.5-5 1-5.8 2-11.4 4.9-17 7.4-7.3 3.3-14.9 6.3-22.7 8.5-17.9 5-36.9 5.1-53.6-3.8-0.9-0.4-0.1-1.7 0.7-1.3z"/>
				</g>
			</g>
			<g id="&lt;Group&gt;">
				<g id="&lt;Group&gt;">
					<path id="&lt;Path&gt;" class="s28" d="m88.6 135.1c4.2 1.7 8.6 2.8 13.2 3.3 18.2 2.2 36.5-4.1 52.8-11.5 7.4-3.4 14.6-7.2 21.8-10.9 5.3-2.7 10.7-5.6 16.4-7.5 1.7-0.5 3.5-1 5.3-0.9 2.9 0.1 5.8-0.3 8.7-0.2 8.3 0.1 16.5 2.3 24.2 5.4 18.6 7.5 35 20.2 49.7 33.8 16.9 15.6 31.9 33.1 45.5 51.6 3.3 4.5 6.2 9.3 9.6 13.7 1.9 2.4 5.3 3.9 7.9 5.5q3.5 2.3 6.9 4.6c9 6 17.7 12.4 26.1 19.3 15.9 12.9 30.3 27.4 44.1 42.6 15.6 17.2 30.7 35 45.6 52.9 30 36.3 60.3 74 101.1 99 0.8 0.5 0.1 1.7-0.8 1.3q-3.6-1.9-7.4-3.5c-13.8-6.3-28-11.7-42-17.8-16.8-7.3-33.4-15.2-49.1-24.9-14.5-9-28.6-19.7-39-33.4-5-6.7-8.3-13.8-11.5-21.5-3.7-8.7-7.8-17.2-12.2-25.5-19.1-36.1-44.6-68.8-74.5-96.5-31.5-29.1-68.4-52.8-109-67.1-42.8-15.1-88.8-18.9-133.4-10.3-1 0.2-1.4-1.3-0.4-1.5q8.3-1.6 16.6-2.6c44.1-5.6 88.9 1 129.9 17.7 39.6 16 75.3 40.9 105.7 70.7 28.7 28.3 53.1 61.4 70.9 97.6 4.1 8.2 7.2 16.8 11.2 25 3.5 7.5 8.4 14.3 14.1 20.4 12.2 13.2 27.6 23.3 43.2 32.1 16.1 8.9 32.9 16.3 49.8 23.4 12.7 5.3 25.6 10.1 37.9 16.4q-0.4 0.6-0.8 1.3-7.5-4.6-14.5-9.8c-38.1-27.6-66.7-65.5-96.6-101.2-27.7-33-56.1-66.3-90.8-92.2-9.2-6.9-18.8-13.2-28.5-19.3-1.9-1.3-3-3.8-4.3-5.7q-2.4-3.4-4.8-6.8-5.2-7.2-10.7-14.1c-14.2-18.1-29.9-35.1-47.6-49.7-14.8-12.3-32-23.9-51.1-28.1-3.9-0.8-8-1.3-12.1-1.3-1.9 0-3.7 0.3-5.6 0.4-0.8 0-1.6-0.2-2.4-0.2-4.6-0.1-9.5 2.7-13.5 4.7-14.6 7.1-28.8 15.2-44.2 20.6-16.6 5.8-35 8.7-51.8 2.2-0.9-0.4-0.5-1.8 0.4-1.5z"/>
				</g>
			</g>
			<g id="&lt;Group&gt;">
				<g id="&lt;Group&gt;">
					<path id="&lt;Path&gt;" class="s29" d="m69.3 136.6c4.2 1.1 8.5 1.6 12.9 1.7 19.3 0.3 38.4-7.1 55.6-15.3 15.2-7.2 29.4-16 44.2-23.9 4.9-2.6 9.8-4.8 15.3-5.7 8-1.3 16.2-0.4 24 1.7 19.3 5.2 36.5 17.2 51.7 30 17.9 15.1 33.9 32.6 48.4 51.1q5.2 6.5 10 13.1c1.7 2.3 3.2 5.4 5.4 7.2 2.3 1.9 5.1 3.4 7.6 5.2 9.2 6.6 18.2 13.5 26.8 21 16.3 14 30.8 29.8 44.6 46.3 15.2 18.3 30 37.1 44.5 56 30.4 39.5 60.9 80.5 102.8 108.7 0.8 0.5 0.1 1.6-0.8 1.3q-4-1.8-8.1-3.4c-32.2-12.4-65.2-22.7-95.3-39.7-15.1-8.5-30-18.7-41-32.2-5.1-6.1-8.8-12.8-11.8-20.1-3.7-9-7.9-17.7-12.4-26.3-19.4-36.8-45.3-70.2-75.8-98.4-32.1-29.6-69.8-53.6-111.2-67.8-44.2-15.2-91.7-18.3-137.4-9-1 0.2-1.4-1.3-0.4-1.5q8.9-1.8 17.9-3c44.9-6.1 90.8 0 132.9 16.8 40.4 16 76.9 41.2 107.8 71.6 29.3 28.8 54 62.6 72.1 99.5q3.1 6.4 5.9 13c1.8 4 3.3 8.1 5.3 12 3.8 7.2 9 13.7 14.8 19.5 13 12.8 29.1 22.4 45.4 30.6 16.7 8.4 34.2 15.4 51.7 21.9 13.5 5 27.2 9.4 40.4 15.2q-0.4 0.6-0.8 1.3-7.2-4.9-14.1-10.3c-39.2-30.6-67.9-71.8-98.2-110.6-27.4-35.2-55-70.9-90.1-98.9q-7.3-5.8-14.9-11.2-3.9-2.8-7.9-5.5c-2.1-1.4-3.1-3.1-4.6-5.1q-10.2-14.3-21.5-27.7c-15-17.7-31.5-34.6-50.2-48.4-15.3-11.3-33.4-21.9-52.8-22.9-6.8-0.4-13.7 0.5-19.9 3.3-5.8 2.7-11.3 6-16.8 9.1-16 9.1-32.2 18.1-49.4 24.6-16.6 6.4-35.3 11.1-53 6.7-1-0.2-0.6-1.7 0.4-1.5z"/>
				</g>
			</g>
			<g id="&lt;Group&gt;">
				<g id="&lt;Group&gt;">
					<path id="&lt;Path&gt;" class="s30" d="m49.7 138.1c3.9 0.4 7.8 0.4 11.6 0 19.2-1.8 37.5-10.5 54.3-19.3 16.6-8.7 32.4-18.7 48.7-27.9 5.4-3.1 10.9-6.3 16.8-8.4 7.4-2.7 15.7-3.1 23.5-2.4 20.9 2 40.4 12.4 57.3 24.2 20.2 14.2 38.2 31.5 54.3 50.2q6 6.9 11.7 14 2.7 3.5 5.4 7.1c0.9 1.2 1.7 2.5 2.7 3.6 1.2 1.1 2.7 2 4 3 9.6 7.2 18.9 14.9 27.7 23 16 14.9 30.3 31.5 43.6 48.9 15.1 19.7 29.7 40 44.1 60.2 30.3 42.4 60.7 86.2 103.3 117.3 0.6 0.4 0.3 1.7-0.6 1.3q-4.2-1.5-8.5-3c-33.6-11.2-67.8-20.7-99.5-36.8-15.6-7.9-31.1-17.5-43-30.5-5-5.6-9.4-11.9-12.3-18.9-3.9-9.1-8-18.1-12.6-26.9-19.7-37.7-46.1-72.1-77.3-100.9-32.7-30.2-71.2-54.5-113.6-68.6-45.6-15.2-94.4-17.7-141.4-7.7-0.9 0.2-1.3-1.3-0.4-1.5q9.3-1.9 18.6-3.3c46.1-6.7 93.3-1.1 136.7 15.8 41 16 78 41.3 109.4 72.1 29.8 29.3 55 63.8 73.4 101.4q3.2 6.6 6.1 13.4c1.7 3.9 3.3 7.9 5.4 11.6 4.1 7.1 9.5 13.4 15.6 18.9 13.6 12.4 30.2 21.4 46.9 29 17.6 8 35.9 14.5 54.3 20.5 14.2 4.7 28.6 8.8 42.6 14q-0.3 0.7-0.5 1.4-7.3-5.4-14.3-11.2c-39.3-33.2-67.9-76.7-97.8-118.1-27.2-37.6-53.9-76-89.4-106.3q-7.4-6.3-15.2-12.2c-2.3-1.8-5.3-3.3-7-5.6-1.8-2.3-3.4-4.6-5.2-6.9-7.6-9.9-15.6-19.4-24.2-28.4-16.6-17.7-35-34.1-56-46.5-17.4-10.3-38.1-18.7-58.8-15.8-6.2 0.9-11.6 3.1-17.2 6-7 3.6-13.7 7.6-20.5 11.6-16.8 10-33.7 20.2-51.6 28.2-15.7 7.1-33.5 13.8-51.1 11.9-0.9-0.1-0.9-1.6 0-1.5z"/>
				</g>
			</g>
			<g id="&lt;Group&gt;">
				<g id="&lt;Group&gt;">
					<path id="&lt;Path&gt;" class="s31" d="m30.4 139.6c3.9-0.1 7.6-0.7 11.4-1.6 18.4-4.3 35.5-14.1 51.6-23.7 17.2-10.2 33.7-21.4 50.8-31.6 6.7-3.9 13.4-7.8 20.5-10.8 6.3-2.7 12.2-3.8 19.1-3.9 22.4-0.4 44.5 7.3 64.1 17.7 22.6 12 43 28.1 61 46.1 9.1 9 17.5 18.6 25.3 28.7 2.3 3 5.5 5.1 8.4 7.5q3.7 3 7.2 6.1 7.1 6.2 13.8 12.7c16.3 16 30.5 33.8 43.7 52.5 14.8 21 29 42.6 43.3 64 30.2 45.4 60.6 92.2 103.9 126.3 0.6 0.5-0.1 1.5-0.7 1.3q-4.5-1.5-8.9-2.7c-35.1-10.2-70.7-18.9-104-34.2-16.1-7.5-32.3-16.5-44.9-29.3-5.4-5.4-10.1-11.6-13.2-18.5-4.1-9.1-8-18.1-12.6-26.9-19.9-38.2-46.5-73-78.1-102.2-33.4-30.9-72.9-55.6-116.3-69.7-46.9-15.2-97-17.1-145.2-6.3-0.9 0.2-1.3-1.3-0.4-1.5q9.6-2.1 19.3-3.6c47.2-7.4 95.5-2.3 140.1 14.7 41.8 15.9 79.6 41.6 111.4 72.8 30.6 30 56.2 65.4 75 103.9 3.9 8.1 6.8 16.9 11.6 24.5 4.3 6.9 10 12.8 16.2 18 14.6 12.1 32.1 20.7 49.6 27.8 18.1 7.4 36.8 13.4 55.7 18.8 15 4.4 30.2 8.2 45.1 12.9q-0.4 0.6-0.8 1.3-7.8-6.2-15.1-12.9c-39.8-36.4-68.3-82.9-98.1-127.3-13.9-20.6-27.3-41.5-42.1-61.4-14-18.9-29.6-36.4-47.1-52q-7.3-6.5-15-12.6c-2.6-2.1-4.4-5-6.6-7.6q-2.9-3.6-5.9-7.2c-8.5-9.9-17.7-19.3-27.5-28-18.9-16.9-40.2-31.9-63.8-41.8-10.4-4.4-21.4-7.7-32.7-9.4-8.7-1.3-18.7-2.1-27.3 0.3-6.6 1.8-12.7 5-18.6 8.3-7.9 4.3-15.5 9.1-23.1 13.8-17.2 10.9-34.1 22-52 31.6-14.7 7.8-31.1 16-48.1 16.6-0.9 0-0.9-1.5 0-1.5z"/>
				</g>
			</g>
			<g id="&lt;Group&gt;">
				<g id="&lt;Group&gt;">
					<path id="&lt;Path&gt;" class="s32" d="m10.9 141.1c3.6-0.6 7.1-1.6 10.5-2.7 18.3-6.3 35.1-17.1 51.3-27.5 18-11.6 35.5-23.9 53.6-35.4 7.6-4.8 15.3-9.4 23.3-13.4 5.7-2.9 11.7-5.6 18.1-6.7 22.6-3.6 46.5 2.2 67.3 11 24.3 10.2 46.4 25.4 66 42.8 10.2 9 19.7 18.7 28.4 29.1 2.2 2.5 4.2 5.5 6.7 7.8 2.4 2.3 5.1 4.4 7.6 6.6q7.4 6.7 14.3 13.7c17 17.3 31.6 36.5 44.8 56.7 14.5 22.3 28.3 45.2 42.3 67.8 30.2 48.9 60.7 99.1 105 136.6 0.6 0.5 0 1.4-0.7 1.3q-4.7-1.3-9.5-2.5c-36.6-9.2-73.8-17.2-108.7-31.8-16.5-7-33.1-15.4-46.3-27.7-5.6-5.1-10.5-11.1-13.9-17.9-4.4-8.8-8.1-18-12.6-26.7-20.3-39-47.3-74.6-79.6-104.4-34.1-31.4-74.4-56.4-118.7-70.3-48.2-15.2-99.6-16.4-148.8-4.9-0.9 0.2-1.3-1.2-0.4-1.5q9.9-2.3 20-4c48.1-7.9 97.6-3.4 143.4 13.6 42.8 16 81.3 42 113.8 73.9 31.1 30.5 57 66.5 76 105.7 3.9 8 6.8 16.7 11.9 24.1 4.7 6.8 10.8 12.6 17.4 17.6 15.4 11.6 33.4 19.6 51.4 26.2 19 7 38.5 12.5 58.1 17.5 15.6 3.9 31.3 7.4 46.9 11.6q-0.4 0.6-0.7 1.3-8.1-6.8-15.6-14.2c-40.4-39.6-68.7-89.2-98.4-136.7-13.7-21.8-26.7-44.1-41.3-65.3-14.1-20.4-30.2-39.4-48.6-56.2q-4-3.7-8.1-7.2c-2.5-2.2-4.4-4.5-6.5-7.1q-6.3-7.6-13.1-14.7c-9.4-9.9-19.5-19.1-30.3-27.6-20.4-16.1-43.4-29.8-68.4-37.6-11.6-3.6-23.6-5.8-35.7-6-8.3-0.1-16.4 0.5-24.1 3.5-16.5 6.3-31.6 16.9-46.2 26.6-18 11.9-35.7 24.2-54.1 35.3-14.5 8.7-30.4 18.2-47.4 21.2-0.9 0.1-1.3-1.3-0.4-1.5z"/>
				</g>
			</g>
			<g id="&lt;Group&gt;">
				<g id="&lt;Group&gt;">
					<path id="&lt;Path&gt;" class="s33" d="m-8.4 142.6c3.5-1.1 6.9-2.5 10.2-4 18-8.3 34.6-19.9 50.8-31.2 18.8-13 37.3-26.5 56.4-39.2 14.2-9.4 29.4-19.8 46-24.7 9.5-2.8 20-3 29.8-2.4 12.7 0.7 25.3 3.4 37.4 7.3 25.8 8.4 49.6 22.4 70.8 39.1 11 8.7 21.4 18.2 30.9 28.4 4.7 5 8.9 10.6 14 15.3q8 7.4 15.5 15.3c17.4 18.3 32.2 38.8 45.2 60.4 14.4 23.7 27.6 48 41.5 72 30.1 52.2 60.5 105.6 105.6 146.5 0.6 0.5 0 1.4-0.7 1.3q-4.8-1.2-9.7-2.2c-38.1-8.2-76.6-15.4-113.1-29.3-16.9-6.4-34-14.2-48-26-5.8-4.9-11-10.6-14.8-17.3-2.2-3.9-3.7-8-5.6-12q-3.3-7.1-6.9-14.1c-20.5-40-48.1-76.5-81.1-107-34.5-31.9-75.4-57-120.4-71-49.8-15.4-102.8-16-153.4-3.7-0.9 0.2-1.3-1.2-0.4-1.5q10.1-2.4 20.2-4.2c49.6-8.7 100.8-4.7 148.1 12.7 43.6 16.1 82.8 42.5 115.7 75 31.5 31.1 57.7 67.8 77 107.7 3.8 7.9 6.7 16.4 12.1 23.4 5.1 6.6 11.6 12.1 18.4 16.8 16.1 11.1 34.5 18.4 52.9 24.5 35.8 11.9 72.8 18.2 109.4 26.7q-0.4 0.6-0.7 1.3-8.1-7.3-15.6-15.1c-41.2-43-69.8-96.2-99.3-147.4-13.2-22.8-25.6-46.2-39.9-68.3-14.3-22.1-30.9-42.4-50-60.6-2.8-2.6-5.6-5.1-8.1-8.1q-3.1-3.6-6.3-7.1-7.1-7.8-14.7-15.1c-10.3-9.7-21.4-18.7-33-26.7-22.2-15.2-47-27.4-73.5-32.9-12.3-2.5-24.9-3.5-37.4-2.3-8.1 0.8-15.4 3-22.7 6.4-17.7 8.3-34 19.7-50 30.8-18.4 12.8-36.6 26-55.3 38.5-14.6 9.7-30 20.1-46.9 25.5-0.9 0.3-1.3-1.2-0.4-1.5z"/>
				</g>
			</g>
			<g id="&lt;Group&gt;">
				<g id="&lt;Group&gt;">
					<path id="&lt;Path&gt;" class="s34" d="m-27.8 144.2c3.3-1.6 6.6-3.3 9.9-5.2 17.7-10.2 34.1-22.6 50.5-34.8 19.3-14.3 38.5-28.8 58.2-42.5 15.9-11 32.4-22.2 50.5-29.2 8.9-3.5 18.3-4.7 27.9-5.1 13.1-0.5 26.3 1 39.1 3.9 27.6 6.4 53.6 19.3 76.8 35.5 11.6 8.1 22.6 17.1 32.8 27q7.6 7.3 14.6 15.3c5 5.7 10.6 10.8 15.7 16.3 18.3 19.8 33.5 41.8 46.7 65.2 14 25 26.7 50.7 40.3 75.9 29.9 55.6 60.3 112.5 106.2 156.8 0.5 0.6-0.1 1.4-0.8 1.3q-5.1-1-10.2-2c-39.4-7.2-79.1-13.7-117.1-26.7-17.5-6-35.2-13.3-50-24.7-6-4.7-11.6-10.2-15.6-16.7-2.3-3.8-3.9-7.8-5.7-11.8q-3.3-7.1-6.9-14.1c-20.9-40.6-48.8-77.8-82.3-108.9-35.2-32.4-76.9-57.9-122.9-71.8-51.2-15.4-105.5-15.3-157.2-2.3-0.9 0.2-1.3-1.2-0.4-1.5q10.2-2.5 20.4-4.4c50.6-9.5 103.1-6 151.7 11.4 44.4 16 84.5 42.7 118 75.8 32.2 31.7 58.8 69.2 78.4 109.9 3.9 8 6.9 16.2 12.6 23 5.3 6.2 11.8 11.3 18.7 15.7 17 10.8 36.3 17.7 55.5 23.4 37.2 11.1 75.5 16.8 113.4 24.2q-0.3 0.6-0.7 1.3-8-7.8-15.5-16.1c-41.8-46.3-70.7-102.7-99.7-157.4-12.8-24.1-24.7-48.7-38.8-72-6.9-11.4-14.3-22.5-22.5-32.9-9.1-11.6-19.1-22.1-29.4-32.5-4.9-5.1-9.4-10.5-14.4-15.5q-7.6-7.6-15.8-14.6c-11.1-9.4-22.9-17.9-35.4-25.4-24.1-14.4-51-25.2-79-28.3-12.6-1.4-25.7-1.5-38.1 1.1-7.6 1.6-14.8 4.9-21.7 8.4-18.8 9.6-36.2 22-53.3 34.3-19.2 13.9-38 28.3-57.2 42.2-14.8 10.7-29.9 22.1-46.6 29.8-0.9 0.4-1.6-0.9-0.7-1.3z"/>
				</g>
			</g>
			<g id="&lt;Group&gt;">
				<g id="&lt;Group&gt;">
					<path id="&lt;Path&gt;" class="s35" d="m-47.1 145.7c3.2-2 6.3-4 9.5-6.2 17.6-12.2 34.4-25.7 51.2-39 19.6-15.4 39.1-30.8 59.4-45.4 17.3-12.4 35.3-24.9 54.9-33.5 20.8-9.1 44.5-9.4 66.7-6.2 29.1 4.3 57 15.7 81.9 31 12.6 7.8 24.6 16.6 35.7 26.3 11.3 10 21.7 21.1 31.8 32.3 18.9 21 34.4 44.4 47.4 69.3 13.9 26.5 26 53.8 39.4 80.5 29.5 58.8 59.8 118.8 106.2 166.4 0.6 0.6 0 1.4-0.7 1.3q-5.4-0.9-10.8-1.7c-40.9-6.3-82.1-12.1-121.7-24.4-18.1-5.7-36.6-12.6-52-23.9-6-4.3-11.6-9.4-15.8-15.5-2.3-3.5-3.9-7.3-5.7-11.1q-3.5-7.6-7.3-15c-21.2-41.1-49.3-78.8-83.3-110.2-35.7-33-78.4-58.9-125.2-72.7-52.6-15.5-108.2-14.6-161.1-0.9-0.9 0.2-1.3-1.2-0.4-1.5q10.5-2.7 21-4.8c51.9-10 105.7-7.1 155.6 10.5 45.1 16 85.7 43 119.7 76.5 32.8 32.3 59.8 70.7 79.8 112.1 3.8 7.8 6.8 15.4 12.6 21.8 5.7 6.3 12.7 11.2 19.9 15.4 17.6 10.3 37.4 16.7 57 22 38.8 10.4 78.6 15.4 118.1 21.9q-0.4 0.7-0.8 1.3-8.4-8.7-16.2-17.8c-20.9-24.6-38.4-51.9-54.2-80-16-28.4-30.6-57.7-44.9-87-12.5-25.5-23.9-51.5-38-76.2-6.7-11.8-14-23.1-22.2-34-9.4-12.5-19.9-23.9-30.6-35.3-20.2-21.9-44.4-40.2-70.9-53.8-26.1-13.4-55-22.4-84.5-23-11.7-0.3-24 0.4-35.3 3.8-8.5 2.6-16.6 6.6-24.3 10.8-20.1 11.1-38.7 24.6-57 38.4-19.8 14.8-39.1 30.3-58.6 45.6-14.8 11.5-29.6 23.4-45.6 33.2-0.8 0.5-1.6-0.8-0.7-1.3z"/>
				</g>
			</g>
			<g id="&lt;Group&gt;">
				<g id="&lt;Group&gt;">
					<path id="&lt;Path&gt;" class="s36" d="m-66.5 147.2q4.8-3.6 9.5-7.3c37.6-30.2 73.5-62.5 112.2-91.2 18.5-13.7 37.6-27.2 58.3-37.3 7.6-3.6 15.5-6.9 23.8-8.6 14.3-2.8 29.1-3.5 43.6-2.4 61.2 4.5 118.8 38.1 158.8 83.7 19.5 22.3 35.4 47.1 48.4 73.6 13.6 27.6 25 56.2 38 84.1 29.1 62.5 59.3 126.1 106.5 177.3 0.6 0.6 0 1.4-0.7 1.3q-5.8-0.8-11.7-1.6c-42.2-5.4-84.8-10.5-125.8-22-18.6-5.3-37.5-11.7-53.7-22.5-6.2-4.2-12.1-9.2-16.5-15.3-2.3-3.1-4-6.5-5.6-10.1q-3.5-7.5-7.4-15c-21.6-42-50.3-80.7-85.1-112.7-36.3-33.4-79.5-59.4-127-73.1-53.9-15.5-110.9-13.9-165 0.5-0.9 0.2-1.3-1.2-0.4-1.5q10.7-2.8 21.6-5.1c53-10.7 108.1-8.3 159.3 9.5 45.9 15.9 87.2 43.3 121.7 77.4 33.3 32.8 60.6 71.6 80.9 113.6 3.8 7.8 7 15.2 13.2 21.5 5.9 5.9 13 10.5 20.3 14.5 18.4 9.9 38.8 15.8 59 20.7 40.3 9.7 81.6 14.1 122.6 19.7q-0.4 0.7-0.7 1.3-8.5-9.2-16.3-18.9c-21.1-26.2-38.6-55-54.4-84.7-16-30.3-30.7-61.5-44.7-92.8-12-26.7-22.9-53.9-36.7-79.7-14.4-26.7-32.4-51.6-53.9-72.9-43.1-42.7-104.9-72.9-166.5-69.6-11.3 0.7-22.7 2.2-33.3 6.2-9.2 3.4-17.9 8-26.3 12.9-21.2 12.3-41 27-60.3 42.1-20.2 15.6-39.7 32-59.3 48.4-15 12.6-29.9 25.5-45.6 37.3-0.8 0.6-1.5-0.7-0.8-1.3z"/>
				</g>
			</g>
		</g>
	</g>
</svg>