<svg version="1.2" xmlns="http://www.w3.org/2000/svg" viewBox="0 0 534 747" width="534" height="747">
	<title>&lt;Group&gt;</title>
	<defs>
		<linearGradient id="g1" x1="-407.7" y1="59.7" x2="532.4" y2="59.7" gradientUnits="userSpaceOnUse">
			<stop offset="0" stop-color="#a08256"/>
			<stop offset=".3" stop-color="#b59973"/>
			<stop offset=".5" stop-color="#c7ae8d"/>
			<stop offset=".7" stop-color="#c7a67c"/>
			<stop offset="1" stop-color="#c7a06c"/>
		</linearGradient>
		<linearGradient id="g2" x1="-401" y1="72.8" x2="520.2" y2="72.8" gradientUnits="userSpaceOnUse">
			<stop offset="0" stop-color="#a08256"/>
			<stop offset=".3" stop-color="#b59973"/>
			<stop offset=".5" stop-color="#c7ae8d"/>
			<stop offset=".7" stop-color="#c7a67c"/>
			<stop offset="1" stop-color="#c7a06c"/>
		</linearGradient>
		<linearGradient id="g3" x1="-394.3" y1="85.6" x2="508.1" y2="85.6" gradientUnits="userSpaceOnUse">
			<stop offset="0" stop-color="#a08256"/>
			<stop offset=".3" stop-color="#b59973"/>
			<stop offset=".5" stop-color="#c7ae8d"/>
			<stop offset=".7" stop-color="#c7a67c"/>
			<stop offset="1" stop-color="#c7a06c"/>
		</linearGradient>
		<linearGradient id="g4" x1="-387.6" y1="97.9" x2="496.1" y2="97.9" gradientUnits="userSpaceOnUse">
			<stop offset="0" stop-color="#a08256"/>
			<stop offset=".3" stop-color="#b59973"/>
			<stop offset=".5" stop-color="#c7ae8d"/>
			<stop offset=".7" stop-color="#c7a67c"/>
			<stop offset="1" stop-color="#c7a06c"/>
		</linearGradient>
		<linearGradient id="g5" x1="-381" y1="109.7" x2="484" y2="109.7" gradientUnits="userSpaceOnUse">
			<stop offset="0" stop-color="#a08256"/>
			<stop offset=".3" stop-color="#b59973"/>
			<stop offset=".5" stop-color="#c7ae8d"/>
			<stop offset=".7" stop-color="#c7a67c"/>
			<stop offset="1" stop-color="#c7a06c"/>
		</linearGradient>
		<linearGradient id="g6" x1="-374.3" y1="121" x2="471.9" y2="121" gradientUnits="userSpaceOnUse">
			<stop offset="0" stop-color="#a08256"/>
			<stop offset=".3" stop-color="#b59973"/>
			<stop offset=".5" stop-color="#c7ae8d"/>
			<stop offset=".7" stop-color="#c7a67c"/>
			<stop offset="1" stop-color="#c7a06c"/>
		</linearGradient>
		<linearGradient id="g7" x1="-367.6" y1="131.5" x2="459.8" y2="131.5" gradientUnits="userSpaceOnUse">
			<stop offset="0" stop-color="#a08256"/>
			<stop offset=".3" stop-color="#b59973"/>
			<stop offset=".5" stop-color="#c7ae8d"/>
			<stop offset=".7" stop-color="#c7a67c"/>
			<stop offset="1" stop-color="#c7a06c"/>
		</linearGradient>
		<linearGradient id="g8" x1="-360.9" y1="134.6" x2="447.7" y2="134.6" gradientUnits="userSpaceOnUse">
			<stop offset="0" stop-color="#a08256"/>
			<stop offset=".3" stop-color="#b59973"/>
			<stop offset=".5" stop-color="#c7ae8d"/>
			<stop offset=".7" stop-color="#c7a67c"/>
			<stop offset="1" stop-color="#c7a06c"/>
		</linearGradient>
		<linearGradient id="g9" x1="-354.3" y1="131.1" x2="435.5" y2="131.1" gradientUnits="userSpaceOnUse">
			<stop offset="0" stop-color="#a08256"/>
			<stop offset=".3" stop-color="#b59973"/>
			<stop offset=".5" stop-color="#c7ae8d"/>
			<stop offset=".7" stop-color="#c7a67c"/>
			<stop offset="1" stop-color="#c7a06c"/>
		</linearGradient>
		<linearGradient id="g10" x1="-347.6" y1="127.5" x2="423.4" y2="127.5" gradientUnits="userSpaceOnUse">
			<stop offset="0" stop-color="#a08256"/>
			<stop offset=".3" stop-color="#b59973"/>
			<stop offset=".5" stop-color="#c7ae8d"/>
			<stop offset=".7" stop-color="#c7a67c"/>
			<stop offset="1" stop-color="#c7a06c"/>
		</linearGradient>
		<linearGradient id="g11" x1="-340.9" y1="123.6" x2="411.3" y2="123.6" gradientUnits="userSpaceOnUse">
			<stop offset="0" stop-color="#a08256"/>
			<stop offset=".3" stop-color="#b59973"/>
			<stop offset=".5" stop-color="#c7ae8d"/>
			<stop offset=".7" stop-color="#c7a67c"/>
			<stop offset="1" stop-color="#c7a06c"/>
		</linearGradient>
		<linearGradient id="g12" x1="-334.3" y1="119.5" x2="399.3" y2="119.5" gradientUnits="userSpaceOnUse">
			<stop offset="0" stop-color="#a08256"/>
			<stop offset=".3" stop-color="#b59973"/>
			<stop offset=".5" stop-color="#c7ae8d"/>
			<stop offset=".7" stop-color="#c7a67c"/>
			<stop offset="1" stop-color="#c7a06c"/>
		</linearGradient>
		<linearGradient id="g13" x1="-327.6" y1="115.2" x2="387.2" y2="115.2" gradientUnits="userSpaceOnUse">
			<stop offset="0" stop-color="#a08256"/>
			<stop offset=".3" stop-color="#b59973"/>
			<stop offset=".5" stop-color="#c7ae8d"/>
			<stop offset=".7" stop-color="#c7a67c"/>
			<stop offset="1" stop-color="#c7a06c"/>
		</linearGradient>
		<linearGradient id="g14" x1="-320.9" y1="110.6" x2="375.1" y2="110.6" gradientUnits="userSpaceOnUse">
			<stop offset="0" stop-color="#a08256"/>
			<stop offset=".3" stop-color="#b59973"/>
			<stop offset=".5" stop-color="#c7ae8d"/>
			<stop offset=".7" stop-color="#c7a67c"/>
			<stop offset="1" stop-color="#c7a06c"/>
		</linearGradient>
		<linearGradient id="g15" x1="-314.3" y1="105.8" x2="362.9" y2="105.8" gradientUnits="userSpaceOnUse">
			<stop offset="0" stop-color="#a08256"/>
			<stop offset=".3" stop-color="#b59973"/>
			<stop offset=".5" stop-color="#c7ae8d"/>
			<stop offset=".7" stop-color="#c7a67c"/>
			<stop offset="1" stop-color="#c7a06c"/>
		</linearGradient>
		<linearGradient id="g16" x1="-307.7" y1="100.7" x2="350.8" y2="100.7" gradientUnits="userSpaceOnUse">
			<stop offset="0" stop-color="#a08256"/>
			<stop offset=".3" stop-color="#b59973"/>
			<stop offset=".5" stop-color="#c7ae8d"/>
			<stop offset=".7" stop-color="#c7a67c"/>
			<stop offset="1" stop-color="#c7a06c"/>
		</linearGradient>
		<linearGradient id="g17" x1="-301" y1="95.4" x2="338.8" y2="95.4" gradientUnits="userSpaceOnUse">
			<stop offset="0" stop-color="#a08256"/>
			<stop offset=".3" stop-color="#b59973"/>
			<stop offset=".5" stop-color="#c7ae8d"/>
			<stop offset=".7" stop-color="#c7a67c"/>
			<stop offset="1" stop-color="#c7a06c"/>
		</linearGradient>
		<linearGradient id="g18" x1="-294.3" y1="89.9" x2="326.7" y2="89.9" gradientUnits="userSpaceOnUse">
			<stop offset="0" stop-color="#a08256"/>
			<stop offset=".3" stop-color="#b59973"/>
			<stop offset=".5" stop-color="#c7ae8d"/>
			<stop offset=".7" stop-color="#c7a67c"/>
			<stop offset="1" stop-color="#c7a06c"/>
		</linearGradient>
		<linearGradient id="g19" x1="-287.6" y1="84.2" x2="314.6" y2="84.2" gradientUnits="userSpaceOnUse">
			<stop offset="0" stop-color="#a08256"/>
			<stop offset=".3" stop-color="#b59973"/>
			<stop offset=".5" stop-color="#c7ae8d"/>
			<stop offset=".7" stop-color="#c7a67c"/>
			<stop offset="1" stop-color="#c7a06c"/>
		</linearGradient>
		<linearGradient id="g20" x1="-280.9" y1="78.2" x2="302.5" y2="78.2" gradientUnits="userSpaceOnUse">
			<stop offset="0" stop-color="#a08256"/>
			<stop offset=".3" stop-color="#b59973"/>
			<stop offset=".5" stop-color="#c7ae8d"/>
			<stop offset=".7" stop-color="#c7a67c"/>
			<stop offset="1" stop-color="#c7a06c"/>
		</linearGradient>
		<linearGradient id="g21" x1="-274.3" y1="72" x2="290.4" y2="72" gradientUnits="userSpaceOnUse">
			<stop offset="0" stop-color="#a08256"/>
			<stop offset=".3" stop-color="#b59973"/>
			<stop offset=".5" stop-color="#c7ae8d"/>
			<stop offset=".7" stop-color="#c7a67c"/>
			<stop offset="1" stop-color="#c7a06c"/>
		</linearGradient>
		<linearGradient id="g22" x1="-267.4" y1="65.6" x2="278.1" y2="65.6" gradientUnits="userSpaceOnUse">
			<stop offset="0" stop-color="#a08256"/>
			<stop offset=".3" stop-color="#b59973"/>
			<stop offset=".5" stop-color="#c7ae8d"/>
			<stop offset=".7" stop-color="#c7a67c"/>
			<stop offset="1" stop-color="#c7a06c"/>
		</linearGradient>
		<linearGradient id="g23" x1="-260.7" y1="59" x2="265.9" y2="59" gradientUnits="userSpaceOnUse">
			<stop offset="0" stop-color="#a08256"/>
			<stop offset=".3" stop-color="#b59973"/>
			<stop offset=".5" stop-color="#c7ae8d"/>
			<stop offset=".7" stop-color="#c7a67c"/>
			<stop offset="1" stop-color="#c7a06c"/>
		</linearGradient>
		<linearGradient id="g24" x1="-254.8" y1="52.3" x2="253.8" y2="52.3" gradientUnits="userSpaceOnUse">
			<stop offset="0" stop-color="#a08256"/>
			<stop offset=".3" stop-color="#b59973"/>
			<stop offset=".5" stop-color="#c7ae8d"/>
			<stop offset=".7" stop-color="#c7a67c"/>
			<stop offset="1" stop-color="#c7a06c"/>
		</linearGradient>
		<linearGradient id="g25" x1="-249.3" y1="45.7" x2="242.4" y2="45.7" gradientUnits="userSpaceOnUse">
			<stop offset="0" stop-color="#a08256"/>
			<stop offset=".3" stop-color="#b59973"/>
			<stop offset=".5" stop-color="#c7ae8d"/>
			<stop offset=".7" stop-color="#c7a67c"/>
			<stop offset="1" stop-color="#c7a06c"/>
		</linearGradient>
		<linearGradient id="g26" x1="-243.9" y1="39" x2="230.5" y2="39" gradientUnits="userSpaceOnUse">
			<stop offset="0" stop-color="#a08256"/>
			<stop offset=".3" stop-color="#b59973"/>
			<stop offset=".5" stop-color="#c7ae8d"/>
			<stop offset=".7" stop-color="#c7a67c"/>
			<stop offset="1" stop-color="#c7a06c"/>
		</linearGradient>
		<linearGradient id="g27" x1="-240.6" y1="32.3" x2="217.1" y2="32.3" gradientUnits="userSpaceOnUse">
			<stop offset="0" stop-color="#a08256"/>
			<stop offset=".3" stop-color="#b59973"/>
			<stop offset=".5" stop-color="#c7ae8d"/>
			<stop offset=".7" stop-color="#c7a67c"/>
			<stop offset="1" stop-color="#c7a06c"/>
		</linearGradient>
		<linearGradient id="g28" x1="-237.8" y1="25.6" x2="204.9" y2="25.6" gradientUnits="userSpaceOnUse">
			<stop offset="0" stop-color="#a08256"/>
			<stop offset=".3" stop-color="#b59973"/>
			<stop offset=".5" stop-color="#c7ae8d"/>
			<stop offset=".7" stop-color="#c7a67c"/>
			<stop offset="1" stop-color="#c7a06c"/>
		</linearGradient>
		<linearGradient id="g29" x1="-237.3" y1="18.9" x2="195.5" y2="18.9" gradientUnits="userSpaceOnUse">
			<stop offset="0" stop-color="#a08256"/>
			<stop offset=".3" stop-color="#b59973"/>
			<stop offset=".5" stop-color="#c7ae8d"/>
			<stop offset=".7" stop-color="#c7a67c"/>
			<stop offset="1" stop-color="#c7a06c"/>
		</linearGradient>
		<linearGradient id="g30" x1="-236.4" y1="12.2" x2="183.8" y2="12.2" gradientUnits="userSpaceOnUse">
			<stop offset="0" stop-color="#a08256"/>
			<stop offset=".3" stop-color="#b59973"/>
			<stop offset=".5" stop-color="#c7ae8d"/>
			<stop offset=".7" stop-color="#c7a67c"/>
			<stop offset="1" stop-color="#c7a06c"/>
		</linearGradient>
		<linearGradient id="g31" x1="-236.5" y1="5.5" x2="172.2" y2="5.5" gradientUnits="userSpaceOnUse">
			<stop offset="0" stop-color="#a08256"/>
			<stop offset=".3" stop-color="#b59973"/>
			<stop offset=".5" stop-color="#c7ae8d"/>
			<stop offset=".7" stop-color="#c7a67c"/>
			<stop offset="1" stop-color="#c7a06c"/>
		</linearGradient>
		<linearGradient id="g32" x1="-237.4" y1="-1.2" x2="160.7" y2="-1.2" gradientUnits="userSpaceOnUse">
			<stop offset="0" stop-color="#a08256"/>
			<stop offset=".3" stop-color="#b59973"/>
			<stop offset=".5" stop-color="#c7ae8d"/>
			<stop offset=".7" stop-color="#c7a67c"/>
			<stop offset="1" stop-color="#c7a06c"/>
		</linearGradient>
	</defs>
	<style>
		.s0 { fill: url(#g1) } 
		.s1 { fill: url(#g2) } 
		.s2 { fill: url(#g3) } 
		.s3 { fill: url(#g4) } 
		.s4 { fill: url(#g5) } 
		.s5 { fill: url(#g6) } 
		.s6 { fill: url(#g7) } 
		.s7 { fill: url(#g8) } 
		.s8 { fill: url(#g9) } 
		.s9 { fill: url(#g10) } 
		.s10 { fill: url(#g11) } 
		.s11 { fill: url(#g12) } 
		.s12 { fill: url(#g13) } 
		.s13 { fill: url(#g14) } 
		.s14 { fill: url(#g15) } 
		.s15 { fill: url(#g16) } 
		.s16 { fill: url(#g17) } 
		.s17 { fill: url(#g18) } 
		.s18 { fill: url(#g19) } 
		.s19 { fill: url(#g20) } 
		.s20 { fill: url(#g21) } 
		.s21 { fill: url(#g22) } 
		.s22 { fill: url(#g23) } 
		.s23 { fill: url(#g24) } 
		.s24 { fill: url(#g25) } 
		.s25 { fill: url(#g26) } 
		.s26 { fill: url(#g27) } 
		.s27 { fill: url(#g28) } 
		.s28 { fill: url(#g29) } 
		.s29 { fill: url(#g30) } 
		.s30 { fill: url(#g31) } 
		.s31 { fill: url(#g32) } 
	</style>
	<g id="&lt;Group&gt;">
		<g id="&lt;Group&gt;">
			<g id="&lt;Group&gt;">
				<g id="&lt;Group&gt;">
					<path id="&lt;Path&gt;" class="s0" d="m-406.9 211.2c3.9 3.6 7.7 7.3 11.5 11.1 43.7 44 82.8 92.4 130.5 132.3 22.5 18.8 47.7 37.2 76.2 45.6 38.3 11.4 79.6 4.4 115.8-10.6 80.4-33.6 156.4-76 228.5-124.8 64.5-43.7 131.4-93.1 209.8-107 58.3-10.3 131.9-2.2 168 50.8 0.1 0.3 0.1 0.7-0.2 0.9-5.7 5.1-12.3 8.7-19.8 10.5-16.4 4-34 0-49.6-5.4-19.8-6.9-38.9-16.3-58.1-24.6-43.4-18.8-87-37.4-131.3-54-33-12.4-66.4-23-100-33.5-19.7-6.1-39.5-12.3-59.4-17.7-45.5-12.5-92.1-20.9-139.4-21.6-58.2-0.9-115.9 9.9-170.6 29.5-76.8 27.4-147.2 70.7-212 119.7-0.8 0.6-1.5-0.7-0.8-1.3 17.7-13.4 35.7-26.2 54.1-38.4 60.2-40 125.4-73.7 195.2-93.2 51.9-14.5 105.9-20.5 159.7-16.7 44.5 3.1 88.1 12.8 130.8 25.2 58.5 17.1 116.5 35.8 173.1 58.2 41.8 16.6 83.1 34.5 124.3 52.4 17.8 7.8 35.6 16.5 54.9 20 9 1.7 18.5 2.2 27.5 0.3 4.5-1 9-2.6 13-5 1.3-0.8 6.1-3.2 6.4-4.5 0.3-1.7-1.3-3.1-2.3-4.4-19.5-26-50.2-40.3-81.4-46.1-34.5-6.5-70.7-3.7-104.4 5.5-80.3 21.8-147 76.3-215.6 120.9-36.9 24.1-75.2 46.1-114.5 66.1q-29.5 15.1-59.8 28.5c-18.5 8.2-37.2 17.1-57 21.9-33.6 8.2-70.3 7.9-102.1-6.4-28.1-12.7-52.7-32.7-75.5-53.2-24.9-22.5-48-47-70.8-71.7-18.2-19.7-35.9-40.1-55.7-58.2-0.8-0.7 0.3-1.8 1-1.1z"/>
				</g>
			</g>
			<g id="&lt;Group&gt;">
				<g id="&lt;Group&gt;">
					<path id="&lt;Path&gt;" class="s1" d="m-400.2 231.6c4 3.4 7.8 6.9 11.6 10.4 44.3 41.6 84.2 87.7 132.3 125.1 22.7 17.7 48 35 76.2 42.3 38.5 10.1 79 1.7 114.5-14.4 76.9-34.8 149.3-77.8 217.8-127 61.7-44.4 125.6-94.4 201.6-110.5 57.2-12.1 130.1-6.6 167.5 44.4 0.1 0.3 0.1 0.7-0.2 0.9-5.3 5.1-11.6 8.7-18.7 10.7-15.7 4.5-32.9 1.3-48.1-3.4-20-6.2-39.2-14.9-58.6-22.6-42.2-16.6-84.5-33.1-127.4-47.7-33.4-11.4-67.4-21.1-101.4-30.6-19.5-5.4-39-10.8-58.6-15.5-44.9-10.9-90.8-17.9-137.1-17.4-57.1 0.7-113.3 12.7-166.5 33.2-74.7 28.9-142.6 73.3-204.9 123.1-0.7 0.6-1.8-0.4-1.1-1 16.6-13.3 33.4-26.1 50.7-38.3 58-41 121-76 189-97.1 50.5-15.7 103.3-23.1 156.1-21 43.9 1.7 87.1 9.9 129.5 20.9 58.4 15 116.4 31.8 173.1 52.2 42 15.1 83.5 31.7 125 48.1 17 6.7 34 14.1 52.2 16.8 8.7 1.2 17.8 1.4 26.5-0.8 4.3-1.1 8.5-2.8 12.4-5.2 1.6-1 3.7-2.1 4.9-3.7 1.9-2.2 0.2-3.1-1.6-5.4-20.1-24.5-50.5-37.4-81.1-42.1-34-5.3-69.3-1.6-102 8.3-78 23.6-141.6 78.6-207.4 124.1-35.4 24.5-72.2 47.1-110 67.7q-28.5 15.5-57.7 29.5c-18.1 8.6-36.4 17.9-55.9 23.2-32.8 8.8-68.8 9.3-100.4-4-27.6-11.5-52.1-30-74.9-49.2-25.3-21.4-48.9-44.7-72.2-68.2-18.4-18.5-36.3-37.8-56.2-54.8-0.7-0.6 0.4-1.6 1.1-1z"/>
				</g>
			</g>
			<g id="&lt;Group&gt;">
				<g id="&lt;Group&gt;">
					<path id="&lt;Path&gt;" class="s2" d="m-393.5 252c4 3.1 7.9 6.4 11.7 9.8 45.2 39.4 86.2 83.4 135 118.5 22.7 16.3 47.8 32.1 75.3 38.3 37.4 8.5 76.6-0.3 110.3-16.7 74.2-36.1 143.8-80.1 209.3-130.1 58.9-45 119.5-95.6 192.9-114.2 56.1-14.2 129.1-11.7 168 37.5 0.3 0.3 0.3 0.7 0 1-5 5.2-11.1 8.9-18 11-15.3 4.8-32.2 2.2-47.3-1.9-19.3-5.2-38.1-13-56.9-19.7-42.5-15.2-85.1-30.1-128.2-43.3-33.2-10.1-66.7-18.4-100.4-26.6-19.3-4.7-38.7-9.4-58.2-13.5-44.4-9.2-89.7-14.6-135.1-12.6-56.1 2.4-111.1 15.9-162.7 37.7-71.8 30.4-136.6 75.5-195.7 125.8-0.7 0.6-1.8-0.4-1.1-1 15.8-13.5 32-26.5 48.6-39 55.6-41.8 116.4-77.9 182.5-100.5 49.1-16.8 100.8-25.5 152.7-24.9 43.1 0.5 85.7 7.2 127.6 16.6 58.3 13.1 116.2 27.9 173 46.3 42 13.6 83.5 28.6 125.1 43.4 17 6.1 34.1 12.7 52.3 14 8.2 0.6 16.7 0.1 24.6-2.6 4.5-1.5 8.7-3.8 12.4-6.8 1.8-1.4 3.4-2.1 2.3-4.2-0.7-1.3-2-2.4-3-3.5-21.4-23.6-52.7-35-83.8-38.2-33.4-3.4-67.6 1.7-99.2 12.7-74.9 26.2-135.1 81.5-198 127.6-34 24.9-69.3 48-105.7 69.1q-27.4 15.9-55.6 30.4c-17.2 8.8-34.4 18-52.9 23.4-32 9.5-67.1 10.8-98.5-1.4-27.2-10.6-51.8-27.9-74.7-45.8-25.4-20-49.2-41.8-72.7-63.9-18.7-17.5-36.9-35.8-57-51.7-0.7-0.6 0.3-1.6 1.1-1z"/>
				</g>
			</g>
			<g id="&lt;Group&gt;">
				<g id="&lt;Group&gt;">
					<path id="&lt;Path&gt;" class="s3" d="m-387 272.2q5.8 4.3 11.3 8.8c45.6 36.7 87.1 78 135.8 110.7 22.9 15.4 48 30 75.2 35.7 35.9 7.6 74.6-1.2 106.6-17.9 72.2-37.7 139.7-83 202.8-134.3 56.3-45.8 113.8-97.1 184.9-117.8 54.8-16 127.1-16 167.3 31 0.3 0.3 0.3 0.7 0 1-4.7 5.1-10.4 8.9-17 11.2-14.4 5.1-30.6 3.4-45.2 0.1-19.1-4.3-37.8-11.3-56.6-17.3-41.9-13.3-84-26.5-126.5-38-33.4-9-67.1-16.2-100.9-23.2-19.4-4-38.7-8.1-58.1-11.4-43.8-7.6-88.2-11.5-132.6-8.3-55.2 4-109 19-159.3 42.1-69.2 31.8-131.2 77.8-187.5 128.8-0.7 0.7-1.8-0.4-1.1-1.1 15.4-13.9 31.2-27.5 47.5-40.5 53-42.3 111.2-79.1 174.9-103 47.8-17.9 98.3-27.9 149.4-28.9 42.3-0.8 84.3 4.6 125.7 12.5 58.2 11 116.1 23.7 173.1 40.1 41.6 12 82.9 25.3 124.2 38.5 16.3 5.2 32.8 10.7 50.1 11.2 8 0.3 16.1-0.5 23.6-3.4 4.3-1.7 8.3-4 11.8-7 1.7-1.5 3.2-2.1 2-4.1-0.8-1.2-2.1-2.3-3.2-3.4-21.8-22.3-53-32.3-83.5-34.5-33.1-2.3-66.7 3.8-97.5 15.7-72.9 28.3-130.2 84.7-190.9 131.9-32.2 25-65.6 48.3-100.2 69.8q-26.3 16.3-53.4 31.3c-16.6 9.1-33.1 18.5-51.1 24.4-30.9 9.9-65 12.2-95.9 1.4-27.4-9.5-52.3-25.7-75.6-42.7-25.2-18.4-49-38.6-72.6-59.1-19.1-16.6-37.8-34-58.2-49-0.8-0.5-0.1-1.8 0.7-1.3z"/>
				</g>
			</g>
			<g id="&lt;Group&gt;">
				<g id="&lt;Group&gt;">
					<path id="&lt;Path&gt;" class="s4" d="m-380.3 292.6c4 2.8 8 5.6 11.9 8.5 45.9 34.3 88.2 73 137 103.1 23 14.2 48 27.7 74.9 32.4 35.3 6.3 73-3.3 103.8-20.5 69.6-39.2 134.4-85.7 194.7-138.1 53.3-46.3 107.7-98 176.2-120.7 53.6-17.8 125-20.4 166.6 24.4 0.3 0.3 0.3 0.7 0 1.1-4.4 5-9.8 8.9-16 11.3-13.8 5.5-29.4 4.4-43.7 1.9-18.8-3.5-37.2-9.7-55.6-14.8-41.7-11.6-83.5-23.1-125.7-32.9-33.5-7.8-67.2-13.9-101-19.7-19.2-3.2-38.3-6.5-57.6-9.2-43.3-6-87.1-8.4-130.7-3.8-54 5.7-106.4 21.9-155 46.2-66.9 33.3-126.1 80.2-179.6 132-0.7 0.7-1.8-0.4-1.1-1.1 14.6-14.1 29.7-27.9 45.2-41.1 50.6-43.2 106.5-81 168.2-106.3 46.4-19.1 95.7-30.5 145.8-33 41.7-2.2 83.3 1.8 124.5 8.1 58.1 9 115.9 19.7 172.9 34 41.4 10.4 82.4 22 123.5 33.5 16 4.4 32.3 9 49.1 8.6 8-0.2 16.1-1.6 23.3-5.1 3.7-1.8 7.1-4.2 10.1-7.1 1.3-1.3 1.9-1.6 0.8-3.2-1-1.4-2.8-2.8-4-4-22.8-21-54.1-29.3-84.4-30.1-33.1-0.9-66.5 6.6-96.7 20-69.3 30.8-122.8 86.8-180.4 134.5-30.7 25.4-62.7 49.2-95.8 71.3q-25.3 16.8-51.4 32.2c-15.9 9.4-31.8 19-49.2 25.1-30 10.5-63.1 13.5-93.7 3.9-27.2-8.6-52.2-23.6-75.6-39.4-25.4-17-49.4-35.9-73.3-55.1-19.3-15.5-38.2-31.7-58.8-45.6-0.8-0.5 0-1.8 0.8-1.3z"/>
				</g>
			</g>
			<g id="&lt;Group&gt;">
				<g id="&lt;Group&gt;">
					<path id="&lt;Path&gt;" class="s5" d="m-373.6 313c4.1 2.5 8 5.2 12 7.9 46.4 31.8 89.5 68.1 138.6 95.9 23.1 13 48.2 25.2 74.7 29 34.3 5 71.1-5 100.3-22.7 66.5-40.3 128.3-87.5 185.2-140.3 50.9-47.2 102.2-99.9 168.4-125.1 52.6-20 123.9-25.6 167.1 17.3 0.3 0.3 0.3 0.7 0 1.1-4.2 5.2-9.5 9.1-15.6 11.8-13 5.4-27.7 5.1-41.3 3.3-18.2-2.5-36.1-7.8-53.9-12.1-41.5-9.9-83-19.7-124.9-27.9-33.8-6.6-67.8-11.5-101.9-16.1-18.9-2.6-37.9-5.1-56.9-7.1-43-4.4-86.5-5.3-129.4 0.7-52.8 7.3-103.5 24.9-150.3 50.1-64.6 34.8-121.2 82.8-172 135.4-0.6 0.7-1.7-0.4-1-1.1 13.8-14.3 28.1-28.3 42.8-41.7 48.5-44.2 102.4-83.4 162.5-110.2 44.9-20 92.7-32.6 141.7-36.7 41.2-3.4 82.5-0.9 123.5 4 57.8 6.9 115.3 15.4 172.2 27.6 40.8 8.7 81.3 18.6 121.9 28.3 15.4 3.7 31 7.2 47 6.3 7.6-0.5 15.3-2 22.1-5.5 3.5-1.8 6.7-4.1 9.5-6.8 1.5-1.6 2.8-2.2 1.4-3.9-1.1-1.3-2.6-2.3-3.8-3.4-23.4-20.1-55-27.2-85.2-26.8-32.7 0.4-65.4 9-94.7 23.4-66.7 32.8-117.2 89.4-172.1 137.9-29.2 25.9-59.7 50.1-91.5 72.7q-24.3 17.4-49.5 33.4c-15.1 9.6-30.2 19.2-46.9 25.6-28.9 11-60.9 14.8-91 6.6-26.9-7.3-51.9-21-75.6-35.5-25.9-16-50.6-33.9-75.1-52-19.4-14.3-38.6-29.4-59.1-42.1-0.8-0.5 0-1.8 0.8-1.3z"/>
				</g>
			</g>
			<g id="&lt;Group&gt;">
				<g id="&lt;Group&gt;">
					<path id="&lt;Path&gt;" class="s6" d="m-366.9 333.4c4 2.3 8.1 4.7 12 7.2 46.7 29.2 90.5 63 139.6 88.3 23.5 12.1 49 23.4 75.5 26.2 33 3.5 68.4-6.8 96.1-24.6 64.1-41.2 123.3-90.1 177.3-143.8 48.7-48.4 97.3-102.2 161.8-129.3 51.1-21.5 120.9-29.4 165.2 10.9 0.2 0.2 0.3 0.7 0.1 0.9-3.7 5-8.3 8.9-13.8 11.7-12.4 6.2-27.1 6.6-40.7 5.3-17.6-1.6-34.9-6-52.2-9.4-41.5-8.3-83-16.5-124.8-23.1-33.9-5.3-67.9-9-101.9-12.3-18.7-1.8-37.4-3.6-56.2-4.8-42.7-2.9-85.6-2.3-127.9 5.1-51.4 9-100.5 27.8-145.5 54-62.4 36.3-116.4 85.4-164.5 138.9-0.6 0.7-1.7-0.4-1-1.1 13-14.5 26.4-28.6 40.3-42.2 46-45.1 97.7-85.3 155.8-113.7 43.4-21.2 90.1-35.1 138.1-40.8 40.4-4.8 81.1-3.8 121.5-0.5 57.2 4.7 114.1 10.9 170.6 20.8 40.8 7.1 81.4 15.4 121.9 23.4 15.3 3.1 30.8 5.9 46.4 4.3 7.3-0.7 14.7-2.5 21.1-6.2 3.3-1.9 6.3-4.2 8.9-7 0.4-0.4 1.2-1.1 1.4-1.6 0.9-2.1 0.5-0.9-0.3-2.1-1-1.5-3.6-3.1-5-4.1-23.9-18.2-55-23.8-84.4-22.2-32.7 1.7-65.2 11.7-93.8 27.4-63.9 35-111.1 92-163.2 141.4-27.8 26.2-56.9 50.9-87.3 74.1q-23 17.5-46.9 33.8c-14.4 9.9-28.8 19.7-45.1 26.4-28.2 11.6-59.4 16.1-89.3 8.9-26.8-6.5-52-19.1-75.9-32.5-25.7-14.5-50.4-30.9-74.9-47.5-19.7-13.3-39.1-27.2-59.8-38.9-0.8-0.5-0.1-1.8 0.8-1.3z"/>
				</g>
			</g>
			<g id="&lt;Group&gt;">
				<g id="&lt;Group&gt;">
					<path id="&lt;Path&gt;" class="s7" d="m-360.3 353.8c4.3 2.1 8.4 4.4 12.5 6.7 47.1 26.8 91.5 58.1 140.8 81 23.6 10.9 49.2 21 75.4 22.9 32.3 2.3 66.6-8.8 93.1-26.9 61.5-42.2 117.8-92.5 168.7-146.9 46-49.2 91.6-103.9 153.8-133.1 49.9-23.4 118.8-33.9 164.5 4.1 0.3 0.2 0.3 0.7 0.1 0.9-3.4 4.9-7.7 8.9-13 11.8-11.7 6.6-26 7.5-39.2 6.9-17.2-0.8-34.4-4.4-51.5-7.1-41.2-6.6-82.4-13.1-123.8-18-52-6.2-104.7-9.6-157.1-11.1-42.1-1.2-84.2 0.9-125.5 9.5-50.6 10.6-98.6 30.9-142.2 58.4-59.9 37.8-111.2 87.9-156.4 142-0.6 0.8-1.7-0.3-1.1-1 12.2-14.7 24.9-28.9 38-42.8 43.6-46 93.1-87.4 149.3-117.3 42.4-22.5 88.2-37.8 135.7-45 39.4-6 79.3-6.4 119.1-4.6 57.3 2.5 114.4 6.6 171.2 14.3 40.2 5.5 80.2 12.1 120.3 18.4 14.8 2.4 30 4.3 44.9 1.9 6.8-1.1 13.5-3.2 19.3-6.8 3.1-1.9 6-4.3 8.3-7.1 2-2.3 2.2-2.6 0-4.3q-2.3-1.8-4.7-3.4c-24.7-16.9-55.7-21-84.9-18.2-32.1 3.1-63.6 14.2-91.2 30.8-61.4 37-105.6 94.9-155.3 145.2-26.5 27-54.6 52.5-83.9 76.4q-21.3 17.4-43.5 33.7c-14.2 10.4-28.3 20.6-44.6 27.6-26.9 11.7-56.5 16.6-85.4 10.8-26.7-5.4-52-16.7-76.1-29-26.2-13.3-51.3-28.5-76.3-43.9-19.8-12.2-39.3-25-60-35.5-0.9-0.5-0.1-1.8 0.7-1.3z"/>
				</g>
			</g>
			<g id="&lt;Group&gt;">
				<g id="&lt;Group&gt;">
					<path id="&lt;Path&gt;" class="s8" d="m-353.6 374.1q6.3 2.9 12.4 6.1c47.7 24.4 92.9 53.4 142.6 73.9 23.6 9.7 48.7 18.5 74.4 19.6 31.5 1.3 64.6-10.3 90-28.5 29.8-21.3 57.8-45.9 84.5-70.9 26.4-24.8 51.5-50.9 75.2-78.2 43.4-50 85.7-105.4 145.2-137.3 48.7-26.1 118-40.1 165.6-4 0.3 0.2 0.5 0.7 0.2 1-3.1 4.9-7.2 8.9-12.1 12-11.5 7-25.7 8.5-38.9 8.3-17-0.1-34.1-3-51.1-5-40.2-4.8-80.4-9.5-120.8-12.7-51.9-4.1-104.2-5.4-156.3-5-41.5 0.4-83.1 3.9-123.6 13.9-49.5 12.1-96.1 33.7-138.1 62.3-57.7 39.3-106.5 90.5-148.9 145.6-0.6 0.7-1.9 0-1.3-0.8 11.4-14.8 23.2-29.3 35.6-43.3 41.1-46.9 88.1-89.3 142.2-120.7 40.9-23.7 85.5-40.5 131.9-49.4 39.1-7.4 78.8-9.3 118.5-9.1 57.4 0.3 114.6 2.3 171.7 7.8 39.4 3.8 78.7 8.7 118 13.3 14.4 1.7 29.2 2.8 43.5-0.2 6.6-1.4 13-3.6 18.5-7.4 3.1-2.1 6.6-5 8.5-8.2 1.1-1.9 0.8-1.8-0.9-3q-2.2-1.6-4.6-3.1c-25.6-16.1-57.3-18.7-86.6-14.5-31.6 4.6-62.2 16.9-88.7 34.6-58.4 38.8-99.3 97-146.1 148-25.3 27.6-52 53.7-80.1 78.4q-20.9 18.3-42.8 35.6c-13.1 10.3-26.1 20.1-41.3 27.1-26.2 12.3-55 17.8-83.7 13-26.4-4.4-51.8-14.6-76.1-25.7-26.1-11.9-51.3-25.7-76.3-39.6-20.1-11.2-40-23-60.9-32.6-0.9-0.4-0.1-1.7 0.7-1.3z"/>
				</g>
			</g>
			<g id="&lt;Group&gt;">
				<g id="&lt;Group&gt;">
					<path id="&lt;Path&gt;" class="s9" d="m-347.1 394.5q6 2.4 11.9 5.1c47.9 21.7 93.5 48.1 143 66.4 23.8 8.7 49.1 16.5 74.6 17 31.5 0.6 64-11.8 88.9-30.7 14.2-10.9 27.7-23.1 41-35.2q20.3-18.4 39.7-37.9c25-25.3 48.6-51.9 70.9-79.7 40.9-51 80.4-107.5 138-141.1 47.2-27.5 114.8-43.7 163.3-10.3 0.3 0.3 0.4 0.7 0.2 1-2.9 5-6.8 9.2-11.6 12.4-10.9 7.1-24.4 9.1-37.1 9.5-17 0.7-34.2-1.6-51.2-2.9-39.7-3-79.4-6-119.2-7.6-51.7-2-103.6-1.2-155.2 1.2-41.1 2-82.1 7-121.7 18.4-48.3 13.7-93.5 36.6-133.9 66.4-55.4 40.8-101.5 93.1-141.1 149.1-0.6 0.7-1.9 0-1.3-0.8 10.5-14.9 21.5-29.5 33-43.7 38.7-47.9 83.5-91.5 135.8-124.5 39.6-24.9 83.1-43.1 128.7-53.6 38.4-8.8 77.6-12.1 116.8-13.4 57-1.9 113.8-2.2 170.7 1 39.1 2.2 78.2 5.4 117.3 8.3 13.9 1.1 28.3 1.4 42-2.1 6.8-1.8 13.4-4.5 18.9-9.1 2.2-1.8 5.9-4.8 6.8-7.6 0.6-1.9-0.5-1.9-2.3-3q-1.8-1.2-3.6-2.2c-26-14.8-57.5-16.2-86.4-10.9-31 5.7-60.6 19-86.2 37.5-56 40.4-94 99.4-138.1 151.4-23.6 27.8-48.7 54.4-75.1 79.5q-20 18.9-40.9 36.7c-12.7 10.8-25.3 21-40.1 28.6-25.7 13-54.2 19.4-82.9 15.5-26.4-3.5-51.9-12.5-76.4-22.5-26-10.6-51.2-22.9-76.3-35.5-20.2-10.1-40.3-20.8-61.3-29.3-0.8-0.4-0.5-1.8 0.4-1.4z"/>
				</g>
			</g>
			<g id="&lt;Group&gt;">
				<g id="&lt;Group&gt;">
					<path id="&lt;Path&gt;" class="s10" d="m-340.4 414.8q6.2 2.2 12.3 4.7c48.3 19.4 94.6 43.3 144.3 59.2 24 7.7 49.3 14.2 74.6 13.8 31.1-0.6 63-14.1 86.8-33.8 13.5-11.2 26.2-23.7 38.8-36q19.2-18.8 37.3-38.6c24-26.3 46.5-53.9 67.5-82.5 38.2-51.8 74.8-108.8 130.3-143.9 45.6-28.8 111.3-46.9 160.6-16.3 0.3 0.3 0.4 0.7 0.2 1.1-2.6 5-6.4 9.2-11 12.5-10.4 7.5-23.7 9.9-36.3 10.9-16.6 1.3-33.5-0.1-50.2-0.7-39.7-1.4-79.4-2.7-119.2-2.7-51.3 0.1-102.8 3-153.8 7.6-40.6 3.6-80.9 10.2-119.7 23-47.3 15.6-91.2 40.1-130 71.2-52.6 42.3-95.5 95.3-132 151.6-0.6 0.9-1.9 0.1-1.3-0.7 9.9-15.4 20.4-30.6 31.4-45.3 35.8-48 77.7-92.1 127.1-126.3 37.9-26.1 80-45.7 124.3-58 37.4-10.3 76-15.3 114.6-18.2 55.2-4.2 110.5-6.9 166-6.2 38.6 0.5 77.3 2 115.9 3.3 14.5 0.5 29.2 0.9 43.4-2.6 6.4-1.5 12.8-3.9 18.3-7.6 2.7-1.9 5.2-4.1 7.3-6.6 0.8-1 2.7-3 3-4.3 0.4-1.3 0.6-0.5 0.3-1.2-0.2-0.5-2.2-1.3-2.7-1.6-25.6-14.5-56.4-15.8-84.7-10.2-30.5 5.9-59.6 19.5-84.5 38.1-55 41.1-90.4 101.4-131.8 154.9-22.1 28.5-45.7 55.8-70.8 81.7q-19.2 19.9-39.4 38.6c-12.2 11.3-24.4 22.2-38.9 30.5-24.9 14.1-52.9 21.7-81.5 19.2-26.4-2.3-52.2-10.1-77-18.9-26.2-9.3-51.7-20.3-77.1-31.6-20.7-9.2-41.3-19-62.8-26.6-0.9-0.3-0.5-1.8 0.4-1.5z"/>
				</g>
			</g>
			<g id="&lt;Group&gt;">
				<g id="&lt;Group&gt;">
					<path id="&lt;Path&gt;" class="s11" d="m-333.7 435.2q6.3 1.9 12.5 4.1c48.6 17 95.4 38.5 145.1 52 24.1 6.5 49.4 12 74.5 10.7 30.8-1.6 61.8-16 84.8-36.2 13-11.5 25-24.4 36.9-37.1q18.2-19.4 35.4-39.7c22.8-27.1 44-55.5 63.7-84.9 35.4-52.6 69.1-110.1 122.3-146.8 44.1-30.3 108.3-50.5 158.4-22.6 0.4 0.3 0.5 0.7 0.3 1.1-2.4 5.1-6 9.5-10.5 12.9-10.2 7.8-23.5 10.8-36.1 12.2-16.9 1.9-34.2 1.2-51.2 1.3-39.5 0.3-79 0.7-118.4 2.5-50.6 2.2-101.2 7.2-151.4 13.9-40 5.3-79.7 13.6-117.6 27.9-45.9 17.3-88.2 43.3-125.1 75.6-49.8 43.6-89.7 97.4-123.2 154.2-0.4 0.9-1.7 0.1-1.2-0.7q7.1-12.2 14.6-24.1c33.5-52.9 73.4-102.3 122.2-141.8 36.6-29.6 78-52.9 122.5-68.4 37.5-13 76.5-20.3 115.7-25.2 53.4-6.7 106.9-11.7 160.6-13.6 39.5-1.4 78.9-1.6 118.3-1.9 15.7-0.1 31.5 0.2 46.9-3.3 13.3-3.1 26.6-9.4 32.6-22.3q0.2 0.5 0.3 1c-6-3.3-12.3-6-18.9-8-27.7-8.5-57.8-5-84.8 4-29.3 9.7-55.8 26.1-78.4 47-49 45-80.3 105-119.1 158.2-20.6 28.2-42.8 55.3-66.3 81.2q-18.2 20-37.5 38.9c-11.1 10.9-22.7 20.4-36.4 28-24 13.3-50.3 19.9-77.8 17.9-25.9-1.8-51.3-8.5-76-16.2-26.1-8.1-51.6-17.9-77-27.8-20.2-7.8-40.3-16.2-61.1-22.5-0.9-0.3-0.5-1.8 0.4-1.5z"/>
				</g>
			</g>
			<g id="&lt;Group&gt;">
				<g id="&lt;Group&gt;">
					<path id="&lt;Path&gt;" class="s12" d="m-327 455.6q6.4 1.6 12.7 3.5c48.7 14.6 96.1 33.6 145.9 44.8 24.2 5.5 49.6 9.8 74.5 7.7 30.3-2.6 60.3-17.7 82.4-38.3 12.6-11.8 23.9-25.3 35.2-38.3q17.1-19.8 33.2-40.6c21.5-27.8 41.3-56.8 59.7-86.7 32.6-53.5 63.4-111.9 114.5-150.4 42.7-32.2 105.6-54.6 156.7-29.3 0.3 0.2 0.5 0.6 0.4 0.9-2.2 5.2-5.5 9.7-9.8 13.3-9.9 8.3-23.2 11.7-35.7 13.7-16.4 2.5-33.2 2.5-49.8 3.4-39.7 2-79.4 4-119 7.5-32.6 2.9-64.9 7.3-97.2 12-17.7 2.7-35.4 5.2-52.9 8.3-39.6 7-78.6 16.9-115.6 32.8-44.5 19-85 46.3-120 79.6-47.3 45.1-84.3 99.7-114.8 157.2-0.4 0.9-1.7 0.1-1.3-0.7 8.1-15.3 16.6-30.3 25.6-44.9 30.5-49.5 67.3-95.7 112.2-132.9 34.2-28.3 72.8-50.7 114.3-66.4 35.5-13.4 72.5-21.8 109.9-28 50.5-8.3 101.3-15.4 152.2-19.5 38.5-3.1 77-5.1 115.6-7 15.7-0.8 31.7-0.9 47.2-4.1 12.6-2.6 26.4-7.5 34.2-18.4 0.9-1.3 1.9-2.7 2.4-4.1 0.9-2.2-0.4-2.2-2.2-3.1q-4.9-2.2-10-3.8c-6.9-2.2-14-3.6-21.3-4.4-14.6-1.5-29.5-0.2-43.9 3-30.1 6.7-58.4 21.4-82.3 40.8-52.3 42.5-82.4 104.9-117.8 160.8-19.1 30.1-40 59.1-62.4 86.9q-17.4 21.5-35.9 41.9c-11 12.1-21.9 24.1-35.3 33.6-23.5 16.7-51.1 27-80.1 27.2-26.2 0.1-52.4-5.2-77.7-11.7-27.1-6.9-53.8-15.6-80.4-24.5-21.1-7.1-42.2-14.9-63.8-20.3-1-0.3-0.6-1.7 0.4-1.5z"/>
				</g>
			</g>
			<g id="&lt;Group&gt;">
				<g id="&lt;Group&gt;">
					<path id="&lt;Path&gt;" class="s13" d="m-320.3 476q6.2 1.3 12.4 2.8c49.3 12.3 97.4 28.9 147.4 37.9 24.2 4.4 49.4 7.5 74 4.6 30-3.5 59-19.4 80.4-40.5 12-11.9 22.5-25.7 33.1-38.9q16.8-21.3 32.5-43.4c19.9-28.2 38.1-57.6 54.8-87.8 30.1-54.8 58.2-114.5 107.9-154.6 41.1-33.3 101.9-57.3 153.5-34.7 0.3 0.1 0.5 0.5 0.4 0.8-2 5.5-5.2 10.2-9.6 14-9.8 8.6-23 12.5-35.6 14.8-16.4 3.1-33.4 3.9-50 5.5-39.7 3.7-79.4 7.5-118.9 12.8-31.8 4.2-63.3 9.9-94.8 15.9-17.4 3.4-34.9 6.7-52.2 10.5-38.8 8.6-77.1 20.1-113.1 37.4-43.2 20.7-82.2 49.4-115.4 83.9-44.8 46.4-78.9 102-106.4 160.1-0.4 0.9-1.7 0.1-1.3-0.8 7.2-15.2 14.9-30.3 23.1-45.1 27.7-49.9 61.8-96.8 104.2-135.4 32.5-29.5 69.7-53.5 110-70.8 34.6-14.9 70.9-24.9 107.6-32.7 48.4-10.2 97.2-19.3 146.3-25.6 37.8-4.8 75.6-8.4 113.5-12 16.6-1.5 33.5-2.3 49.9-5.7 12.6-2.6 26.5-7.1 35.3-17.1q1.9-2.1 3.3-4.5c0.6-1 2.5-3.7 2.3-4.8-0.2-1.3-7.8-3.2-9.1-3.6-6.8-2.2-13.7-3.5-20.7-4.3-14.6-1.4-29.4 0-43.6 3.4-29.7 7-57.6 22.1-80.9 41.7-51.4 43.3-78.9 106.8-111.3 163.9-18 31.7-37.9 62.3-59.5 91.6q-15.7 21.3-32.5 41.6c-10.9 13.2-21.7 26.3-35.4 36.8-22.7 17.4-49.6 28.6-78.3 30-26 1.2-52.1-3-77.5-8.2-27.5-5.6-54.7-13.1-81.7-20.8-21.4-6.1-42.7-12.8-64.5-17.3-1-0.2-0.6-1.6 0.4-1.4z"/>
				</g>
			</g>
			<g id="&lt;Group&gt;">
				<g id="&lt;Group&gt;">
					<path id="&lt;Path&gt;" class="s14" d="m-313.7 496.4q6.5 1 12.9 2.3c49.3 9.9 97.7 24 147.6 30.8 24.3 3.3 49.6 5.4 74 1.6 29.3-4.4 57-20.5 77.6-41.7 11.9-12.3 21.9-26.7 31.9-40.5q15.5-21.3 29.8-43.3c18.6-29 35.6-59 50.8-89.8 27.8-56.1 52.8-117.3 100.7-159.7 39.6-35 99.3-61.5 151.9-41.5 0.3 0.1 0.6 0.5 0.5 0.9-1.7 5.4-4.6 10.1-8.6 14-9.4 9.2-22.9 13.7-35.5 16.6-17.1 3.9-34.7 5.5-52 7.9-39.2 5.4-78.4 10.9-117.4 17.9-31 5.5-61.6 12.5-92.2 19.7-17.3 4.1-34.7 8.1-51.9 12.7-38.1 10.2-75.5 23.3-110.5 41.8-41.9 22.4-79.3 52.3-110.7 87.9-42.4 47.9-73.8 104.5-98.3 163.3-0.4 0.9-1.8 0.5-1.5-0.4q4.9-11.8 10.2-23.5c25.1-55.1 57.1-107.8 99-151.9 31.8-33.4 69.1-61.2 110.4-81.7 34.7-17.3 71.7-29.4 109.2-39 50.8-13.2 102.2-24.8 153.9-33.5 39-6.5 78.2-11.8 117.3-17.2 15.7-2.2 31.6-3.8 46.7-9 12.9-4.5 26.2-12.1 30.4-26q0.3 0.5 0.6 0.9c-6.3-2.3-12.7-4.1-19.2-5.2-28.1-4.7-57.2 2.2-82.6 14.2-26.8 12.6-50.5 31.3-69.8 53.8-42.6 49.9-64.9 112.9-95.9 169.8-16.7 30.7-35.1 60.3-55.2 88.8q-14.9 21.1-30.9 41.4c-9.5 12-20.6 22.4-33.2 31.1-12.6 8.6-26.4 15.6-41.1 19.7-10.6 3-21.6 4.3-32.6 4.7-25.5 1.1-51.1-2.2-76.2-6.4-26.4-4.5-52.5-10.5-78.6-16.7-20.5-4.8-41-10.1-61.8-13.4-1-0.1-0.6-1.6 0.3-1.4z"/>
				</g>
			</g>
			<g id="&lt;Group&gt;">
				<g id="&lt;Group&gt;">
					<path id="&lt;Path&gt;" class="s15" d="m-307.2 516.7q6.1 0.7 12.1 1.6c49.5 7.4 98.1 19.3 148 23.9 24.5 2.3 49.7 3.4 74-0.9 29.2-5.2 56.1-21.5 76.1-43.1 11.5-12.4 20.8-27.2 30.2-41.2q14.5-21.8 27.8-44.4c17.4-29.6 33-60.3 46.9-91.7 25.3-57.5 47.1-120.1 93.3-164.8 38-36.9 96.7-65.7 150.2-48.2 0.3 0.1 0.6 0.5 0.5 0.9-1.4 5.5-4.3 10.5-8.2 14.6-9.1 9.5-22.4 14.4-34.8 17.8-17 4.7-34.7 7-52 10.2-39.1 7.1-78.3 14.4-117.1 23.1-30.5 6.8-60.5 15-90.5 23.5-17.1 4.8-34.1 9.6-51 14.9-37.7 11.8-74.6 26.4-108.7 46.5-40.7 24-76.5 55.4-106.2 92.1-39.8 49.3-68.3 106.8-89.8 166.2-0.4 0.9-1.8 0.5-1.5-0.4q4.5-12.5 9.5-24.9c22.3-55.5 51.5-108.8 90.9-154 30.1-34.5 65.9-63.6 106-85.8 33.9-18.7 70.4-32.4 107.4-43.7 50.1-15.2 100.8-29 152-39.9 38.7-8.2 77.6-15.3 116.5-22.3 15.5-2.9 31.4-5.1 46.2-10.9 12.9-4.9 26.2-13.1 29.8-27.4q0.3 0.5 0.6 0.9c-6.5-2.1-13.1-3.5-19.8-4.3-28.3-3.3-56.9 4.8-81.8 17.8-26.2 13.8-49 33.4-67.2 56.8-40.3 51.8-59.5 115.9-87.9 174.2-15.3 31.2-32.4 61.5-51.1 90.7-9.5 14.7-19.4 29.3-29.7 43.4-8.9 12-19.8 22.4-31.8 31.1-12.3 8.8-25.9 16.1-40.4 20.4-10.2 3.1-20.7 4.7-31.3 5.5-25.5 2-51.3-0.2-76.7-3.3-26.1-3.3-52.1-8-78-12.8-20.7-3.9-41.5-8.2-62.5-10.6-0.9-0.1-0.9-1.6 0-1.5z"/>
				</g>
			</g>
			<g id="&lt;Group&gt;">
				<g id="&lt;Group&gt;">
					<path id="&lt;Path&gt;" class="s16" d="m-300.5 537.1q6.5 0.4 12.9 1.1c49.3 5.2 98.1 14.6 147.7 17 24.6 1.3 49.7 1.3 73.9-3.8 28.8-6.1 54.9-22.8 74.3-44.9 11.1-12.6 19.6-27.6 28.3-41.9q13.8-22.6 26.1-46c16.2-30.6 30.6-62.1 43.1-94.5 22.4-58.2 41.1-121.4 84.9-168 36.5-38.8 94.1-69.8 148.5-54.9 0.5 0.1 0.7 0.5 0.6 0.9-1.2 5.7-3.9 10.8-7.7 15.1-9 10.1-22.5 15.5-35 19.4-17 5.3-34.8 8.5-52.1 12.4-38.5 8.8-76.9 17.7-115 28-30.2 8.1-60 17.7-89.7 27.4-16.9 5.6-33.8 11.1-50.5 17.1-37.1 13.5-73.3 29.7-106.5 51.2-39.5 25.7-73.8 58.5-101.7 96.5-37.3 50.7-62.9 109-81.4 168.9-0.2 0.9-1.7 0.5-1.4-0.4q3.9-12.8 8.3-25.4c19.4-56 46-110.1 83-156.7 28.5-35.9 63.1-66.5 102.3-90.4 33.1-20.2 69-35.3 105.5-48.1 49.2-17.3 99-33.2 149.4-46.3 38.6-9.9 77.4-18.7 116.2-27.5 15.9-3.6 32.2-6.6 47.2-13.3 12.3-5.6 24.8-14.2 27.6-28.3q0.3 0.5 0.5 1c-6.6-1.9-13.5-3.1-20.4-3.5-28.4-1.9-56.5 7.3-80.8 21.5-25.8 14.9-47.8 35.7-64.9 60-37.7 53.7-53.7 118.7-79.5 178.2-13.8 31.8-29.6 62.7-47 92.7-8.8 15-17.8 29.9-27.6 44.2-8.4 12.3-19.2 23-31 32-11.9 9.1-25.2 16.7-39.5 21.4-10.1 3.4-20.7 5.3-31.3 6.5-25.5 2.9-51.3 1.8-76.8-0.3-26.1-2.1-52-5.6-78-9.2-20.7-2.9-41.5-6.2-62.5-7.6-0.9 0-0.9-1.5 0-1.5z"/>
				</g>
			</g>
			<g id="&lt;Group&gt;">
				<g id="&lt;Group&gt;">
					<path id="&lt;Path&gt;" class="s17" d="m-293.8 557.5q6.2 0.1 12.4 0.5c49.4 2.9 98.5 10 148 10.4 24.6 0.2 49.7-0.7 73.7-6.5 28.3-6.8 53.3-23.4 72.2-45.5 11.1-12.9 19.1-28.2 27.3-43.1q12.6-22.9 23.9-46.5c15.1-31.7 28.2-64.3 39.3-97.5 19.9-59.6 35.3-124.2 77.2-173.1 35-40.8 91.5-74.1 146.9-61.7 0.5 0.1 0.6 0.6 0.6 0.9-0.9 5.9-3.5 11.2-7.3 15.7-8.7 10.5-22.1 16.4-34.7 20.9-16.9 5.9-34.6 9.9-51.9 14.6-38.4 10.5-76.8 21.2-114.7 33.2-29.6 9.4-58.7 20.1-87.7 31.1-16.7 6.2-33.4 12.5-49.9 19.3-17.8 7.3-35.3 15.2-52.3 24.1-18.1 9.4-35.5 19.9-52.1 31.7-18.1 12.9-35.1 27.4-50.7 43.2-17.4 17.8-33.1 37.3-46.8 58-15.7 23.6-29 48.8-40.3 74.9-13.5 31.1-24 63.5-32.4 96.4-0.2 0.9-1.7 0.5-1.4-0.4q3.3-13 7.1-25.8c9-30.7 20.1-60.9 33.9-89.7 11.9-24.7 25.7-48.5 41.8-70.6 14-19.3 29.7-37.3 47-53.6 15.7-14.9 32.8-28.3 50.7-40.4 16.8-11.2 34.3-21.1 52.3-30 16.8-8.4 34-15.8 51.4-22.7 16.2-6.5 32.7-12.6 49.1-18.8 32.7-12.4 65.6-23.9 99.1-34.1 38-11.6 76.4-22 114.8-32.5 15.8-4.3 32.2-8 47-15.4 12.1-6 24.4-15.2 26.5-29.5q0.3 0.5 0.5 1c-6.6-1.5-13.4-2.4-20.2-2.6-28.7-0.7-56.8 9.8-80.7 25.1-25 16-46 37.6-62 62.6-35.7 55.9-48.4 122.5-71.9 183.7-12.4 32.5-26.8 64.2-43.1 94.9-8 15.1-16 30.5-25.4 44.8-8.4 12.8-19.2 24-31.1 33.4-11.5 9-24.2 16.6-38 21.5-10.2 3.6-20.9 5.8-31.7 7.3-25.1 3.6-50.6 3.7-75.9 2.7-26.2-1-52.3-3.3-78.5-5.7-20.6-2-41.3-4.3-62-4.7-1 0-1-1.5 0-1.5z"/>
				</g>
			</g>
			<g id="&lt;Group&gt;">
				<g id="&lt;Group&gt;">
					<path id="&lt;Path&gt;" class="s18" d="m-287.1 577.9q6.2-0.2 12.4-0.1c49 0.7 97.7 5.4 146.7 3.9 24.6-0.7 49.7-2.6 73.6-8.9 27.5-7.2 51.4-23.1 69.9-44.7 10.9-12.8 18.4-27.5 25.9-42.4q12-23.8 22.5-48.3c14-32.5 26-66 35.8-100 17.7-61.6 29.4-128.4 69.5-180.3 33.4-43.2 89.2-79.3 145.8-69.3 0.3 0.1 0.6 0.5 0.6 0.8-0.6 5.9-2.8 11.2-6.4 16-8.3 10.9-21.5 17.5-34 22.4-16.8 6.8-34.5 11.6-51.8 17.1-38.1 12.2-76.2 24.5-113.8 38.2-29.4 10.7-58.3 22.8-87.1 35-16.5 7-32.9 14-49.2 21.5-17.4 8.1-34.6 16.7-51.2 26.3-17.8 10.2-35 21.6-51.2 34.2-17.4 13.6-33.7 28.7-48.6 45.2-16.6 18.4-31.3 38.5-44.1 59.8-14.8 24.5-27 50.5-37.1 77.3-11.8 31.6-20.7 64.2-27.5 97.2-0.2 1-1.6 0.6-1.4-0.4 3.2-15.8 6.9-31.5 11.2-47.1 14.6-52.6 36-103.7 67-148.8 24.4-35.3 54.6-66.2 89.2-91.6 30-22 62.8-39.6 96.6-55 15.3-7 30.8-13.6 46.2-20.2 26.5-11.2 52.9-22.3 79.8-32.3 35.8-13.2 72-25.1 108.4-36.8 17.4-5.6 34.9-11 52.3-16.7 13.5-4.4 27.6-10 38.5-19.4 5-4.2 9.3-9.5 11.4-15.7 0.3-1.1 1.7-4.5 1.2-5.5-0.3-0.7-3.7-0.7-4.4-0.8q-5.3-0.7-10.6-0.8c-15.1-0.4-30.1 2.4-44.3 7.4-29.5 10.3-55.6 29.7-76.1 53-46.4 52.7-58.7 124.4-77.5 189.7-10.2 35.6-22.9 70.5-37.7 104.5q-11.1 25.5-23.8 50.2c-4 7.9-7.9 15.8-12.8 23.1-4.4 6.7-9.5 13-15 18.9-11.2 11.8-24.3 22.2-38.8 29.7-10.5 5.4-21.7 9-33.2 11.6-25.5 5.8-51.9 7.3-78 7.7-27.6 0.4-55.3-0.8-82.9-2.1-21.9-1-44-2.6-66-2-1 0-1-1.5 0-1.5z"/>
				</g>
			</g>
			<g id="&lt;Group&gt;">
				<g id="&lt;Group&gt;">
					<path id="&lt;Path&gt;" class="s19" d="m-280.4 599.8c20.4-1.4 40.9-1 61.3-0.9 25.8 0.1 51.6 0.1 77.4-1 25.2-1.1 50.5-3.1 75.3-8.2 10.9-2.2 21.7-5.1 32.1-9.1 12.4-4.9 23.8-11.7 34.1-20.1 11.9-9.7 22.5-21.2 30.9-34 9.3-14.2 15.8-30.4 22.5-46 13.9-32.4 25.9-65.7 35.8-99.6 9.5-32.8 16.1-66.2 23.6-99.5 7.5-33.2 16.5-66.4 31.9-96.9 13.7-27.1 32.8-51 56.8-69.7 23.1-17.9 51.1-31.2 80.7-32.9 6.9-0.5 13.8-0.2 20.7 0.7q-0.3-0.4-0.7-0.7c-0.8 15.1-13.5 25.6-25.7 32.7-14.9 8.6-31.5 13.7-47.5 19.6-37.7 13.7-75.3 27.5-112.6 42.4-32.1 12.9-63.6 27-94.9 41.9-16 7.6-32 15.1-47.8 23.1-17.1 8.5-33.8 17.5-50.1 27.3-17.4 10.5-34.1 22-49.9 34.6-17 13.6-32.9 28.5-47.4 44.8-15.8 17.8-29.9 37.2-42.2 57.6-14 23.4-25.6 48.3-35.1 73.9-11.2 30.2-19.4 61.4-25.5 93q-2.5 13-4.5 26c-0.1 1 1.3 1.4 1.5 0.4 5.1-33.4 12.5-66.4 22.9-98.6 8.8-27.2 19.7-53.6 33.3-78.7 11.9-21.9 25.8-42.7 41.6-61.9 14.1-17.2 29.9-33.1 46.8-47.5 15.7-13.4 32.5-25.5 49.9-36.5 16.4-10.4 33.3-19.8 50.5-28.6 16.1-8.3 32.4-16 48.7-23.7 28.2-13.4 56.4-26.6 85.2-38.6 37.1-15.3 74.8-29.3 112.5-43.1 17.1-6.2 34.6-11.8 51.3-19.1 12.8-5.6 26.4-12.8 34.6-24.5 3.5-4.9 5.6-10.5 5.9-16.5 0-0.5-0.4-0.7-0.8-0.8-57.8-7.5-112.9 31.6-144.4 77.1-38.3 55.1-46 123.9-61.5 187.5-8.4 34.4-19 68.3-31.7 101.4q-9.7 25.3-20.9 49.9c-3.6 7.8-7 15.8-11.3 23.2-4 6.8-8.6 13.2-13.7 19.2-10.5 12.4-23 23.3-37 31.6-9.8 5.7-20.3 9.8-31.2 12.9-24 6.9-49.1 9.7-74 11.4-48.3 3.3-96.6 0.9-145 2.4q-6.2 0.2-12.4 0.6c-1 0-1 1.5 0 1.5z"/>
				</g>
			</g>
			<g id="&lt;Group&gt;">
				<g id="&lt;Group&gt;">
					<path id="&lt;Path&gt;" class="s20" d="m-273.8 618.7q6.3-0.7 12.5-1.2c22.2-1.6 44.4-2.1 66.6-3.1 26.4-1.1 52.7-2.5 79-5.4 24.7-2.7 49.6-6.5 73.4-14.1 10.7-3.5 21.1-7.8 30.7-13.6 13.8-8.4 25.9-19.6 36.1-32.1 4.9-6.1 9.4-12.6 13.3-19.5 4.1-7.4 7.3-15.3 10.5-23.1q10.4-25.5 19.1-51.6c11.5-34.3 20.8-69.3 27.7-104.8 6.6-33.5 10.8-67.4 18.3-100.7 7.2-32.2 17.5-64.4 35.4-92.4 15.6-24.5 36.7-45.9 61.4-61.3 24-14.9 52-23.8 80.4-21.4 0.4 0.1 0.8 0.3 0.8 0.8 0 6.1-1.9 11.9-5.2 17-7.9 12.1-21.5 19.9-34.1 26.1-16.7 8-34.2 14.4-51.4 21.5-37.3 15.4-74.6 31.1-111.3 48.1-28.4 13.1-56.1 27.4-83.7 42-16.1 8.4-32.1 16.8-47.9 25.8-17 9.6-33.7 19.8-49.8 30.9-17.1 11.8-33.5 24.7-48.8 38.8-16.4 15.2-31.6 31.9-45.1 49.8-14.9 19.7-27.8 40.9-38.7 63.2-12.6 25.8-22.5 53-30.1 80.7-8.9 32.9-14.7 66.5-18.3 100.3-0.1 1-1.6 1-1.5 0q1.3-12.8 3.1-25.5c4.5-32.2 11.3-64.2 21.2-95.2 8.3-26 18.8-51.4 31.7-75.5 11.4-21.1 24.8-41.2 39.9-59.8 13.9-17 29.3-32.7 45.8-47.1 15.4-13.5 31.8-25.7 48.8-37 16.1-10.6 32.6-20.3 49.5-29.6 15.6-8.7 31.5-16.9 47.3-25.3 31.1-16.4 62.6-32 94.7-46.4 36.5-16.4 73.5-31.7 110.5-46.9 16-6.6 32.7-12.6 47.5-21.9 11.9-7.6 24.4-18.7 24.4-34q0.4 0.3 0.7 0.7c-6.9-0.6-14-0.5-20.9 0.2-29.7 2.9-57.3 17.4-79.8 36.3-23.4 19.7-41.6 44.5-54.2 72.3-14.2 31.5-21.6 65.4-27.6 99.2-6 34.5-11.2 69-19.5 103.1-8.6 35.3-19.5 70-32.5 103.9-5.9 15.3-11.5 31.1-20.2 45-8.4 13.2-18.9 25.2-30.9 35.2-18.7 15.7-40.8 24.4-64.3 30.1-24.9 6-50.5 9-76 11.2-25.8 2.2-51.7 3.2-77.6 4.3-20.3 0.7-40.7 1.2-60.9 3.5-0.9 0.1-0.9-1.4 0-1.5z"/>
				</g>
			</g>
			<g id="&lt;Group&gt;">
				<g id="&lt;Group&gt;">
					<path id="&lt;Path&gt;" class="s21" d="m-267.3 639.1q6.1-1 12.1-1.7c22.2-2.6 44.4-4 66.6-5.9 26.6-2.2 53.3-4.7 79.7-8.7 24.7-3.7 49.5-8.4 73.1-16.7 10.2-3.6 20.2-8 29.3-13.6 13.8-8.6 25.9-19.9 35.9-32.6 5-6.5 9.5-13.3 13.4-20.4 3.9-7.2 6.8-14.8 9.6-22.4q9.6-26.6 17.5-53.7c10.2-35.5 18.2-71.7 23.7-108.3 5.2-34.8 7.7-69.9 13.9-104.5 5.8-32.9 14.9-66 32-95 14.8-25 35-47.2 59.2-63.4 23.5-15.8 51.2-25.7 79.8-24.5 0.4 0 0.8 0.4 0.8 0.8 0.3 6.3-1.5 12.3-4.7 17.6-7.6 12.6-21.3 21.1-34 27.8-16.8 8.9-34.6 16.3-51.9 24.2-36.7 17-73.3 34.1-109.3 52.5-28 14.4-55.2 29.9-82.4 45.7-15.8 9.1-31.6 18.3-47.2 27.9-16.7 10.3-33 21.2-48.8 33-16.8 12.7-32.8 26.4-47.6 41.2-16 16.1-30.6 33.5-43.4 52.1-14.2 20.5-26.2 42.4-36.2 65.3-11.5 26.4-20.1 54.1-26.4 82.2-7.5 33.5-11.8 67.6-13.7 101.8-0.1 0.9-1.6 1-1.5 0q0.7-13.4 2-26.7c3-32.2 8.3-64.3 16.7-95.6 7.1-26.6 16.5-52.6 28.5-77.4 10.6-21.9 23.2-42.8 37.8-62.2 13.1-17.5 27.8-33.9 43.7-48.9 15-14.1 31-27.1 47.6-39.1 15.8-11.4 32.1-21.9 48.7-32 15.5-9.4 31.2-18.4 46.9-27.5 30.6-17.8 61.6-34.7 93.3-50.5 36.2-18 72.9-34.9 109.6-51.8 15.8-7.3 32.3-13.9 46.8-23.8 12.1-8.1 24.8-20 24-35.8q0.4 0.4 0.7 0.7c-7.2-0.3-14.5 0.1-21.7 1.1-29.1 4.3-55.8 19.4-77.5 39-22.9 20.5-40.5 46.1-52 74.6-13.3 32.9-19.3 68.2-23.7 103.3-4.5 35-8.1 70-14.9 104.7-7.1 36.5-16.7 72.5-28.6 107.8-5.3 15.6-10.4 31.5-18.9 45.7-8.1 13.4-18.3 25.6-30 35.8-18.3 16-40.3 25.1-63.4 31.6-24.8 6.9-50.3 10.9-75.7 14.1-25.8 3.2-51.7 5.4-77.5 7.5-20.5 1.7-41.1 3-61.5 6.1-0.9 0.2-1.3-1.3-0.4-1.4z"/>
				</g>
			</g>
			<g id="&lt;Group&gt;">
				<g id="&lt;Group&gt;">
					<path id="&lt;Path&gt;" class="s22" d="m-260.2 660.9c20.5-4 41.4-6.2 62.1-8.7 25.8-3.2 51.6-6.4 77.2-10.6 25.7-4.2 51.4-9.3 76.2-17.2 22.7-7.2 44.4-16.9 62.2-33 11.6-10.6 21.6-23.2 29.4-36.9 8.3-14.5 12.8-30.4 17.5-46.4 10.6-36.2 18.8-73.2 24.5-110.5 5.4-35.8 7.4-71.8 10.3-107.9 2.8-36 7.2-72.2 19.5-106.3 10.4-28.9 27.1-55.2 49.1-76.7 21.2-20.5 47.6-36.7 76.9-42.2 7.2-1.3 14.4-2 21.7-2q-0.4-0.3-0.7-0.7c1.5 16.2-11.1 28.8-23.2 37.5-14.5 10.6-31.2 18.1-47.2 26.2-36.3 18.5-72.6 36.9-108.3 56.5-31.2 17.2-61.7 35.4-91.7 54.5-15.5 9.8-31 19.5-46.3 29.6-16.3 10.8-32.3 22-47.7 34.1-16.4 12.9-32.1 26.7-46.7 41.6-15.4 15.8-29.5 32.8-42 51-13.9 20.2-25.7 41.8-35.4 64.3-11 25.5-19.3 52-25.2 79.1-7 31.9-10.9 64.4-12.4 97q-0.6 13.5-0.7 27c0 0.9 1.5 0.9 1.5 0 0.3-34.5 2.9-69.1 9-103.1 5-28.4 12.4-56.5 22.7-83.5 9-23.6 20.2-46.4 33.7-67.8 12.2-19.3 26.2-37.4 41.6-54.2 14.3-15.5 29.8-29.9 46.2-43.3 15.4-12.6 31.6-24.4 48.2-35.6 15.3-10.3 30.9-20.2 46.5-30 26.8-16.9 53.6-33.7 81.2-49.2 35.5-20 71.7-38.7 108-57.2 17.2-8.8 34.8-17 51.5-26.6 12.9-7.3 26.7-16.4 34.1-29.7 3.2-5.6 4.7-11.8 4.1-18.2-0.1-0.4-0.3-0.8-0.8-0.8-59 0-110 44.1-136.8 93.9-33.4 62.2-30.3 135.6-37.3 203.9-3.9 38-10.5 75.8-19.7 113q-6.8 27.7-15.4 54.9c-4.9 15.4-12 29.6-21.7 42.6-9.8 13-21.6 24.8-35.4 33.6-9 5.8-18.8 10.4-28.8 14.3-23.5 9.1-48.3 14.8-73 19.5-48.6 9.2-97.8 12.9-146.5 20.6q-6.2 1-12.4 2.1c-0.9 0.2-0.5 1.7 0.4 1.5z"/>
				</g>
			</g>
			<g id="&lt;Group&gt;">
				<g id="&lt;Group&gt;">
					<path id="&lt;Path&gt;" class="s23" d="m-253.5 681.3c21.4-5 43.2-8.2 64.9-11.7 27.3-4.4 54.6-9 81.7-14.7 26.8-5.6 53.5-12.3 79-22.3 10.7-4.2 21.2-9 31.1-15 12.5-7.7 23.4-17.6 32.8-28.9 10.3-12.5 18.9-26.7 24.5-42 3.2-8.6 5.4-17.7 7.6-26.6q3.8-14.8 7-29.8c8.3-38.6 14-77.9 16.7-117.3 5.3-74.2-4-154.6 31.7-222.9 14.6-27.9 35.8-53 62-70.6 12.6-8.5 26.4-15.2 41.1-19.3 7.6-2.1 15.3-3.5 23.1-4.1 0.8-0.1 2-0.3 2.8-0.2 1.3 0.3 1.1 0.2 1.3 1.6 0.3 1.6 0.1 3.3 0 4.8-0.5 3.9-1.7 7.6-3.5 11-7.4 14.1-21.8 24-35 31.9-16.2 9.8-33 18.6-49.5 27.8-34 19-67.9 38.2-101.2 58.5-42.8 26.1-84.4 54.5-125.1 83.8-31.7 22.9-62.2 47.7-88.7 76.6-30.2 32.9-54.6 70.7-71.7 112-21.9 52.6-31.6 109.5-33.7 166.2-0.6 16.8-0.5 33.7 0.1 50.5 0.1 0.9 1.6 0.9 1.5 0-1.2-34.7-0.2-69.5 4.3-103.9 3.8-29.2 10-58.1 19.4-86 8-24.3 18.4-47.7 31.2-69.9 11.5-20 25-38.9 39.9-56.5 13.9-16.3 29.2-31.5 45.3-45.7 15.2-13.4 31.1-25.9 47.5-37.9 15.2-11.1 30.7-21.7 46.2-32.4 26.7-18.3 53.5-36.4 81.1-53.4 34.9-21.4 70.5-41.5 106.2-61.5 16.9-9.4 34.4-18.3 50.8-28.6 12.7-8 26.5-17.9 33.2-31.8 2.8-5.7 3.9-11.8 2.9-18.1 0-0.3-0.4-0.6-0.7-0.6-59 2.3-108.5 47.6-133.8 98.3-32.5 65.1-25.4 140.5-29.5 210.8-2.3 38.5-7.3 76.8-14.9 114.6q-5.7 28.8-13.5 57c-4.2 15.5-11.1 29.8-20.3 42.9-9.4 13.5-21 25.7-34.6 34.9-8.9 6.2-18.7 11.1-28.6 15.4-23.7 10.1-48.8 16.8-73.8 22.5-48.6 11.1-98.1 16.8-147 26.5q-6.1 1.2-12.2 2.6c-0.9 0.3-0.5 1.7 0.4 1.5z"/>
				</g>
			</g>
			<g id="&lt;Group&gt;">
				<g id="&lt;Group&gt;">
					<path id="&lt;Path&gt;" class="s24" d="m-246.8 701.7c21.3-5.9 43.2-9.9 64.9-14.3 27.4-5.5 54.8-11.1 81.9-17.9 26.7-6.6 53.3-14.2 78.6-25 10.9-4.6 21.5-9.8 31.4-16.2 12.2-7.8 22.8-17.7 31.9-29 10.1-12.6 18.4-26.9 23.9-42.1 3-8.3 4.8-17 6.7-25.6q3.2-15 5.9-30.1c7.1-39.9 11.3-80.3 12.6-120.8 2.4-76.1-11.6-158.3 21.6-229.9 13.2-28.5 33.2-54.4 58.3-73.3 12.4-9.4 26.1-17 40.8-22.1 7.2-2.4 14.6-4.2 22.1-5.3 2.1-0.3 4.4-0.8 6.5-0.8 2.2 0.1 1.7 2.4 1.7 4.2 0.1 3.6-0.6 7.2-1.8 10.6-5.7 15.6-21 26.9-34.3 35.8-15.6 10.4-32.1 19.7-48.2 29.5-33.6 20.4-67 41-99.8 62.6-42.9 28.3-84.4 58.9-125 90.4-31.6 24.5-61.8 50.9-87.7 81.3-29.3 34.3-52.6 73.4-68.3 115.7-20 54.2-27.5 112.3-27.1 169.8 0.2 17.3 1 34.5 2.4 51.7 0.1 1 1.6 1 1.5 0-2.9-35-3.4-70.3-0.4-105.3 2.6-29.7 7.6-59.2 15.9-87.8 7.1-24.9 16.7-49.1 28.7-72 10.9-20.7 23.8-40.4 38.3-58.8 13.4-17 28.2-32.9 43.9-47.8 14.8-14.1 30.4-27.3 46.5-40 15.1-11.9 30.6-23.5 46.2-35 26.3-19.6 52.8-39 80.2-57.2 34.3-22.7 69.3-44.3 104.4-65.7 16.7-10.2 33.9-19.8 50.1-30.7 12.9-8.6 26.9-19.3 33.2-33.9 2.6-5.9 3.4-12.2 2.2-18.5 0-0.3-0.4-0.6-0.7-0.5-59.6 4.6-108 51.8-131.7 104.1-30.6 67.7-19.6 144.5-20.7 216.4-0.6 39.5-4.1 78.9-10.3 117.9-3.1 19.3-6.8 38.5-11.3 57.6-3.7 15.7-10.7 30.5-19.6 43.9-9 13.5-20.1 25.8-33.3 35.3-8.8 6.4-18.4 11.6-28.2 16.2-23.8 11.2-49.1 18.9-74.5 25.7-48.6 12.9-98.3 20.6-147.2 32.2q-6.3 1.5-12.6 3.2c-1 0.3-0.6 1.7 0.4 1.5z"/>
				</g>
			</g>
			<g id="&lt;Group&gt;">
				<g id="&lt;Group&gt;">
					<path id="&lt;Path&gt;" class="s25" d="m-240.1 722c21.3-6.7 43.2-11.5 65-16.7 27.7-6.7 55.4-13.4 82.9-21.2 26.4-7.7 52.8-16.2 77.8-27.7 24.3-11.2 46.3-25.5 62.8-47 9.8-12.8 17.8-27.1 23-42.4 3-8.4 4.6-17.1 6.2-25.9q2.7-15.2 4.8-30.4c5.7-40.8 8.4-82 8.1-123.1-0.3-40.4-4.9-80.6-5.7-121-0.7-38.4 2.2-78 16.6-114 11.7-29 30.3-55.8 54.1-76.2 12.2-10.3 25.8-19.1 40.6-25.1 7.2-3 14.8-5.4 22.5-7q2.4-0.5 4.8-0.9c1.4-0.2 5.1-1.5 6.2-0.6 0.8 0.7 0.6 4 0.6 5.2q0.1 3.4-0.7 6.8c-3.7 16.3-18.4 28.8-31.2 38.3-15.2 11.3-31.7 21.3-47.6 31.7-33.1 21.8-66.1 43.8-98.5 66.7-43.2 30.6-84.9 63.6-125.6 97.5-31.2 26-61 53.8-86.4 85.6-28.8 36.1-51.3 76.8-65.6 120.7-18.4 56-23.5 115.5-20.4 174.2 0.9 17.3 2.5 34.6 4.7 51.8 0.1 1 1.6 1 1.5 0-8.3-65.4-8.4-132.7 7.5-197.1 11.9-48.4 33.1-94 62.5-134.3 25.4-34.8 56.2-65 89-92.9 14.8-12.6 30.1-24.7 45.3-36.9 26.2-21 52.6-41.8 80-61.4 33.6-24.1 68-47 102.5-69.8 16.7-11 33.9-21.5 50.1-33.2 12.4-9 25.6-20 31.7-34.5 2.6-6.3 3.4-13 1.8-19.7 0-0.3-0.4-0.6-0.7-0.5-59.3 6.8-106.2 54.7-128.6 107.6-29.9 70.6-14.8 149.3-12.8 223.2 1.1 39.7-0.7 79.4-5.3 118.8-2.3 20.2-5.2 40.4-9.1 60.3-3.2 16.1-9.9 31.4-18.6 45.3-8.5 13.7-19.2 26.3-31.9 36.2-8.9 6.9-18.7 12.6-28.7 17.7-23.7 12.1-49 20.8-74.3 28.5-49.1 15-99.5 24.7-148.9 38.3q-6.2 1.8-12.4 3.7c-1 0.3-0.6 1.7 0.4 1.4z"/>
				</g>
			</g>
			<g id="&lt;Group&gt;">
				<g id="&lt;Group&gt;">
					<path id="&lt;Path&gt;" class="s26" d="m-233.9 741q6.4-2.3 12.9-4.3c49.3-15.5 99.8-27.1 148.9-43.8 25.7-8.8 51.4-18.6 75.3-31.8 10-5.5 19.8-11.6 28.6-18.9 12.4-10.2 22.7-23 30.8-36.8 8.4-14.2 14.8-29.9 17.6-46.2 3.5-20.1 5.4-40.7 6.9-61.1 3.2-40.6 3.4-81.4 0.6-122.1-5.2-75.5-24.4-155.7 3.9-229 21-54.2 66.7-103.7 126.2-112.7 0.4-0.1 0.8 0.1 0.9 0.5 1.9 6.8 1.4 13.7-1.1 20.2-5.8 15.4-19.5 27.2-32.2 37-16 12.3-33 23.6-49.4 35.3-34.1 24.2-68.1 48.6-101.2 74.1-27 20.8-52.9 42.8-78.7 65-15 12.8-30 25.7-44.6 39-32.2 29.3-62.4 61.1-86.9 97.2-28.3 42-48.1 89.1-58.3 138.7-13.5 65.9-10.5 134.2 0.8 200.2 0.1 1-1.3 1.4-1.5 0.4q-2.3-13.6-4.1-27.2c-8.5-63.1-8.4-128.1 7.1-190.2 11.9-47.8 33.1-92.8 61.9-132.8 25-34.8 55.3-65.4 87.2-93.9 42-37.6 85.1-74.2 130.1-108.2 33.3-25.2 67.4-49.4 101.5-73.6 16.1-11.4 33.3-22.2 47.7-35.7 12.2-11.3 25.3-27.4 20.3-45.1q0.4 0.3 0.9 0.5c-7.4 1.2-14.7 2.9-21.8 5.3-57.8 19.2-98.8 76.3-111.8 134.2-9 40.6-7 82.4-2.9 123.5 3.9 40.2 8.7 80.1 9.3 120.6 0.7 40.7-1.6 81.5-6.7 121.8-2.2 16.6-5 32.3-11.6 47.7-6.6 15.3-15.6 29.6-26.7 41.9-16.5 18.3-38.3 30.7-60.3 41-24.8 11.6-50.8 20.7-76.8 29-26.3 8.4-52.9 15.7-79.5 23.1-21 5.8-42.3 11.4-62.9 18.6-0.9 0.4-1.3-1.1-0.4-1.4z"/>
				</g>
			</g>
			<g id="&lt;Group&gt;">
				<g id="&lt;Group&gt;">
					<path id="&lt;Path&gt;" class="s27" d="m-227.2 761.4q6.3-2.5 12.6-4.7c50.3-17.7 102-31.4 151.9-50.3 25.9-9.9 51.6-20.8 75.4-35 10.2-6.1 20-12.8 28.8-20.8 12.2-11 22.2-24.5 29.8-39.1 7.9-15 13.6-31.4 15.5-48.3 2.4-20.8 3.7-41.8 4.4-62.7 1.4-41.5-0.2-83.2-4.9-124.5-8.6-75.8-30.9-155.9-4.6-230.7 19.5-55.5 64.2-106.5 124-117.7 0.4-0.1 0.8 0.1 0.9 0.5 2.2 6.7 2 13.5-0.2 20.1-5.3 16.3-19.2 29.1-32.1 39.7-15.7 12.8-32.2 24.6-48.3 36.9-33.8 25.7-67.5 51.6-100.2 78.7-26.6 21.9-52.1 45-77.4 68.3-14.7 13.6-29.5 27.1-43.9 41.1-31.9 31-61.7 64.4-85.4 102.1-27.3 43.5-45.7 92-54.2 142.6-11.3 67.8-5.4 137.4 8.8 204.3 0.3 0.9-1.2 1.3-1.4 0.4q-3-14-5.5-28.2c-11.1-63.7-13.6-129.6-0.3-193.3 10.3-48.9 30.1-95.3 58-136.8 24.4-36.4 54.2-68.6 85.8-98.8 41.7-39.9 84.6-78.7 129.4-115 32.4-26.3 65.5-51.5 98.7-76.7 16.1-12.3 33.2-23.8 47.6-38.1 12.1-12 25.1-28.9 19.2-46.9q0.4 0.3 0.9 0.6c-7.2 1.3-14.4 3.2-21.3 5.7-58 21.2-98.1 80.2-109.3 139.3-7.8 41.3-4.2 83.5 1.5 124.8 5.6 40.4 12.2 80.4 14.7 121.2 2.5 41.7 1.9 83.6-1.6 125.2-1.5 17.4-3.6 34-9.9 50.3-5.9 15.3-14.2 29.7-24.6 42.4-16 19.5-37.7 33.1-60 44.6-25 12.8-51.4 23.1-77.9 32.5-26.8 9.6-53.9 18.1-81.1 26.6-21.2 6.6-42.6 13-63.4 21.1-0.9 0.4-1.3-1.1-0.4-1.4z"/>
				</g>
			</g>
			<g id="&lt;Group&gt;">
				<g id="&lt;Group&gt;">
					<path id="&lt;Path&gt;" class="s28" d="m-220.7 781.8q6.2-2.6 12.5-5c50.9-19.9 103.3-35.5 153.8-56.6 26.2-10.9 52.2-22.9 76.1-38.3 10.1-6.5 19.8-13.6 28.5-21.9 12.3-11.9 22.1-26.4 29.4-41.9 7.6-15.9 12.5-33.1 13.6-50.7 1.5-21.4 2.1-42.8 1.9-64.2-0.3-42.9-3.8-85.7-10.6-128.1-12-75.7-37-155.5-12.8-231.5 18.1-56.8 61.7-109.4 121.9-122.7 0.4-0.1 0.8 0.1 0.9 0.5 2.5 6.8 2.6 13.9 0.5 20.8-4.7 16.1-17.9 29.3-30.2 40.1-15.6 13.8-32.3 26.5-48.4 39.7-33.1 26.8-66 53.9-98 82-26.6 23.4-52.1 47.9-77.4 72.8-14.5 14.3-29.1 28.5-43.3 43.2-31.5 32.6-60.8 67.5-83.8 106.7-26.7 45.6-44 96.1-50.7 148.5-8.8 69.3 0 139.7 17.2 207.1 0.3 0.9-1.2 1.3-1.4 0.4-4.7-18.2-8.7-36.5-11.9-54.9-10.8-61.7-12.8-125.4 0.5-186.8 10.4-48.4 30.3-94.1 57.7-135.3 23.9-36.1 52.9-68.3 83.3-98.9 42.7-43.1 86.5-85.1 132.6-124.5 31.7-27 64-53.2 96.3-79.4 14.9-12.1 30.7-23.8 43.1-38.6 5.7-6.9 10.9-14.8 13.3-23.5 1.1-4.2 1.5-8.6 0.8-12.9-0.1-0.9-0.4-4.4-1.2-5.1-1-0.7-4.2 0.7-5.3 1-62.3 16.4-105.6 75.8-119.5 136.4-9.2 40.2-5.7 82.3 0.7 122.6 6.6 41.5 16.1 82.5 21.1 124.3 5.1 42.7 7 85.9 5.7 128.9-0.5 18.9-0.7 38.3-5.6 56.7-4.4 16.5-11.7 32.3-21.2 46.5-15.2 22.6-36.8 38.6-60.2 52-25.1 14.5-51.8 26.1-78.8 36.8-27.5 10.9-55.5 20.8-83.5 30.5-22.4 7.8-45 15.3-66.8 24.6-0.9 0.4-1.7-0.9-0.8-1.3z"/>
				</g>
			</g>
			<g id="&lt;Group&gt;">
				<g id="&lt;Group&gt;">
					<path id="&lt;Path&gt;" class="s29" d="m-214 802.2q6.6-3 13.3-5.9c52-22 105.6-39.8 157-63.3 26.2-12 52.2-25.1 75.8-41.6 9.9-6.9 19.4-14.5 27.8-23.2 12.6-13.3 22.3-29.4 29.1-46.4 6.6-16.4 10.1-33.5 10.5-51.2 0.6-22 0.3-44-0.8-65.9-2.1-43.5-7.5-86.7-16.1-129.4-15.3-75.7-43-155.2-21.2-232.5 16.4-58.5 59.3-113.2 120.1-128.6 0.4-0.1 0.8 0.2 0.9 0.6 2.7 6.5 3.1 13.4 1.5 20.3-4 16.8-17.3 31-29.5 42.5-15 14.1-31.1 27.1-46.7 40.6-32.4 28.1-64.7 56.4-96.1 85.6-42.1 39.3-82.3 81-121.1 123.6-31 34.2-59.8 70.6-82 111.2-25.8 47.2-41.8 99.1-46.8 152.6-6.6 71.3 5.1 143.2 25.4 211.5 0.3 0.9-1.2 1.3-1.4 0.4-5.6-18.9-10.6-37.9-14.7-57.1-13.2-62.5-17.4-127.5-5.8-190.7 9.2-49.8 28.4-97.2 55.3-140.1 23.6-37.8 52.7-71.7 83.1-104.1 14.6-15.6 29.3-30.9 44-46.3 29-30.5 59.7-59.5 90.9-87.7 31.6-28.5 63.9-56.3 96.1-84.1 14.6-12.6 30-25.2 40.4-41.7 4.5-7.1 8.2-15.2 8.4-23.8 0.1-2.3 0-10.6-2.6-11.5-1.1-0.5-4.8 1.3-6 1.6q-2.9 0.9-5.8 2c-60.8 21.6-101 83.8-111.1 145.6-6.8 41.4-1.1 84 7.3 124.7 8.5 41.6 19.4 82.6 25.9 124.5 6.5 42.5 9.9 85.5 10.2 128.5 0.1 19 0.6 38.3-3.7 56.9-4 17.1-11 33.7-20.4 48.5-14.7 23.1-35.9 39.8-58.9 54-25.5 15.7-52.7 28.5-80.2 40.4-27.7 12-55.9 22.9-84.1 33.7-22.6 8.6-45.3 16.9-67.2 27.1-0.9 0.4-1.7-0.9-0.8-1.3z"/>
				</g>
			</g>
			<g id="&lt;Group&gt;">
				<g id="&lt;Group&gt;">
					<path id="&lt;Path&gt;" class="s30" d="m-207.3 822.6q6.8-3.4 13.6-6.5c52.8-24.2 107.4-44.1 159.4-69.9 26.4-13 52.6-27.2 76.2-45 9.9-7.4 19.5-15.6 27.6-24.9 12.6-14.4 21.9-31.5 28.1-49.5 6.2-17.9 8.2-35.9 7.9-54.8q-0.5-33.1-3.4-66c-4-44-11.2-87.7-21.7-130.6-18.5-75.6-48.8-154.8-29.4-233.3 14.8-60.2 56.9-117.1 118.4-134.6 0.3 0 0.7 0.1 0.8 0.4 3 6.3 3.8 13.1 2.5 20-3 16.8-15.3 31.2-26.9 43-14.6 15-30.7 28.7-46.1 42.9-32 29.4-63.9 58.9-94.8 89.5-42.3 41.7-82.4 85.8-121.1 130.9-30.8 35.9-59.3 74-80.8 116.3-25 48.9-39.6 102.4-42.9 157.2-4.4 73.2 10.3 146.3 33.7 215.3 0.3 1-1.1 1.4-1.4 0.4-6.5-19-12.3-38.3-17.2-57.8-15.9-63.7-22.6-130.3-12.6-195.5 7.9-51.5 26.4-100.8 53-145.6 23.2-39.2 52.1-74.6 82.2-108.7 15.8-17.8 31.6-35.5 47.6-53.1 29-31.7 59.5-62 90.6-91.6 31.2-29.7 63.1-58.7 94.8-87.9 13.9-12.8 28.4-26.4 36.5-43.7 3.8-8 5.9-17.1 3.5-25.8-0.3-1.1-0.8-3.9-2.1-4.4-0.3-0.1-2.2 0.6-2.3 0.7q-2.7 0.8-5.4 1.8-5.9 2-11.5 4.6c-59.1 27-96 91.9-102 155-4.1 42.1 3.6 84.3 13.8 125 10.3 41.4 22.5 82.3 30.4 124.2 8.1 42.9 13 86.5 14.7 130.1 0.8 19.2 1.8 38.5-2.1 57.4-3.6 17.4-10.2 34.2-19.3 49.4-14.3 23.7-35.5 41.2-58.4 56.3-25.5 16.7-52.9 30.6-80.6 43.5-27.9 13.1-56.4 25-84.8 36.9-22.7 9.5-45.7 18.7-67.7 29.7-0.9 0.4-1.7-0.9-0.8-1.3z"/>
				</g>
			</g>
			<g id="&lt;Group&gt;">
				<g id="&lt;Group&gt;">
					<path id="&lt;Path&gt;" class="s31" d="m-200.6 843q6.7-3.6 13.6-7c53.4-26.3 108.9-48.4 161.6-76.3 26.9-14.3 53.7-29.8 77.5-49 9.7-7.9 19-16.5 26.9-26.3 12.4-15.3 21.3-33.4 26.8-52.2 5.6-18.8 6.5-37.2 5.5-56.7q-1.8-33.5-6-66.8c-5.6-44.5-14.6-88.6-26.9-131.7-21.7-76.3-55.2-156.1-37.6-236.7 13.4-61.5 54.7-120 116.5-139.5 0.3 0 0.7 0.1 0.8 0.4 3.1 6.1 4.2 12.7 3.4 19.5-2.3 17.4-14.6 32.8-26.1 45.3-14.1 15.3-29.7 29.4-44.7 44-31.5 30.7-62.9 61.5-93.4 93.3-42.3 44.1-82.2 90.5-120.6 137.9-30.3 37.5-58.3 77-79 120.6-24.3 51-37.7 106.3-39.2 162.7-2.1 75 15.6 149.2 42 218.9 0.3 0.9-1.1 1.3-1.5 0.4-7.2-19.2-13.9-38.7-19.6-58.5-18.8-65.4-28-134.3-19.2-202.1 6.7-52.8 24.4-103.3 50.4-149.6 23-40.9 51.8-77.9 81.8-113.7 16.3-19.5 32.7-39.1 49.4-58.3 28.7-33 59.1-64.7 90-95.7 31-31.1 62.7-61.3 93.9-92.1 13.4-13.2 27.8-28.7 33-47.2 1.2-4.2 1.8-8.6 1.5-13q-0.2-3.3-1.2-6.4c-0.7-2.4-0.9-4.6-3.6-4.2-4.3 0.7-9.1 3.3-13.1 5.1q-5.3 2.3-10.5 5.1c-57.3 31.1-91.2 97.8-94.1 161.6-1.9 43.2 7.7 85.7 19.6 126.9 12.1 41.7 25.9 82.8 35.3 125.3 9.5 42.8 15.8 86.2 19 129.9 1.5 19.6 3.1 39.3-0.3 58.8-3.2 17.8-9.5 35.1-18.4 50.8-13.9 24.6-35.2 43-58.2 59-25.7 17.8-53.4 32.8-81.3 46.8-28.3 14.2-57.2 27.2-86 40.2-22.6 10.2-45.4 20.1-67.3 31.8-0.8 0.4-1.6-0.9-0.7-1.3z"/>
				</g>
			</g>
		</g>
	</g>
</svg>