<svg xmlns="http://www.w3.org/2000/svg" xmlns:xlink="http://www.w3.org/1999/xlink" viewBox="0 0 199.84 435.62"><defs><style>.cls-1{fill:url(#Degradado_sin_nombre_45);}</style><linearGradient id="Degradado_sin_nombre_45" x1="-5398.49" y1="217.81" x2="-5198.65" y2="217.81" gradientTransform="translate(5398.49)" gradientUnits="userSpaceOnUse"><stop offset="0" stop-color="#ab8957"/><stop offset="0.31" stop-color="#bfa176"/><stop offset="0.54" stop-color="#cfb693"/><stop offset="0.74" stop-color="#cead80"/><stop offset="1" stop-color="#cea66d"/></linearGradient></defs><g id="Layer_2" data-name="Layer 2"><g id="texto"><path class="cls-1" d="M197.67,95c-7.46.75-14.93-.82-22.18-2.44-6.27-1.41-12.38-2.71-18.8-1.43a24.75,24.75,0,0,0-14.85,9c-2.43,3.24-3,7-3.1,10.86-5.11-12.69-12.74-24.49-21-35.21a245.68,245.68,0,0,0-47-46.71l-1.35-1C65.82,15.92,56.93,4.05,44.27.8A29,29,0,0,0,39.19,0,2.28,2.28,0,0,0,37,1.65c-1.54,6.17,3,11.1,7.56,14.57,2.62,2,5.44,3.75,8.16,5.6s5.49,3.75,8.2,5.66q2.27,1.61,4.5,3.24c2,7.83,2,16.09,1.5,24.1-.44,6.73-1.26,13.43-1.84,20.15a34.2,34.2,0,0,0-2.48-3,53.52,53.52,0,0,0-9.88-8.19C47.34,60.21,41.58,57.18,35.9,54a25.64,25.64,0,0,0-5.16-10c-3.52-4.13-8.75-7-14.29-6.49a2.27,2.27,0,0,0-2.16,2.83C16.51,48.74,25,53,32.05,57a29,29,0,0,1,.52,3.59c.54,5.94-.08,11.9,0,17.85a50.06,50.06,0,0,0,3.23,16.8,97.27,97.27,0,0,0,5.47,12c-4.88-2-9.8-3.82-14.58-5.92-.46-1-1-2-1.48-2.91-4.67-8.32-13.63-15.06-23.6-13-1.76.37-2,2.57-1,3.74,6.29,7.17,14.23,11.78,22.69,15.58,3,7,4.3,14.68,7.18,21.74A36.55,36.55,0,0,0,46,144.73c6.76,4,14.49,6,22.14,7.39,4.81.87,9.65,1.56,14.5,2.19l-1.44.26A94.64,94.64,0,0,0,56.7,162.7c-.76.38-1.5.77-2.24,1.17a52.29,52.29,0,0,0-24.66,5.79c-8.09,4.18-16.39,12-15.6,21.92a2.38,2.38,0,0,0,1.65,2.16c2.6,1.07,5.73-.27,8-1.49a49.21,49.21,0,0,0,10.28-7.83,108.34,108.34,0,0,1,20-15.27c.45-.26.91-.5,1.37-.75.56,0,1.12,0,1.69.06,9.48.66,17.75,4.91,26.43,8.35a61,61,0,0,0,6.7,2.21,79,79,0,0,0-27,19.87,97.71,97.71,0,0,0-9.73,13.41c-10.71,5.61-19.9,14.19-25.17,25.2a19,19,0,0,0-2,11.66c.45,2.55,2,6.35,5.22,6,2.25-.26,3.73-3.12,4.91-4.8,1.77-2.54,3.44-5.16,5.07-7.8,3.87-6.26,7.54-12.65,10.94-19.18,1.35-2.59,2.76-5.15,4.25-7.67a73.16,73.16,0,0,1,17.86-6.08c6.68-1.38,13.39-1.58,20.15-1.75-2.86,1.55-5.67,3.2-8.39,5a94.3,94.3,0,0,0-15.89,13.34,107.26,107.26,0,0,0-21.89,34.61c-11,27.7-10.11,58.6-.36,86.53a158.9,158.9,0,0,0,17,34.4,121.19,121.19,0,0,0,7.71,24,86.21,86.21,0,0,0,8.15,14.44c3.14,4.47,6.74,9.09,11.09,12.46a12.67,12.67,0,0,0,7.72,2.95,2.28,2.28,0,0,0,2.16-2.83c-2.63-15-12.86-26.88-22.08-38.4q-5.62-7-10.57-14.49c-.2-1-.41-1.93-.59-2.9a213.17,213.17,0,0,1-3.32-33.16,281.22,281.22,0,0,1,1.06-35.55,226.36,226.36,0,0,1,3.47-23.56,153.43,153.43,0,0,0,2.21,29.13,81,81,0,0,0,7.19,22.49q.52,3.79,1.16,7.56c1.58,9.26,3.49,18.56,7.17,27.24,3.4,8,8.38,15.27,15.36,20.6a35.83,35.83,0,0,0,10.68,5.66,29.14,29.14,0,0,0,6.12,1.3,3.09,3.09,0,0,0,2.93-1.12c1.23-1.63.53-3.95-.09-5.7a59.29,59.29,0,0,0-3.62-7.8,99.53,99.53,0,0,0-10.12-15.24C100.33,358,90.3,347.5,83.8,335.06c-.77-5.7-1.3-11.44-1.51-17.2a115.32,115.32,0,0,1,2.38-29.07,91.25,91.25,0,0,1,3.46-11.65A58.29,58.29,0,0,0,97,292.52c.2,1.94.48,3.89.87,5.83a71.78,71.78,0,0,0,21.4,37.73q2,1.86,4.13,3.58c1.22,1,3.35.81,3.74-1,2.6-11.69-4.35-22.24-11.39-30.88-4.68-5.73-9.86-11.11-14.43-17a57.36,57.36,0,0,1,.29-12.49,75.6,75.6,0,0,1,7.09-22.46c7.15-14.84,17.61-27.57,27-41A215.7,215.7,0,0,0,156,179.51c.22-.16.45-.3.68-.46,12.13-8.31,25.63-18,30.33-32.67,1.93-6,2.45-13,.23-19a22,22,0,0,0-12.87-12.86A18.24,18.24,0,0,0,164,114a23.79,23.79,0,0,1,8.52-2.25,32.67,32.67,0,0,1,4.64,0,28,28,0,0,0,3.84.37c3.63-.17,6.88-2.69,9.56-4.9a113.75,113.75,0,0,0,8.73-8.42C200.49,97.51,199.68,94.76,197.67,95Zm-54.51,53.14c.05-.22.08-.44.13-.65a4,4,0,0,0,.41-.21c2.06-1.34,4.86-1.38,7.27-.84a11.65,11.65,0,0,1,3.69,1.45,6.65,6.65,0,0,1,2.46,3c3.3,6.51,0,14-2.4,20.19-.57,1.49-1.18,3-1.8,4.45l-2.3,2.23a324.57,324.57,0,0,1-34.48,19.58l1.06-1.2a136.19,136.19,0,0,0,15.14-20.45A99.09,99.09,0,0,0,143.16,148.11ZM161.6,150a12.09,12.09,0,0,0-6.92-7.07,17.18,17.18,0,0,0-8.83-1.08,26.67,26.67,0,0,1,5-6c2.4-2.25,5.32-4.39,8.59-5.1,5.73-1.25,10.42,3,12,8a16.83,16.83,0,0,1,.82,7,24.85,24.85,0,0,1-2.64,9.15,56.39,56.39,0,0,1-8.8,12.51C162.78,161.67,164,155.78,161.6,150ZM52.19,16.05a50.65,50.65,0,0,1-7.95-6,9.58,9.58,0,0,1-3-5.3c9.88,1.63,17.4,9.64,21.6,18.63Q57.55,19.66,52.19,16.05ZM91,52.44c14.62,14.83,28.53,30.75,38.4,49.21,5.94,11.12,10.33,23.29,11.15,35.95h0c-.05.38-.1.77-.14,1.16a113.71,113.71,0,0,1-4,16.8c-4.39-1.22-8.89-2.08-13.34-3-6-1.23-12-2.47-17.87-4a101.88,101.88,0,0,1-16.85-5.53c-5.27-2.37-9.66-5.24-12.91-10.09a30.45,30.45,0,0,1-4.37-9.93,84.68,84.68,0,0,1-1.56-12.72A210.68,210.68,0,0,1,69,82.92c.76-15.9,4.37-32.26,1.82-48.13A194.91,194.91,0,0,1,91,52.44ZM27.08,48.83c-2.73-1.74-5.46-3.81-7.15-6.56a14.29,14.29,0,0,1,7.53,4.83,18.24,18.24,0,0,1,2.3,3.39C28.86,50,28,49.4,27.08,48.83ZM37,77.45c0-5.91.55-11.82-.07-17.71q5.28,3,10.53,6.05a54.61,54.61,0,0,1,9.69,7.06c3.13,2.9,6.23,6.38,7.17,10.67a2.63,2.63,0,0,0,.2.54,209.56,209.56,0,0,0,.39,24.81c.29,3.88.56,7.79,1.19,11.62a78,78,0,0,0-18.26-10.57C42.15,99.84,37,89.28,37,77.45ZM7.37,89.53c4.89.76,9.14,4.22,12.14,8.29-.92-.49-1.84-1-2.74-1.51A54.39,54.39,0,0,1,7.37,89.53ZM99.56,152c-9.47-1.23-19-2.25-28.42-3.82-7.49-1.26-15.12-3-21.83-6.65a32.68,32.68,0,0,1-8.73-6.76,34.3,34.3,0,0,1-6.34-10.91c-2.07-5.46-3.39-11.21-5.28-16.74,5.37,2.19,10.83,4.22,16.12,6.51a1.89,1.89,0,0,0,.55.23c3,1.32,6,2.73,8.86,4.31a54.25,54.25,0,0,1,13.39,10.06,1.71,1.71,0,0,0,.25.22,31.06,31.06,0,0,0,15,17.09,84.88,84.88,0,0,0,16.52,6.26l1.36.36-.68,0A2.82,2.82,0,0,0,99.56,152ZM24.63,186.52A22,22,0,0,1,20,189.14a8.72,8.72,0,0,1-1.1.34l-.2.05c.55-7.1,6.83-12.52,12.81-15.71A46.62,46.62,0,0,1,46,169a109.62,109.62,0,0,0-10.08,7.75C32.16,180,28.74,183.67,24.63,186.52ZM70.31,166.6A50.85,50.85,0,0,0,63,164.72C76.31,159,91,156.67,105.35,156.4a108.39,108.39,0,0,1,29.58,3.42c-.75,2-1.56,4-2.46,5.92a3.09,3.09,0,0,0-.37.26,45.45,45.45,0,0,1-22.68,9.89,45,45,0,0,1-10.5.22,1.92,1.92,0,0,0-1-.1c-.32,0-.65,0-1-.1a55.57,55.57,0,0,1-13.17-3.84C79.31,170.25,74.91,168.16,70.31,166.6ZM30.46,251Zm1.34-.08c.08.07.08.12,0,0Zm1.58-3.81q-1,1.47-2,2.88l0,0a7.78,7.78,0,0,1-.4-1.18,11.41,11.41,0,0,1-.11-4.69c.6-3.34,2.5-6.54,4.29-9.38a47.63,47.63,0,0,1,5.81-7.45,53.82,53.82,0,0,1,8.21-7c-1.8,3.36-3.56,6.74-5.45,10.05C40.43,236,37.07,241.65,33.38,247.06Zm44.79-42.59a80.21,80.21,0,0,0-17,4.45c.26-.38.51-.77.78-1.14a76,76,0,0,1,31.16-25.16c1.77-.77,3.57-1.46,5.39-2.11a47,47,0,0,0,10.73-.12A50.81,50.81,0,0,0,128,174.18a122.35,122.35,0,0,1-11.78,16.24c-3.44,4.07-7,8-10.57,12l-1.08.52C95.77,203.72,86.93,203.16,78.17,204.47ZM94.83,424A44,44,0,0,1,97,430.44a15.1,15.1,0,0,1-4-3,66.54,66.54,0,0,1-5.46-6A78.89,78.89,0,0,1,79,407.93,99.36,99.36,0,0,1,72.6,392.1C80.53,402.35,89.67,412,94.83,424ZM62.7,302.92A274.23,274.23,0,0,0,61,339.27a248.34,248.34,0,0,0,2.17,30.22,147.64,147.64,0,0,1-7.46-15.27C44,326.14,41.25,294.55,51.59,265.64a102.74,102.74,0,0,1,21.46-35.57,89.49,89.49,0,0,1,16-13.6c2.94-1.94,6-3.69,9.1-5.34A144.09,144.09,0,0,0,83,234.26a170.14,170.14,0,0,0-10.39,24.18,1.6,1.6,0,0,0-.22.56s0,.06,0,.09A214.48,214.48,0,0,0,62.7,302.92Zm56.4,92.51c0,.13,0,0,0,0Zm0-.05v0Zm1.31-1.12c.09,0,.1,0,0,0ZM95.49,359.42c2.8,3.41,5.66,6.77,8.46,10.19a94.24,94.24,0,0,1,5.94,7.71,82.78,82.78,0,0,1,8.32,15c.22.56.41,1.14.58,1.72h0a27,27,0,0,1-3-.71,28,28,0,0,1-5.43-2.24c-7.26-3.88-12.75-10.28-16.52-17.51-4.33-8.3-6.46-17.57-8.16-26.72a2.07,2.07,0,0,1,0-.22C88.71,351.06,92.08,355.28,95.49,359.42Zm-14.63-74a115.12,115.12,0,0,0-3.12,28.95c0,1.54.07,3.08.13,4.62a119.21,119.21,0,0,1-2.78-18.36A170.67,170.67,0,0,1,75.15,273c.35-4.27.85-8.53,1.53-12.77v0a167.61,167.61,0,0,1,8.1-19.62A138.66,138.66,0,0,1,101,214.67c2.37-2.95,4.85-5.8,7.36-8.63l3.53-1.68c8.66-4.12,17.18-8.51,25.49-13.26-5.12,5.74-9.85,11.88-14.47,18a353,353,0,0,0-31,48.72C87.36,266.63,83.25,275.76,80.86,285.44Zm37.85,34c2.57,4.26,4.54,9.19,4.54,14.19a68.09,68.09,0,0,1-20.37-33.43c-.06-.25-.11-.49-.17-.73C108.31,305.9,114.28,312.12,118.71,319.43Zm12.59-106.1c-9.22,13.19-19.43,25.73-26.46,40.3a77.36,77.36,0,0,0-8.08,30.81.43.43,0,0,0,0-.07,40.08,40.08,0,0,1-5.81-14.09c1.31-3,2.74-5.95,4.24-8.86a350.38,350.38,0,0,1,30.79-48.9,248.27,248.27,0,0,1,17.27-21.14c1.4-1.49,2.83-2.94,4.28-4.37A235.76,235.76,0,0,1,131.3,213.33Zm38.56-95.27c5.56.36,10.76,5,12.87,10,2.36,5.55,1.72,12-.16,17.64-2.25,6.66-6.84,12.25-11.91,17-.34.32-.7.63-1,.95,5-7.09,8.49-15.16,6.75-23.87-1.17-5.86-4.88-11.29-10.82-13-7.4-2.17-14.25,2.09-19.22,7.29l-.75.82a14.42,14.42,0,0,1,1.29-3.42,28,28,0,0,1,5.73-6.79c.47-.44,1-.87,1.51-1.28a1.86,1.86,0,0,0,.78-.58A24.15,24.15,0,0,1,169.86,118.06Zm18.51-14.87a28.94,28.94,0,0,1-4.35,3.22,12.13,12.13,0,0,1-1.76.89,9.75,9.75,0,0,1-1,.29l-.27,0h-.62l-.35-.06-1.25-.16c-.78-.09-1.57-.15-2.36-.18a32.51,32.51,0,0,0-4.73.14,29.47,29.47,0,0,0-10.59,3,23.44,23.44,0,0,0-9.62,9.41,37.39,37.39,0,0,0-4,3.58,31.36,31.36,0,0,0-3.64,4.41c-.07-4-.47-8-.59-12a61.09,61.09,0,0,1,.11-7,14.11,14.11,0,0,1,.31-2.22,11.85,11.85,0,0,1,.31-1.17c0-.11.08-.22.12-.34a9,9,0,0,0,.46-.87c2.54-4.47,7.39-7.29,12.28-8.49,5.77-1.43,11.39-.19,17.05,1.09,6,1.35,12.13,2.69,18.3,2.87C190.94,100.85,189.68,102.05,188.37,103.19Z"/></g></g></svg>