<svg xmlns="http://www.w3.org/2000/svg" xmlns:xlink="http://www.w3.org/1999/xlink" viewBox="0 0 194.53 37.95"><defs><style>.cls-1{fill:url(#Degradado_sin_nombre_45);}.cls-2{fill:url(#Degradado_sin_nombre_45-2);}.cls-3{fill:url(#Degradado_sin_nombre_45-3);}.cls-4{fill:url(#Degradado_sin_nombre_45-4);}.cls-5{fill:url(#Degradado_sin_nombre_45-5);}</style><linearGradient id="Degradado_sin_nombre_45" x1="-25" y1="23.22" x2="217.24" y2="-10.88" gradientUnits="userSpaceOnUse"><stop offset="0" stop-color="#ab8957"/><stop offset="0.31" stop-color="#bfa176"/><stop offset="0.54" stop-color="#cfb693"/><stop offset="0.74" stop-color="#cead80"/><stop offset="1" stop-color="#cea66d"/></linearGradient><linearGradient id="Degradado_sin_nombre_45-2" x1="-23.99" y1="30.42" x2="218.25" y2="-3.68" xlink:href="#Degradado_sin_nombre_45"/><linearGradient id="Degradado_sin_nombre_45-3" x1="-23.08" y1="36.84" x2="219.15" y2="2.74" xlink:href="#Degradado_sin_nombre_45"/><linearGradient id="Degradado_sin_nombre_45-4" x1="-22.39" y1="41.76" x2="219.85" y2="7.66" xlink:href="#Degradado_sin_nombre_45"/><linearGradient id="Degradado_sin_nombre_45-5" x1="-21.68" y1="46.83" x2="220.56" y2="12.73" xlink:href="#Degradado_sin_nombre_45"/></defs><g id="Layer_2" data-name="Layer 2"><g id="texto"><path class="cls-1" d="M10.32,2V17H25.51v2.33H10.32V38H4.61V5.24c0-2.18-1.45-4.15-4.61-5V0H28.52V2Z"/><path class="cls-2" d="M71.55,36v2H47.65V5.29c0-2.23-1.46-4.15-4.62-5V0H71.55V2H53.35V17H68.54v2.33H53.35V36Z"/><path class="cls-3" d="M121.06,0V38L93.43,10.84V38H91.09V8.71c0-3-.41-7.26-4.51-8.45V0a11.47,11.47,0,0,1,7.57,3.27l24.58,23.85V0Z"/><path class="cls-4" d="M144.34,0V38h-5.19V5.29c0-2.23-1.4-4.15-4.61-5V0Z"/><path class="cls-5" d="M194.53,37.69V38h-5.66a7,7,0,0,1-5.75-3.11l-8.61-13.22L161.71,38h-3l14.42-18.4L162.33,3a6.37,6.37,0,0,0-1.5-1.56,6.39,6.39,0,0,0-2.08-1l-.93-.21V0h5.65a6.92,6.92,0,0,1,5.76,3.06l7.67,11.77L188.51,0h3L178.25,16.9,190,34.84a6,6,0,0,0,1.56,1.61,6.14,6.14,0,0,0,2.12,1Z"/></g></g></svg>