<?xml version="1.0" encoding="UTF-8"?>
<svg id="Layer_2" data-name="Layer 2" xmlns="http://www.w3.org/2000/svg" xmlns:xlink="http://www.w3.org/1999/xlink" viewBox="0 0 231.01 503.57">
  <defs>
    <style>
      .cls-1 {
        fill: url(#Degradado_sin_nombre_45);
      }
    </style>
    <linearGradient id="Degradado_sin_nombre_45" data-name="Degradado sin nombre 45" x1="-5190.45" y1="251.78" x2="-4959.44" y2="251.78" gradientTransform="translate(-4959.44) rotate(-180) scale(1 -1)" gradientUnits="userSpaceOnUse">
      <stop offset="0" stop-color="#ab8957"/>
      <stop offset=".31" stop-color="#bfa176"/>
      <stop offset=".54" stop-color="#cfb693"/>
      <stop offset=".74" stop-color="#cead80"/>
      <stop offset="1" stop-color="#cea66d"/>
    </linearGradient>
  </defs>
  <g id="texto">
    <path class="cls-1" d="M.68,114.2c3.26,3.35,6.47,6.76,10.08,9.74,3.1,2.56,6.86,5.47,11.06,5.66,1.83,.08,2.57-.3,4.43-.42,1.79-.11,3.58-.1,5.37,.03,3.46,.27,6.81,1.14,9.85,2.6-4.07-.87-8.26-.9-12.06,.59-6.88,2.68-12.3,7.92-14.87,14.87-2.58,6.96-1.96,14.99,.26,21.95,5.42,16.95,21.04,28.16,35.06,37.78,.26,.18,.52,.35,.78,.52,6.39,14.4,14.55,27.94,23.54,40.88,10.81,15.55,22.9,30.26,31.17,47.42,3.95,8.19,6.95,16.93,8.19,25.96,.66,4.79,.75,9.64,.34,14.44-5.28,6.75-11.27,12.96-16.68,19.59-8.14,9.98-16.18,22.18-13.17,35.69,.46,2.08,2.92,2.27,4.32,1.14,1.64-1.32,3.24-2.69,4.78-4.13,12.34-11.55,21.42-26.98,24.74-43.61,.45-2.25,.78-4.5,1-6.74,4.19-5.47,7.95-11.34,10.27-17.78,1.61,4.39,2.98,8.87,4.01,13.47,2.45,11.01,3.14,22.35,2.74,33.6-.23,6.66-.85,13.29-1.74,19.89-7.52,14.38-19.11,26.5-29.21,39.05-4.45,5.53-8.32,11.37-11.69,17.63-1.57,2.91-3.07,5.9-4.19,9.02-.72,2.01-1.53,4.7-.1,6.58,.83,1.09,2.06,1.43,3.38,1.3,2.4-.25,4.78-.76,7.08-1.5,4.46-1.45,8.62-3.71,12.35-6.55,8.07-6.15,13.82-14.52,17.76-23.81,4.25-10.04,6.46-20.79,8.28-31.49,.49-2.9,.94-5.82,1.35-8.74,4.13-8.2,6.71-16.92,8.31-26,1.96-11.08,2.74-22.38,2.56-33.67,1.82,9.01,3.14,18.11,4.01,27.23,1.3,13.65,1.65,27.39,1.22,41.1-.4,12.84-1.43,25.7-3.83,38.33-.21,1.12-.45,2.23-.68,3.35-3.8,5.77-7.89,11.35-12.22,16.75-10.66,13.31-22.48,27.05-25.52,44.38-.28,1.62,.69,3.28,2.49,3.27,3.36-.02,6.31-1.39,8.93-3.41,5.03-3.89,9.18-9.23,12.82-14.4,3.68-5.23,6.8-10.85,9.42-16.69,3.99-8.91,6.86-18.25,8.91-27.77,8.09-12.42,14.76-25.77,19.64-39.76,11.27-32.29,12.31-68.01-.41-100.04-5.87-14.77-14.32-28.49-25.31-40.01-5.53-5.79-11.7-10.98-18.36-15.42-3.14-2.09-6.39-4-9.7-5.8,7.82,.2,15.57,.43,23.29,2.03,7.14,1.48,14.13,3.76,20.66,7.03,1.72,2.9,3.35,5.87,4.91,8.86,3.93,7.55,8.18,14.94,12.65,22.18,1.88,3.05,3.81,6.08,5.86,9.01,1.36,1.94,3.07,5.25,5.68,5.55,3.68,.43,5.51-3.97,6.02-6.91,.83-4.78-.28-9.17-2.34-13.48-6.09-12.72-16.71-22.64-29.1-29.13-3.33-5.46-7.04-10.69-11.25-15.51-8.66-9.91-19.34-17.56-31.21-22.97,2.61-.69,5.2-1.55,7.74-2.55,10.04-3.97,19.6-8.89,30.56-9.65,.65-.05,1.3-.05,1.95-.07,.53,.29,1.06,.57,1.58,.87,8.47,4.9,16.03,10.96,23.14,17.65,3.6,3.39,7.5,6.72,11.88,9.05,2.65,1.41,6.27,2.96,9.28,1.72,1.14-.47,1.8-1.22,1.9-2.49,.92-11.45-8.67-20.51-18.03-25.34-8.75-4.52-18.65-6.84-28.51-6.69-.86-.46-1.72-.92-2.59-1.35-8.98-4.5-18.46-7.48-28.3-9.4-.55-.11-1.11-.2-1.66-.3,5.61-.73,11.21-1.53,16.76-2.53,8.85-1.6,17.78-3.97,25.6-8.55,8.42-4.93,14.25-12.23,17.91-21.21,3.33-8.16,4.85-17.02,8.3-25.13,9.78-4.4,18.96-9.73,26.23-18.01,1.19-1.36,.89-3.91-1.14-4.32-11.52-2.36-21.88,5.43-27.28,15.05-.62,1.1-1.18,2.22-1.71,3.36-5.53,2.43-11.22,4.59-16.85,6.85,2.38-4.49,4.56-9.08,6.31-13.85,2.29-6.24,3.68-12.77,3.75-19.43,.06-6.87-.65-13.76-.03-20.63,.12-1.39,.32-2.78,.6-4.15,8.15-4.56,17.97-9.49,20.53-19.12,.47-1.75-.84-3.12-2.49-3.27-6.41-.61-12.45,2.73-16.52,7.51-2.91,3.42-4.8,7.31-5.96,11.5-6.56,3.65-13.22,7.15-19.48,11.29-4.12,2.72-8.07,5.84-11.42,9.47-1.01,1.09-1.97,2.24-2.86,3.46-.67-7.77-1.62-15.51-2.13-23.29-.61-9.26-.61-18.81,1.73-27.86,1.72-1.26,3.46-2.51,5.2-3.74,3.14-2.21,6.31-4.39,9.48-6.55,3.15-2.14,6.4-4.16,9.43-6.47,5.25-4,10.52-9.7,8.74-16.84-.26-1.04-1.4-1.98-2.49-1.9-1.97,.14-3.95,.43-5.87,.92-14.64,3.76-24.91,17.48-29.03,31.53-.52,.38-1.05,.76-1.56,1.14-20.48,15.27-38.67,33.8-54.3,54-9.59,12.39-18.4,26.03-24.31,40.7-.13-4.49-.78-8.81-3.59-12.55-4.11-5.47-10.49-9.09-17.16-10.42-7.43-1.49-14.49,.02-21.73,1.65-8.38,1.88-17.01,3.69-25.64,2.82-2.33-.24-3.27,2.94-1.83,4.42Zm77.35,88.89c4.95,8.49,11.06,16.23,17.5,23.64,.41,.47,.82,.93,1.23,1.39-13.7-6.8-27.08-14.21-39.86-22.64-.89-.86-1.77-1.72-2.66-2.58-.72-1.7-1.42-3.41-2.09-5.14-2.77-7.2-6.59-15.81-2.77-23.34,.79-1.55,1.44-2.6,2.84-3.48,1.32-.83,2.76-1.34,4.27-1.68,2.78-.62,6.02-.58,8.4,.96,.16,.1,.32,.18,.47,.24,.06,.25,.1,.5,.16,.75,2.58,11.16,6.73,21.97,12.5,31.87Zm-32.95-9.64c-3.95-4.41-7.57-9.14-10.18-14.45-1.62-3.29-2.79-6.91-3.05-10.58-.22-3.05,.04-5.22,.96-8.08,1.85-5.75,7.28-10.68,13.9-9.24,3.78,.82,7.15,3.3,9.93,5.89,2.15,2.01,4.27,4.35,5.78,6.96-3.43-.48-6.99-.06-10.21,1.25-3.93,1.6-6.37,4.28-7.99,8.18-2.8,6.71-1.37,13.52,.87,20.07ZM158.38,27.01c4.85-10.4,13.54-19.66,24.97-21.54-.27,2.34-1.8,4.43-3.47,6.13-2.71,2.76-6,4.8-9.19,6.95-4.12,2.79-8.23,5.6-12.3,8.46Zm-9.28,13.2c-2.95,18.35,1.23,37.27,2.1,55.65,.5,10.56,.32,21.15-.55,31.68-.4,4.87-.68,9.93-1.81,14.7-.97,4.1-2.71,7.98-5.05,11.48-3.75,5.61-8.83,8.93-14.93,11.67-6.23,2.8-12.87,4.71-19.47,6.39-6.84,1.75-13.75,3.18-20.66,4.59-5.15,1.06-10.35,2.05-15.42,3.45-2.05-6.33-3.56-12.83-4.62-19.42-.05-.45-.1-.9-.16-1.34,0,0,0,0,0,0,.94-14.63,6.02-28.71,12.89-41.56,11.4-21.34,27.49-39.75,44.38-56.89,7.28-7.39,15.11-14.1,23.3-20.4Zm47.51,18.15c.74-1.38,1.61-2.7,2.66-3.92,2.37-2.74,5.31-4.83,8.7-5.58-1.95,3.18-5.11,5.57-8.26,7.59-1.02,.65-2.06,1.29-3.1,1.91Zm-20.92,68.7c-7.52,3.28-14.74,7.05-21.11,12.21,.73-4.42,1.05-8.94,1.39-13.43,.72-9.54,.85-19.12,.45-28.67,.09-.19,.18-.4,.23-.64,1.09-4.95,4.67-8.97,8.29-12.33,3.4-3.14,7.19-5.84,11.2-8.16,4.05-2.35,8.11-4.67,12.17-6.99-.71,6.8-.08,13.64-.07,20.46,.02,13.68-5.94,25.89-12.54,37.54Zm35.94-15.73c-1.04,.6-2.1,1.18-3.16,1.74,3.47-4.7,8.38-8.7,14.03-9.58-3.31,3-6.97,5.59-10.87,7.84Zm-96.6,64.54c-.26-.01-.52-.03-.78-.04,.53-.14,1.05-.27,1.58-.42,6.53-1.85,13.08-4.05,19.1-7.23,6.39-3.38,11.51-8.25,15.02-14.61,.92-1.67,1.68-3.39,2.32-5.15,.1-.08,.2-.15,.29-.25,4.48-4.74,9.78-8.49,15.47-11.64,3.3-1.82,6.74-3.45,10.24-4.98,.22-.06,.43-.15,.64-.27,6.12-2.64,12.43-4.99,18.63-7.52-2.18,6.39-3.71,13.04-6.11,19.36-1.73,4.56-4.04,8.97-7.32,12.61-2.89,3.19-6.32,5.75-10.09,7.81-7.77,4.23-16.58,6.24-25.24,7.69-10.89,1.82-21.91,3-32.85,4.42-.31,.04-.61,.12-.89,.23Zm74.44,28.43c-3.71-3.2-7.6-6.2-11.65-8.96,5.85,.95,11.54,2.79,16.78,5.58,6.92,3.69,14.17,9.95,14.8,18.16-.08-.02-.15-.03-.23-.05-.43-.11-.86-.24-1.27-.4-1.86-.69-3.7-1.88-5.37-3.03-4.75-3.29-8.7-7.55-13.07-11.31Zm-55.33-5.39c-4.91,2-9.96,3.7-15.22,4.44-.38,.05-.76,.07-1.14,.12-.42-.06-.79-.01-1.12,.12-4.03,.38-8.14,.3-12.13-.26-9.55-1.34-18.79-5.25-26.22-11.43-.14-.11-.28-.22-.43-.31-1.03-2.25-1.97-4.53-2.84-6.84,11.15-2.93,22.66-4.17,34.19-3.95,16.63,.31,33.57,3.05,48.91,9.61-2.85,.52-5.66,1.24-8.41,2.18-5.32,1.8-10.4,4.21-15.6,6.33Zm61.66,91.18s.02,0,0,0h0Zm-1.54-.09c-.09,.13-.09,.08,0,0h0Zm-13.72-23.77c-2.18-3.83-4.21-7.73-6.29-11.61,3.41,2.38,6.61,5.07,9.49,8.11,2.52,2.65,4.76,5.52,6.71,8.61,2.07,3.29,4.27,6.98,4.97,10.85,.32,1.77,.3,3.66-.13,5.41-.12,.51-.28,.94-.46,1.36-.01-.01-.02-.03-.03-.04-.82-1.09-1.6-2.2-2.37-3.33-4.26-6.26-8.14-12.79-11.88-19.37Zm-70.4-31.65c-.42-.2-.83-.4-1.25-.6-4.09-4.6-8.24-9.16-12.22-13.86-5.01-5.92-9.65-12.13-13.62-18.77,6.66,3.78,14.02,6.2,21.69,7.18,4.18,.53,8.32,.55,12.41,.14,2.1,.75,4.19,1.55,6.23,2.44,14.44,6.33,26.77,16.31,36.02,29.08,.31,.43,.6,.88,.91,1.32-6.34-2.43-12.91-4.15-19.64-5.15-10.14-1.51-20.35-.86-30.52-1.78Zm36.95,218.68c-1.96,6.29-4.36,12.43-7.36,18.3-2.81,5.49-6.1,10.77-9.97,15.58-1.97,2.44-4.06,4.81-6.31,7-1.36,1.32-2.87,2.63-4.58,3.44,.66-2.54,1.48-5.04,2.52-7.45,5.96-13.85,16.53-25.02,25.69-36.87Zm.29-153.76s-.01-.07-.02-.1c-.04-.24-.13-.45-.25-.65-3.29-9.59-7.27-18.95-12.02-27.96-5.01-9.49-10.88-18.39-17.59-26.73,3.59,1.91,7.12,3.94,10.52,6.18,6.79,4.47,12.99,9.79,18.55,15.72,11.01,11.76,19.38,25.97,24.8,41.11,11.96,33.43,8.79,69.93-4.73,102.4-2.53,6.07-5.42,11.95-8.61,17.65,1.6-11.57,2.31-23.26,2.5-34.94,.23-14.03-.37-28.08-2-42.02-2.02-17.2-5.59-34.28-11.15-50.67Zm-54.05,157.6s0,.16,0,0h0Zm0-.08s0,.02,0,.02c0,0,0-.02,0-.02Zm-1.52-1.27c-.11,0-.1-.02,0,0h0Zm40.17-55.05c-.02,.08-.03,.17-.05,.26-1.97,10.58-4.44,21.29-9.44,30.89-4.36,8.36-10.71,15.75-19.09,20.24-2.01,1.08-4.09,1.95-6.28,2.59-1.12,.33-2.26,.6-3.41,.82-.01,0-.03,0-.04,0,.2-.67,.42-1.33,.67-1.99,2.27-5.8,6-11.96,9.61-17.35,2.19-3.26,4.22-5.69,6.87-8.92,3.24-3.94,6.54-7.83,9.78-11.77,3.94-4.79,7.83-9.67,11.36-14.78Zm-7.32-102.67c-10.35-19.71-22.38-38.56-35.8-56.32-5.34-7.07-10.81-14.17-16.72-20.81,9.61,5.49,19.46,10.57,29.46,15.33,1.36,.65,2.72,1.29,4.08,1.94,2.9,3.27,5.77,6.57,8.51,9.97,7.4,9.2,13.58,19.33,18.79,29.92,3.61,7.35,6.72,14.94,9.37,22.68,0,0,0,.02,0,.03,.78,4.9,1.36,9.82,1.76,14.76,.86,10.64,.94,21.37,.07,32.01-.58,7.08-1.54,14.26-3.22,21.23,.08-1.78,.13-3.56,.15-5.35,.13-11.23-.91-22.54-3.61-33.46-2.77-11.2-7.52-21.75-12.87-31.93Zm-12.4,48.14c-.07,.28-.12,.56-.19,.84-3.75,14.91-12.22,28.34-23.55,38.65,0-5.79,2.27-11.49,5.25-16.41,5.11-8.45,12.02-15.64,18.49-23.08ZM60.51,216.18c1.68,1.66,3.33,3.33,4.95,5.05,7.18,7.65,13.68,16.05,19.97,24.44,13.35,17.82,25.35,36.74,35.59,56.52,1.74,3.37,3.39,6.78,4.91,10.24-1.09,5.86-3.53,11.26-6.72,16.29-.02,.03-.04,.05-.06,.08-.41-12.29-3.9-24.32-9.34-35.61-8.12-16.85-19.93-31.34-30.58-46.59-6.82-9.75-13.22-19.86-18.72-30.43Zm-8.54-74.3c.26,.32,.57,.53,.89,.67,.61,.48,1.2,.97,1.76,1.48,2.48,2.31,4.98,4.84,6.62,7.84,.68,1.25,1.15,2.59,1.49,3.96-.29-.32-.58-.64-.87-.95-5.74-6.02-13.66-10.94-22.22-8.42-6.86,2.02-11.15,8.3-12.51,15.07-2.02,10.06,1.97,19.39,7.8,27.58-.4-.36-.81-.72-1.21-1.09-5.86-5.48-11.16-11.94-13.76-19.64-2.18-6.45-2.91-13.97-.19-20.39,2.44-5.75,8.45-11.09,14.89-11.52,5.91-.39,12.37,1.86,17.31,5.41ZM8.87,115.16c7.13-.21,14.26-1.76,21.15-3.32,6.54-1.48,13.03-2.91,19.71-1.26,5.65,1.39,11.26,4.65,14.2,9.82,.06,.11,.53,1.08,.53,1.01,.05,.13,.1,.26,.14,.39,.14,.44,.26,.89,.36,1.34,.22,1.01,.28,1.56,.36,2.57,.23,2.7,.2,5.42,.12,8.12-.14,4.63-.6,9.24-.69,13.87-1.22-1.84-2.68-3.51-4.21-5.09-1.45-1.5-2.98-2.89-4.61-4.14-2.58-4.61-6.41-8.45-11.12-10.88-3.83-1.98-7.98-3.04-12.25-3.48-1.81-.19-3.64-.24-5.47-.16-.91,.04-1.82,.11-2.73,.21-.48,.06-.97,.12-1.45,.19-.13,.02-.27,.04-.4,.06-.08,0-.18,.01-.23,.01-.16,0-.33,0-.49-.01-.09-.01-.25-.03-.31-.04-.4-.1-.8-.2-1.19-.34-.53-.19-1.36-.62-2.04-1.02-1.8-1.06-3.45-2.35-5.02-3.72-1.52-1.32-2.97-2.71-4.39-4.13Z"/>
  </g>
</svg>