<?xml version="1.0" encoding="UTF-8"?>
<svg id="Layer_2" data-name="Layer 2" xmlns="http://www.w3.org/2000/svg" xmlns:xlink="http://www.w3.org/1999/xlink" viewBox="0 0 273.65 216.05">
  <defs>
    <style>
      .cls-1 {
        fill: url(#Degradado_sin_nombre_45-4);
      }

      .cls-2 {
        fill: url(#Degradado_sin_nombre_45-6);
      }

      .cls-3 {
        fill: url(#Degradado_sin_nombre_45);
      }

      .cls-4 {
        fill: url(#Degradado_sin_nombre_45-5);
      }

      .cls-5 {
        fill: url(#Degradado_sin_nombre_45-3);
      }

      .cls-6 {
        fill: url(#Degradado_sin_nombre_45-2);
      }
    </style>
    <linearGradient id="Degradado_sin_nombre_45" data-name="Degradado sin nombre 45" x1="-25" y1="115.23" x2="217.24" y2="81.13" gradientUnits="userSpaceOnUse">
      <stop offset="0" stop-color="#ab8957"/>
      <stop offset=".31" stop-color="#bfa176"/>
      <stop offset=".54" stop-color="#cfb693"/>
      <stop offset=".74" stop-color="#cead80"/>
      <stop offset="1" stop-color="#cea66d"/>
    </linearGradient>
    <linearGradient id="Degradado_sin_nombre_45-2" data-name="Degradado sin nombre 45" x1="-23.99" y1="122.42" x2="218.25" y2="88.32" xlink:href="#Degradado_sin_nombre_45"/>
    <linearGradient id="Degradado_sin_nombre_45-3" data-name="Degradado sin nombre 45" x1="-23.08" y1="128.85" x2="219.15" y2="94.75" xlink:href="#Degradado_sin_nombre_45"/>
    <linearGradient id="Degradado_sin_nombre_45-4" data-name="Degradado sin nombre 45" x1="-22.39" y1="133.76" x2="219.85" y2="99.66" xlink:href="#Degradado_sin_nombre_45"/>
    <linearGradient id="Degradado_sin_nombre_45-5" data-name="Degradado sin nombre 45" x1="-21.68" y1="138.84" x2="220.56" y2="104.73" xlink:href="#Degradado_sin_nombre_45"/>
    <linearGradient id="Degradado_sin_nombre_45-6" data-name="Degradado sin nombre 45" x1="-4209.44" y1="108.03" x2="-4110.32" y2="108.03" gradientTransform="translate(-3935.79) rotate(-180) scale(1 -1)" xlink:href="#Degradado_sin_nombre_45"/>
  </defs>
  <g id="texto">
    <g>
      <path class="cls-3" d="M10.32,93.98v15.04h15.19v2.33H10.32v18.61H4.61v-32.71c0-2.18-1.45-4.15-4.61-4.98v-.26H28.52v1.97H10.32Z"/>
      <path class="cls-6" d="M71.55,127.99v1.97h-23.9v-32.66c0-2.23-1.45-4.15-4.61-5.03v-.26h28.52v1.97h-18.2v15.04h15.19v2.33h-15.19v16.64h18.2Z"/>
      <path class="cls-5" d="M121.06,92.01v37.95l-27.63-27.12v27.12h-2.33v-29.24c0-2.95-.41-7.26-4.51-8.45v-.26c3.78,0,6.27,2.18,7.57,3.27l24.58,23.85v-27.12h2.33Z"/>
      <path class="cls-1" d="M144.34,92.01v37.95h-5.18v-32.66c0-2.23-1.4-4.15-4.61-5.03v-.26h9.8Z"/>
      <path class="cls-4" d="M194.53,129.7v.26h-5.65c-2.28,0-4.46-1.19-5.76-3.11l-8.61-13.22-12.81,16.33h-2.96l14.41-18.41-10.84-16.54c-.41-.62-.93-1.14-1.5-1.56-.62-.47-1.35-.78-2.07-.99l-.93-.21v-.26h5.65c2.33,0,4.46,1.14,5.75,3.06l7.67,11.77,11.61-14.83h2.96l-13.22,16.9,11.72,17.94c.41,.62,.93,1.19,1.56,1.61,.62,.47,1.35,.78,2.13,.99l.88,.26Z"/>
      <path class="cls-2" d="M174.83,49c1.4,1.44,2.78,2.9,4.33,4.18,1.33,1.1,2.94,2.35,4.74,2.43,.79,.04,1.1-.13,1.9-.18,.77-.05,1.54-.04,2.3,.01,1.48,.11,2.92,.49,4.22,1.12-1.74-.37-3.54-.38-5.18,.25-2.95,1.15-5.28,3.4-6.38,6.38-1.11,2.98-.84,6.43,.11,9.42,2.33,7.27,9.03,12.08,15.04,16.21,.11,.08,.22,.15,.34,.22,2.74,6.18,6.24,11.99,10.1,17.54,4.64,6.67,9.82,12.98,13.37,20.34,1.69,3.51,2.98,7.26,3.51,11.14,.28,2.06,.32,4.14,.15,6.2-2.27,2.9-4.84,5.56-7.16,8.41-3.49,4.28-6.94,9.51-5.65,15.31,.2,.89,1.25,.98,1.86,.49,.7-.57,1.39-1.16,2.05-1.77,5.29-4.96,9.19-11.58,10.61-18.71,.19-.97,.33-1.93,.43-2.89,1.8-2.35,3.41-4.87,4.41-7.63,.69,1.88,1.28,3.8,1.72,5.78,1.05,4.73,1.35,9.59,1.18,14.42-.1,2.86-.37,5.7-.75,8.53-3.22,6.17-8.2,11.37-12.53,16.75-1.91,2.37-3.57,4.88-5.02,7.56-.67,1.25-1.32,2.53-1.8,3.87-.31,.86-.66,2.02-.04,2.83,.35,.47,.88,.61,1.45,.56,1.03-.11,2.05-.32,3.04-.64,1.91-.62,3.7-1.59,5.3-2.81,3.46-2.64,5.93-6.23,7.62-10.21,1.82-4.31,2.77-8.92,3.55-13.51,.21-1.25,.41-2.5,.58-3.75,1.77-3.52,2.88-7.26,3.56-11.15,.84-4.76,1.18-9.6,1.1-14.45,.78,3.86,1.35,7.77,1.72,11.68,.56,5.86,.71,11.75,.52,17.63-.17,5.51-.61,11.03-1.65,16.45-.09,.48-.19,.96-.29,1.44-1.63,2.47-3.38,4.87-5.24,7.19-4.57,5.71-9.65,11.61-10.95,19.04-.12,.7,.29,1.41,1.07,1.41,1.44,0,2.71-.6,3.83-1.46,2.16-1.67,3.94-3.96,5.5-6.18,1.58-2.25,2.92-4.66,4.04-7.16,1.71-3.82,2.94-7.83,3.82-11.92,3.47-5.33,6.33-11.05,8.43-17.06,4.83-13.85,5.28-29.18-.18-42.92-2.52-6.33-6.14-12.23-10.86-17.16-2.37-2.48-5.02-4.71-7.88-6.61-1.35-.9-2.74-1.72-4.16-2.49,3.36,.09,6.68,.19,9.99,.87,3.06,.63,6.06,1.62,8.86,3.02,.74,1.25,1.44,2.52,2.11,3.8,1.69,3.24,3.51,6.41,5.43,9.51,.81,1.31,1.63,2.61,2.52,3.87,.58,.83,1.32,2.25,2.44,2.38,1.58,.18,2.37-1.7,2.58-2.97,.36-2.05-.12-3.94-1.01-5.78-2.61-5.46-7.17-9.71-12.48-12.5-1.43-2.34-3.02-4.59-4.82-6.65-3.71-4.25-8.3-7.54-13.39-9.86,1.12-.3,2.23-.66,3.32-1.1,4.31-1.7,8.41-3.81,13.11-4.14,.28-.02,.56-.02,.84-.03,.23,.12,.45,.24,.68,.37,3.63,2.1,6.88,4.7,9.93,7.57,1.54,1.45,3.22,2.88,5.1,3.88,1.14,.6,2.69,1.27,3.98,.74,.49-.2,.77-.52,.81-1.07,.4-4.91-3.72-8.8-7.73-10.87-3.76-1.94-8-2.93-12.23-2.87-.37-.2-.74-.39-1.11-.58-3.85-1.93-7.92-3.21-12.14-4.03-.24-.05-.48-.09-.71-.13,2.41-.31,4.81-.65,7.19-1.08,3.8-.69,7.63-1.71,10.98-3.67,3.61-2.11,6.11-5.25,7.69-9.1,1.43-3.5,2.08-7.3,3.56-10.78,4.2-1.89,8.14-4.17,11.25-7.73,.51-.58,.38-1.68-.49-1.86-4.94-1.01-9.39,2.33-11.7,6.46-.27,.47-.51,.95-.73,1.44-2.37,1.04-4.81,1.97-7.23,2.94,1.02-1.93,1.96-3.89,2.71-5.94,.98-2.68,1.58-5.48,1.61-8.34,.03-2.95-.28-5.9-.01-8.85,.05-.6,.14-1.19,.26-1.78,3.5-1.96,7.71-4.07,8.81-8.2,.2-.75-.36-1.34-1.07-1.41-2.75-.26-5.34,1.17-7.09,3.22-1.25,1.47-2.06,3.14-2.56,4.94-2.82,1.57-5.67,3.07-8.36,4.84-1.77,1.17-3.46,2.5-4.9,4.06-.43,.47-.85,.96-1.23,1.48-.29-3.33-.7-6.66-.91-9.99-.26-3.97-.26-8.07,.74-11.95,.74-.54,1.48-1.08,2.23-1.6,1.35-.95,2.71-1.88,4.07-2.81,1.35-.92,2.75-1.79,4.05-2.78,2.25-1.72,4.51-4.16,3.75-7.23-.11-.45-.6-.85-1.07-.81-.85,.06-1.69,.18-2.52,.39-6.28,1.61-10.69,7.5-12.46,13.53-.22,.16-.45,.33-.67,.49-8.79,6.55-16.59,14.5-23.3,23.17-4.11,5.31-7.9,11.17-10.43,17.46-.06-1.93-.33-3.78-1.54-5.39-1.76-2.35-4.5-3.9-7.36-4.47-3.19-.64-6.22,0-9.32,.71-3.59,.81-7.3,1.58-11,1.21-1-.1-1.4,1.26-.78,1.89Zm33.19,38.14c2.12,3.64,4.75,6.96,7.51,10.14,.17,.2,.35,.4,.53,.6-5.88-2.92-11.62-6.1-17.1-9.71-.38-.37-.76-.74-1.14-1.11-.31-.73-.61-1.46-.9-2.21-1.19-3.09-2.83-6.78-1.19-10.01,.34-.67,.62-1.12,1.22-1.49,.56-.36,1.18-.58,1.83-.72,1.19-.27,2.58-.25,3.6,.41,.07,.04,.14,.08,.2,.11,.02,.11,.04,.22,.07,.32,1.11,4.79,2.89,9.43,5.37,13.68Zm-14.14-4.14c-1.69-1.89-3.25-3.92-4.37-6.2-.69-1.41-1.2-2.97-1.31-4.54-.09-1.31,.02-2.24,.41-3.47,.79-2.47,3.12-4.58,5.96-3.96,1.62,.35,3.07,1.41,4.26,2.53,.92,.86,1.83,1.86,2.48,2.99-1.47-.21-3-.03-4.38,.53-1.69,.69-2.73,1.83-3.43,3.51-1.2,2.88-.59,5.8,.37,8.61ZM242.49,11.59c2.08-4.46,5.81-8.43,10.71-9.24-.11,1-.77,1.9-1.49,2.63-1.16,1.19-2.58,2.06-3.94,2.98-1.77,1.2-3.53,2.4-5.28,3.63Zm-3.98,5.66c-1.26,7.87,.53,15.99,.9,23.88,.22,4.53,.14,9.07-.24,13.59-.17,2.09-.29,4.26-.78,6.31-.42,1.76-1.16,3.42-2.17,4.92-1.61,2.41-3.79,3.83-6.4,5.01-2.67,1.2-5.52,2.02-8.35,2.74-2.93,.75-5.9,1.36-8.86,1.97-2.21,.45-4.44,.88-6.62,1.48-.88-2.72-1.53-5.51-1.98-8.33-.02-.19-.04-.38-.07-.58,0,0,0,0,0,0,.4-6.28,2.58-12.32,5.53-17.83,4.89-9.15,11.79-17.05,19.04-24.41,3.12-3.17,6.48-6.05,9.99-8.75Zm20.38,7.79c.32-.59,.69-1.16,1.14-1.68,1.02-1.18,2.28-2.07,3.73-2.4-.84,1.37-2.19,2.39-3.54,3.25-.44,.28-.89,.55-1.33,.82Zm-8.98,29.48c-3.23,1.41-6.32,3.03-9.06,5.24,.31-1.9,.45-3.84,.59-5.76,.31-4.09,.36-8.2,.19-12.3,.04-.08,.08-.17,.1-.27,.47-2.13,2-3.85,3.56-5.29,1.46-1.35,3.09-2.51,4.8-3.5,1.74-1.01,3.48-2,5.22-3-.31,2.92-.04,5.85-.03,8.78,0,5.87-2.55,11.11-5.38,16.11Zm15.42-6.75c-.45,.26-.9,.5-1.36,.75,1.49-2.02,3.6-3.73,6.02-4.11-1.42,1.29-2.99,2.4-4.66,3.36Zm-41.44,27.69c-.11,0-.22-.01-.34-.02,.23-.06,.45-.12,.68-.18,2.8-.8,5.61-1.74,8.19-3.1,2.74-1.45,4.94-3.54,6.44-6.27,.4-.72,.72-1.46,1-2.21,.04-.03,.08-.07,.12-.11,1.92-2.03,4.19-3.64,6.64-4.99,1.42-.78,2.89-1.48,4.39-2.13,.09-.02,.19-.06,.27-.12,2.62-1.13,5.33-2.14,7.99-3.23-.94,2.74-1.59,5.59-2.62,8.31-.74,1.96-1.73,3.85-3.14,5.41-1.24,1.37-2.71,2.47-4.33,3.35-3.33,1.81-7.12,2.68-10.83,3.3-4.67,.78-9.4,1.29-14.1,1.9-.13,.02-.26,.05-.38,.1Zm31.94,12.2c-1.59-1.37-3.26-2.66-5-3.84,2.51,.41,4.95,1.2,7.2,2.39,2.97,1.58,6.08,4.27,6.35,7.79-.03,0-.06-.01-.1-.02-.18-.05-.37-.1-.55-.17-.8-.3-1.59-.81-2.3-1.3-2.04-1.41-3.73-3.24-5.61-4.85Zm-23.74-2.31c-2.11,.86-4.27,1.59-6.53,1.9-.16,.02-.33,.03-.49,.05-.18-.03-.34,0-.48,.05-1.73,.16-3.49,.13-5.21-.11-4.1-.58-8.06-2.25-11.25-4.9-.06-.05-.12-.09-.19-.13-.44-.96-.84-1.94-1.22-2.93,4.79-1.26,9.72-1.79,14.67-1.7,7.13,.13,14.4,1.31,20.99,4.12-1.22,.22-2.43,.53-3.61,.93-2.28,.77-4.46,1.81-6.69,2.72Zm26.45,39.12s0,0,0,0h0Zm-.66-.04c-.04,.06-.04,.04,0,0h0Zm-5.88-10.2c-.93-1.64-1.81-3.32-2.7-4.98,1.46,1.02,2.84,2.18,4.07,3.48,1.08,1.14,2.04,2.37,2.88,3.69,.89,1.41,1.83,3,2.13,4.66,.14,.76,.13,1.57-.06,2.32-.05,.22-.12,.4-.2,.59,0,0,0-.01-.01-.02-.35-.47-.69-.94-1.02-1.43-1.83-2.68-3.49-5.49-5.1-8.31Zm-30.21-13.58c-.18-.09-.36-.17-.53-.26-1.76-1.97-3.54-3.93-5.24-5.95-2.15-2.54-4.14-5.2-5.85-8.05,2.86,1.62,6.01,2.66,9.31,3.08,1.79,.23,3.57,.24,5.32,.06,.9,.32,1.8,.66,2.67,1.05,6.2,2.72,11.49,7,15.45,12.48,.13,.19,.26,.38,.39,.57-2.72-1.04-5.54-1.78-8.43-2.21-4.35-.65-8.73-.37-13.09-.76Zm15.85,93.82c-.84,2.7-1.87,5.33-3.16,7.85-1.2,2.35-2.62,4.62-4.28,6.69-.84,1.05-1.74,2.06-2.71,3-.58,.57-1.23,1.13-1.96,1.48,.28-1.09,.64-2.16,1.08-3.2,2.56-5.94,7.09-10.73,11.02-15.82Zm.13-65.97s0-.03,0-.04c-.02-.1-.06-.19-.11-.28-1.41-4.12-3.12-8.13-5.16-12-2.15-4.07-4.67-7.89-7.55-11.47,1.54,.82,3.05,1.69,4.51,2.65,2.91,1.92,5.57,4.2,7.96,6.75,4.72,5.05,8.32,11.14,10.64,17.64,5.13,14.34,3.77,30-2.03,43.93-1.08,2.6-2.33,5.13-3.7,7.57,.69-4.96,.99-9.98,1.07-14.99,.1-6.02-.16-12.05-.86-18.03-.86-7.38-2.4-14.71-4.78-21.74Zm-23.19,67.62s0,.07,0,0h0Zm0-.03s0,0,0,.01c0,0,0,0,0-.01Zm-.65-.55s-.04,0,0,0h0Zm17.24-23.62s-.01,.07-.02,.11c-.84,4.54-1.9,9.13-4.05,13.25-1.87,3.59-4.59,6.76-8.19,8.69-.86,.46-1.76,.83-2.69,1.11-.48,.14-.97,.26-1.46,.35,0,0-.01,0-.02,0,.08-.29,.18-.57,.29-.85,.98-2.49,2.57-5.13,4.12-7.44,.94-1.4,1.81-2.44,2.95-3.83,1.39-1.69,2.81-3.36,4.2-5.05,1.69-2.06,3.36-4.15,4.88-6.34Zm-3.14-44.05c-4.44-8.46-9.6-16.54-15.36-24.16-2.29-3.03-4.64-6.08-7.17-8.93,4.12,2.36,8.35,4.53,12.64,6.58,.58,.28,1.17,.56,1.75,.83,1.24,1.4,2.48,2.82,3.65,4.28,3.18,3.95,5.83,8.29,8.06,12.84,1.55,3.15,2.88,6.41,4.02,9.73,0,0,0,0,0,.01,.34,2.1,.58,4.21,.76,6.33,.37,4.57,.4,9.17,.03,13.73-.25,3.04-.66,6.12-1.38,9.11,.03-.76,.06-1.53,.07-2.29,.05-4.82-.39-9.67-1.55-14.36-1.19-4.8-3.23-9.33-5.52-13.7Zm-5.32,20.65c-.03,.12-.05,.24-.08,.36-1.61,6.4-5.24,12.16-10.1,16.58,0-2.48,.97-4.93,2.25-7.04,2.19-3.62,5.16-6.71,7.93-9.9Zm-22.21-55.77c.72,.71,1.43,1.43,2.12,2.17,3.08,3.28,5.87,6.89,8.57,10.49,5.73,7.65,10.88,15.76,15.27,24.25,.75,1.45,1.45,2.91,2.11,4.39-.47,2.51-1.51,4.83-2.88,6.99,0,.01-.02,.02-.02,.04-.18-5.27-1.67-10.44-4.01-15.28-3.48-7.23-8.55-13.45-13.12-19.99-2.92-4.19-5.67-8.52-8.03-13.06Zm-3.66-31.88c.11,.14,.24,.23,.38,.29,.26,.2,.52,.42,.75,.64,1.07,.99,2.14,2.08,2.84,3.36,.29,.54,.49,1.11,.64,1.7-.12-.14-.25-.27-.37-.41-2.46-2.58-5.86-4.69-9.53-3.61-2.94,.87-4.78,3.56-5.37,6.47-.86,4.32,.84,8.32,3.35,11.84-.17-.16-.35-.31-.52-.47-2.51-2.35-4.79-5.12-5.9-8.43-.93-2.77-1.25-5.99-.08-8.75,1.05-2.47,3.63-4.76,6.39-4.94,2.53-.17,5.31,.8,7.43,2.32Zm-18.49-11.46c3.06-.09,6.12-.76,9.08-1.42,2.8-.63,5.59-1.25,8.45-.54,2.42,.6,4.83,1.99,6.09,4.21,.03,.05,.23,.46,.23,.43,.02,.06,.04,.11,.06,.17,.06,.19,.11,.38,.15,.58,.09,.43,.12,.67,.15,1.1,.1,1.16,.09,2.32,.05,3.49-.06,1.98-.26,3.97-.29,5.95-.52-.79-1.15-1.51-1.81-2.19-.62-.65-1.28-1.24-1.98-1.78-1.11-1.98-2.75-3.63-4.77-4.67-1.64-.85-3.42-1.31-5.26-1.5-.78-.08-1.56-.1-2.35-.07-.39,.02-.78,.05-1.17,.09-.21,.02-.41,.05-.62,.08-.06,0-.11,.02-.17,.02-.04,0-.08,0-.1,0-.07,0-.14,0-.21,0-.04,0-.11-.01-.13-.02-.17-.04-.34-.09-.51-.15-.23-.08-.58-.27-.87-.44-.77-.45-1.48-1.01-2.15-1.6-.65-.57-1.27-1.16-1.88-1.77Z"/>
    </g>
  </g>
</svg>