<?xml version="1.0" standalone="no"?>
<!DOCTYPE svg PUBLIC "-//W3C//DTD SVG 1.1//EN" "http://www.w3.org/Graphics/SVG/1.1/DTD/svg11.dtd" >
<svg xmlns="http://www.w3.org/2000/svg" xmlns:xlink="http://www.w3.org/1999/xlink" version="1.1">
<metadata></metadata>
<defs>
<font id="gothambook_italic" horiz-adv-x="1724" >
<font-face units-per-em="2048" ascent="1638" descent="-410" />
<missing-glyph horiz-adv-x="614" />
<glyph horiz-adv-x="0" />
<glyph unicode="&#xd;" horiz-adv-x="614" />
<glyph unicode=" "  horiz-adv-x="614" />
<glyph unicode="&#x09;" horiz-adv-x="614" />
<glyph unicode="&#xa0;" horiz-adv-x="614" />
<glyph unicode="!" horiz-adv-x="555" d="M41 0h188l58 215h-189zM199 406h90l293 911l30 117h-184l-33 -117z" />
<glyph unicode="&#x22;" horiz-adv-x="905" d="M205 877h88l285 546l2 11h-189zM608 877h88l285 546l2 11h-188z" />
<glyph unicode="#" horiz-adv-x="1396" d="M59 362h226l-127 -362h145l125 362h391l-127 -362h146l125 362h264l37 142h-252l153 434h238l37 141h-228l125 355h-145l-123 -355h-391l125 355h-146l-122 -355h-263l-36 -141h249l-151 -434h-240zM479 504l152 434h389l-154 -434h-387z" />
<glyph unicode="$" horiz-adv-x="1275" d="M-4 254q76 -92 187.5 -155.5t250.5 -86.5l-61 -213h131l55 201h29q119 0 217 30.5t168.5 86t110.5 132.5t40 169q0 135 -86 218t-262 148l135 488q86 -18 155 -57t124 -95l113 109q-66 66 -150 114t-192 70l36 139h-129l-34 -120q-16 0 -34 1t-36 1q-106 0 -197.5 -31 t-159 -84t-105.5 -127t-38 -160q0 -68 21.5 -120t66.5 -95t112.5 -77.5t158.5 -69.5l-140 -516q-117 18 -209 70t-159 130zM430 1049q0 55 27.5 102t76 80t115 49t146.5 8l-127 -465q-129 49 -183.5 98.5t-54.5 127.5zM598 143l135 488q127 -51 176 -104.5t49 -125.5 q0 -59 -26.5 -107t-74.5 -82t-113.5 -52.5t-145.5 -16.5z" />
<glyph unicode="%" horiz-adv-x="1714" d="M131 0h162l1390 1434h-161zM186 1008q0 -63 20.5 -117.5t59.5 -94.5t91 -63.5t118 -23.5q84 0 157 37.5t125 99t81.5 141.5t29.5 164q0 63 -20.5 117.5t-59 94.5t-92 63.5t-118.5 23.5q-84 0 -156 -38t-124 -99.5t-82 -141t-30 -163.5zM313 1018q0 57 19.5 113.5 t54.5 102.5t81 74.5t101 28.5q82 0 127 -53t45 -143q0 -57 -19.5 -113.5t-54 -102.5t-81 -75t-101.5 -29q-84 0 -128 53.5t-44 143.5zM946 285q0 -63 20.5 -118.5t59.5 -95.5t91 -62.5t118 -22.5q84 0 156.5 37.5t125 99t82 141.5t29.5 164q0 63 -20.5 117.5t-59.5 94.5 t-92 63.5t-117 23.5q-84 0 -156.5 -38t-124.5 -99.5t-82 -141t-30 -163.5zM1073 293q0 57 19.5 114.5t54.5 103.5t81 74.5t101 28.5q82 0 127 -53t45 -143q0 -57 -19.5 -113.5t-54 -102.5t-81 -75t-101.5 -29q-82 0 -127 53.5t-45 141.5z" />
<glyph unicode="&#x26;" horiz-adv-x="1417" d="M59 346q0 -86 33 -154.5t89.5 -115.5t133 -71.5t166.5 -24.5q152 0 268.5 54t231.5 161l160 -224l121 78l-175 244q66 72 127.5 157t122.5 187l-108 70q-106 -182 -221 -312l-256 359q129 37 214 82t135 96t71.5 106.5t21.5 110.5q0 68 -25.5 125t-71.5 98t-110.5 63.5 t-144.5 22.5q-84 0 -157 -28.5t-126 -79t-84 -118t-31 -145.5q0 -66 25 -132t66 -134q-242 -66 -359 -190.5t-117 -284.5zM219 358q0 113 92 209.5t295 149.5l297 -418q-98 -90 -195 -135t-208 -45q-131 0 -206 64.5t-75 174.5zM596 1087q0 49 18.5 92.5t51 76t76.5 51 t94 18.5q96 0 151 -52t55 -132q0 -39 -17 -78t-58 -75t-111 -69.5t-176 -62.5q-47 70 -65.5 123t-18.5 108z" />
<glyph unicode="'" horiz-adv-x="501" d="M205 877h88l285 546l2 11h-189z" />
<glyph unicode="(" horiz-adv-x="888" d="M180 442q0 -119 28 -223t77 -195.5t114.5 -169t141.5 -143.5l94 99q-59 61 -112.5 129.5t-93.5 145.5t-63.5 167t-23.5 194q0 125 40 252t125 245t218 222.5t322 186.5l-56 116q-207 -84 -358.5 -196.5t-252.5 -245.5t-150.5 -281.5t-49.5 -302.5z" />
<glyph unicode=")" horiz-adv-x="888" d="M-125 -166l55 -119q205 82 357.5 196t254 247t150.5 282.5t49 302.5q0 119 -27.5 223.5t-76.5 194.5t-114.5 168t-141.5 144l-96 -97q61 -63 114.5 -130.5t93 -145.5t62.5 -167t23 -194q0 -127 -40 -253t-124 -243.5t-218.5 -222t-320.5 -186.5z" />
<glyph unicode="*" horiz-adv-x="880" d="M266 1096l31 -105l244 88l-88 -243l104 -27l45 254l166 -199l80 78l-203 168l260 43l-31 107l-243 -89l88 242l-105 27l-45 -252l-166 198l-79 -77l202 -168z" />
<glyph unicode="+" horiz-adv-x="1314" d="M188 647h424l-112 -422h151l115 422h424l39 148h-424l113 422h-154l-113 -422h-424z" />
<glyph unicode="," horiz-adv-x="522" d="M-92 -178l16 -70q123 23 192.5 84.5t104.5 194.5l49 184h-186l-59 -215h75q-12 -66 -57 -111t-135 -67z" />
<glyph unicode="-" horiz-adv-x="839" d="M135 532h572l43 166h-572z" />
<glyph unicode="." horiz-adv-x="522" d="M25 0h188l57 215h-186z" />
<glyph unicode="/" horiz-adv-x="1040" d="M-256 -262h160l1448 1896h-160z" />
<glyph unicode="0" horiz-adv-x="1464" d="M158 528q0 -121 32.5 -222t97 -175t157.5 -115t214 -41q166 0 303.5 82t235.5 214t152.5 298t54.5 336q0 121 -34 222.5t-97.5 175t-157.5 114.5t-213 41q-166 0 -303 -82t-235.5 -214t-152.5 -298t-54 -336zM326 528q0 141 44 281.5t120.5 251t180 180.5t220.5 70 q84 0 148.5 -31t108.5 -85t66.5 -128t22.5 -162q0 -141 -44 -281.5t-121 -251t-180 -180t-222 -69.5q-84 0 -148.5 30.5t-107.5 85t-65.5 128t-22.5 161.5z" />
<glyph unicode="1" horiz-adv-x="739" d="M193 0h161l387 1444h-120l-385 -123l4 -141l290 84z" />
<glyph unicode="2" horiz-adv-x="1218" d="M-45 0h1020l39 147h-766l661 502q150 115 229 217.5t79 231.5q0 80 -32 145.5t-89.5 112.5t-137 72.5t-176.5 25.5q-162 0 -284.5 -68.5t-221.5 -173.5l107 -102q80 82 176 139.5t217 57.5q129 0 201 -61.5t72 -158.5q0 -92 -60.5 -169.5t-179.5 -167.5l-821 -623z" />
<glyph unicode="3" horiz-adv-x="1239" d="M6 254q63 -127 188.5 -203t313.5 -76q117 0 220 36t182 99.5t124 150.5t45 192q0 82 -30.5 144t-85 106.5t-126 70t-151.5 31.5l584 510l33 119h-934l-41 -146h706l-579 -512l20 -92h66q170 0 270 -60.5t100 -183.5q0 -68 -29.5 -126t-83 -101t-126 -66.5t-156.5 -23.5 q-143 0 -234.5 56.5t-148.5 156.5z" />
<glyph unicode="4" horiz-adv-x="1329" d="M51 461l21 -121h745l-92 -340h158l90 340h223l37 135h-223l260 969h-156zM264 475l787 731l-197 -731h-590z" />
<glyph unicode="5" horiz-adv-x="1234" d="M18 231q72 -106 196 -181t300 -75q135 0 245.5 41t188.5 112t121 163t43 194q0 92 -32.5 167t-92 127t-142.5 81t-186 29q-57 0 -128.5 -16.5t-116.5 -38.5l151 450h654l43 150h-801l-225 -691l92 -73q74 41 150.5 59.5t142.5 18.5q143 0 232 -73t89 -202 q0 -70 -29.5 -133.5t-84 -112.5t-131 -77.5t-171.5 -28.5q-129 0 -221 53t-162 150z" />
<glyph unicode="6" horiz-adv-x="1312" d="M158 504q0 -137 36.5 -233.5t104.5 -164.5q59 -61 149 -96t199 -35q119 0 221.5 42t177 113t116.5 164t42 195q0 86 -31.5 161t-90 131.5t-142.5 88t-188 31.5q-72 0 -133.5 -17.5t-113.5 -46t-94 -66.5t-73 -79q14 133 75.5 258t145.5 209q152 152 346 152 q109 0 190 -41t140 -107l106 111q-74 84 -178 134t-245 50q-139 0 -257 -53t-219 -154q-63 -63 -115.5 -145t-90 -177t-58 -203t-20.5 -222zM326 418q0 66 28.5 127t79.5 109t124 78t163 30q80 0 139.5 -24.5t99 -64.5t59 -91.5t19.5 -104.5q0 -72 -28.5 -137.5 t-79.5 -114.5t-122 -78.5t-157 -29.5q-72 0 -133 21.5t-108 68.5q-41 41 -62.5 92t-21.5 119z" />
<glyph unicode="7" horiz-adv-x="1200" d="M125 0h188l955 1313l35 121h-973l-41 -148h780z" />
<glyph unicode="8" horiz-adv-x="1325" d="M78 362q0 -80 39 -150.5t109.5 -121.5t166.5 -80.5t213 -29.5q125 0 230.5 31.5t182.5 88t119 132t42 163.5q0 59 -20.5 110.5t-54.5 91.5t-78 69.5t-91 46.5q74 14 139.5 47t112.5 80t74.5 108.5t27.5 134.5q0 82 -35.5 149.5t-100 117t-153 77t-194.5 27.5 q-115 0 -210 -30.5t-163.5 -85t-106.5 -126t-38 -151.5q0 -106 59.5 -184t147.5 -113q-88 -16 -164 -48t-132.5 -82t-89 -117.5t-32.5 -154.5zM242 379q0 57 28.5 109.5t79.5 91t126 62.5t167 24q86 0 154.5 -21.5t118 -57.5t75 -84t25.5 -100q0 -63 -30 -115t-82 -90 t-126 -58.5t-162 -20.5q-172 0 -273 72.5t-101 187.5zM449 1047q0 57 25.5 106t72.5 85t111.5 56.5t144.5 20.5q150 0 238.5 -69.5t88.5 -178.5q0 -51 -23.5 -99t-69.5 -86t-112.5 -60.5t-154.5 -22.5q-72 0 -131 19.5t-101 52t-65.5 77.5t-23.5 99z" />
<glyph unicode="9" horiz-adv-x="1312" d="M57 172q82 -92 194 -145.5t247 -53.5t250.5 53.5t218.5 153.5q129 129 207.5 320.5t78.5 419.5q0 145 -35.5 241t-105.5 166q-61 61 -152.5 95t-195.5 34q-121 0 -222.5 -42t-177 -113.5t-118.5 -166t-43 -200.5q0 -88 31.5 -165t90 -133t142.5 -89t188 -33 q76 0 139.5 19.5t116 50t92 69.5t68.5 78q-14 -129 -73.5 -251t-145.5 -206q-154 -154 -346 -153q-109 0 -191 43t-151 119zM371 946q0 74 28.5 141.5t79.5 117.5t123 81t158 31q150 0 241 -92q82 -82 82 -209q0 -70 -28.5 -134.5t-79.5 -114.5t-124 -81t-159 -31 q-82 0 -142.5 25t-100 64.5t-59 93t-19.5 108.5z" />
<glyph unicode=":" horiz-adv-x="536" d="M33 0h188l58 215h-189zM258 844h188l60 215h-189z" />
<glyph unicode=";" horiz-adv-x="536" d="M-84 -178l16 -70q123 23 193 84.5t104 194.5l50 184h-189l-57 -215h73q-12 -66 -56 -111t-134 -67zM258 844h188l60 215h-189z" />
<glyph unicode="&#x3c;" horiz-adv-x="1310" d="M156 653l835 -477l41 148l-686 387l893 385l45 170l-1091 -478z" />
<glyph unicode="=" horiz-adv-x="1310" d="M152 406h940l41 151h-940zM281 885h942l39 151h-940z" />
<glyph unicode="&#x3e;" horiz-adv-x="1310" d="M94 176l1090 477l37 135l-834 478l-41 -148l684 -387l-891 -385z" />
<glyph unicode="?" horiz-adv-x="1099" d="M205 1247l92 -106q68 66 164 115t209 49q117 0 194.5 -58.5t77.5 -169.5q0 -72 -35 -130t-98.5 -99t-153.5 -66.5t-198 -33.5l-13 -11l-57 -331h105l81 225q115 16 213.5 53t170 94.5t112.5 135t41 176.5q0 76 -28.5 142t-84 115.5t-134.5 77t-177 27.5 q-152 0 -272.5 -58.5t-208.5 -146.5zM240 0h188l57 215h-188z" />
<glyph unicode="@" horiz-adv-x="2007" d="M129 475q0 -180 61.5 -327.5t174 -253t270 -163t352.5 -57.5q125 0 233.5 23.5t219.5 75.5l-31 63q-104 -47 -204.5 -69.5t-217.5 -22.5q-176 0 -320.5 53t-247 149.5t-158.5 230.5t-56 298q0 182 72.5 348t198.5 292t295 201t362 75q172 0 308 -51.5t230 -139.5 t144.5 -205.5t50.5 -253.5q0 -131 -34 -227t-84 -159.5t-110.5 -95.5t-111.5 -32q-98 0 -134 71t-1 179l155 500l-133 35l-55 -181q-33 80 -105.5 140.5t-195.5 60.5q-94 0 -184.5 -43t-161 -116.5t-114.5 -174t-44 -215.5q0 -80 25.5 -143.5t69.5 -107.5t103.5 -67.5 t127.5 -23.5q109 0 198.5 51.5t167.5 145.5q18 -90 83 -141.5t173 -51.5q74 0 153 37t142.5 112t104.5 186.5t41 260.5q0 147 -54.5 278.5t-159 230t-255 154.5t-340.5 56q-209 0 -391.5 -80t-318.5 -215t-215 -314t-79 -376zM709 496q0 84 28.5 158.5t77.5 130t113.5 88 t136.5 32.5q111 0 175.5 -67.5t64.5 -171.5q0 -78 -34 -150t-88.5 -127t-123.5 -88t-139 -33q-92 0 -151.5 59.5t-59.5 168.5z" />
<glyph unicode="A" horiz-adv-x="1558" d="M-82 0h178l271 379h782l65 -379h166l-266 1444h-156zM469 524l524 736l129 -736h-653z" />
<glyph unicode="B" horiz-adv-x="1468" d="M61 0h660q141 0 252.5 31.5t189.5 88t119 135.5t41 171q0 121 -73.5 192.5t-180.5 104.5q76 14 141.5 47t113.5 80t75.5 109.5t27.5 140.5q0 154 -116.5 244t-327.5 90h-537zM260 145l135 506h434q72 0 132.5 -13t104.5 -41t68.5 -69t24.5 -96q0 -135 -112.5 -211 t-307.5 -76h-479zM434 795l131 493h404q141 0 217 -53t76 -156q0 -129 -114 -206.5t-306 -77.5h-408z" />
<glyph unicode="C" horiz-adv-x="1505" d="M174 567q0 -139 48 -248.5t131 -186.5t193.5 -118t237.5 -41q96 0 177 18.5t150 51.5t127 77t108 93l-109 106q-92 -90 -195.5 -142t-248.5 -52q-98 0 -180.5 30.5t-141.5 89t-93 141.5t-34 187q0 141 53.5 274.5t145.5 236t215 164t262 61.5q158 0 254 -65.5t162 -178.5 l139 86q-72 133 -207 220t-334 87q-178 0 -334.5 -73.5t-273.5 -197.5t-184.5 -285t-67.5 -335z" />
<glyph unicode="D" horiz-adv-x="1583" d="M61 0h486q229 0 417.5 71.5t317.5 200.5q111 111 168 252.5t57 306.5q0 256 -155 412q-94 92 -236.5 141.5t-322.5 49.5h-347zM264 150l305 1134h213q291 0 437 -145q120 -116 120 -315q0 -136 -47 -249.5t-133 -199.5q-111 -111 -261 -168t-331 -57h-303z" />
<glyph unicode="E" horiz-adv-x="1337" d="M61 0h1037l39 147h-875l135 502h770l41 148h-772l131 489h865l41 148h-1027z" />
<glyph unicode="F" horiz-adv-x="1347" d="M61 0h162l168 625h776l41 147h-778l137 512h871l39 150h-1031z" />
<glyph unicode="G" horiz-adv-x="1605" d="M176 584q0 -145 50 -258t136.5 -192t202 -120t246.5 -41q150 0 272.5 39t237.5 111l182 643h-592l-39 -145h433l-113 -398q-70 -43 -162 -71.5t-209 -28.5q-104 0 -191 31.5t-150.5 91t-98.5 146.5t-35 198q0 135 53.5 265t146.5 231.5t220 163t276 61.5q88 0 155 -16.5 t118 -45t90 -67.5t70 -82l122 96q-35 51 -82 98t-111.5 84t-150.5 58.5t-196 21.5q-188 0 -350 -74.5t-280 -196.5t-184.5 -279.5t-66.5 -323.5z" />
<glyph unicode="H" horiz-adv-x="1548" d="M61 0h162l174 645h817l-174 -645h164l385 1434h-164l-170 -637h-817l170 637h-162z" />
<glyph unicode="I" horiz-adv-x="595" d="M76 0h162l385 1434h-162z" />
<glyph unicode="J" horiz-adv-x="1122" d="M-29 285q23 -66 61 -122.5t91 -97t121.5 -63t152.5 -22.5q100 0 192.5 34.5t162.5 104.5t113.5 161t80.5 226l250 928h-164l-241 -897q-31 -115 -65 -186.5t-85 -123.5q-98 -98 -242 -98q-113 0 -183.5 57.5t-115.5 173.5z" />
<glyph unicode="K" horiz-adv-x="1470" d="M61 0h162l99 367l415 342l357 -709h182l-408 803l770 631h-229l-1028 -852l227 852h-162z" />
<glyph unicode="L" horiz-adv-x="1243" d="M61 0h969l41 150h-807l344 1284h-162z" />
<glyph unicode="M" horiz-adv-x="1779" d="M61 0h160l311 1159l314 -766h8l727 768l-311 -1161h164l385 1434h-181l-731 -783l-309 783h-152z" />
<glyph unicode="N" horiz-adv-x="1609" d="M61 0h158l320 1190l598 -1190h129l385 1434h-158l-313 -1164l-584 1164h-150z" />
<glyph unicode="O" d="M180 596q0 -131 46 -244.5t129 -197.5t199 -132.5t255 -48.5q178 0 330.5 73t264.5 192.5t176.5 276.5t64.5 323q0 131 -46.5 243.5t-129.5 196.5t-198.5 132t-254.5 48q-178 0 -331 -72.5t-264.5 -192.5t-176 -275.5t-64.5 -321.5zM350 600q0 133 50.5 261t137.5 227.5 t206.5 160t261.5 60.5q106 0 193 -37t148.5 -100.5t94.5 -151.5t33 -189q0 -133 -50.5 -261t-137.5 -227t-207 -159.5t-261 -60.5q-109 0 -194.5 37t-147 100.5t-94.5 150.5t-33 189z" />
<glyph unicode="P" horiz-adv-x="1366" d="M61 0h162l137 510h340q158 0 288 35t223.5 102.5t144.5 164.5t51 222q0 164 -102 266q-70 70 -172.5 102t-237.5 32h-449zM399 653l168 631h322q195 0 285 -90q65 -65 65 -167q0 -181 -137 -277.5t-393 -96.5h-310z" />
<glyph unicode="Q" d="M180 596q0 -131 46 -244.5t129 -197.5t199 -132.5t255 -48.5q121 0 230.5 36t203.5 100l133 -168l127 94l-143 162q133 123 209 290.5t76 350.5q0 131 -46.5 243.5t-129.5 196.5t-198.5 132t-254.5 48q-178 0 -331 -72.5t-264.5 -192.5t-176 -275.5t-64.5 -321.5z M350 600q0 133 50.5 261t137.5 227.5t206.5 160t261.5 60.5q106 0 193 -37t148.5 -100.5t94.5 -151.5t33 -189q0 -143 -56.5 -276t-154.5 -233l-209 264l-127 -97l223 -262q-72 -49 -156 -76.5t-176 -27.5q-109 0 -194.5 37t-147 100.5t-94.5 150.5t-33 189z" />
<glyph unicode="R" horiz-adv-x="1468" d="M61 0h162l150 557h389l282 -557h187l-295 573q158 25 269.5 91.5t162.5 171.5q69 106 69 229q0 33 -5 68q-23 143 -143 222t-326 79h-517zM412 702l157 582h385q158 0 238 -56.5t90 -154.5q1 -12 1 -24q0 -98 -58 -177q-47 -78 -157 -124t-267 -46h-389z" />
<glyph unicode="S" horiz-adv-x="1304" d="M25 252q92 -129 239 -200.5t346 -71.5q115 0 214.5 32.5t172 90t114.5 137t42 174.5q0 70 -23.5 124t-69.5 99t-116 83t-162 73q-84 33 -144 61.5t-99 59t-56.5 65.5t-17.5 78q0 49 23.5 94t67.5 81t108.5 56.5t144.5 20.5q127 0 226.5 -46t176.5 -133l119 107 q-82 96 -211 156.5t-297 60.5q-117 0 -213 -31.5t-166.5 -87t-109.5 -132.5t-39 -165q0 -70 24.5 -124t73.5 -98t123 -83t172 -78q82 -33 139.5 -62.5t91 -60t49 -64.5t15.5 -75q0 -59 -27.5 -108t-76 -84t-115 -55.5t-143.5 -20.5q-160 0 -270.5 56.5t-203.5 166.5z" />
<glyph unicode="T" horiz-adv-x="1261" d="M262 1284h483l-344 -1284h162l344 1284h484l41 150h-1129z" />
<glyph unicode="U" horiz-adv-x="1552" d="M188 436q0 -100 34 -184t99.5 -145.5t163 -95.5t226.5 -34q268 0 446 179q152 152 225 424l230 854h-162l-223 -826q-33 -119 -79 -206t-104 -144q-68 -68 -148.5 -99.5t-170.5 -31.5q-96 0 -166 24.5t-117 68.5t-69.5 104.5t-22.5 130.5q0 47 5 88t16 73l217 818h-164 l-205 -775q-31 -111 -31 -223z" />
<glyph unicode="V" horiz-adv-x="1468" d="M281 1434l225 -1444h145l1000 1444h-185l-837 -1233l-176 1233h-172z" />
<glyph unicode="W" horiz-adv-x="2217" d="M297 1434l125 -1444h139l703 1157l82 -1157h141l899 1444h-182l-729 -1194l-76 1198h-133l-711 -1198l-90 1194h-168z" />
<glyph unicode="X" horiz-adv-x="1421" d="M-63 0h210l596 612l312 -612h178l-373 719l709 715h-209l-572 -586l-299 586h-178l361 -693z" />
<glyph unicode="Y" horiz-adv-x="1357" d="M244 1434l354 -856l-156 -578h164l148 551l839 883h-207l-675 -723l-287 723h-180z" />
<glyph unicode="Z" horiz-adv-x="1370" d="M-39 0h1149l39 145h-913l1224 1180l29 109h-1110l-41 -146h874l-1222 -1179z" />
<glyph unicode="[" horiz-adv-x="899" d="M18 -266h586l33 123h-436l389 1454h438l33 123h-586z" />
<glyph unicode="\" horiz-adv-x="1040" d="M285 1634l446 -1896h135l-446 1896h-135z" />
<glyph unicode="]" horiz-adv-x="899" d="M-135 -266h588l456 1700h-587l-33 -123h438l-389 -1454h-438z" />
<glyph unicode="^" horiz-adv-x="1024" d="M240 1010h151l326 315l157 -315h125l-204 428h-123z" />
<glyph unicode="_" horiz-adv-x="1228" d="M-233 -328h1237l36 129h-1239z" />
<glyph unicode="`" horiz-adv-x="1024" d="M571 1440l170 -221h111l-115 297z" />
<glyph unicode="a" horiz-adv-x="1179" d="M39 270q0 -72 27.5 -126t73.5 -91t106.5 -56.5t128.5 -19.5q127 0 224 51.5t171 137.5l-45 -166h154l159 600q10 37 16.5 74t6.5 71q0 154 -107.5 241t-308.5 87q-104 0 -188 -17.5t-162 -45.5l27 -131q72 25 142.5 40t156.5 15q145 0 215.5 -55.5t70.5 -159.5 q0 -23 -4 -49.5t-10 -48.5l-6 -25q-78 23 -174.5 40t-202.5 17q-102 0 -188 -26.5t-149.5 -75.5t-98.5 -121t-35 -160zM199 289q0 55 23.5 100t64.5 78t99 51.5t130 18.5q98 0 186.5 -13.5t157.5 -34.5l-20 -73q-18 -70 -61.5 -128.5t-99.5 -99.5t-121.5 -64.5t-133.5 -23.5 q-104 0 -164.5 51.5t-60.5 137.5z" />
<glyph unicode="b" horiz-adv-x="1349" d="M35 0h158l63 238q23 -53 56.5 -100.5t82.5 -83.5t112.5 -57.5t145.5 -21.5q117 0 223.5 50.5t189.5 138.5t132 208t49 261q0 100 -31.5 183t-88 142.5t-133 91t-167.5 31.5q-129 0 -226 -59t-175 -145l168 618h-158zM311 444q0 96 41 186.5t106.5 159t150.5 110.5t173 42 q68 0 122 -22.5t94 -65.5t61.5 -102.5t21.5 -133.5q0 -102 -33.5 -193t-93 -159.5t-140.5 -109.5t-175 -41q-74 0 -134.5 25.5t-103.5 69.5t-66.5 104.5t-23.5 129.5z" />
<glyph unicode="c" horiz-adv-x="1150" d="M98 438q0 -109 39 -194.5t103.5 -145t149.5 -91.5t177 -32q133 0 232.5 49.5t181.5 127.5l-92 102q-70 -63 -144.5 -101t-169.5 -38q-61 0 -118.5 21.5t-101.5 63.5t-69.5 103.5t-25.5 138.5q0 98 37 189.5t98.5 160t143.5 109.5t172 41q59 0 106 -15.5t83 -41t64.5 -59 t51.5 -72.5l127 80q-25 49 -63 94t-90 78.5t-119.5 54t-149.5 20.5q-127 0 -239.5 -52t-197.5 -140t-135.5 -205t-50.5 -246z" />
<glyph unicode="d" horiz-adv-x="1349" d="M102 424q0 -100 32 -183t88.5 -141.5t133 -91.5t166.5 -33q129 0 226.5 59.5t173.5 145.5l-48 -180h158l400 1495h-158l-180 -676q-23 51 -56.5 99.5t-83 84t-113 57t-145.5 21.5q-117 0 -223 -50t-189 -138t-132.5 -208t-49.5 -261zM268 438q0 100 34 192.5t93.5 161 t140 109.5t175.5 41q74 0 134 -25.5t103 -69.5t66.5 -103.5t23.5 -129.5q0 -98 -41 -188t-106.5 -158.5t-150.5 -110.5t-173 -42q-66 0 -121 22.5t-95 65.5t-61.5 102.5t-21.5 132.5z" />
<glyph unicode="e" horiz-adv-x="1206" d="M98 426q0 -100 34 -183t95.5 -142.5t148.5 -92.5t191 -33q139 0 238.5 46.5t177.5 111.5l-82 105q-72 -59 -147.5 -92t-178.5 -33q-147 0 -233 87t-86 232v21q0 12 2 22h829q16 47 26.5 97.5t10.5 103.5q0 82 -26.5 155.5t-77.5 129t-128 88t-177 32.5q-133 0 -246 -57 t-196 -149.5t-129 -210t-46 -238.5zM281 594q20 74 60 138.5t95.5 112.5t124 75.5t146.5 27.5q68 0 117.5 -22.5t82.5 -59.5t48.5 -86t15.5 -104q0 -51 -10 -82h-680z" />
<glyph unicode="f" horiz-adv-x="768" d="M94 0h158l248 920h344l39 139h-346l26 102q29 104 83 152.5t130 48.5q47 0 87 -10.5t87 -32.5l37 135q-86 45 -211 45q-137 0 -228 -76.5t-134 -236.5l-35 -127h-146l-36 -139h145z" />
<glyph unicode="g" horiz-adv-x="1349" d="M-27 -147q98 -86 235 -135.5t284 -49.5q135 0 235 38t174 112q57 57 98 134t74 200l242 907h-158l-61 -232q-23 47 -54.5 93.5t-77.5 82t-108.5 57t-148.5 21.5q-111 0 -218.5 -44t-190.5 -123.5t-134 -190.5t-51 -242q0 -96 35.5 -169.5t96 -125t137.5 -78t161 -26.5 q131 0 228 54t177 136l-28 -106q-23 -82 -53.5 -143.5t-80.5 -110.5q-49 -49 -122.5 -79t-174.5 -30q-123 0 -227 44t-190 116zM279 502q0 94 36.5 175t97 140.5t139.5 92t163 32.5q76 0 136 -24.5t102 -66.5t64.5 -96.5t22.5 -111.5q0 -82 -36.5 -158.5t-99 -136 t-144.5 -95.5t-172 -36q-61 0 -116.5 18.5t-98.5 53.5t-68.5 88t-25.5 125z" />
<glyph unicode="h" horiz-adv-x="1255" d="M35 0h158l159 598q20 76 59.5 138.5t90.5 107.5t111.5 70.5t121.5 25.5q111 0 174.5 -58.5t63.5 -162.5q0 -27 -4 -59.5t-13 -59.5l-159 -600h157l156 590q10 41 18.5 84t8.5 80q0 152 -92.5 239.5t-245.5 87.5q-121 0 -209 -56t-160 -138l164 608h-158z" />
<glyph unicode="i" horiz-adv-x="540" d="M49 0h158l285 1059h-158zM385 1290h180l47 174h-180z" />
<glyph unicode="j" horiz-adv-x="538" d="M-244 -315q37 -10 69 -14.5t73 -4.5q102 0 179 64.5t111 199.5l304 1129h-158l-299 -1112q-20 -74 -59 -109t-93 -35q-23 0 -46 4.5t-44 10.5zM385 1290h180l47 174h-180z" />
<glyph unicode="k" horiz-adv-x="1163" d="M35 0h158l73 276l283 226l246 -502h178l-291 602l567 457h-215l-712 -582l272 1018h-158z" />
<glyph unicode="l" horiz-adv-x="540" d="M49 0h158l401 1495h-157z" />
<glyph unicode="m" horiz-adv-x="1945" d="M35 0h158l159 598q20 74 58.5 136.5t87.5 108.5t105 71.5t116 25.5q104 0 162.5 -58.5t58.5 -162.5q0 -27 -4 -59.5t-12 -59.5l-160 -600h158l157 598q18 74 56.5 136.5t87.5 108.5t106 71.5t117 25.5q104 0 161.5 -58.5t57.5 -162.5q0 -27 -3 -59.5t-11 -59.5l-162 -600 h158l157 590q10 41 19.5 84t9.5 80q0 74 -23.5 134t-66.5 103t-102.5 66.5t-131.5 23.5q-141 0 -247.5 -64.5t-178.5 -174.5q-10 45 -33.5 89t-60.5 76.5t-88 53t-119 20.5q-117 0 -198.5 -56t-153.5 -138l45 172h-158z" />
<glyph unicode="n" horiz-adv-x="1255" d="M35 0h158l159 598q20 76 59.5 138.5t90.5 107.5t111.5 70.5t121.5 25.5q111 0 174.5 -58.5t63.5 -162.5q0 -27 -4 -59.5t-13 -59.5l-159 -600h157l156 590q10 41 18.5 84t8.5 80q0 152 -92.5 239.5t-245.5 87.5q-121 0 -209 -56t-160 -138l45 172h-158z" />
<glyph unicode="o" horiz-adv-x="1306" d="M100 451q0 -102 34 -189.5t97.5 -151t152.5 -99.5t198 -36q125 0 237.5 51.5t198.5 138.5t137 201.5t51 241.5q0 102 -34.5 189.5t-98 150t-153 98t-197.5 35.5q-127 0 -239.5 -52t-197.5 -139t-135.5 -202t-50.5 -237zM260 455q0 92 37 180t98.5 155.5t143.5 109.5 t174 42q147 0 239 -89t92 -251q0 -94 -36.5 -182t-100 -155.5t-145.5 -107.5t-170 -40q-147 0 -239.5 88t-92.5 250z" />
<glyph unicode="p" horiz-adv-x="1349" d="M-53 -328h157l152 566q23 -53 56.5 -100.5t82.5 -83.5t112.5 -57.5t145.5 -21.5q117 0 223.5 50.5t189.5 138.5t132 208t49 261q0 100 -31.5 183t-88 142.5t-133 91t-167.5 31.5q-129 0 -226 -59t-175 -145l49 182h-158zM311 444q0 96 41 186.5t106.5 159t150.5 110.5 t173 42q68 0 122 -22.5t94 -65.5t61.5 -102.5t21.5 -133.5q0 -102 -33.5 -193t-93 -159.5t-140.5 -109.5t-175 -41q-74 0 -134.5 25.5t-103.5 69.5t-66.5 104.5t-23.5 129.5z" />
<glyph unicode="q" horiz-adv-x="1349" d="M102 424q0 -100 32 -183t88.5 -141.5t133 -91.5t166.5 -33q129 0 226.5 60.5t175.5 146.5l-158 -592h158l391 1469h-158l-63 -238q-23 51 -56.5 99.5t-83 83t-113 56t-145.5 21.5q-117 0 -223 -50t-189 -138t-132.5 -208t-49.5 -261zM268 438q0 100 34 192.5t93.5 161 t140 109.5t175.5 41q74 0 134 -25.5t103 -69.5t66.5 -103.5t23.5 -129.5q0 -96 -41 -186t-106.5 -159.5t-150.5 -111.5t-173 -42q-66 0 -121 22.5t-95 65.5t-61.5 102.5t-21.5 132.5z" />
<glyph unicode="r" horiz-adv-x="823" d="M35 0h158l112 418q33 119 89.5 211t129 153.5t157.5 93t171 31.5h10l45 170q-14 1 -27 1q-64 0 -122 -16q-70 -20 -133.5 -58.5t-117.5 -95t-104 -126.5l72 277h-158z" />
<glyph unicode="s" horiz-adv-x="1015" d="M-12 162q92 -92 212.5 -138.5t243.5 -46.5q84 0 158 25t129 69t87 105.5t32 134.5q0 104 -72.5 169t-216.5 122q-63 25 -104 46.5t-64.5 43t-33 43t-9.5 47.5q0 66 58.5 117t171.5 51q86 0 166.5 -34.5t146.5 -88.5l92 109q-66 57 -170 101t-221 44q-92 0 -167 -25.5 t-127 -69.5t-79.5 -103.5t-27.5 -126.5q0 -111 77.5 -173.5t221.5 -117.5q115 -45 157.5 -87t42.5 -93q0 -41 -19.5 -73t-52 -55.5t-74.5 -35.5t-87 -12q-96 0 -189.5 35.5t-179.5 119.5z" />
<glyph unicode="t" horiz-adv-x="821" d="M156 190q0 -104 71.5 -156t186.5 -52q47 0 87 7t81 23l39 144q-84 -33 -154 -33q-68 0 -106.5 26.5t-38.5 81.5q0 16 2 38t6 40l164 611h333l37 139h-334l86 319h-155l-86 -319h-148l-37 -139h146l-166 -619q-6 -25 -10 -53.5t-4 -57.5z" />
<glyph unicode="u" horiz-adv-x="1255" d="M119 305q0 -152 91 -240t245 -88q121 0 210 56.5t160 138.5l-47 -172h158l283 1059h-158l-160 -596q-20 -76 -59 -139.5t-90.5 -108.5t-111.5 -70.5t-122 -25.5q-111 0 -173 58.5t-62 162.5q0 27 3 59.5t11 59.5l162 600h-158l-156 -590q-10 -41 -18 -84t-8 -80z" />
<glyph unicode="v" horiz-adv-x="1159" d="M180 1059l170 -1067h139l740 1067h-178l-586 -879l-119 879h-166z" />
<glyph unicode="w" horiz-adv-x="1736" d="M197 1059l84 -1067h137l510 835l61 -835h139l660 1067h-164l-510 -844l-59 848h-131l-512 -848l-56 844h-159z" />
<glyph unicode="x" horiz-adv-x="1155" d="M-72 0h199l434 430l211 -430h174l-276 535l538 524h-198l-404 -404l-200 404h-175l267 -510z" />
<glyph unicode="y" horiz-adv-x="1175" d="M-154 -260q51 -35 107.5 -54.5t124.5 -19.5q119 0 221 66.5t213 232.5l725 1094h-178l-570 -883l-147 883h-164l193 -1057q-80 -113 -144.5 -155t-132.5 -42q-39 0 -86 15.5t-76 38.5z" />
<glyph unicode="z" horiz-adv-x="1124" d="M-41 0h918l36 133h-692l905 825l29 101h-885l-37 -133h658l-903 -826z" />
<glyph unicode="{" horiz-adv-x="989" d="M121 526h57q109 0 148 -34.5t39 -98.5q0 -25 -5.5 -55.5t-15.5 -65.5q-27 -84 -37 -132t-10 -95q0 -57 18.5 -109.5t58.5 -95.5t105.5 -77t157.5 -52l49 99q-133 39 -184 102t-51 154q0 47 13 105t30 105q23 68 22 130q0 135 -149 172q70 10 121 34.5t89.5 70.5 t64.5 117.5t44 180.5q14 86 41 151.5t74 111.5t120.5 74t182.5 34l-2 112q-143 -6 -241.5 -38.5t-163 -91t-101.5 -140.5t-55 -186q-18 -100 -42 -169t-62 -111t-93 -60.5t-133 -18.5h-57z" />
<glyph unicode="|" horiz-adv-x="620" d="M285 -262h131v1896h-131v-1896z" />
<glyph unicode="}" horiz-adv-x="989" d="M-84 -176l2 -113q143 6 240.5 39t162 91.5t101.5 140t55 186.5q18 100 43 169t63 110.5t93 60t133 18.5h57l31 123h-55q-109 0 -149 35t-40 98q0 49 23 121q25 84 35 132t10 95q0 57 -18.5 109.5t-58.5 95.5t-104.5 77t-156.5 52l-49 -98q133 -39 184 -102.5t51 -153.5 q0 -47 -14 -105.5t-29 -105.5q-10 -33 -17 -66.5t-7 -62.5q0 -135 151 -172q-70 -10 -121 -34.5t-88.5 -71t-64.5 -119t-45 -178.5q-14 -86 -41 -152t-74 -112t-120.5 -73.5t-182.5 -33.5z" />
<glyph unicode="~" horiz-adv-x="968" d="M160 532l102 -45q35 59 62.5 91t64.5 32q25 0 45.5 -13t54.5 -46q35 -31 66 -49.5t78 -18.5q76 0 133 55.5t106 161.5l-100 43q-35 -59 -62.5 -89.5t-64.5 -30.5q-27 0 -46 13t-54 46q-35 31 -65.5 49.5t-78.5 18.5q-76 0 -133 -55.5t-108 -162.5z" />
<glyph unicode="&#xa1;" horiz-adv-x="555" d="M43 0h184l33 117l195 911h-88l-293 -911zM369 1219h186l59 215h-188z" />
<glyph unicode="&#xa2;" horiz-adv-x="1159" d="M150 633q0 -145 71.5 -255t196.5 -163l-90 -227h131l76 192q23 -4 47 -6t49 -2q143 0 247.5 48t186.5 124l-92 105q-72 -63 -154 -99.5t-186 -36.5q-14 0 -26.5 1t-24.5 3l315 805q72 -23 118 -67.5t81 -104.5l125 80q-35 72 -99.5 132.5t-165.5 92.5l76 191h-131 l-67 -168q-12 2 -27 2h-27q-131 0 -245.5 -51t-200.5 -139.5t-135 -206t-49 -250.5zM309 635q0 100 36 192.5t99.5 161t147.5 109.5t182 41h10l-309 -791q-78 41 -122 115t-44 172z" />
<glyph unicode="&#xa3;" horiz-adv-x="1288" d="M-10 0h1061l39 143h-730l123 461h574l39 141h-574l60 220q43 162 127 245q43 43 97 66.5t122 23.5q102 0 164.5 -45t109.5 -122l133 86q-55 100 -151.5 165.5t-245.5 65.5q-111 0 -193.5 -36t-152.5 -105q-55 -55 -96 -136t-68 -180l-68 -248h-170l-38 -141h172 l-127 -467l-183 -43z" />
<glyph unicode="&#xa4;" horiz-adv-x="1421" d="M68 485h194q8 -119 49 -213t108.5 -160.5t158 -101.5t196.5 -35q166 0 283 67t209 171l-109 94q-80 -88 -169 -136t-210 -48q-154 0 -245 99.5t-101 262.5h520l35 129h-555q4 57 14.5 112.5t26.5 109.5h571l35 127h-557q37 76 86 140t108.5 110.5t129 72t147.5 25.5 q141 0 219 -64.5t127 -179.5l140 63q-25 70 -65 130.5t-97 104.5t-134 68.5t-171 24.5q-117 0 -219.5 -38t-187.5 -103.5t-150.5 -156.5t-110.5 -197h-149l-35 -127h143q-33 -104 -39 -222h-162z" />
<glyph unicode="&#xa5;" horiz-adv-x="1439" d="M139 238h416l-63 -238h159l62 238h422l34 127h-421l47 180h422l34 127h-356l737 762h-202l-668 -705l-289 705h-180l323 -762h-362l-35 -127h416l-47 -180h-416z" />
<glyph unicode="&#xa7;" horiz-adv-x="1294" d="M127 154q35 -37 84 -69t108.5 -55.5t127 -36.5t141.5 -13q82 0 153.5 19t125 54t84 86t30.5 113q0 66 -40 114t-95 76q82 4 149.5 24.5t116.5 54.5t77 81t28 105q0 53 -26 95t-75 76.5t-120.5 64.5t-164.5 61q-139 45 -201.5 85.5t-62.5 98.5q0 61 63.5 99t157.5 38 q119 0 217.5 -44t157.5 -101l101 102q-35 37 -84.5 68.5t-108.5 55.5t-126.5 37t-139.5 13q-82 0 -153.5 -19.5t-126 -54t-85 -86t-30.5 -112.5q0 -66 41 -114t94 -77q-82 -4 -149.5 -24.5t-117 -54t-77 -81t-27.5 -104.5q0 -53 25.5 -95t75 -77t121 -64.5t163.5 -60.5 q141 -47 202.5 -87t61.5 -97q0 -61 -63.5 -99t-157.5 -38q-117 0 -215 43t-158 102zM330 750q0 33 19.5 62.5t53 51t80.5 33.5t101 12q63 0 114.5 -10t116.5 -33q131 -43 188.5 -84t57.5 -96q0 -33 -19.5 -62.5t-53.5 -51t-81 -34t-100 -12.5q-63 0 -114.5 10.5t-117.5 32.5 q-131 43 -188 84t-57 97z" />
<glyph unicode="&#xa8;" horiz-adv-x="1024" d="M406 1219h184l53 194h-184zM768 1219h182l54 194h-183z" />
<glyph unicode="&#xa9;" horiz-adv-x="1699" d="M158 715q0 -152 57 -287t156.5 -235.5t234.5 -159t291 -58.5t292 59.5t236.5 161t157.5 236.5t57 287t-57 287t-156.5 235t-234.5 158.5t-291 58.5t-292 -59.5t-236.5 -160.5t-157.5 -236.5t-57 -286.5zM225 715q0 139 51.5 263t142.5 216t214 146.5t268 54.5 q143 0 266 -53.5t213 -145.5t141.5 -215t51.5 -262t-51.5 -263t-142.5 -216.5t-215 -146.5t-267 -54t-266 53t-213 145.5t-141.5 215t-51.5 262.5zM526 727q0 -82 29 -153.5t80 -125t120.5 -84t151.5 -30.5q104 0 173 37t130 98l-73 72q-53 -47 -103.5 -75t-124.5 -28 q-55 0 -104 22.5t-86 62.5t-57.5 93.5t-20.5 112.5t19.5 111.5t55.5 92.5t85 62.5t108 22.5q68 0 122 -30t99 -73l74 82q-55 53 -122.5 88t-172.5 35q-84 0 -153.5 -30.5t-120.5 -85t-80 -126t-29 -151.5z" />
<glyph unicode="&#xaa;" horiz-adv-x="798" d="M115 592h512l24 96h-512zM215 989q0 -72 50 -113.5t124 -41.5q70 0 124 29.5t95 76.5l-24 -94h104l88 332q4 20 8 40.5t4 41.5q0 86 -59 134t-172 48q-59 0 -108.5 -10.5t-94.5 -26.5l19 -88q37 14 76.5 22.5t87.5 8.5q76 0 111.5 -29t35.5 -80q0 -10 -2 -24.5t-6 -24.5 l-4 -12q-41 10 -89 20t-102 10q-117 0 -191.5 -58t-74.5 -161zM324 1001q0 59 46 95.5t119 36.5q47 0 89.5 -6.5t76.5 -16.5l-8 -27q-10 -35 -32.5 -65.5t-53.5 -54t-65.5 -37t-71.5 -13.5q-47 0 -73.5 25t-26.5 63z" />
<glyph unicode="&#xab;" horiz-adv-x="1126" d="M92 516l215 -436l129 63l-168 363l385 383l-102 86l-455 -443zM547 516l215 -436l129 63l-168 363l385 383l-102 86l-455 -443z" />
<glyph unicode="&#xad;" horiz-adv-x="839" d="M135 532h572l43 166h-572z" />
<glyph unicode="&#xae;" horiz-adv-x="1699" d="M158 715q0 -152 57 -287t156.5 -235.5t234.5 -159t291 -58.5t292 59.5t236.5 161t157.5 236.5t57 287t-57 287t-156.5 235t-234.5 158.5t-291 58.5t-292 -59.5t-236.5 -160.5t-157.5 -236.5t-57 -286.5zM225 715q0 139 51.5 263t142.5 216t214 146.5t268 54.5 q143 0 266 -53.5t213 -145.5t141.5 -215t51.5 -262t-51.5 -263t-142.5 -216.5t-215 -146.5t-267 -54t-266 53t-213 145.5t-141.5 215t-51.5 262.5zM608 358h113v287h194l220 -287h137l-234 306q86 20 140.5 75.5t54.5 149.5q0 106 -79 167.5t-206 61.5h-340v-760zM721 745 v271h223q82 0 128 -35t46 -98q0 -66 -51 -102t-129 -36h-217z" />
<glyph unicode="&#xaf;" horiz-adv-x="1024" d="M373 1229h647l37 137h-649z" />
<glyph unicode="&#xb0;" horiz-adv-x="792" d="M180 1090q0 -59 20.5 -109.5t56.5 -87.5t87.5 -57.5t112.5 -20.5q74 0 138 29.5t112.5 79t76 114t27.5 136.5q0 57 -20.5 107t-56.5 87t-87 57.5t-112 20.5q-74 0 -138.5 -30t-112.5 -79t-76 -113.5t-28 -133.5zM297 1098q0 47 18.5 90t49 76.5t71.5 54t88 20.5 q76 0 123 -47t47 -129q0 -47 -18.5 -90t-49 -76.5t-72.5 -54t-87 -20.5q-76 0 -123 47t-47 129z" />
<glyph unicode="&#xb1;" horiz-adv-x="1241" d="M4 238q33 -55 83 -102.5t115.5 -83.5t147.5 -56.5t180 -20.5q119 0 219.5 33t174 90.5t115.5 136t42 168.5q0 63 -21.5 113.5t-57 89.5t-84 66.5t-99.5 44.5q186 35 294 130t108 249q0 82 -35 149.5t-96.5 113.5t-144.5 71.5t-179 25.5q-80 0 -147.5 -14.5t-126 -39 t-108.5 -58t-93 -72.5l94 -107q80 66 167 105t204 39q63 0 116.5 -16.5t93.5 -46t62.5 -73t22.5 -96.5q0 -133 -127 -208.5t-342 -75.5h-105l-37 -140h88q82 0 153 -14t123 -45t80.5 -78t28.5 -113q0 -57 -26.5 -108t-75.5 -89t-117.5 -60.5t-152.5 -22.5q-154 0 -250 56.5 t-158 146.5z" />
<glyph unicode="&#xb4;" horiz-adv-x="1024" d="M489 1219h148l291 221l-164 76z" />
<glyph unicode="&#xb5;" d="M180 596q0 -131 46 -244.5t129 -197.5t199 -132.5t255 -48.5q121 0 230.5 36t203.5 100l133 -168l127 94l-143 162q133 123 209 290.5t76 350.5q0 131 -46.5 243.5t-129.5 196.5t-198.5 132t-254.5 48q-178 0 -331 -72.5t-264.5 -192.5t-176 -275.5t-64.5 -321.5z M350 600q0 133 50.5 261t137.5 227.5t206.5 160t261.5 60.5q106 0 193 -37t148.5 -100.5t94.5 -151.5t33 -189q0 -143 -56.5 -276t-154.5 -233l-209 264l-127 -97l223 -262q-72 -49 -156 -76.5t-176 -27.5q-109 0 -194.5 37t-147 100.5t-94.5 150.5t-33 189z" />
<glyph unicode="&#xb6;" horiz-adv-x="1058" d="M201 901q0 -100 36.5 -172t102.5 -119t154 -71.5t190 -28.5l-135 -510h164l385 1434h-215q-164 0 -290 -38t-214 -107.5t-133 -168t-45 -219.5z" />
<glyph unicode="&#xb7;" horiz-adv-x="522" d="M158 508h188l57 215h-186z" />
<glyph unicode="&#xb8;" horiz-adv-x="1024" d="M129 -248l135 -69l246 337h-125z" />
<glyph unicode="&#xba;" horiz-adv-x="804" d="M119 592h553l24 96h-553zM229 1098q0 -117 75 -193t198 -76q72 0 134 29t109.5 76t74 110.5t26.5 131.5q0 57 -19.5 106t-55.5 85t-86 56.5t-112 20.5q-72 0 -134 -29t-109 -76t-74 -110.5t-27 -130.5zM338 1102q0 47 17.5 92t48 80t72.5 55.5t91 20.5q76 0 123 -49.5 t47 -129.5q0 -47 -18.5 -92t-49 -79.5t-72.5 -55t-89 -20.5q-76 0 -123 49t-47 129z" />
<glyph unicode="&#xbb;" horiz-adv-x="1126" d="M16 164l103 -86l452 442l4 17l-215 436l-129 -64l168 -362zM471 164l100 -86l455 442l4 17l-215 436l-129 -64l168 -362z" />
<glyph unicode="&#xbf;" horiz-adv-x="1099" d="M90 344q0 -76 28.5 -142.5t84 -115.5t134.5 -76.5t177 -27.5q152 0 272.5 58t208.5 146l-92 107q-70 -66 -166 -115t-207 -49q-117 0 -194.5 58.5t-77.5 168.5q0 72 35 130.5t98.5 99.5t152.5 66.5t197 33.5l15 10l55 332h-102l-82 -225q-115 -16 -213.5 -53t-170 -94.5 t-112.5 -135.5t-41 -176zM715 1219h188l58 215h-189z" />
<glyph unicode="&#xc0;" horiz-adv-x="1558" d="M-82 0h178l271 379h782l65 -379h166l-266 1444h-156zM469 524l524 736l129 -736h-653zM858 1782l170 -221h111l-115 297z" />
<glyph unicode="&#xc1;" horiz-adv-x="1558" d="M-82 0h178l271 379h782l65 -379h166l-266 1444h-156zM469 524l524 736l129 -736h-653zM966 1561h148l291 221l-164 76z" />
<glyph unicode="&#xc2;" horiz-adv-x="1558" d="M-82 0h178l271 379h782l65 -379h166l-266 1444h-156zM469 524l524 736l129 -736h-653zM766 1561h139l197 137l110 -137h127l-145 268h-140z" />
<glyph unicode="&#xc3;" horiz-adv-x="1558" d="M-82 0h178l271 379h782l65 -379h166l-266 1444h-156zM469 524l524 736l129 -736h-653zM727 1597l100 -43q35 59 63.5 90t63.5 31q27 0 47.5 -13t54.5 -46q35 -29 66 -48.5t78 -19.5q76 0 132 56.5t107 160.5l-100 45q-35 -59 -62.5 -90.5t-64.5 -31.5q-27 0 -46.5 14 t-53.5 45q-35 31 -66 49.5t-80 18.5q-74 0 -131 -55.5t-108 -162.5z" />
<glyph unicode="&#xc4;" horiz-adv-x="1558" d="M-82 0h178l271 379h782l65 -379h166l-266 1444h-156zM469 524l524 736l129 -736h-653zM799 1561h184l53 194h-184zM1161 1561h182l54 194h-183z" />
<glyph unicode="&#xc5;" horiz-adv-x="1587" d="M-68 0h179l272 379h780l66 -379h168l-256 1382q66 23 110.5 80.5t44.5 130.5q0 78 -56 129.5t-148 51.5q-47 0 -89 -18.5t-74 -49.5t-50.5 -72t-18.5 -88t20.5 -85t61.5 -60zM483 524l525 736l131 -736h-656zM948 1546q0 59 41 103.5t103 44.5q55 0 84.5 -29t29.5 -74 q0 -59 -41 -103t-100 -44q-57 0 -87 29.5t-30 72.5z" />
<glyph unicode="&#xc6;" horiz-adv-x="2181" d="M-82 0h186l324 379h582l-103 -379h1010l39 147h-848l135 502h746l39 148h-746l131 489h838l41 148h-1147zM549 524l651 766h51l-204 -766h-498z" />
<glyph unicode="&#xc7;" horiz-adv-x="1505" d="M174 567q0 -119 36 -217t100.5 -172t151.5 -123t189 -67l-225 -236l133 -69l215 290h10q96 0 177 18.5t150 51.5t127 77t108 93l-109 106q-92 -90 -195.5 -142t-248.5 -52q-98 0 -180.5 30.5t-141.5 89t-93 141.5t-34 187q0 141 53.5 274.5t145.5 236t215 164t262 61.5 q158 0 254 -65.5t162 -178.5l139 86q-72 133 -207 220t-334 87q-178 0 -334.5 -73.5t-273.5 -197.5t-184.5 -285t-67.5 -335z" />
<glyph unicode="&#xc8;" horiz-adv-x="1337" d="M61 0h1037l39 147h-875l135 502h770l41 148h-772l131 489h865l41 148h-1027zM784 1782l170 -221h111l-115 297z" />
<glyph unicode="&#xc9;" horiz-adv-x="1337" d="M61 0h1037l39 147h-875l135 502h770l41 148h-772l131 489h865l41 148h-1027zM829 1561h148l291 221l-164 76z" />
<glyph unicode="&#xca;" horiz-adv-x="1337" d="M61 0h1037l39 147h-875l135 502h770l41 148h-772l131 489h865l41 148h-1027zM686 1561h139l197 137l110 -137h127l-145 268h-140z" />
<glyph unicode="&#xcb;" horiz-adv-x="1337" d="M61 0h1037l39 147h-875l135 502h770l41 148h-772l131 489h865l41 148h-1027zM709 1561h184l53 194h-184zM1071 1561h182l54 194h-183z" />
<glyph unicode="&#xcc;" horiz-adv-x="595" d="M76 0h162l385 1434h-162zM368 1782l170 -221h111l-115 297z" />
<glyph unicode="&#xcd;" horiz-adv-x="595" d="M76 0h162l385 1434h-162zM464 1561h148l291 221l-164 76z" />
<glyph unicode="&#xce;" horiz-adv-x="595" d="M76 0h162l385 1434h-162zM275 1561h139l197 137l110 -137h127l-145 268h-140z" />
<glyph unicode="&#xcf;" horiz-adv-x="595" d="M76 0h162l385 1434h-162zM306 1561h184l53 194h-184zM668 1561h182l54 194h-183z" />
<glyph unicode="&#xd0;" horiz-adv-x="1638" d="M117 0h485q229 0 417.5 71.5t317.5 200.5q111 111 169.5 252.5t58.5 306.5q0 131 -40 232.5t-118 179.5q-92 92 -234.5 141.5t-322.5 49.5h-348l-172 -639h-158l-41 -148h160zM319 150l134 497h426l39 148h-424l131 489h213q145 0 255.5 -37t182.5 -108q57 -57 88 -136 t31 -182q0 -133 -46 -246.5t-132 -199.5q-111 -111 -262.5 -168t-331.5 -57h-304z" />
<glyph unicode="&#xd1;" horiz-adv-x="1609" d="M61 0h158l320 1190l598 -1190h129l385 1434h-158l-313 -1164l-584 1164h-150zM721 1597l100 -43q35 59 63.5 90t63.5 31q27 0 47.5 -13t54.5 -46q35 -29 66 -48.5t78 -19.5q76 0 132 56.5t107 160.5l-100 45q-35 -59 -62.5 -90.5t-64.5 -31.5q-27 0 -46.5 14t-53.5 45 q-35 31 -66 49.5t-80 18.5q-74 0 -131 -55.5t-108 -162.5z" />
<glyph unicode="&#xd2;" d="M180 596q0 -131 46 -244.5t129 -197.5t199 -132.5t255 -48.5q178 0 330.5 73t264.5 192.5t176.5 276.5t64.5 323q0 131 -46.5 243.5t-129.5 196.5t-198.5 132t-254.5 48q-178 0 -331 -72.5t-264.5 -192.5t-176 -275.5t-64.5 -321.5zM350 600q0 133 50.5 261t137.5 227.5 t206.5 160t261.5 60.5q106 0 193 -37t148.5 -100.5t94.5 -151.5t33 -189q0 -133 -50.5 -261t-137.5 -227t-207 -159.5t-261 -60.5q-109 0 -194.5 37t-147 100.5t-94.5 150.5t-33 189zM907 1782l170 -221h111l-115 297z" />
<glyph unicode="&#xd3;" d="M180 596q0 -131 46 -244.5t129 -197.5t199 -132.5t255 -48.5q178 0 330.5 73t264.5 192.5t176.5 276.5t64.5 323q0 131 -46.5 243.5t-129.5 196.5t-198.5 132t-254.5 48q-178 0 -331 -72.5t-264.5 -192.5t-176 -275.5t-64.5 -321.5zM350 600q0 133 50.5 261t137.5 227.5 t206.5 160t261.5 60.5q106 0 193 -37t148.5 -100.5t94.5 -151.5t33 -189q0 -133 -50.5 -261t-137.5 -227t-207 -159.5t-261 -60.5q-109 0 -194.5 37t-147 100.5t-94.5 150.5t-33 189zM929 1561h148l291 221l-164 76z" />
<glyph unicode="&#xd4;" d="M180 596q0 -131 46 -244.5t129 -197.5t199 -132.5t255 -48.5q178 0 330.5 73t264.5 192.5t176.5 276.5t64.5 323q0 131 -46.5 243.5t-129.5 196.5t-198.5 132t-254.5 48q-178 0 -331 -72.5t-264.5 -192.5t-176 -275.5t-64.5 -321.5zM350 600q0 133 50.5 261t137.5 227.5 t206.5 160t261.5 60.5q106 0 193 -37t148.5 -100.5t94.5 -151.5t33 -189q0 -133 -50.5 -261t-137.5 -227t-207 -159.5t-261 -60.5q-109 0 -194.5 37t-147 100.5t-94.5 150.5t-33 189zM805 1561h139l197 137l110 -137h127l-145 268h-140z" />
<glyph unicode="&#xd5;" d="M180 596q0 -131 46 -244.5t129 -197.5t199 -132.5t255 -48.5q178 0 330.5 73t264.5 192.5t176.5 276.5t64.5 323q0 131 -46.5 243.5t-129.5 196.5t-198.5 132t-254.5 48q-178 0 -331 -72.5t-264.5 -192.5t-176 -275.5t-64.5 -321.5zM350 600q0 133 50.5 261t137.5 227.5 t206.5 160t261.5 60.5q106 0 193 -37t148.5 -100.5t94.5 -151.5t33 -189q0 -133 -50.5 -261t-137.5 -227t-207 -159.5t-261 -60.5q-109 0 -194.5 37t-147 100.5t-94.5 150.5t-33 189zM748 1597l100 -43q35 59 63.5 90t63.5 31q27 0 47.5 -13t54.5 -46q35 -29 66 -48.5 t78 -19.5q76 0 132 56.5t107 160.5l-100 45q-35 -59 -62.5 -90.5t-64.5 -31.5q-27 0 -46.5 14t-53.5 45q-35 31 -66 49.5t-80 18.5q-74 0 -131 -55.5t-108 -162.5z" />
<glyph unicode="&#xd6;" d="M180 596q0 -131 46 -244.5t129 -197.5t199 -132.5t255 -48.5q178 0 330.5 73t264.5 192.5t176.5 276.5t64.5 323q0 131 -46.5 243.5t-129.5 196.5t-198.5 132t-254.5 48q-178 0 -331 -72.5t-264.5 -192.5t-176 -275.5t-64.5 -321.5zM350 600q0 133 50.5 261t137.5 227.5 t206.5 160t261.5 60.5q106 0 193 -37t148.5 -100.5t94.5 -151.5t33 -189q0 -133 -50.5 -261t-137.5 -227t-207 -159.5t-261 -60.5q-109 0 -194.5 37t-147 100.5t-94.5 150.5t-33 189zM820 1561h184l53 194h-184zM1182 1561h182l54 194h-183z" />
<glyph unicode="&#xd8;" d="M-39 -10h184l205 174q82 -88 199 -139.5t260 -51.5q178 0 330.5 73t264.5 192.5t176.5 276.5t64.5 323q0 96 -25 183t-72 159l305 264h-184l-196 -170q-84 86 -200 135t-257 49q-178 0 -331 -72.5t-264.5 -192.5t-176 -275.5t-64.5 -321.5q0 -190 94 -338zM346 600 q0 135 50 263t138.5 227.5t209 161t262.5 61.5q111 0 197.5 -37t148.5 -102l-953 -812q-53 106 -53 238zM471 264l950 811q57 -111 58 -244q0 -133 -50.5 -261t-138.5 -228t-209 -161.5t-262 -61.5q-111 0 -200 39t-148 106z" />
<glyph unicode="&#xd9;" horiz-adv-x="1552" d="M188 436q0 -100 34 -184t99.5 -145.5t163 -95.5t226.5 -34q268 0 446 179q152 152 225 424l230 854h-162l-223 -826q-33 -119 -79 -206t-104 -144q-68 -68 -148.5 -99.5t-170.5 -31.5q-96 0 -166 24.5t-117 68.5t-69.5 104.5t-22.5 130.5q0 47 5 88t16 73l217 818h-164 l-205 -775q-31 -111 -31 -223zM841 1782l170 -221h111l-115 297z" />
<glyph unicode="&#xda;" horiz-adv-x="1552" d="M188 436q0 -100 34 -184t99.5 -145.5t163 -95.5t226.5 -34q268 0 446 179q152 152 225 424l230 854h-162l-223 -826q-33 -119 -79 -206t-104 -144q-68 -68 -148.5 -99.5t-170.5 -31.5q-96 0 -166 24.5t-117 68.5t-69.5 104.5t-22.5 130.5q0 47 5 88t16 73l217 818h-164 l-205 -775q-31 -111 -31 -223zM886 1561h148l291 221l-164 76z" />
<glyph unicode="&#xdb;" horiz-adv-x="1552" d="M188 436q0 -100 34 -184t99.5 -145.5t163 -95.5t226.5 -34q268 0 446 179q152 152 225 424l230 854h-162l-223 -826q-33 -119 -79 -206t-104 -144q-68 -68 -148.5 -99.5t-170.5 -31.5q-96 0 -166 24.5t-117 68.5t-69.5 104.5t-22.5 130.5q0 47 5 88t16 73l217 818h-164 l-205 -775q-31 -111 -31 -223zM748 1561h139l197 137l110 -137h127l-145 268h-140z" />
<glyph unicode="&#xdc;" horiz-adv-x="1552" d="M188 436q0 -100 34 -184t99.5 -145.5t163 -95.5t226.5 -34q268 0 446 179q152 152 225 424l230 854h-162l-223 -826q-33 -119 -79 -206t-104 -144q-68 -68 -148.5 -99.5t-170.5 -31.5q-96 0 -166 24.5t-117 68.5t-69.5 104.5t-22.5 130.5q0 47 5 88t16 73l217 818h-164 l-205 -775q-31 -111 -31 -223zM771 1561h184l53 194h-184zM1133 1561h182l54 194h-183z" />
<glyph unicode="&#xdd;" horiz-adv-x="1357" d="M244 1434l354 -856l-156 -578h164l148 551l839 883h-207l-675 -723l-287 723h-180zM788 1561h148l291 221l-164 76z" />
<glyph unicode="&#xde;" horiz-adv-x="1380" d="M61 0h162l72 262h340q158 0 288 35t222 102.5t143 165t51 221.5q0 168 -100 269q-70 70 -172 101.5t-240 31.5h-284l63 246h-160zM334 408l168 630h321q193 0 283 -90q68 -66 68 -172q0 -176 -138.5 -272t-392.5 -96h-309z" />
<glyph unicode="&#xdf;" horiz-adv-x="1275" d="M35 0h158l268 999q47 174 140 272.5t226 98.5q117 0 184.5 -60.5t67.5 -156.5q0 -123 -96 -211t-313 -139l-33 -123q334 -53 334 -256q0 -59 -26.5 -112.5t-85 -94.5t-150 -65.5t-220.5 -24.5l-34 -131q164 -2 289.5 29.5t211.5 89t130 136.5t44 171q0 66 -23.5 118 t-63 91t-93 66.5t-114.5 45.5q84 25 156.5 61t127 87t86 118.5t31.5 153.5q0 74 -28.5 137.5t-82 109.5t-127 72.5t-161.5 26.5q-102 0 -190.5 -36.5t-158.5 -106.5q-61 -61 -105 -147t-73 -193z" />
<glyph unicode="&#xe0;" horiz-adv-x="1179" d="M39 270q0 -72 27.5 -126t73.5 -91t106.5 -56.5t128.5 -19.5q127 0 224 51.5t171 137.5l-45 -166h154l159 600q10 37 16.5 74t6.5 71q0 154 -107.5 241t-308.5 87q-104 0 -188 -17.5t-162 -45.5l27 -131q72 25 142.5 40t156.5 15q145 0 215.5 -55.5t70.5 -159.5 q0 -23 -4 -49.5t-10 -48.5l-6 -25q-78 23 -174.5 40t-202.5 17q-102 0 -188 -26.5t-149.5 -75.5t-98.5 -121t-35 -160zM199 289q0 55 23.5 100t64.5 78t99 51.5t130 18.5q98 0 186.5 -13.5t157.5 -34.5l-20 -73q-18 -70 -61.5 -128.5t-99.5 -99.5t-121.5 -64.5t-133.5 -23.5 q-104 0 -164.5 51.5t-60.5 137.5zM559 1440l170 -221h111l-115 297z" />
<glyph unicode="&#xe1;" horiz-adv-x="1179" d="M39 270q0 -72 27.5 -126t73.5 -91t106.5 -56.5t128.5 -19.5q127 0 224 51.5t171 137.5l-45 -166h154l159 600q10 37 16.5 74t6.5 71q0 154 -107.5 241t-308.5 87q-104 0 -188 -17.5t-162 -45.5l27 -131q72 25 142.5 40t156.5 15q145 0 215.5 -55.5t70.5 -159.5 q0 -23 -4 -49.5t-10 -48.5l-6 -25q-78 23 -174.5 40t-202.5 17q-102 0 -188 -26.5t-149.5 -75.5t-98.5 -121t-35 -160zM199 289q0 55 23.5 100t64.5 78t99 51.5t130 18.5q98 0 186.5 -13.5t157.5 -34.5l-20 -73q-18 -70 -61.5 -128.5t-99.5 -99.5t-121.5 -64.5t-133.5 -23.5 q-104 0 -164.5 51.5t-60.5 137.5zM606 1219h148l291 221l-164 76z" />
<glyph unicode="&#xe2;" horiz-adv-x="1179" d="M39 270q0 -72 27.5 -126t73.5 -91t106.5 -56.5t128.5 -19.5q127 0 224 51.5t171 137.5l-45 -166h154l159 600q10 37 16.5 74t6.5 71q0 154 -107.5 241t-308.5 87q-104 0 -188 -17.5t-162 -45.5l27 -131q72 25 142.5 40t156.5 15q145 0 215.5 -55.5t70.5 -159.5 q0 -23 -4 -49.5t-10 -48.5l-6 -25q-78 23 -174.5 40t-202.5 17q-102 0 -188 -26.5t-149.5 -75.5t-98.5 -121t-35 -160zM199 289q0 55 23.5 100t64.5 78t99 51.5t130 18.5q98 0 186.5 -13.5t157.5 -34.5l-20 -73q-18 -70 -61.5 -128.5t-99.5 -99.5t-121.5 -64.5t-133.5 -23.5 q-104 0 -164.5 51.5t-60.5 137.5zM467 1219h139l197 137l110 -137h127l-145 268h-140z" />
<glyph unicode="&#xe3;" horiz-adv-x="1179" d="M39 270q0 -72 27.5 -126t73.5 -91t106.5 -56.5t128.5 -19.5q127 0 224 51.5t171 137.5l-45 -166h154l159 600q10 37 16.5 74t6.5 71q0 154 -107.5 241t-308.5 87q-104 0 -188 -17.5t-162 -45.5l27 -131q72 25 142.5 40t156.5 15q145 0 215.5 -55.5t70.5 -159.5 q0 -23 -4 -49.5t-10 -48.5l-6 -25q-78 23 -174.5 40t-202.5 17q-102 0 -188 -26.5t-149.5 -75.5t-98.5 -121t-35 -160zM199 289q0 55 23.5 100t64.5 78t99 51.5t130 18.5q98 0 186.5 -13.5t157.5 -34.5l-20 -73q-18 -70 -61.5 -128.5t-99.5 -99.5t-121.5 -64.5t-133.5 -23.5 q-104 0 -164.5 51.5t-60.5 137.5zM420 1255l100 -43q35 59 63.5 90t63.5 31q27 0 47.5 -13t54.5 -46q35 -29 66 -48.5t78 -19.5q76 0 132 56.5t107 160.5l-100 45q-35 -59 -62.5 -90.5t-64.5 -31.5q-27 0 -46.5 14t-53.5 45q-35 31 -66 49.5t-80 18.5q-74 0 -131 -55.5 t-108 -162.5z" />
<glyph unicode="&#xe4;" horiz-adv-x="1179" d="M39 270q0 -72 27.5 -126t73.5 -91t106.5 -56.5t128.5 -19.5q127 0 224 51.5t171 137.5l-45 -166h154l159 600q10 37 16.5 74t6.5 71q0 154 -107.5 241t-308.5 87q-104 0 -188 -17.5t-162 -45.5l27 -131q72 25 142.5 40t156.5 15q145 0 215.5 -55.5t70.5 -159.5 q0 -23 -4 -49.5t-10 -48.5l-6 -25q-78 23 -174.5 40t-202.5 17q-102 0 -188 -26.5t-149.5 -75.5t-98.5 -121t-35 -160zM199 289q0 55 23.5 100t64.5 78t99 51.5t130 18.5q98 0 186.5 -13.5t157.5 -34.5l-20 -73q-18 -70 -61.5 -128.5t-99.5 -99.5t-121.5 -64.5t-133.5 -23.5 q-104 0 -164.5 51.5t-60.5 137.5zM480 1219h184l53 194h-184zM842 1219h182l54 194h-183z" />
<glyph unicode="&#xe5;" horiz-adv-x="1179" d="M39 270q0 -72 27.5 -126t73.5 -91t106.5 -56.5t128.5 -19.5q127 0 224 51.5t171 137.5l-45 -166h154l159 600q10 37 16.5 74t6.5 71q0 154 -107.5 241t-308.5 87q-104 0 -188 -17.5t-162 -45.5l27 -131q72 25 142.5 40t156.5 15q145 0 215.5 -55.5t70.5 -159.5 q0 -23 -4 -49.5t-10 -48.5l-6 -25q-78 23 -174.5 40t-202.5 17q-102 0 -188 -26.5t-149.5 -75.5t-98.5 -121t-35 -160zM199 289q0 55 23.5 100t64.5 78t99 51.5t130 18.5q98 0 186.5 -13.5t157.5 -34.5l-20 -73q-18 -70 -61.5 -128.5t-99.5 -99.5t-121.5 -64.5t-133.5 -23.5 q-104 0 -164.5 51.5t-60.5 137.5zM585 1397q0 -78 55.5 -129t147.5 -51q47 0 90 18t75 49t50.5 72t18.5 88q0 78 -56.5 129t-148.5 51q-47 0 -89 -18.5t-74 -49t-50.5 -71.5t-18.5 -88zM673 1399q0 59 41 103t103 44q55 0 85 -28.5t30 -73.5q0 -59 -40.5 -103.5 t-101.5 -44.5q-57 0 -87 29t-30 74z" />
<glyph unicode="&#xe6;" horiz-adv-x="1961" d="M39 276q0 -72 26.5 -128t73.5 -94t113.5 -57.5t144.5 -19.5q147 0 278.5 66.5t235.5 175.5q51 -115 158 -179.5t260 -64.5q131 0 233.5 46.5t180.5 111.5l-82 105q-74 -59 -148.5 -92t-179.5 -33q-147 0 -233 87t-86 232v21q0 12 2 22h831q35 94 35 201q0 82 -26.5 155.5 t-78 129t-127 88t-175.5 32.5q-135 0 -248 -63.5t-193 -163.5q-35 104 -133 161.5t-256 57.5q-104 0 -188 -17.5t-162 -45.5l27 -131q72 25 142.5 40t156.5 15q145 0 215.5 -55.5t70.5 -159.5q0 -23 -4 -49.5t-10 -48.5l-6 -25q-74 23 -170 40t-201 17q-102 0 -189 -25.5 t-151.5 -74.5t-100.5 -118.5t-36 -158.5zM199 295q0 53 23.5 97t66.5 77t102.5 50.5t130.5 17.5q92 0 185 -13.5t167 -36.5q-6 -31 -6 -51q0 -29 3 -55.5t8 -54.5q-98 -104 -212 -165t-231 -61q-115 0 -176 53.5t-61 141.5zM1038 594q20 74 60.5 138.5t95.5 112.5 t123.5 75.5t146.5 27.5q68 0 118 -22.5t83 -59.5t48.5 -86t15.5 -104q0 -29 -2.5 -48.5t-6.5 -33.5h-682z" />
<glyph unicode="&#xe7;" horiz-adv-x="1144" d="M98 438q0 -90 28 -164.5t75 -132t109 -95.5t134 -56l-227 -238l135 -69l213 292h4q133 0 231.5 49.5t180.5 127.5l-92 102q-70 -63 -144.5 -101t-169.5 -38q-61 0 -118.5 21.5t-101.5 63.5t-69.5 103.5t-25.5 138.5q0 98 37 189.5t98.5 160t143.5 109.5t172 41 q59 0 106 -15.5t83 -41t64.5 -59t51.5 -72.5l127 80q-25 49 -63 94t-90 78.5t-119.5 54t-149.5 20.5q-127 0 -239.5 -52t-197.5 -140t-135.5 -205t-50.5 -246z" />
<glyph unicode="&#xe8;" horiz-adv-x="1206" d="M98 426q0 -100 34 -183t95.5 -142.5t148.5 -92.5t191 -33q139 0 238.5 46.5t177.5 111.5l-82 105q-72 -59 -147.5 -92t-178.5 -33q-147 0 -233 87t-86 232v21q0 12 2 22h829q16 47 26.5 97.5t10.5 103.5q0 82 -26.5 155.5t-77.5 129t-128 88t-177 32.5q-133 0 -246 -57 t-196 -149.5t-129 -210t-46 -238.5zM281 594q20 74 60 138.5t95.5 112.5t124 75.5t146.5 27.5q68 0 117.5 -22.5t82.5 -59.5t48.5 -86t15.5 -104q0 -51 -10 -82h-680zM567 1440l170 -221h111l-115 297z" />
<glyph unicode="&#xe9;" horiz-adv-x="1206" d="M98 426q0 -100 34 -183t95.5 -142.5t148.5 -92.5t191 -33q139 0 238.5 46.5t177.5 111.5l-82 105q-72 -59 -147.5 -92t-178.5 -33q-147 0 -233 87t-86 232v21q0 12 2 22h829q16 47 26.5 97.5t10.5 103.5q0 82 -26.5 155.5t-77.5 129t-128 88t-177 32.5q-133 0 -246 -57 t-196 -149.5t-129 -210t-46 -238.5zM281 594q20 74 60 138.5t95.5 112.5t124 75.5t146.5 27.5q68 0 117.5 -22.5t82.5 -59.5t48.5 -86t15.5 -104q0 -51 -10 -82h-680zM620 1219h148l291 221l-164 76z" />
<glyph unicode="&#xea;" horiz-adv-x="1206" d="M98 426q0 -100 34 -183t95.5 -142.5t148.5 -92.5t191 -33q139 0 238.5 46.5t177.5 111.5l-82 105q-72 -59 -147.5 -92t-178.5 -33q-147 0 -233 87t-86 232v21q0 12 2 22h829q16 47 26.5 97.5t10.5 103.5q0 82 -26.5 155.5t-77.5 129t-128 88t-177 32.5q-133 0 -246 -57 t-196 -149.5t-129 -210t-46 -238.5zM281 594q20 74 60 138.5t95.5 112.5t124 75.5t146.5 27.5q68 0 117.5 -22.5t82.5 -59.5t48.5 -86t15.5 -104q0 -51 -10 -82h-680zM467 1219h139l197 137l110 -137h127l-145 268h-140z" />
<glyph unicode="&#xeb;" horiz-adv-x="1206" d="M98 426q0 -100 34 -183t95.5 -142.5t148.5 -92.5t191 -33q139 0 238.5 46.5t177.5 111.5l-82 105q-72 -59 -147.5 -92t-178.5 -33q-147 0 -233 87t-86 232v21q0 12 2 22h829q16 47 26.5 97.5t10.5 103.5q0 82 -26.5 155.5t-77.5 129t-128 88t-177 32.5q-133 0 -246 -57 t-196 -149.5t-129 -210t-46 -238.5zM281 594q20 74 60 138.5t95.5 112.5t124 75.5t146.5 27.5q68 0 117.5 -22.5t82.5 -59.5t48.5 -86t15.5 -104q0 -51 -10 -82h-680zM490 1219h184l53 194h-184zM852 1219h182l54 194h-183z" />
<glyph unicode="&#xec;" horiz-adv-x="538" d="M49 0h158l285 1059h-158zM215 1440l170 -221h111l-115 297z" />
<glyph unicode="&#xed;" horiz-adv-x="538" d="M49 0h158l285 1059h-158zM354 1219h148l291 221l-164 76z" />
<glyph unicode="&#xee;" horiz-adv-x="538" d="M49 0h158l285 1059h-158zM154 1219h139l197 137l110 -137h127l-145 268h-140z" />
<glyph unicode="&#xef;" horiz-adv-x="538" d="M49 0h158l285 1059h-158zM177 1219h184l53 194h-184zM539 1219h182l54 194h-183z" />
<glyph unicode="&#xf0;" horiz-adv-x="1273" d="M92 426q0 -96 35 -179t97.5 -142.5t149.5 -93.5t189 -34q137 0 250 51.5t193.5 136.5t125 195.5t44.5 231.5q0 94 -23 185t-72 212l-131 322l240 100l-51 102l-232 -98l-33 80h-172l62 -137l-313 -131l53 -103l305 129l160 -370q-53 47 -128 78.5t-186 31.5t-213 -44 t-180 -120.5t-124 -180t-46 -222.5zM250 434q0 88 33.5 167t90 138.5t133.5 94t163 34.5q80 0 143.5 -24.5t107.5 -67.5t67.5 -100.5t23.5 -122.5q0 -88 -34 -167t-93.5 -139.5t-139.5 -95t-170 -34.5q-72 0 -131 21.5t-102 63.5t-67.5 100t-24.5 132z" />
<glyph unicode="&#xf1;" horiz-adv-x="1255" d="M35 0h158l159 598q20 76 59.5 138.5t90.5 107.5t111.5 70.5t121.5 25.5q111 0 174.5 -58.5t63.5 -162.5q0 -27 -4 -59.5t-13 -59.5l-159 -600h157l156 590q10 41 18.5 84t8.5 80q0 152 -92.5 239.5t-245.5 87.5q-121 0 -209 -56t-160 -138l45 172h-158zM459 1255l100 -43 q35 59 63.5 90t63.5 31q27 0 47.5 -13t54.5 -46q35 -29 66 -48.5t78 -19.5q76 0 132 56.5t107 160.5l-100 45q-35 -59 -62.5 -90.5t-64.5 -31.5q-27 0 -46.5 14t-53.5 45q-35 31 -66 49.5t-80 18.5q-74 0 -131 -55.5t-108 -162.5z" />
<glyph unicode="&#xf2;" horiz-adv-x="1306" d="M100 451q0 -102 34 -189.5t97.5 -151t152.5 -99.5t198 -36q125 0 237.5 51.5t198.5 138.5t137 201.5t51 241.5q0 102 -34.5 189.5t-98 150t-153 98t-197.5 35.5q-127 0 -239.5 -52t-197.5 -139t-135.5 -202t-50.5 -237zM260 455q0 92 37 180t98.5 155.5t143.5 109.5 t174 42q147 0 239 -89t92 -251q0 -94 -36.5 -182t-100 -155.5t-145.5 -107.5t-170 -40q-147 0 -239.5 88t-92.5 250zM587 1440l170 -221h111l-115 297z" />
<glyph unicode="&#xf3;" horiz-adv-x="1306" d="M100 451q0 -102 34 -189.5t97.5 -151t152.5 -99.5t198 -36q125 0 237.5 51.5t198.5 138.5t137 201.5t51 241.5q0 102 -34.5 189.5t-98 150t-153 98t-197.5 35.5q-127 0 -239.5 -52t-197.5 -139t-135.5 -202t-50.5 -237zM260 455q0 92 37 180t98.5 155.5t143.5 109.5 t174 42q147 0 239 -89t92 -251q0 -94 -36.5 -182t-100 -155.5t-145.5 -107.5t-170 -40q-147 0 -239.5 88t-92.5 250zM639 1219h148l291 221l-164 76z" />
<glyph unicode="&#xf4;" horiz-adv-x="1306" d="M100 451q0 -102 34 -189.5t97.5 -151t152.5 -99.5t198 -36q125 0 237.5 51.5t198.5 138.5t137 201.5t51 241.5q0 102 -34.5 189.5t-98 150t-153 98t-197.5 35.5q-127 0 -239.5 -52t-197.5 -139t-135.5 -202t-50.5 -237zM260 455q0 92 37 180t98.5 155.5t143.5 109.5 t174 42q147 0 239 -89t92 -251q0 -94 -36.5 -182t-100 -155.5t-145.5 -107.5t-170 -40q-147 0 -239.5 88t-92.5 250zM521 1219h139l197 137l110 -137h127l-145 268h-140z" />
<glyph unicode="&#xf5;" horiz-adv-x="1306" d="M100 451q0 -102 34 -189.5t97.5 -151t152.5 -99.5t198 -36q125 0 237.5 51.5t198.5 138.5t137 201.5t51 241.5q0 102 -34.5 189.5t-98 150t-153 98t-197.5 35.5q-127 0 -239.5 -52t-197.5 -139t-135.5 -202t-50.5 -237zM260 455q0 92 37 180t98.5 155.5t143.5 109.5 t174 42q147 0 239 -89t92 -251q0 -94 -36.5 -182t-100 -155.5t-145.5 -107.5t-170 -40q-147 0 -239.5 88t-92.5 250zM461 1255l100 -43q35 59 63.5 90t63.5 31q27 0 47.5 -13t54.5 -46q35 -29 66 -48.5t78 -19.5q76 0 132 56.5t107 160.5l-100 45q-35 -59 -62.5 -90.5 t-64.5 -31.5q-27 0 -46.5 14t-53.5 45q-35 31 -66 49.5t-80 18.5q-74 0 -131 -55.5t-108 -162.5z" />
<glyph unicode="&#xf6;" horiz-adv-x="1306" d="M100 451q0 -102 34 -189.5t97.5 -151t152.5 -99.5t198 -36q125 0 237.5 51.5t198.5 138.5t137 201.5t51 241.5q0 102 -34.5 189.5t-98 150t-153 98t-197.5 35.5q-127 0 -239.5 -52t-197.5 -139t-135.5 -202t-50.5 -237zM260 455q0 92 37 180t98.5 155.5t143.5 109.5 t174 42q147 0 239 -89t92 -251q0 -94 -36.5 -182t-100 -155.5t-145.5 -107.5t-170 -40q-147 0 -239.5 88t-92.5 250zM517 1219h184l53 194h-184zM879 1219h182l54 194h-183z" />
<glyph unicode="&#xf8;" horiz-adv-x="1306" d="M-82 -10h174l144 119q63 -61 149 -97.5t197 -36.5q125 0 237.5 51.5t198.5 138.5t137 201.5t51 241.5q0 145 -67 256l247 207h-174l-145 -119q-61 61 -148.5 95t-195.5 34q-127 0 -239.5 -52t-197.5 -139t-135.5 -202t-50.5 -237q0 -143 64 -254zM258 455q0 92 37 180 t99.5 156.5t145.5 110.5t175 42q152 0 239 -88l-665 -557q-14 35 -22.5 73t-8.5 83zM348 203l668 561q31 -72 31 -162q0 -96 -38 -184t-100.5 -155.5t-145.5 -108.5t-173 -41q-152 0 -242 90z" />
<glyph unicode="&#xf9;" horiz-adv-x="1255" d="M119 305q0 -152 91 -240t245 -88q121 0 210 56.5t160 138.5l-47 -172h158l283 1059h-158l-160 -596q-20 -76 -59 -139.5t-90.5 -108.5t-111.5 -70.5t-122 -25.5q-111 0 -173 58.5t-62 162.5q0 27 3 59.5t11 59.5l162 600h-158l-156 -590q-10 -41 -18 -84t-8 -80z M585 1440l170 -221h111l-115 297z" />
<glyph unicode="&#xfa;" horiz-adv-x="1255" d="M119 305q0 -152 91 -240t245 -88q121 0 210 56.5t160 138.5l-47 -172h158l283 1059h-158l-160 -596q-20 -76 -59 -139.5t-90.5 -108.5t-111.5 -70.5t-122 -25.5q-111 0 -173 58.5t-62 162.5q0 27 3 59.5t11 59.5l162 600h-158l-156 -590q-10 -41 -18 -84t-8 -80z M657 1219h148l291 221l-164 76z" />
<glyph unicode="&#xfb;" horiz-adv-x="1255" d="M119 305q0 -152 91 -240t245 -88q121 0 210 56.5t160 138.5l-47 -172h158l283 1059h-158l-160 -596q-20 -76 -59 -139.5t-90.5 -108.5t-111.5 -70.5t-122 -25.5q-111 0 -173 58.5t-62 162.5q0 27 3 59.5t11 59.5l162 600h-158l-156 -590q-10 -41 -18 -84t-8 -80z M502 1219h139l197 137l110 -137h127l-145 268h-140z" />
<glyph unicode="&#xfc;" horiz-adv-x="1255" d="M119 305q0 -152 91 -240t245 -88q121 0 210 56.5t160 138.5l-47 -172h158l283 1059h-158l-160 -596q-20 -76 -59 -139.5t-90.5 -108.5t-111.5 -70.5t-122 -25.5q-111 0 -173 58.5t-62 162.5q0 27 3 59.5t11 59.5l162 600h-158l-156 -590q-10 -41 -18 -84t-8 -80z M521 1219h184l53 194h-184zM883 1219h182l54 194h-183z" />
<glyph unicode="&#xfd;" horiz-adv-x="1175" d="M-154 -260q51 -35 107.5 -54.5t124.5 -19.5q119 0 221 66.5t213 232.5l725 1094h-178l-570 -883l-147 883h-164l193 -1057q-80 -113 -144.5 -155t-132.5 -42q-39 0 -86 15.5t-76 38.5zM604 1219h148l291 221l-164 76z" />
<glyph unicode="&#xfe;" horiz-adv-x="1349" d="M-53 -328h157l152 566q23 -53 56.5 -100.5t82.5 -83.5t112.5 -57.5t145.5 -21.5q117 0 223.5 50.5t189.5 138.5t132 208t49 261q0 100 -31.5 183t-88 142.5t-133 91t-167.5 31.5q-129 0 -226 -59t-175 -145l168 618h-158zM311 444q0 96 41 186.5t106.5 159t150.5 110.5 t173 42q68 0 122 -22.5t94 -65.5t61.5 -102.5t21.5 -133.5q0 -102 -33.5 -193t-93 -159.5t-140.5 -109.5t-175 -41q-74 0 -134.5 25.5t-103.5 69.5t-66.5 104.5t-23.5 129.5z" />
<glyph unicode="&#xff;" horiz-adv-x="1175" d="M-154 -260q51 -35 107.5 -54.5t124.5 -19.5q119 0 221 66.5t213 232.5l725 1094h-178l-570 -883l-147 883h-164l193 -1057q-80 -113 -144.5 -155t-132.5 -42q-39 0 -86 15.5t-76 38.5zM467 1219h184l53 194h-184zM829 1219h182l54 194h-183z" />
<glyph unicode="&#x152;" horiz-adv-x="2318" d="M174 602q0 -131 41 -233.5t115 -175.5q96 -96 238.5 -144.5t322.5 -48.5h1161l41 147h-848l135 502h744l39 148h-744l131 489h838l39 148h-1290q-229 0 -418 -72t-318 -201q-111 -111 -169 -252t-58 -307zM344 612q0 133 46 247t132 200q111 111 262.5 168t331.5 57h273 l-306 -1134h-182q-145 0 -255.5 36.5t-182.5 108.5q-57 57 -88 136t-31 181z" />
<glyph unicode="&#x153;" horiz-adv-x="2131" d="M100 451q0 -102 35 -189.5t97.5 -151t150.5 -99.5t195 -36q84 0 157.5 22.5t136 61.5t112.5 91.5t89 111.5q39 -131 151.5 -209t274.5 -78q131 0 233.5 46.5t180.5 111.5l-84 105q-72 -59 -147.5 -92t-178.5 -33q-147 0 -233 87t-86 232v21q0 12 2 22h829q37 92 37 201 q0 82 -26.5 155.5t-78 129t-128 88t-177.5 32.5q-88 0 -161.5 -24.5t-135 -65.5t-109.5 -95t-85 -116q-18 63 -55 117.5t-90.5 95.5t-125 64.5t-157.5 23.5q-127 0 -240.5 -52t-198.5 -139t-134.5 -202t-49.5 -237zM260 457q0 92 36 180t98.5 155.5t144.5 108.5t174 41 q147 0 239 -91t92 -257q0 -94 -36.5 -180t-100 -152.5t-145.5 -105.5t-170 -39q-147 0 -239.5 90t-92.5 250zM1208 594q20 74 60.5 138.5t95.5 112.5t123.5 75.5t146.5 27.5q68 0 118 -22.5t83 -59.5t48 -86t15 -104q0 -29 -2 -48.5t-6 -33.5h-682z" />
<glyph unicode="&#x178;" horiz-adv-x="1357" d="M244 1434l354 -856l-156 -578h164l148 551l839 883h-207l-675 -723l-287 723h-180zM656 1561h184l53 194h-184zM1018 1561h182l54 194h-183z" />
<glyph unicode="&#x2c6;" horiz-adv-x="1024" d="M412 1219h139l197 137l110 -137h127l-145 268h-140z" />
<glyph unicode="&#x2dc;" horiz-adv-x="1024" d="M369 1255l100 -43q35 59 63.5 90t63.5 31q27 0 47.5 -13t54.5 -46q35 -29 66 -48.5t78 -19.5q76 0 132 56.5t107 160.5l-100 45q-35 -59 -62.5 -90.5t-64.5 -31.5q-27 0 -46.5 14t-53.5 45q-35 31 -66 49.5t-80 18.5q-74 0 -131 -55.5t-108 -162.5z" />
<glyph unicode="&#x2000;" horiz-adv-x="929" />
<glyph unicode="&#x2001;" horiz-adv-x="1858" />
<glyph unicode="&#x2002;" horiz-adv-x="929" />
<glyph unicode="&#x2003;" horiz-adv-x="1858" />
<glyph unicode="&#x2004;" horiz-adv-x="619" />
<glyph unicode="&#x2005;" horiz-adv-x="464" />
<glyph unicode="&#x2006;" horiz-adv-x="309" />
<glyph unicode="&#x2007;" horiz-adv-x="309" />
<glyph unicode="&#x2008;" horiz-adv-x="232" />
<glyph unicode="&#x2009;" horiz-adv-x="371" />
<glyph unicode="&#x200a;" horiz-adv-x="103" />
<glyph unicode="&#x2010;" horiz-adv-x="839" d="M135 532h572l43 166h-572z" />
<glyph unicode="&#x2011;" horiz-adv-x="839" d="M135 532h572l43 166h-572z" />
<glyph unicode="&#x2012;" horiz-adv-x="839" d="M135 532h572l43 166h-572z" />
<glyph unicode="&#x2013;" horiz-adv-x="1083" d="M135 537h817l41 157h-817z" />
<glyph unicode="&#x2014;" horiz-adv-x="1841" d="M135 537h1575l41 157h-1575z" />
<glyph unicode="&#x2018;" horiz-adv-x="522" d="M270 979h189l59 215h-76q12 68 57.5 112t135.5 66l-17 72q-123 -23 -191.5 -85.5t-104.5 -193.5z" />
<glyph unicode="&#x2019;" horiz-adv-x="522" d="M238 1040l16 -69q125 20 192.5 82.5t104.5 195.5l51 185h-188l-60 -215h76q-12 -66 -57 -111t-135 -68z" />
<glyph unicode="&#x201a;" horiz-adv-x="522" d="M-92 -178l16 -70q123 23 192.5 84.5t104.5 194.5l49 184h-186l-59 -215h75q-12 -66 -57 -111t-135 -67z" />
<glyph unicode="&#x201c;" horiz-adv-x="931" d="M270 979h189l57 215h-74q12 66 56.5 111t134.5 67l-15 70q-61 -10 -109 -30.5t-84 -53.5t-61.5 -80t-44.5 -115zM680 979h188l58 215h-74q12 66 56 111t134 67l-16 70q-61 -10 -108.5 -30.5t-83 -53.5t-61 -80t-44.5 -115z" />
<glyph unicode="&#x201d;" horiz-adv-x="931" d="M223 1040l15 -69q125 20 194.5 82.5t104.5 195.5l49 185h-189l-57 -215h74q-12 -66 -56.5 -111t-134.5 -68zM633 1040l14 -69q125 20 194.5 82.5t104.5 195.5l49 185h-188l-57 -215h73q-12 -66 -56 -111t-134 -68z" />
<glyph unicode="&#x201e;" horiz-adv-x="931" d="M-92 -178l16 -70q123 23 192.5 84.5t104.5 194.5l49 184h-186l-59 -215h75q-12 -66 -57 -111t-135 -67zM319 -178l17 -70q123 23 192.5 84.5t104.5 194.5l49 184h-188l-58 -215h74q-12 -66 -56 -111t-135 -67z" />
<glyph unicode="&#x2022;" horiz-adv-x="978" d="M262 670q0 -104 61.5 -166t159.5 -62q63 0 119.5 28t97.5 74t66 105.5t25 124.5q0 104 -61.5 164.5t-160.5 60.5q-66 0 -121 -27.5t-97 -72.5t-65.5 -105.5t-23.5 -123.5z" />
<glyph unicode="&#x2026;" horiz-adv-x="1503" d="M25 0h186l57 213h-186zM516 0h186l58 213h-185zM1010 0h186l57 213h-186z" />
<glyph unicode="&#x202f;" horiz-adv-x="371" />
<glyph unicode="&#x2039;" horiz-adv-x="671" d="M92 516l215 -436l129 63l-168 363l385 383l-102 86l-455 -443z" />
<glyph unicode="&#x203a;" horiz-adv-x="671" d="M16 164l103 -86l452 442l4 17l-215 436l-129 -64l168 -362z" />
<glyph unicode="&#x205f;" horiz-adv-x="464" />
<glyph unicode="&#x2122;" horiz-adv-x="1419" d="M258 1348h201l-152 -545h90l154 545h201l24 86h-493zM739 803h90l138 483l133 -342h10l317 342l-137 -483h88l178 631h-104l-315 -347l-133 347h-86z" />
<glyph unicode="&#x25fc;" horiz-adv-x="1054" d="M0 0v1055h1055v-1055h-1055z" />
<glyph unicode="&#xfb01;" horiz-adv-x="1308" d="M94 0h158l248 920h344l39 139h-346l26 102q29 104 83 152.5t130 48.5q47 0 87 -10.5t87 -32.5l37 135q-86 45 -211 45q-137 0 -228 -76.5t-134 -236.5l-35 -127h-146l-36 -139h145zM817 0h158l285 1059h-158zM1153 1290h180l47 174h-178z" />
<glyph unicode="&#xfb02;" horiz-adv-x="1308" d="M94 0h158l248 920h344l39 139h-346l26 102q29 104 83 152.5t130 48.5q47 0 87 -10.5t87 -32.5l37 135q-86 45 -211 45q-137 0 -228 -76.5t-134 -236.5l-35 -127h-146l-36 -139h145zM817 0h158l401 1495h-157z" />
</font>
</defs>
</svg>
