<?xml version="1.0" standalone="no"?>
<!DOCTYPE svg PUBLIC "-//W3C//DTD SVG 1.1//EN" "http://www.w3.org/Graphics/SVG/1.1/DTD/svg11.dtd" >
<svg xmlns="http://www.w3.org/2000/svg" xmlns:xlink="http://www.w3.org/1999/xlink" version="1.1">
<metadata></metadata>
<defs>
<font id="gothamlight_italic" horiz-adv-x="1024" >
<font-face units-per-em="2048" ascent="1638" descent="-410" />
<missing-glyph horiz-adv-x="614" />
<glyph horiz-adv-x="0" />
<glyph unicode="&#xd;" horiz-adv-x="614" />
<glyph unicode=" "  horiz-adv-x="614" />
<glyph unicode="&#x09;" horiz-adv-x="614" />
<glyph unicode="&#xa0;" horiz-adv-x="614" />
<glyph unicode="!" horiz-adv-x="514" d="M49 0h135l47 174h-135zM188 375h58l276 915l39 144h-119l-39 -144z" />
<glyph unicode="&#x22;" horiz-adv-x="839" d="M207 913h59l260 510v11h-129zM575 913h60l260 510v11h-129z" />
<glyph unicode="#" horiz-adv-x="1388" d="M72 383h247l-133 -383h99l133 383h424l-133 -383h98l133 383h281l24 96h-272l170 484h256l24 96h-247l131 375h-99l-131 -375h-424l131 375h-98l-131 -375h-281l-24 -96h272l-170 -484h-256zM453 479l168 484h423l-170 -484h-421z" />
<glyph unicode="$" horiz-adv-x="1265" d="M-2 250q78 -90 192.5 -153.5t255.5 -86.5l-57 -211h100l54 201h39q117 0 213 30.5t164.5 85t106.5 128t38 162.5q0 127 -84 209.5t-270 150.5l149 557q98 -20 176 -62t137 -102l74 74q-66 66 -152.5 113t-199.5 69l37 137h-101l-32 -122q-23 2 -45.5 3t-44.5 1 q-102 0 -188.5 -29t-151 -80t-100.5 -121.5t-36 -152.5q0 -63 20.5 -112.5t64.5 -91.5t114 -79t168 -74l-158 -590q-131 18 -232.5 72.5t-172.5 140.5zM381 1061q0 66 34 121t92 93t136 54.5t168 3.5l-145 -536q-152 57 -218.5 114.5t-66.5 149.5zM569 96l154 570 q154 -59 213 -123t59 -148q0 -70 -31.5 -126t-89 -96t-135.5 -60.5t-170 -16.5z" />
<glyph unicode="%" horiz-adv-x="1681" d="M133 0h123l1397 1434h-123zM190 1001q0 -61 20.5 -114t57.5 -93t89.5 -62.5t113.5 -22.5q82 0 153.5 37.5t124 100t83 143.5t30.5 167q0 61 -20.5 114.5t-57 93.5t-89 62.5t-113.5 22.5q-82 0 -154 -38t-124 -100.5t-83 -143.5t-31 -167zM291 1012q0 63 21.5 125.5 t60.5 112.5t90 81t110 31q92 0 140.5 -58.5t48.5 -156.5q0 -63 -21.5 -126t-60.5 -113t-90.5 -80.5t-110.5 -30.5q-92 0 -140 58t-48 157zM924 279q0 -61 20.5 -114.5t57 -93.5t89 -62.5t113.5 -22.5q82 0 154 37.5t124 100t82.5 143.5t30.5 167q0 61 -20.5 114.5t-57 93.5 t-89 62.5t-113.5 22.5q-82 0 -153.5 -38t-124 -100.5t-83 -143t-30.5 -166.5zM1024 289q0 63 21.5 125.5t60.5 113t90 81t111 30.5q92 0 140 -58.5t48 -156.5q0 -63 -21.5 -125.5t-60.5 -113t-90.5 -81t-110.5 -30.5q-92 0 -140 58t-48 157z" />
<glyph unicode="&#x26;" horiz-adv-x="1413" d="M63 338q0 -86 32 -152.5t87.5 -112.5t130 -69.5t160.5 -23.5q82 0 151.5 15t132 45t122 75t118.5 104l174 -248l80 54l-184 262q66 74 130.5 164t129.5 200l-80 47q-57 -100 -116.5 -186t-120.5 -156l-291 412q133 37 222 81t142.5 94t76 105.5t22.5 112.5 q0 135 -91.5 216t-244.5 81q-76 0 -144.5 -27.5t-120 -75.5t-82 -113.5t-30.5 -143.5q0 -70 26.5 -136.5t69.5 -136.5q-250 -63 -376 -188t-126 -299zM172 350q0 127 106.5 235.5t337.5 164.5l326 -461q-109 -106 -218.5 -160.5t-238.5 -54.5q-143 0 -228 73.5t-85 202.5z M573 1100q0 55 21.5 104t58.5 86t86 57.5t103 20.5q109 0 172 -58.5t63 -152.5q0 -43 -19.5 -86t-66.5 -84t-125.5 -77.5t-197.5 -67.5q-49 76 -72 134t-23 124z" />
<glyph unicode="'" horiz-adv-x="471" d="M207 913h59l260 510v11h-129z" />
<glyph unicode="(" horiz-adv-x="880" d="M203 446q0 -123 28.5 -229t77.5 -197.5t113.5 -167.5t136.5 -139l57 60q-63 66 -118.5 136.5t-97.5 151t-66.5 177t-24.5 211.5q0 131 40 263t128 256t229.5 233.5t342.5 195.5l-35 76q-209 -86 -362.5 -201t-253 -248t-147.5 -280.5t-48 -297.5z" />
<glyph unicode=")" horiz-adv-x="880" d="M-131 -209l35 -76q209 86 362.5 201t252.5 248t147.5 280.5t48.5 296.5q0 123 -30 229.5t-79 198t-113.5 167t-134.5 139.5l-57 -60q63 -66 118.5 -136.5t97.5 -151t66.5 -177t24.5 -211.5q0 -131 -40 -263t-128 -256t-229 -233.5t-342 -195.5z" />
<glyph unicode="*" horiz-adv-x="880" d="M283 1098l24 -84l248 86l-86 -248l84 -21l49 256l172 -198l64 61l-205 172l264 49l-25 84l-247 -86l86 248l-84 21l-49 -256l-172 198l-64 -61l205 -172z" />
<glyph unicode="+" horiz-adv-x="1308" d="M199 672h444l-119 -441h103l118 441h445l27 98h-445l117 440h-103l-116 -440h-445z" />
<glyph unicode="," horiz-adv-x="473" d="M-80 -168l14 -49q51 14 89 33.5t66 47t47.5 66.5t33.5 93l41 151h-135l-47 -174h55q-10 -59 -49 -100t-115 -68z" />
<glyph unicode="-" horiz-adv-x="837" d="M152 551h548l31 115h-549z" />
<glyph unicode="." horiz-adv-x="473" d="M29 0h135l47 174h-135z" />
<glyph unicode="/" d="M-248 -262h111l1466 1896h-110z" />
<glyph unicode="0" horiz-adv-x="1452" d="M168 512q0 -115 30.5 -213t91 -170t150.5 -113t209 -41q160 0 295 82t233.5 216.5t153.5 303t55 345.5q0 115 -30.5 213t-91 169.5t-150.5 112.5t-209 41q-106 0 -201.5 -38t-177.5 -103.5t-148.5 -156.5t-112.5 -195.5t-71.5 -220t-25.5 -232.5zM279 512q0 158 50 310.5 t134 272t196.5 193.5t239.5 74q94 0 165 -35t118 -94t70.5 -139t23.5 -172q0 -158 -50 -310.5t-134 -272.5t-198 -193.5t-239 -73.5q-94 0 -164.5 34.5t-117.5 94t-70.5 139.5t-23.5 172z" />
<glyph unicode="1" horiz-adv-x="684" d="M190 0h107l387 1444h-84l-360 -121l4 -96l301 94z" />
<glyph unicode="2" horiz-adv-x="1204" d="M-39 0h1000l26 102h-827l741 574q137 106 217 207.5t80 228.5q0 76 -30.5 139.5t-85 108.5t-130 69.5t-168.5 24.5q-78 0 -146.5 -18.5t-128.5 -51t-113.5 -74.5t-100.5 -91l76 -66q78 82 179 143.5t230 61.5q147 0 227 -70.5t80 -177.5q0 -100 -63 -183t-188 -182 l-856 -665z" />
<glyph unicode="3" horiz-adv-x="1241" d="M20 256q59 -129 183.5 -205t308.5 -76q113 0 214 35t178 96.5t122 146.5t45 187q0 84 -33.5 147.5t-92 107.5t-135.5 67.5t-163 28.5l629 567l20 76h-921l-29 -101h768l-639 -575l23 -53h59q182 0 291.5 -67t109.5 -206q0 -80 -33.5 -145.5t-92 -113.5t-139.5 -74.5 t-175 -26.5q-154 0 -253 61.5t-156 171.5z" />
<glyph unicode="4" horiz-adv-x="1320" d="M57 430l17 -80h776l-94 -350h104l94 350h234l24 92h-233l268 1002h-98zM203 442l895 832l-224 -832h-671z" />
<glyph unicode="5" horiz-adv-x="1230" d="M33 231q35 -53 80 -99t104 -81t133 -55.5t166 -20.5q131 0 237.5 40t182.5 109t118 159t42 190q0 92 -32 166t-91.5 126t-143.5 79.5t-188 27.5q-31 0 -71 -6t-78.5 -15t-73.5 -21.5t-58 -24.5l177 526h680l28 103h-774l-227 -695l67 -53q86 47 171 68.5t159 21.5 t136.5 -20.5t108.5 -59.5t72.5 -96t26.5 -131q0 -78 -32.5 -150.5t-93 -128t-146.5 -89t-191 -33.5q-141 0 -237.5 59t-163.5 160z" />
<glyph unicode="6" horiz-adv-x="1310" d="M170 502q0 -139 37 -234.5t102 -161.5q59 -59 147.5 -95t192.5 -36q119 0 218.5 40t172 109t113.5 159t41 190q0 82 -30.5 158t-89 133t-144.5 92t-195 35q-78 0 -145.5 -19.5t-123.5 -53.5t-100 -77t-77 -92q6 76 27.5 153t54 147.5t75.5 133t93 111.5q168 168 370 168 q117 0 200 -45t146 -117l78 68q-72 86 -173 138t-245 52q-254 0 -458 -205q-61 -61 -113.5 -142t-91.5 -176t-60.5 -204.5t-21.5 -228.5zM291 412q0 72 31.5 140.5t89 121.5t138.5 86t179 33q92 0 158.5 -29t109.5 -75t64.5 -102.5t21.5 -113.5q0 -80 -31.5 -153.5t-89 -129 t-135.5 -88t-172 -32.5q-78 0 -147.5 23.5t-122.5 76.5q-45 45 -69.5 104.5t-24.5 137.5z" />
<glyph unicode="7" horiz-adv-x="1183" d="M164 0h123l973 1356l22 78h-950l-29 -103h825z" />
<glyph unicode="8" horiz-adv-x="1312" d="M82 354q0 -78 37 -145.5t105.5 -118.5t164.5 -80.5t215 -29.5t222.5 30.5t179 85t118.5 130t43 165.5q0 61 -21.5 113.5t-57 93.5t-80.5 70.5t-93 46.5q76 14 142.5 46t118 79t81 109.5t29.5 137.5q0 80 -36 148t-98 117t-149.5 75.5t-191.5 26.5q-106 0 -199.5 -29.5 t-162 -82t-108.5 -123t-40 -154.5q0 -117 64.5 -194.5t154.5 -110.5q-92 -14 -172 -47t-139 -83t-93 -120t-34 -156zM193 367q0 63 30.5 122.5t89 103.5t142.5 70.5t188 26.5q96 0 173 -24.5t130 -64.5t82 -94t29 -112q0 -70 -32 -128t-90 -101t-141.5 -66.5t-183.5 -23.5 q-96 0 -173 21.5t-131 60.5t-83.5 92t-29.5 117zM412 1057q0 63 28.5 118.5t80.5 95.5t126 63.5t164 23.5q80 0 147.5 -20.5t115.5 -57.5t75 -87t27 -112q0 -55 -26 -109t-77 -97.5t-128 -70t-177 -26.5q-80 0 -145.5 21.5t-112.5 58.5t-72.5 88t-25.5 111z" />
<glyph unicode="9" horiz-adv-x="1310" d="M68 176q76 -92 184.5 -147.5t245.5 -55.5q129 0 241.5 51.5t214.5 153.5q61 61 113.5 142t91.5 176.5t60.5 205t21.5 228.5q0 139 -37 234.5t-102 160.5q-59 59 -146.5 95t-191.5 36q-119 0 -219.5 -41t-173 -110.5t-114.5 -161.5t-42 -193q0 -84 29.5 -160.5t88 -136 t144.5 -94.5t195 -35q86 0 155.5 22.5t125 58.5t97.5 81t72 90q-12 -154 -81.5 -297t-168.5 -241q-168 -168 -368 -168q-117 0 -202 47t-157 127zM326 950q0 82 32.5 157t89 131t135.5 90t173 34q78 0 147.5 -24.5t122.5 -77.5q94 -94 94 -236q0 -76 -31.5 -148.5t-90 -129 t-138.5 -90t-174 -33.5q-96 0 -163.5 28.5t-111.5 75.5t-64.5 105.5t-20.5 117.5z" />
<glyph unicode=":" horiz-adv-x="493" d="M39 0h135l47 174h-135zM272 870h136l47 174h-136z" />
<glyph unicode=";" horiz-adv-x="493" d="M-70 -168l15 -49q51 14 89 33.5t65.5 47t47 66.5t33.5 93l41 151h-135l-47 -174h55q-10 -59 -49 -100t-115 -68zM272 870h136l47 174h-136z" />
<glyph unicode="&#x3c;" horiz-adv-x="1310" d="M160 680l819 -494l29 101l-711 426l938 422l31 120l-1084 -493z" />
<glyph unicode="=" horiz-adv-x="1310" d="M166 438h930l28 105h-929zM291 899h930l26 105h-930z" />
<glyph unicode="&#x3e;" horiz-adv-x="1310" d="M104 186l1084 494l22 82l-819 493l-29 -100l711 -426l-938 -422z" />
<glyph unicode="?" horiz-adv-x="1093" d="M207 1245l65 -69q70 70 173.5 125t228.5 55q63 0 120.5 -17.5t99.5 -50.5t66.5 -83t24.5 -113q0 -82 -38 -147.5t-105.5 -114t-161.5 -77t-207 -36.5l-14 -10l-62 -332h66l88 256q109 14 207 51t173 94.5t119 136t44 181.5q0 78 -29 143.5t-82 113.5t-130 74.5t-171 26.5 q-78 0 -146.5 -16.5t-128 -45t-109.5 -66.5t-91 -79zM262 0h135l47 174h-135z" />
<glyph unicode="@" horiz-adv-x="2007" d="M135 473q0 -182 61.5 -329.5t173 -253t270 -163t355.5 -57.5q125 0 233.5 23.5t219.5 75.5l-29 59q-104 -47 -205.5 -69.5t-218.5 -22.5q-178 0 -324.5 53t-249 149.5t-158.5 232.5t-56 302q0 184 73.5 351t200.5 293t297 201t363 75q172 0 307 -51.5t229.5 -140.5 t143.5 -209t49 -257q0 -131 -34 -227t-85 -158.5t-110.5 -93.5t-110.5 -31q-53 0 -88 20.5t-52.5 56.5t-18.5 83t15 100l154 496l-96 27l-62 -201q-16 43 -42.5 83t-65.5 70.5t-90 49t-117 18.5q-92 0 -182 -43t-160 -116.5t-113 -172t-43 -211.5q0 -80 26 -142t69 -106 t101 -68t126 -24q217 0 381 209q14 -94 75.5 -149t172.5 -55q68 0 142.5 36.5t137 110.5t102.5 183.5t40 254.5q0 152 -53.5 284t-157 229.5t-252 153.5t-338.5 56q-207 0 -390.5 -80t-320.5 -215t-216 -313t-79 -377zM684 489q0 90 30.5 170t83 140.5t123 96.5t150.5 36 q123 0 192.5 -75t69.5 -191q0 -80 -36.5 -157t-96 -136.5t-135.5 -95t-154 -35.5q-98 0 -162.5 64.5t-64.5 182.5z" />
<glyph unicode="A" horiz-adv-x="1554" d="M-70 0h119l291 401h846l74 -401h108l-281 1444h-102zM410 498l602 829l153 -829h-755z" />
<glyph unicode="B" horiz-adv-x="1468" d="M74 0h645q137 0 247.5 31.5t188.5 87t119 133.5t41 170q0 63 -21.5 112.5t-59.5 86t-88 61.5t-106 39q78 14 147.5 47t121 82t81 113.5t29.5 144.5q0 76 -30.5 137.5t-87 102.5t-135.5 63.5t-177 22.5h-530zM207 98l153 576h467q82 0 151 -15.5t120 -47t79.5 -79 t28.5 -110.5q0 -76 -33.5 -136.5t-96 -101.5t-151.5 -63.5t-200 -22.5h-518zM387 772l152 563h440q154 0 242 -59t88 -178q0 -72 -34 -132.5t-96.5 -103.5t-151.5 -66.5t-198 -23.5h-442z" />
<glyph unicode="C" horiz-adv-x="1511" d="M188 555q0 -135 47.5 -243.5t127 -183.5t186 -115t225.5 -40q98 0 181 19.5t153 53.5t127 79t106 96l-71 66q-98 -98 -212 -156.5t-274 -58.5q-104 0 -193 33.5t-153.5 97t-101.5 153.5t-37 203q0 152 57.5 296t156.5 257t234.5 181.5t290.5 68.5q84 0 150.5 -18.5 t120 -52.5t94.5 -83t76 -108l92 49q-33 66 -82 122t-115.5 98t-148.5 65.5t-181 23.5q-178 0 -333.5 -75.5t-271 -201.5t-183.5 -289t-68 -337z" />
<glyph unicode="D" horiz-adv-x="1579" d="M74 0h469q223 0 411.5 73.5t317.5 202.5q109 109 166 249.5t57 305.5q0 133 -41 233.5t-117 176.5q-98 98 -243.5 145.5t-313.5 47.5h-321zM207 98l332 1237h235q154 0 275.5 -41t201.5 -120q133 -129 133 -351q0 -143 -50 -265t-142 -214q-119 -119 -279.5 -182.5 t-355.5 -63.5h-350z" />
<glyph unicode="E" horiz-adv-x="1329" d="M74 0h1020l26 98h-913l153 576h811l27 98h-811l152 563h903l26 99h-1009z" />
<glyph unicode="F" horiz-adv-x="1343" d="M74 0h106l174 649h811l27 99h-811l158 587h903l26 99h-1009z" />
<glyph unicode="G" horiz-adv-x="1609" d="M193 578q0 -139 46 -251t129 -190t196.5 -121t246.5 -43q147 0 268 39t238 115l176 616h-582l-26 -98h477l-131 -459q-78 -51 -181.5 -83.5t-232.5 -32.5q-115 0 -209 34.5t-161.5 101t-105.5 161t-38 215.5q0 145 57.5 285.5t157.5 250t238.5 177t300.5 67.5 q94 0 164.5 -17.5t124 -48t92.5 -71.5t69 -88l84 55q-33 51 -77 99t-107.5 85t-146 59.5t-193.5 22.5q-188 0 -348 -75.5t-276.5 -198.5t-183 -282t-66.5 -324z" />
<glyph unicode="H" horiz-adv-x="1548" d="M74 0h106l180 672h908l-181 -672h107l385 1434h-106l-179 -664h-907l178 664h-106z" />
<glyph unicode="I" horiz-adv-x="561" d="M88 0h107l385 1434h-107z" />
<glyph unicode="J" horiz-adv-x="1101" d="M-10 309q18 -68 51 -128t83 -105t118.5 -70.5t158.5 -25.5q88 0 175.5 34.5t152.5 100.5q68 68 113 155.5t78 210.5l256 953h-107l-252 -938q-29 -102 -66.5 -180t-93.5 -134q-106 -106 -260 -106q-125 0 -198.5 67.5t-114.5 198.5z" />
<glyph unicode="K" horiz-adv-x="1462" d="M74 0h106l96 358l459 373l400 -731h122l-434 793l797 641h-158l-1147 -932l250 932h-106z" />
<glyph unicode="L" horiz-adv-x="1228" d="M74 0h948l27 98h-842l358 1336h-106z" />
<glyph unicode="M" horiz-adv-x="1779" d="M74 0h102l334 1245l346 -825h8l789 825l-334 -1245h106l385 1434h-112l-803 -848l-348 848h-88z" />
<glyph unicode="N" horiz-adv-x="1609" d="M74 0h102l344 1282l660 -1282h77l385 1434h-102l-338 -1256l-645 1256h-98z" />
<glyph unicode="O" horiz-adv-x="1732" d="M197 590q0 -129 46 -241.5t128 -195.5t195.5 -131.5t248.5 -48.5q172 0 321.5 73t262 193.5t177 277.5t64.5 325q0 129 -46 241.5t-128 195.5t-195.5 131t-248.5 48q-172 0 -321.5 -72.5t-262 -193.5t-177 -277.5t-64.5 -324.5zM307 590q0 147 55.5 286.5t151.5 247 t226 173t282 65.5q115 0 208 -40t159.5 -110.5t103.5 -165t37 -204.5q0 -147 -55.5 -286.5t-151.5 -247t-226 -173t-282 -65.5q-115 0 -208 40t-159.5 110.5t-103.5 164.5t-37 205z" />
<glyph unicode="P" horiz-adv-x="1357" d="M74 0h106l146 537h364q162 0 293 33.5t223 99t142.5 161t50.5 218.5q0 158 -99 256q-66 66 -166 97.5t-229 31.5h-446zM350 633l189 702h364q215 0 316 -100q73 -73 73 -188q0 -202 -153.5 -308t-444.5 -106h-344z" />
<glyph unicode="Q" horiz-adv-x="1732" d="M197 590q0 -129 46 -241.5t128 -195.5t195.5 -131.5t248.5 -48.5q127 0 241.5 40t213.5 112l147 -174l78 65l-154 168q137 123 218 296t81 362q0 129 -46 241.5t-128 195.5t-195.5 131t-248.5 48q-172 0 -321.5 -72.5t-262 -193.5t-177 -277.5t-64.5 -324.5zM307 590 q0 147 55.5 286.5t151.5 247t226 173t282 65.5q115 0 208 -40t159.5 -110.5t103.5 -165t37 -204.5q0 -166 -67.5 -319.5t-186.5 -264.5l-234 274l-77 -67l239 -266q-84 -59 -181 -94t-208 -35q-115 0 -208 40t-159.5 110.5t-103.5 164.5t-37 205z" />
<glyph unicode="R" horiz-adv-x="1460" d="M74 0h106l160 594h444l308 -594h122l-315 604q131 14 240.5 56t181.5 114q59 59 93 134t34 165q0 172 -126 266.5t-349 94.5h-514zM365 690l174 645h430q188 0 280 -72.5t92 -195.5q0 -135 -96 -231q-66 -66 -178.5 -106t-271.5 -40h-430z" />
<glyph unicode="S" horiz-adv-x="1306" d="M41 254q90 -127 232 -200.5t339 -73.5q115 0 213.5 32.5t169 89t110.5 132t40 163.5q0 66 -22.5 119t-68.5 98t-118 84t-172 76q-88 33 -152.5 64.5t-106.5 65.5t-62.5 74t-20.5 89q0 57 27.5 109.5t78 92.5t124 64.5t165.5 24.5q135 0 241.5 -48t184.5 -141l82 66 q-78 96 -207 157.5t-291 61.5q-117 0 -211 -31.5t-161.5 -85t-104.5 -125t-37 -153.5q0 -66 22.5 -118t72 -96t127 -84t188.5 -83q86 -35 146.5 -66.5t97.5 -65.5t53 -72t16 -85q0 -68 -31.5 -125t-87 -99t-131 -65.5t-163.5 -23.5q-172 0 -290 59.5t-210 177.5z" />
<glyph unicode="T" horiz-adv-x="1259" d="M287 1335h499l-358 -1335h107l358 1335h500l26 99h-1106z" />
<glyph unicode="U" horiz-adv-x="1548" d="M197 428q0 -96 31.5 -178t96 -142.5t162 -95.5t226.5 -35q125 0 234.5 46.5t197.5 134.5q76 76 133 180t94 242l230 854h-107l-223 -832q-35 -131 -88.5 -226t-112.5 -155q-74 -74 -164 -110.5t-186 -36.5q-109 0 -187.5 27.5t-130 76.5t-77 114.5t-25.5 143.5q0 47 5 90 t13 74l222 834h-107l-209 -785q-14 -53 -21 -107.5t-7 -113.5z" />
<glyph unicode="V" horiz-adv-x="1462" d="M291 1434l239 -1444h95l1013 1444h-120l-914 -1319l-203 1319h-110z" />
<glyph unicode="W" horiz-adv-x="2199" d="M307 1434l133 -1444h86l754 1245l86 -1245h86l907 1444h-118l-793 -1276l-78 1280h-82l-762 -1280l-108 1276h-111z" />
<glyph unicode="X" horiz-adv-x="1417" d="M-47 0h137l664 662l354 -662h115l-394 723l721 711h-137l-635 -631l-342 631h-114l380 -693z" />
<glyph unicode="Y" horiz-adv-x="1368" d="M260 1434l375 -852l-156 -582h107l147 555l862 879h-143l-745 -770l-330 770h-117z" />
<glyph unicode="Z" horiz-adv-x="1355" d="M-39 0h1133l26 96h-966l1302 1278l17 60h-1092l-27 -97h926l-1303 -1278z" />
<glyph unicode="[" horiz-adv-x="880" d="M33 -266h559l20 78h-465l414 1544h465l23 78h-560z" />
<glyph unicode="\" d="M301 1634l453 -1896h90l-453 1896h-90z" />
<glyph unicode="]" horiz-adv-x="880" d="M-137 -266h559l457 1700h-560l-20 -78h465l-414 -1544h-465z" />
<glyph unicode="^" d="M264 1010h117l354 342l170 -342h96l-208 430h-91z" />
<glyph unicode="_" horiz-adv-x="1228" d="M-233 -328h1239l24 90h-1239z" />
<glyph unicode="`" d="M592 1430l162 -211h71l-106 272z" />
<glyph unicode="a" horiz-adv-x="1169" d="M47 268q0 -74 28.5 -128t77 -91t109.5 -55.5t127 -18.5q137 0 240.5 57.5t179.5 147.5l-47 -180h98l160 598q10 35 15 72t5 65q0 152 -106.5 239t-298.5 87q-98 0 -175 -15.5t-155 -44.5l19 -90q76 27 146.5 41.5t156.5 14.5q154 0 234.5 -63.5t80.5 -182.5 q0 -23 -4 -52.5t-10 -52.5l-8 -28q-78 23 -183.5 41t-218.5 18q-102 0 -189 -26.5t-149.5 -75.5t-97.5 -120t-35 -157zM154 281q0 61 25.5 111t71.5 87t110.5 57.5t142.5 20.5q117 0 216 -14.5t179 -34.5l-25 -92q-23 -80 -69.5 -143.5t-111 -109.5t-138 -70.5t-147.5 -24.5 q-117 0 -185.5 57t-68.5 156z" />
<glyph unicode="b" horiz-adv-x="1339" d="M51 0h101l71 266q20 -55 55 -108.5t85.5 -94t119 -65.5t156.5 -25q117 0 223.5 50.5t188.5 138.5t130 207.5t48 259.5q0 96 -32 177t-88 139.5t-133 91t-167 32.5q-139 0 -247.5 -67.5t-186.5 -161.5l178 655h-100zM274 432q0 104 45.5 202.5t119 173.5t166.5 121t192 46 q72 0 131 -25.5t102 -73t66.5 -114t23.5 -146.5q0 -109 -35.5 -208t-100 -174.5t-154 -120.5t-195.5 -45q-80 0 -146.5 28.5t-114.5 77.5t-74 115.5t-26 142.5z" />
<glyph unicode="c" horiz-adv-x="1153" d="M102 426q0 -109 39 -191.5t102.5 -141t145.5 -88.5t168 -30q129 0 230.5 50.5t181.5 128.5l-68 65q-72 -68 -153.5 -108.5t-184.5 -40.5q-68 0 -131 23.5t-112.5 69.5t-79 113.5t-29.5 155.5q0 106 41 204.5t109.5 174.5t158.5 120t191 44q66 0 117 -16.5t90.5 -44 t69.5 -65.5t54 -79l84 47q-25 49 -61.5 94t-86.5 81t-115.5 56.5t-145.5 20.5q-123 0 -234.5 -52t-196.5 -141.5t-134.5 -205t-49.5 -244.5z" />
<glyph unicode="d" horiz-adv-x="1339" d="M111 414q0 -96 31.5 -177t88 -139.5t133 -91.5t166.5 -33q139 0 247 68t186 162l-54 -203h101l399 1495h-100l-193 -719q-20 55 -55 108.5t-85 94.5t-119 65.5t-157 24.5q-117 0 -223 -50t-188 -138t-130 -208t-48 -259zM219 426q0 109 36 208t100.5 175t153.5 121 t196 45q80 0 146.5 -28.5t114.5 -78t73.5 -116t25.5 -142.5q0 -104 -45 -202.5t-119 -173t-167 -120.5t-191 -46q-72 0 -131.5 25.5t-102.5 72.5t-66.5 113.5t-23.5 146.5z" />
<glyph unicode="e" horiz-adv-x="1193" d="M102 414q0 -96 34 -177t94.5 -139.5t143.5 -90.5t183 -32q141 0 237.5 47.5t178.5 114.5l-60 72q-76 -61 -156.5 -100t-199.5 -39q-78 0 -141.5 24.5t-108.5 70.5t-70.5 109.5t-25.5 143.5q0 16 1 34.5t3 34.5h858q29 82 29 183q0 80 -24.5 152.5t-75 128t-124 87 t-171.5 31.5q-127 0 -238 -56.5t-192.5 -148.5t-128 -209.5t-46.5 -240.5zM233 578q23 80 66 152.5t104.5 127.5t137 87t164.5 32q76 0 131 -25.5t92 -68.5t54 -99.5t17 -119.5q0 -29 -2 -50.5t-6 -35.5h-758z" />
<glyph unicode="f" horiz-adv-x="741" d="M113 0h100l256 952h377l24 92h-376l34 130q33 123 93.5 177t142.5 54q51 0 93 -12.5t95 -36.5l25 90q-43 23 -96.5 36t-112.5 13q-254 0 -334 -299l-41 -152h-151l-25 -92h152z" />
<glyph unicode="g" horiz-adv-x="1339" d="M-10 -137q94 -90 224 -142.5t269 -52.5q131 0 228.5 38t171.5 112q53 53 94 127.5t70 183.5l243 915h-100l-68 -253q-23 51 -55.5 101t-80.5 89t-114.5 63.5t-156.5 24.5q-111 0 -217.5 -43t-189.5 -120t-134 -184.5t-51 -238.5q0 -96 37 -170.5t97 -127t139 -80 t163 -27.5q70 0 131.5 16.5t114.5 45t99 66.5t85 79l-37 -131q-25 -88 -57.5 -155t-85.5 -120q-51 -51 -131 -84t-191 -33q-129 0 -234.5 48.5t-189.5 126.5zM231 489q0 106 41 195.5t107.5 154t152.5 99.5t179 35q86 0 153.5 -29t115.5 -76t72.5 -107.5t24.5 -121.5 q0 -88 -41 -172t-110.5 -149.5t-159.5 -105.5t-188 -40q-66 0 -128.5 20.5t-110.5 60.5t-78 99.5t-30 136.5z" />
<glyph unicode="h" horiz-adv-x="1247" d="M51 0h101l157 590q23 86 69 156.5t105.5 123t127 81t134.5 28.5q125 0 197 -67.5t72 -184.5q0 -29 -4 -64.5t-13 -64.5l-159 -598h100l156 590q10 37 16 74.5t6 72.5q0 152 -93 242t-249 90q-66 0 -122 -17.5t-103 -46t-89 -69.5t-81 -86l174 645h-100z" />
<glyph unicode="i" horiz-adv-x="512" d="M66 0h100l280 1044h-100zM408 1317h124l37 137h-125z" />
<glyph unicode="j" horiz-adv-x="509" d="M-236 -313q37 -12 66 -16.5t64 -4.5q88 0 151.5 59.5t91.5 168.5l309 1150h-100l-307 -1142q-20 -74 -60 -108t-94 -34q-23 0 -48 5.5t-48 11.5zM408 1317h124l37 137h-125z" />
<glyph unicode="k" horiz-adv-x="1146" d="M51 0h101l67 254l328 262l278 -516h117l-311 578l581 466h-145l-811 -657l297 1108h-100z" />
<glyph unicode="l" horiz-adv-x="512" d="M66 0h100l401 1495h-100z" />
<glyph unicode="m" horiz-adv-x="1947" d="M51 0h101l157 590q23 84 67 154.5t100 123t121 82t128 29.5q115 0 181.5 -67.5t66.5 -184.5q0 -29 -4 -64.5t-13 -64.5l-159 -598h100l156 590q23 84 66.5 154.5t100 123t121 82t127.5 29.5q115 0 181.5 -67.5t66.5 -184.5q0 -29 -4 -64.5t-12 -64.5l-160 -598h100 l156 590q10 37 18.5 74.5t8.5 72.5q0 74 -24.5 134.5t-67.5 104.5t-103.5 68.5t-130.5 24.5q-147 0 -257 -69.5t-181 -186.5q-8 47 -30.5 93t-59.5 82t-91.5 58.5t-123.5 22.5q-63 0 -115.5 -16.5t-96.5 -46t-84 -69.5t-79 -87l51 194h-100z" />
<glyph unicode="n" horiz-adv-x="1251" d="M51 0h101l157 590q23 86 69 156.5t105.5 123t127 81t134.5 28.5q125 0 197 -67.5t72 -184.5q0 -29 -4 -64.5t-13 -64.5l-159 -598h100l156 590q10 37 16 74.5t6 72.5q0 152 -93 242t-249 90q-66 0 -122 -17.5t-103 -46t-89 -69.5t-81 -86l51 194h-100z" />
<glyph unicode="o" horiz-adv-x="1296" d="M104 438q0 -100 34 -185t95.5 -146.5t146.5 -96.5t189 -35q121 0 233.5 51.5t198.5 137.5t137.5 200.5t51.5 241.5q0 100 -34 185.5t-95.5 146.5t-146.5 96t-189 35q-125 0 -237.5 -52t-197.5 -139t-135.5 -202t-50.5 -238zM213 442q0 104 41 200.5t110.5 170.5 t160.5 118t190 44q164 0 265 -97.5t101 -275.5q0 -109 -43 -205t-112.5 -168.5t-160.5 -115.5t-185 -43q-164 0 -265.5 97t-101.5 275z" />
<glyph unicode="p" horiz-adv-x="1339" d="M-37 -328h100l160 594q20 -55 55 -108.5t85.5 -94t119 -65.5t156.5 -25q117 0 223.5 50.5t188.5 138.5t130 207.5t48 259.5q0 96 -32 177t-88 139.5t-133 91t-167 32.5q-139 0 -247.5 -67.5t-186.5 -161.5l55 204h-100zM274 432q0 104 45.5 202.5t119 173.5t166.5 121 t192 46q72 0 131 -25.5t102 -73t66.5 -114t23.5 -146.5q0 -109 -35.5 -208t-100 -174.5t-154 -120.5t-195.5 -45q-80 0 -146.5 28.5t-114.5 77.5t-74 115.5t-26 142.5z" />
<glyph unicode="q" horiz-adv-x="1339" d="M111 414q0 -96 31.5 -177t88 -139.5t133 -91.5t166.5 -33q139 0 248 69t187 163l-164 -615h100l387 1454h-100l-72 -266q-20 55 -55 108.5t-85 93.5t-119 64.5t-157 24.5q-117 0 -223 -50t-188 -138t-130 -208t-48 -259zM219 426q0 109 36 208t100.5 175t153.5 121 t196 45q80 0 146.5 -28.5t114.5 -78t73.5 -115t25.5 -141.5q0 -104 -45 -202.5t-119 -174t-167 -121.5t-191 -46q-72 0 -131.5 25.5t-102.5 72.5t-66.5 113.5t-23.5 146.5z" />
<glyph unicode="r" horiz-adv-x="811" d="M51 0h101l114 428q33 125 94.5 222.5t140.5 164t170 101t181 34.5h8l29 111q-13 1 -26 1q-70 0 -133 -18q-75 -22 -141.5 -63t-126 -101.5t-110.5 -131.5l78 296h-100z" />
<glyph unicode="s" horiz-adv-x="1013" d="M2 158q90 -90 204.5 -135.5t237.5 -45.5q80 0 151 24t124 66t84 100t31 126q0 47 -15.5 85t-49.5 71.5t-88 64.5t-132 61q-74 29 -119 53.5t-71.5 48t-36 48.5t-9.5 55q0 37 17.5 72t51.5 62.5t85 44t117 16.5q92 0 177 -37t144 -86l66 76q-66 55 -166 97t-211 42 q-88 0 -160 -23.5t-122 -65.5t-77.5 -97.5t-27.5 -116.5q0 -102 71.5 -163.5t221.5 -117.5q68 -25 111.5 -49t69.5 -49t36 -51.5t10 -57.5q0 -47 -23.5 -84.5t-61.5 -65.5t-87 -42t-98 -14q-104 0 -200.5 37.5t-182.5 121.5z" />
<glyph unicode="t" horiz-adv-x="811" d="M172 188q0 -109 73 -157.5t177 -48.5q41 0 73.5 5t73.5 21l27 98q-83 -32 -148 -32h-4q-78 0 -124 29.5t-46 95.5q0 18 3.5 42.5t7.5 45.5l178 665h360l25 92h-361l91 334h-101l-90 -334h-151l-25 -92h151l-178 -663q-4 -20 -8 -48t-4 -53z" />
<glyph unicode="u" horiz-adv-x="1247" d="M131 307q0 -152 93 -242t249 -90q66 0 122 17.5t103 46.5t89 68.5t81 87.5l-51 -195h101l278 1044h-100l-158 -589q-23 -86 -69 -157t-105 -123t-127 -80.5t-135 -28.5q-125 0 -197 67.5t-72 183.5q0 29 4.5 65t12.5 64l160 598h-101l-155 -589q-10 -37 -16.5 -75 t-6.5 -73z" />
<glyph unicode="v" horiz-adv-x="1140" d="M182 1044l185 -1052h86l745 1052h-121l-641 -931l-145 931h-109z" />
<glyph unicode="w" horiz-adv-x="1730" d="M203 1044l100 -1052h84l553 895l72 -895h88l665 1052h-110l-563 -909l-72 914h-80l-559 -914l-76 909h-102z" />
<glyph unicode="x" horiz-adv-x="1144" d="M-59 0h135l491 469l242 -469h115l-289 532l549 512h-135l-459 -440l-230 440h-114l276 -503z" />
<glyph unicode="y" horiz-adv-x="1163" d="M-180 -262q102 -72 221 -72q113 0 213 66.5t215 230.5l743 1081h-120l-629 -933l-182 933h-107l213 -1038q-96 -139 -175 -192.5t-159 -53.5q-41 0 -93 16.5t-85 43.5z" />
<glyph unicode="z" horiz-adv-x="1118" d="M-35 0h903l25 90h-739l972 897l17 57h-869l-24 -90h704l-972 -897z" />
<glyph unicode="{" horiz-adv-x="983" d="M133 549h53q106 0 150.5 -36t44.5 -101q0 -49 -19 -113q-12 -47 -21 -82t-15.5 -62.5t-8.5 -51t-2 -50.5q0 -55 17.5 -108.5t55.5 -98.5t99.5 -81t151.5 -54l29 64q-139 39 -195.5 111.5t-56.5 174.5q0 53 14 118t31 118q10 31 14 62.5t4 54.5q0 127 -141 170 q66 12 116 36.5t87 71.5t63.5 120t46.5 181q16 88 46 159t82 122t130 79.5t193 35.5l6 75q-145 -8 -242.5 -43t-160 -94t-97.5 -141t-55 -182q-20 -102 -47 -174t-67 -117t-96 -65.5t-136 -20.5h-53z" />
<glyph unicode="|" horiz-adv-x="585" d="M289 -262h90v1896h-90v-1896z" />
<glyph unicode="}" horiz-adv-x="983" d="M-90 -289q143 8 240.5 43t161 94.5t98 140.5t55.5 183q20 102 47 174t66.5 117t96 65.5t136.5 20.5h53l21 78h-54q-106 0 -150 35.5t-44 101.5q0 47 18 113q12 47 21.5 81.5t15.5 62.5t8 51.5t2 49.5q0 55 -17 108.5t-55 98.5t-100.5 81t-150.5 54l-29 -63 q139 -39 195.5 -113t56.5 -174q0 -53 -14.5 -117.5t-30.5 -117.5q-10 -31 -14 -63t-4 -54q0 -127 141 -170q-66 -12 -116 -37t-87 -72t-63.5 -120.5t-46.5 -180.5q-16 -90 -46 -159.5t-82.5 -121t-131 -80t-191.5 -34.5z" />
<glyph unicode="~" horiz-adv-x="942" d="M178 532l78 -30q35 61 61.5 92t59.5 31q27 0 45 -14.5t53 -47.5t62.5 -52t74.5 -19q66 0 115 48t98 148l-77 31q-35 -61 -62 -92t-59 -31q-27 0 -45.5 14.5t-53.5 46.5q-35 33 -62.5 52.5t-74.5 19.5q-66 0 -115 -48t-98 -149z" />
<glyph unicode="&#xa1;" horiz-adv-x="514" d="M57 0h119l39 143l215 916h-57l-277 -916zM387 1260h135l47 174h-135z" />
<glyph unicode="&#xa2;" horiz-adv-x="1142" d="M154 621q0 -139 71.5 -247t192.5 -159l-90 -227h102l80 200q51 -10 96 -10q143 0 249 49t192 129l-68 66q-78 -70 -166 -110t-201 -40q-41 0 -73 7l348 886q90 -23 143 -74t90 -116l84 47q-35 76 -101.5 139.5t-174.5 91.5l78 193h-103l-69 -176q-14 2 -29 2h-27 q-129 0 -242.5 -52.5t-198.5 -141.5t-134 -207.5t-49 -249.5zM262 623q0 113 40 214t108.5 177t162 120t199.5 44h29l-344 -875q-92 41 -143.5 125t-51.5 195z" />
<glyph unicode="&#xa3;" horiz-adv-x="1277" d="M-4 0h1046l27 96h-766l141 529h611l26 98h-610l68 250q49 182 143 276q102 102 248 103q111 0 178.5 -48.5t120.5 -134.5l88 54q-53 98 -146.5 161.5t-234.5 63.5q-104 0 -185 -36t-149 -103q-53 -53 -95 -136t-69 -182l-71 -268h-177l-26 -98h176l-143 -533l-187 -41z " />
<glyph unicode="&#xa4;" horiz-adv-x="1400" d="M76 502h188q6 -123 45 -220.5t105.5 -166t155 -104.5t192.5 -36q82 0 150.5 17.5t128 49.5t109.5 75t97 94l-71 61q-86 -94 -182.5 -147t-229.5 -53q-90 0 -159.5 31.5t-119 89t-78 136.5t-32.5 173h579l27 98h-606q4 66 15 129.5t30 122.5h627l26 98h-616q39 90 95 166 t124.5 130t148.5 85t166 31q76 0 134.5 -18.5t103.5 -53.5t78.5 -84t58.5 -110l92 37q-23 68 -62.5 127t-95 103t-128 69.5t-162.5 25.5q-117 0 -218.5 -39t-186.5 -106.5t-151.5 -160.5t-109.5 -202h-149l-27 -98h141q-37 -119 -43 -252h-164z" />
<glyph unicode="&#xa5;" horiz-adv-x="1433" d="M152 256h430l-68 -256h107l67 256h438l25 92h-438l53 201h438l25 92h-377l778 793h-139l-746 -770l-329 770h-121l348 -793h-389l-25 -92h430l-53 -201h-430z" />
<glyph unicode="&#xa7;" horiz-adv-x="1294" d="M137 147q33 -33 82 -63.5t107.5 -53t125 -36.5t138.5 -14q76 0 143.5 17t117.5 50t80 80t30 106q0 70 -47.5 119t-110.5 78q86 0 159.5 18.5t129 52.5t86 83t30.5 108q0 100 -96 166t-289 133q-147 53 -215.5 99.5t-68.5 111.5q0 72 72.5 116t176.5 44q129 0 233.5 -46 t166.5 -106l67 76q-35 33 -83 63.5t-106 53t-126 37t-137 14.5q-76 0 -143.5 -17.5t-117.5 -50t-80 -79.5t-30 -107q0 -70 47 -119t111 -77q-86 0 -160 -18.5t-129 -52.5t-86 -83t-31 -109q0 -100 96.5 -165.5t288.5 -133.5q147 -53 216 -99t69 -112q0 -72 -72.5 -115.5 t-177.5 -43.5q-129 0 -233.5 46t-165.5 105zM291 750q0 37 22.5 69.5t62.5 58t94 40t120 14.5q72 0 124 -10.5t115 -32.5q147 -51 210 -98.5t63 -106.5q0 -37 -22.5 -69.5t-62.5 -58.5t-95.5 -40t-118.5 -14q-72 0 -125 10t-115 33q-147 51 -209.5 98t-62.5 107z" />
<glyph unicode="&#xa8;" d="M436 1219h142l45 163h-142zM770 1219h141l45 163h-141z" />
<glyph unicode="&#xa9;" horiz-adv-x="1699" d="M160 715q0 -152 57 -287t156.5 -235.5t234.5 -159t291 -58.5t292 59.5t236.5 161t157.5 236.5t57 287t-57 287t-156.5 235t-234.5 158.5t-291 58.5t-292 -59.5t-236.5 -160.5t-157.5 -236.5t-57 -286.5zM221 715q0 141 52.5 266t143.5 218t216 147.5t270 54.5t269 -53.5 t215.5 -146.5t142.5 -217t51 -265t-52 -266t-143.5 -218.5t-216.5 -147.5t-270 -54t-269 53t-215 146.5t-142.5 217t-51.5 265.5zM537 727q0 -80 28.5 -150.5t78.5 -123t117.5 -83t147.5 -30.5q100 0 168 36t127 95l-57 57q-53 -51 -106.5 -78.5t-129.5 -27.5 q-59 0 -111 24.5t-90 66.5t-60.5 97.5t-22.5 118.5t20.5 118.5t58 96.5t90 65.5t113.5 24.5q72 0 128.5 -31.5t101.5 -74.5l61 63q-57 53 -122.5 89t-166.5 36q-80 0 -148.5 -30.5t-118.5 -84t-78.5 -124t-28.5 -150.5z" />
<glyph unicode="&#xaa;" horiz-adv-x="798" d="M119 600h499l21 82h-500zM217 993q0 -72 51 -112.5t123 -40.5q74 0 131.5 32.5t102.5 81.5l-29 -102h82l88 330q4 20 8 40.5t4 39.5q0 84 -58 132t-169 48q-57 0 -103.5 -9.5t-89.5 -25.5l15 -72q39 14 77.5 22.5t86.5 8.5q160 0 159 -119q0 -12 -2 -28.5t-6 -26.5 l-4 -12q-41 10 -93 20t-106 10q-117 0 -192.5 -59t-75.5 -158zM303 1001q0 66 51.5 106t130.5 40q53 0 99.5 -7t85.5 -18l-8 -28q-10 -39 -36 -73t-61 -59.5t-74.5 -41t-78.5 -15.5q-49 0 -79 26.5t-30 69.5z" />
<glyph unicode="&#xab;" horiz-adv-x="1054" d="M92 514l213 -428l84 45l-170 377l393 393l-73 57l-443 -428zM510 514l213 -428l84 45l-170 377l393 393l-74 57l-442 -428z" />
<glyph unicode="&#xad;" horiz-adv-x="837" d="M152 551h548l31 115h-549z" />
<glyph unicode="&#xae;" horiz-adv-x="1699" d="M160 715q0 -152 57 -287t156.5 -235.5t234.5 -159t291 -58.5t292 59.5t236.5 161t157.5 236.5t57 287t-57 287t-156.5 235t-234.5 158.5t-291 58.5t-292 -59.5t-236.5 -160.5t-157.5 -236.5t-57 -286.5zM221 715q0 141 52.5 266t143.5 218t216 147.5t270 54.5t269 -53.5 t215.5 -146.5t142.5 -217t51 -265t-52 -266t-143.5 -218.5t-216.5 -147.5t-270 -54t-269 53t-215 146.5t-142.5 217t-51.5 265.5zM616 362h89v302h217l237 -302h115l-250 316q92 16 148.5 70.5t56.5 146.5q0 100 -78 158.5t-199 58.5h-336v-750zM705 745v283h243 q88 0 138.5 -36t50.5 -101q0 -72 -56.5 -109t-142.5 -37h-233z" />
<glyph unicode="&#xaf;" d="M389 1229h615l28 108h-614z" />
<glyph unicode="&#xb0;" horiz-adv-x="749" d="M180 1100q0 -55 19.5 -102.5t53.5 -82t81 -54t104 -19.5q70 0 131.5 27.5t107.5 75.5t73.5 110.5t27.5 130.5q0 55 -19.5 102t-53 82t-80.5 54.5t-105 19.5q-70 0 -131 -27.5t-107 -76t-74 -111t-28 -129.5zM272 1110q0 49 19.5 94t52.5 79t76 54.5t90 20.5q78 0 127 -48 t49 -134q0 -49 -19.5 -94.5t-52 -79t-75.5 -54t-90 -20.5q-78 0 -127.5 48t-49.5 134z" />
<glyph unicode="&#xb1;" horiz-adv-x="1228" d="M14 233q70 -113 201 -185.5t317 -72.5q111 0 208.5 32t170 88.5t113.5 132t41 163.5q0 68 -23.5 120t-62.5 92t-91 67.5t-110 44.5q197 33 314.5 128t117.5 257q0 86 -36.5 151.5t-98 110.5t-142.5 68.5t-171 23.5q-152 0 -261.5 -49t-193.5 -117l66 -71q80 63 172 102 t217 39q72 0 133 -18.5t106.5 -52.5t71 -83t25.5 -110q0 -152 -144.5 -238t-398.5 -86h-82l-24 -94h61q92 0 172 -16.5t140.5 -52.5t95 -90t34.5 -130q0 -66 -29.5 -123t-85 -100t-131 -67.5t-167.5 -24.5q-168 0 -269.5 61.5t-163.5 155.5z" />
<glyph unicode="&#xb4;" d="M514 1219h104l277 211l-127 61z" />
<glyph unicode="&#xb5;" horiz-adv-x="1732" d="M197 590q0 -129 46 -241.5t128 -195.5t195.5 -131.5t248.5 -48.5q127 0 241.5 40t213.5 112l147 -174l78 65l-154 168q137 123 218 296t81 362q0 129 -46 241.5t-128 195.5t-195.5 131t-248.5 48q-172 0 -321.5 -72.5t-262 -193.5t-177 -277.5t-64.5 -324.5zM307 590 q0 147 55.5 286.5t151.5 247t226 173t282 65.5q115 0 208 -40t159.5 -110.5t103.5 -165t37 -204.5q0 -166 -67.5 -319.5t-186.5 -264.5l-234 274l-77 -67l239 -266q-84 -59 -181 -94t-208 -35q-115 0 -208 40t-159.5 110.5t-103.5 164.5t-37 205z" />
<glyph unicode="&#xb6;" horiz-adv-x="995" d="M209 913q0 -96 38 -164.5t101.5 -113.5t148.5 -67.5t179 -28.5l-144 -539h109l385 1434h-149q-156 0 -280 -36t-210 -102.5t-132 -163t-46 -219.5z" />
<glyph unicode="&#xb7;" horiz-adv-x="473" d="M168 522h135l47 174h-135z" />
<glyph unicode="&#xb8;" d="M143 -250l99 -53l245 323h-88z" />
<glyph unicode="&#xba;" horiz-adv-x="798" d="M123 600h549l20 82h-549zM236 1098q0 -115 72.5 -189.5t193.5 -74.5q70 0 132 28.5t109.5 75.5t74 110.5t26.5 131.5q0 57 -19.5 105t-54.5 83t-84 55.5t-108 20.5q-72 0 -133.5 -29t-108.5 -76t-73.5 -110.5t-26.5 -130.5zM322 1102q0 51 19 99t53 85t80 59.5t97 22.5 q82 0 133.5 -52t51.5 -140q0 -53 -19.5 -101.5t-53.5 -85.5t-79 -58.5t-96 -21.5q-82 0 -134 52.5t-52 140.5z" />
<glyph unicode="&#xbb;" horiz-adv-x="1054" d="M23 141l73 -57l443 428l4 16l-213 428l-84 -45l170 -376zM440 141l74 -57l442 428l5 16l-213 428l-84 -45l170 -376z" />
<glyph unicode="&#xbf;" horiz-adv-x="1093" d="M104 340q0 -78 29 -143.5t82 -113.5t129 -74.5t172 -26.5q78 0 146.5 16t128 45t109.5 66.5t91 78.5l-65 70q-70 -70 -173.5 -125t-228.5 -55q-66 0 -122 17.5t-98 50t-66.5 81.5t-24.5 115q0 82 38 147.5t105.5 113.5t161.5 77t207 37l14 10l62 332h-66l-88 -256 q-109 -16 -207 -52t-172.5 -93.5t-119 -136.5t-44.5 -181zM754 1260h135l47 174h-135z" />
<glyph unicode="&#xc0;" horiz-adv-x="1554" d="M-70 0h119l291 401h846l74 -401h108l-281 1444h-102zM410 498l602 829l153 -829h-755zM897 1778l162 -211h71l-106 272z" />
<glyph unicode="&#xc1;" horiz-adv-x="1554" d="M-70 0h119l291 401h846l74 -401h108l-281 1444h-102zM410 498l602 829l153 -829h-755zM1001 1567h104l277 211l-127 61z" />
<glyph unicode="&#xc2;" horiz-adv-x="1554" d="M-70 0h119l291 401h846l74 -401h108l-281 1444h-102zM410 498l602 829l153 -829h-755zM822 1567h98l197 139l106 -139h90l-137 249h-82z" />
<glyph unicode="&#xc3;" horiz-adv-x="1554" d="M-70 0h119l291 401h846l74 -401h108l-281 1444h-102zM410 498l602 829l153 -829h-755zM774 1593l78 -31q35 61 61.5 92t59.5 31q27 0 45.5 -14t52.5 -47q35 -33 62.5 -52.5t75.5 -19.5q66 0 114.5 48t98.5 149l-78 31q-35 -61 -61.5 -92t-59.5 -31q-27 0 -45.5 14 t-52.5 47q-35 33 -63 52.5t-75 19.5q-66 0 -114.5 -48t-98.5 -149z" />
<glyph unicode="&#xc4;" horiz-adv-x="1554" d="M-70 0h119l291 401h846l74 -401h108l-281 1444h-102zM410 498l602 829l153 -829h-755zM844 1567h142l45 163h-142zM1178 1567h141l45 163h-141z" />
<glyph unicode="&#xc5;" horiz-adv-x="1595" d="M-49 0h119l290 401h846l74 -401h109l-269 1376q72 16 121 72.5t49 132.5q0 72 -54 120t-142 48q-43 0 -83 -16.5t-70 -44t-47 -66.5t-17 -82q0 -100 94 -145zM430 498l602 829l154 -829h-756zM950 1540q0 59 42 101t102 42q59 0 91 -28.5t32 -73.5q0 -59 -42.5 -101 t-101.5 -42t-91 28.5t-32 73.5z" />
<glyph unicode="&#xc6;" horiz-adv-x="2187" d="M-66 0h129l349 401h616l-108 -401h999l27 98h-893l153 576h791l26 98h-790l151 563h883l27 99h-1108zM496 498l727 839h55l-225 -839h-557z" />
<glyph unicode="&#xc7;" horiz-adv-x="1511" d="M188 555q0 -121 38 -220t103.5 -173t154.5 -120t192 -60l-219 -232l98 -53l211 276h8q98 0 181 19.5t153 53.5t127 79t106 96l-71 66q-98 -98 -212 -156.5t-274 -58.5q-104 0 -193 33.5t-153.5 97t-101.5 153.5t-37 203q0 152 57.5 296t156.5 257t234.5 181.5t290.5 68.5 q84 0 150.5 -18.5t120 -52.5t94.5 -83t76 -108l92 49q-33 66 -82 122t-115.5 98t-148.5 65.5t-181 23.5q-178 0 -333.5 -75.5t-271 -201.5t-183.5 -289t-68 -337z" />
<glyph unicode="&#xc8;" horiz-adv-x="1329" d="M74 0h1020l26 98h-913l153 576h811l27 98h-811l152 563h903l26 99h-1009zM821 1778l162 -211h71l-106 272z" />
<glyph unicode="&#xc9;" horiz-adv-x="1329" d="M74 0h1020l26 98h-913l153 576h811l27 98h-811l152 563h903l26 99h-1009zM846 1567h104l277 211l-127 61z" />
<glyph unicode="&#xca;" horiz-adv-x="1329" d="M74 0h1020l26 98h-913l153 576h811l27 98h-811l152 563h903l26 99h-1009zM727 1567h98l197 139l106 -139h90l-137 249h-82z" />
<glyph unicode="&#xcb;" horiz-adv-x="1329" d="M74 0h1020l26 98h-913l153 576h811l27 98h-811l152 563h903l26 99h-1009zM747 1567h142l45 163h-142zM1081 1567h141l45 163h-141z" />
<glyph unicode="&#xcc;" horiz-adv-x="561" d="M88 0h107l385 1434h-107zM381 1778l162 -211h71l-106 272z" />
<glyph unicode="&#xcd;" horiz-adv-x="561" d="M88 0h107l385 1434h-107zM477 1567h104l277 211l-127 61z" />
<glyph unicode="&#xce;" horiz-adv-x="561" d="M88 0h107l385 1434h-107zM305 1567h98l197 139l106 -139h90l-137 249h-82z" />
<glyph unicode="&#xcf;" horiz-adv-x="561" d="M88 0h107l385 1434h-107zM327 1567h142l45 163h-142zM661 1567h141l45 163h-141z" />
<glyph unicode="&#xd0;" horiz-adv-x="1640" d="M135 0h469q223 0 411.5 73.5t317.5 202.5q109 109 166 249.5t57 305.5q0 133 -40.5 233.5t-116.5 176.5q-98 98 -243.5 145.5t-313.5 47.5h-322l-178 -664h-154l-26 -98h153zM268 98l154 574h475l27 98h-475l151 565h236q154 0 275.5 -41t201.5 -120q133 -129 133 -351 q0 -143 -50 -265t-143 -214q-119 -119 -279.5 -182.5t-355.5 -63.5h-350z" />
<glyph unicode="&#xd1;" horiz-adv-x="1609" d="M74 0h102l344 1282l660 -1282h77l385 1434h-102l-338 -1256l-645 1256h-98zM755 1593l78 -31q35 61 61.5 92t59.5 31q27 0 45.5 -14t52.5 -47q35 -33 62.5 -52.5t75.5 -19.5q66 0 114.5 48t98.5 149l-78 31q-35 -61 -61.5 -92t-59.5 -31q-27 0 -45.5 14t-52.5 47 q-35 33 -63 52.5t-75 19.5q-66 0 -114.5 -48t-98.5 -149z" />
<glyph unicode="&#xd2;" horiz-adv-x="1732" d="M197 590q0 -129 46 -241.5t128 -195.5t195.5 -131.5t248.5 -48.5q172 0 321.5 73t262 193.5t177 277.5t64.5 325q0 129 -46 241.5t-128 195.5t-195.5 131t-248.5 48q-172 0 -321.5 -72.5t-262 -193.5t-177 -277.5t-64.5 -324.5zM307 590q0 147 55.5 286.5t151.5 247 t226 173t282 65.5q115 0 208 -40t159.5 -110.5t103.5 -165t37 -204.5q0 -147 -55.5 -286.5t-151.5 -247t-226 -173t-282 -65.5q-115 0 -208 40t-159.5 110.5t-103.5 164.5t-37 205zM957 1778l162 -211h71l-106 272z" />
<glyph unicode="&#xd3;" horiz-adv-x="1732" d="M197 590q0 -129 46 -241.5t128 -195.5t195.5 -131.5t248.5 -48.5q172 0 321.5 73t262 193.5t177 277.5t64.5 325q0 129 -46 241.5t-128 195.5t-195.5 131t-248.5 48q-172 0 -321.5 -72.5t-262 -193.5t-177 -277.5t-64.5 -324.5zM307 590q0 147 55.5 286.5t151.5 247 t226 173t282 65.5q115 0 208 -40t159.5 -110.5t103.5 -165t37 -204.5q0 -147 -55.5 -286.5t-151.5 -247t-226 -173t-282 -65.5q-115 0 -208 40t-159.5 110.5t-103.5 164.5t-37 205zM960 1567h104l277 211l-127 61z" />
<glyph unicode="&#xd4;" horiz-adv-x="1732" d="M197 590q0 -129 46 -241.5t128 -195.5t195.5 -131.5t248.5 -48.5q172 0 321.5 73t262 193.5t177 277.5t64.5 325q0 129 -46 241.5t-128 195.5t-195.5 131t-248.5 48q-172 0 -321.5 -72.5t-262 -193.5t-177 -277.5t-64.5 -324.5zM307 590q0 147 55.5 286.5t151.5 247 t226 173t282 65.5q115 0 208 -40t159.5 -110.5t103.5 -165t37 -204.5q0 -147 -55.5 -286.5t-151.5 -247t-226 -173t-282 -65.5q-115 0 -208 40t-159.5 110.5t-103.5 164.5t-37 205zM861 1567h98l197 139l106 -139h90l-137 249h-82z" />
<glyph unicode="&#xd5;" horiz-adv-x="1732" d="M197 590q0 -129 46 -241.5t128 -195.5t195.5 -131.5t248.5 -48.5q172 0 321.5 73t262 193.5t177 277.5t64.5 325q0 129 -46 241.5t-128 195.5t-195.5 131t-248.5 48q-172 0 -321.5 -72.5t-262 -193.5t-177 -277.5t-64.5 -324.5zM307 590q0 147 55.5 286.5t151.5 247 t226 173t282 65.5q115 0 208 -40t159.5 -110.5t103.5 -165t37 -204.5q0 -147 -55.5 -286.5t-151.5 -247t-226 -173t-282 -65.5q-115 0 -208 40t-159.5 110.5t-103.5 164.5t-37 205zM784 1593l78 -31q35 61 61.5 92t59.5 31q27 0 45.5 -14t52.5 -47q35 -33 62.5 -52.5 t75.5 -19.5q66 0 114.5 48t98.5 149l-78 31q-35 -61 -61.5 -92t-59.5 -31q-27 0 -45.5 14t-52.5 47q-35 33 -63 52.5t-75 19.5q-66 0 -114.5 -48t-98.5 -149z" />
<glyph unicode="&#xd6;" horiz-adv-x="1732" d="M197 590q0 -129 46 -241.5t128 -195.5t195.5 -131.5t248.5 -48.5q172 0 321.5 73t262 193.5t177 277.5t64.5 325q0 129 -46 241.5t-128 195.5t-195.5 131t-248.5 48q-172 0 -321.5 -72.5t-262 -193.5t-177 -277.5t-64.5 -324.5zM307 590q0 147 55.5 286.5t151.5 247 t226 173t282 65.5q115 0 208 -40t159.5 -110.5t103.5 -165t37 -204.5q0 -147 -55.5 -286.5t-151.5 -247t-226 -173t-282 -65.5q-115 0 -208 40t-159.5 110.5t-103.5 164.5t-37 205zM862 1567h142l45 163h-142zM1196 1567h141l45 163h-141z" />
<glyph unicode="&#xd8;" horiz-adv-x="1732" d="M-35 -10h141l234 194q84 -98 204.5 -154.5t270.5 -56.5q172 0 321.5 73t262 193.5t177 277.5t64.5 325q0 98 -25.5 185t-72.5 161l305 256h-141l-219 -184q-84 92 -202 145t-263 53q-172 0 -321.5 -72.5t-262 -193.5t-177 -277.5t-64.5 -324.5q0 -92 23.5 -176t66.5 -156 zM307 590q0 147 55.5 286.5t151.5 247t226 173t282 65.5q123 0 221 -45t166 -123l-1040 -868q-61 117 -62 264zM418 250l1042 870q70 -123 70 -278q0 -147 -55.5 -286.5t-151.5 -247t-226 -173t-282 -65.5q-129 0 -230.5 47t-166.5 133z" />
<glyph unicode="&#xd9;" horiz-adv-x="1548" d="M197 428q0 -96 31.5 -178t96 -142.5t162 -95.5t226.5 -35q125 0 234.5 46.5t197.5 134.5q76 76 133 180t94 242l230 854h-107l-223 -832q-35 -131 -88.5 -226t-112.5 -155q-74 -74 -164 -110.5t-186 -36.5q-109 0 -187.5 27.5t-130 76.5t-77 114.5t-25.5 143.5q0 47 5 90 t13 74l222 834h-107l-209 -785q-14 -53 -21 -107.5t-7 -113.5zM875 1778l162 -211h71l-106 272z" />
<glyph unicode="&#xda;" horiz-adv-x="1548" d="M197 428q0 -96 31.5 -178t96 -142.5t162 -95.5t226.5 -35q125 0 234.5 46.5t197.5 134.5q76 76 133 180t94 242l230 854h-107l-223 -832q-35 -131 -88.5 -226t-112.5 -155q-74 -74 -164 -110.5t-186 -36.5q-109 0 -187.5 27.5t-130 76.5t-77 114.5t-25.5 143.5q0 47 5 90 t13 74l222 834h-107l-209 -785q-14 -53 -21 -107.5t-7 -113.5zM899 1567h104l277 211l-127 61z" />
<glyph unicode="&#xdb;" horiz-adv-x="1548" d="M197 428q0 -96 31.5 -178t96 -142.5t162 -95.5t226.5 -35q125 0 234.5 46.5t197.5 134.5q76 76 133 180t94 242l230 854h-107l-223 -832q-35 -131 -88.5 -226t-112.5 -155q-74 -74 -164 -110.5t-186 -36.5q-109 0 -187.5 27.5t-130 76.5t-77 114.5t-25.5 143.5q0 47 5 90 t13 74l222 834h-107l-209 -785q-14 -53 -21 -107.5t-7 -113.5zM793 1567h98l197 139l106 -139h90l-137 249h-82z" />
<glyph unicode="&#xdc;" horiz-adv-x="1548" d="M197 428q0 -96 31.5 -178t96 -142.5t162 -95.5t226.5 -35q125 0 234.5 46.5t197.5 134.5q76 76 133 180t94 242l230 854h-107l-223 -832q-35 -131 -88.5 -226t-112.5 -155q-74 -74 -164 -110.5t-186 -36.5q-109 0 -187.5 27.5t-130 76.5t-77 114.5t-25.5 143.5q0 47 5 90 t13 74l222 834h-107l-209 -785q-14 -53 -21 -107.5t-7 -113.5zM803 1567h142l45 163h-142zM1137 1567h141l45 163h-141z" />
<glyph unicode="&#xdd;" horiz-adv-x="1368" d="M260 1434l375 -852l-156 -582h107l147 555l862 879h-143l-745 -770l-330 770h-117zM809 1567h104l277 211l-127 61z" />
<glyph unicode="&#xde;" horiz-adv-x="1368" d="M74 0h106l76 276h365q162 0 292.5 34t223 99.5t142.5 161t50 217.5q0 158 -98 256q-66 66 -166 98t-229 32h-340l67 260h-104zM281 373l188 702h365q215 0 315 -100q74 -74 74 -191q0 -199 -154 -305t-444 -106h-344z" />
<glyph unicode="&#xdf;" horiz-adv-x="1269" d="M51 0h101l266 993q53 199 159.5 310.5t258.5 111.5q135 0 208.5 -67.5t73.5 -171.5q0 -135 -106.5 -230.5t-347.5 -152.5l-25 -93q178 -33 274.5 -101.5t96.5 -184.5q0 -63 -31 -122t-95.5 -104t-166 -72.5t-242.5 -29.5l-24 -90q158 -2 281.5 29.5t209.5 88t131 132.5 t45 166q0 70 -25.5 124t-69.5 96t-103.5 69.5t-126.5 46.5q88 25 166.5 60.5t138 87.5t94.5 121.5t35 162.5q0 72 -29 132t-80 104t-121.5 68.5t-152.5 24.5q-98 0 -184.5 -36.5t-155.5 -106.5q-59 -59 -104.5 -148.5t-73.5 -193.5z" />
<glyph unicode="&#xe0;" horiz-adv-x="1169" d="M47 268q0 -74 28.5 -128t77 -91t109.5 -55.5t127 -18.5q137 0 240.5 57.5t179.5 147.5l-47 -180h98l160 598q10 35 15 72t5 65q0 152 -106.5 239t-298.5 87q-98 0 -175 -15.5t-155 -44.5l19 -90q76 27 146.5 41.5t156.5 14.5q154 0 234.5 -63.5t80.5 -182.5 q0 -23 -4 -52.5t-10 -52.5l-8 -28q-78 23 -183.5 41t-218.5 18q-102 0 -189 -26.5t-149.5 -75.5t-97.5 -120t-35 -157zM154 281q0 61 25.5 111t71.5 87t110.5 57.5t142.5 20.5q117 0 216 -14.5t179 -34.5l-25 -92q-23 -80 -69.5 -143.5t-111 -109.5t-138 -70.5t-147.5 -24.5 q-117 0 -185.5 57t-68.5 156zM584 1430l162 -211h71l-106 272z" />
<glyph unicode="&#xe1;" horiz-adv-x="1169" d="M47 268q0 -74 28.5 -128t77 -91t109.5 -55.5t127 -18.5q137 0 240.5 57.5t179.5 147.5l-47 -180h98l160 598q10 35 15 72t5 65q0 152 -106.5 239t-298.5 87q-98 0 -175 -15.5t-155 -44.5l19 -90q76 27 146.5 41.5t156.5 14.5q154 0 234.5 -63.5t80.5 -182.5 q0 -23 -4 -52.5t-10 -52.5l-8 -28q-78 23 -183.5 41t-218.5 18q-102 0 -189 -26.5t-149.5 -75.5t-97.5 -120t-35 -157zM154 281q0 61 25.5 111t71.5 87t110.5 57.5t142.5 20.5q117 0 216 -14.5t179 -34.5l-25 -92q-23 -80 -69.5 -143.5t-111 -109.5t-138 -70.5t-147.5 -24.5 q-117 0 -185.5 57t-68.5 156zM616 1219h104l277 211l-127 61z" />
<glyph unicode="&#xe2;" horiz-adv-x="1169" d="M47 268q0 -74 28.5 -128t77 -91t109.5 -55.5t127 -18.5q137 0 240.5 57.5t179.5 147.5l-47 -180h98l160 598q10 35 15 72t5 65q0 152 -106.5 239t-298.5 87q-98 0 -175 -15.5t-155 -44.5l19 -90q76 27 146.5 41.5t156.5 14.5q154 0 234.5 -63.5t80.5 -182.5 q0 -23 -4 -52.5t-10 -52.5l-8 -28q-78 23 -183.5 41t-218.5 18q-102 0 -189 -26.5t-149.5 -75.5t-97.5 -120t-35 -157zM154 281q0 61 25.5 111t71.5 87t110.5 57.5t142.5 20.5q117 0 216 -14.5t179 -34.5l-25 -92q-23 -80 -69.5 -143.5t-111 -109.5t-138 -70.5t-147.5 -24.5 q-117 0 -185.5 57t-68.5 156zM504 1219h98l197 139l106 -139h90l-137 249h-82z" />
<glyph unicode="&#xe3;" horiz-adv-x="1169" d="M47 268q0 -74 28.5 -128t77 -91t109.5 -55.5t127 -18.5q137 0 240.5 57.5t179.5 147.5l-47 -180h98l160 598q10 35 15 72t5 65q0 152 -106.5 239t-298.5 87q-98 0 -175 -15.5t-155 -44.5l19 -90q76 27 146.5 41.5t156.5 14.5q154 0 234.5 -63.5t80.5 -182.5 q0 -23 -4 -52.5t-10 -52.5l-8 -28q-78 23 -183.5 41t-218.5 18q-102 0 -189 -26.5t-149.5 -75.5t-97.5 -120t-35 -157zM154 281q0 61 25.5 111t71.5 87t110.5 57.5t142.5 20.5q117 0 216 -14.5t179 -34.5l-25 -92q-23 -80 -69.5 -143.5t-111 -109.5t-138 -70.5t-147.5 -24.5 q-117 0 -185.5 57t-68.5 156zM450 1245l78 -31q35 61 61.5 92t59.5 31q27 0 45.5 -14t52.5 -47q35 -33 62.5 -52.5t75.5 -19.5q66 0 114.5 48t98.5 149l-78 31q-35 -61 -61.5 -92t-59.5 -31q-27 0 -45.5 14t-52.5 47q-35 33 -63 52.5t-75 19.5q-66 0 -114.5 -48t-98.5 -149z " />
<glyph unicode="&#xe4;" horiz-adv-x="1169" d="M47 268q0 -74 28.5 -128t77 -91t109.5 -55.5t127 -18.5q137 0 240.5 57.5t179.5 147.5l-47 -180h98l160 598q10 35 15 72t5 65q0 152 -106.5 239t-298.5 87q-98 0 -175 -15.5t-155 -44.5l19 -90q76 27 146.5 41.5t156.5 14.5q154 0 234.5 -63.5t80.5 -182.5 q0 -23 -4 -52.5t-10 -52.5l-8 -28q-78 23 -183.5 41t-218.5 18q-102 0 -189 -26.5t-149.5 -75.5t-97.5 -120t-35 -157zM154 281q0 61 25.5 111t71.5 87t110.5 57.5t142.5 20.5q117 0 216 -14.5t179 -34.5l-25 -92q-23 -80 -69.5 -143.5t-111 -109.5t-138 -70.5t-147.5 -24.5 q-117 0 -185.5 57t-68.5 156zM508 1219h142l45 163h-142zM842 1219h141l45 163h-141z" />
<glyph unicode="&#xe5;" horiz-adv-x="1169" d="M47 268q0 -74 28.5 -128t77 -91t109.5 -55.5t127 -18.5q137 0 240.5 57.5t179.5 147.5l-47 -180h98l160 598q10 35 15 72t5 65q0 152 -106.5 239t-298.5 87q-98 0 -175 -15.5t-155 -44.5l19 -90q76 27 146.5 41.5t156.5 14.5q154 0 234.5 -63.5t80.5 -182.5 q0 -23 -4 -52.5t-10 -52.5l-8 -28q-78 23 -183.5 41t-218.5 18q-102 0 -189 -26.5t-149.5 -75.5t-97.5 -120t-35 -157zM154 281q0 61 25.5 111t71.5 87t110.5 57.5t142.5 20.5q117 0 216 -14.5t179 -34.5l-25 -92q-23 -80 -69.5 -143.5t-111 -109.5t-138 -70.5t-147.5 -24.5 q-117 0 -185.5 57t-68.5 156zM590 1386q0 -72 54 -119.5t142 -47.5q43 0 83 16t70 44t47 66.5t17 81.5q0 72 -54 120t-142 48q-43 0 -83 -16t-70 -44t-47 -66.5t-17 -82.5zM663 1386q0 59 42 101.5t102 42.5q59 0 91 -28.5t32 -74.5q0 -59 -42.5 -101t-101.5 -42t-91 28.5 t-32 73.5z" />
<glyph unicode="&#xe6;" horiz-adv-x="1976" d="M47 279q0 -74 27.5 -131.5t77 -95.5t116 -57.5t142.5 -19.5q147 0 281.5 72.5t240.5 183.5q47 -115 152.5 -185.5t265.5 -70.5q129 0 228 47.5t181 114.5l-59 72q-76 -61 -157 -100t-200 -39q-78 0 -141 24.5t-108 70.5t-71 109.5t-26 143.5q0 16 1 34.5t3 34.5h859 q29 82 28 183q0 80 -24.5 152.5t-74.5 128t-124 87t-172 31.5q-141 0 -260 -72.5t-201 -183.5q-27 117 -129 182.5t-268 65.5q-98 0 -175 -15.5t-155 -44.5l19 -90q76 27 146.5 41.5t156.5 14.5q154 0 234.5 -63.5t80.5 -182.5q0 -23 -4 -52.5t-10 -52.5l-8 -28 q-76 23 -180.5 41t-213.5 18q-102 0 -190 -25.5t-152.5 -73.5t-100.5 -115.5t-36 -153.5zM154 291q0 57 26.5 106t73.5 84t113.5 55.5t144.5 20.5q104 0 211.5 -13.5t179.5 -33.5q-6 -43 -6 -88q0 -25 2 -50.5t6 -47.5q-111 -121 -232.5 -188.5t-254.5 -67.5 q-127 0 -195.5 60t-68.5 163zM1020 578q23 80 65.5 152.5t104 127.5t137.5 87t164 32q76 0 131 -25.5t92 -68.5t54.5 -99.5t17.5 -119.5q0 -29 -2 -50.5t-6 -35.5h-758z" />
<glyph unicode="&#xe7;" horiz-adv-x="1142" d="M102 426q0 -92 30 -168t79 -132t114.5 -92t137.5 -50l-221 -234l98 -53l211 278h6q129 0 230.5 50.5t181.5 128.5l-68 65q-72 -68 -153.5 -108.5t-184.5 -40.5q-68 0 -131 23.5t-112.5 69.5t-79 113.5t-29.5 155.5q0 106 41 204.5t109.5 174.5t158.5 120t191 44 q66 0 117 -16.5t90.5 -44t69.5 -65.5t54 -79l84 47q-25 49 -61.5 94t-86.5 81t-115.5 56.5t-145.5 20.5q-123 0 -234.5 -52t-196.5 -141.5t-134.5 -205t-49.5 -244.5z" />
<glyph unicode="&#xe8;" horiz-adv-x="1193" d="M102 414q0 -96 34 -177t94.5 -139.5t143.5 -90.5t183 -32q141 0 237.5 47.5t178.5 114.5l-60 72q-76 -61 -156.5 -100t-199.5 -39q-78 0 -141.5 24.5t-108.5 70.5t-70.5 109.5t-25.5 143.5q0 16 1 34.5t3 34.5h858q29 82 29 183q0 80 -24.5 152.5t-75 128t-124 87 t-171.5 31.5q-127 0 -238 -56.5t-192.5 -148.5t-128 -209.5t-46.5 -240.5zM233 578q23 80 66 152.5t104.5 127.5t137 87t164.5 32q76 0 131 -25.5t92 -68.5t54 -99.5t17 -119.5q0 -29 -2 -50.5t-6 -35.5h-758zM592 1430l162 -211h71l-106 272z" />
<glyph unicode="&#xe9;" horiz-adv-x="1193" d="M102 414q0 -96 34 -177t94.5 -139.5t143.5 -90.5t183 -32q141 0 237.5 47.5t178.5 114.5l-60 72q-76 -61 -156.5 -100t-199.5 -39q-78 0 -141.5 24.5t-108.5 70.5t-70.5 109.5t-25.5 143.5q0 16 1 34.5t3 34.5h858q29 82 29 183q0 80 -24.5 152.5t-75 128t-124 87 t-171.5 31.5q-127 0 -238 -56.5t-192.5 -148.5t-128 -209.5t-46.5 -240.5zM233 578q23 80 66 152.5t104.5 127.5t137 87t164.5 32q76 0 131 -25.5t92 -68.5t54 -99.5t17 -119.5q0 -29 -2 -50.5t-6 -35.5h-758zM635 1219h104l277 211l-127 61z" />
<glyph unicode="&#xea;" horiz-adv-x="1193" d="M102 414q0 -96 34 -177t94.5 -139.5t143.5 -90.5t183 -32q141 0 237.5 47.5t178.5 114.5l-60 72q-76 -61 -156.5 -100t-199.5 -39q-78 0 -141.5 24.5t-108.5 70.5t-70.5 109.5t-25.5 143.5q0 16 1 34.5t3 34.5h858q29 82 29 183q0 80 -24.5 152.5t-75 128t-124 87 t-171.5 31.5q-127 0 -238 -56.5t-192.5 -148.5t-128 -209.5t-46.5 -240.5zM233 578q23 80 66 152.5t104.5 127.5t137 87t164.5 32q76 0 131 -25.5t92 -68.5t54 -99.5t17 -119.5q0 -29 -2 -50.5t-6 -35.5h-758zM500 1219h98l197 139l106 -139h90l-137 249h-82z" />
<glyph unicode="&#xeb;" horiz-adv-x="1193" d="M102 414q0 -96 34 -177t94.5 -139.5t143.5 -90.5t183 -32q141 0 237.5 47.5t178.5 114.5l-60 72q-76 -61 -156.5 -100t-199.5 -39q-78 0 -141.5 24.5t-108.5 70.5t-70.5 109.5t-25.5 143.5q0 16 1 34.5t3 34.5h858q29 82 29 183q0 80 -24.5 152.5t-75 128t-124 87 t-171.5 31.5q-127 0 -238 -56.5t-192.5 -148.5t-128 -209.5t-46.5 -240.5zM233 578q23 80 66 152.5t104.5 127.5t137 87t164.5 32q76 0 131 -25.5t92 -68.5t54 -99.5t17 -119.5q0 -29 -2 -50.5t-6 -35.5h-758zM516 1219h142l45 163h-142zM850 1219h141l45 163h-141z" />
<glyph unicode="&#xec;" horiz-adv-x="509" d="M66 0h100l280 1044h-100zM209 1430l162 -211h71l-106 272z" />
<glyph unicode="&#xed;" horiz-adv-x="509" d="M66 0h100l280 1044h-100zM373 1219h104l277 211l-127 61z" />
<glyph unicode="&#xee;" horiz-adv-x="509" d="M66 0h100l280 1044h-100zM181 1219h98l197 139l106 -139h90l-137 249h-82z" />
<glyph unicode="&#xef;" horiz-adv-x="509" d="M66 0h100l280 1044h-100zM198 1219h142l45 163h-142zM532 1219h141l45 163h-141z" />
<glyph unicode="&#xf0;" horiz-adv-x="1261" d="M96 414q0 -92 35 -172t96.5 -138.5t145.5 -92.5t182 -34q133 0 244.5 50.5t191.5 132.5t125 186.5t45 214.5q0 43 -5 86t-17.5 89t-30.5 98.5t-43 115.5l-150 377l238 105l-45 81l-227 -100l-33 82h-121l53 -125l-323 -143l45 -82l315 139l168 -399q-51 43 -127 75.5 t-188 32.5q-111 0 -214.5 -45t-183 -124t-128 -184t-48.5 -226zM205 420q0 98 37 185t101.5 153.5t148 105.5t180.5 39q90 0 160.5 -27.5t119.5 -75.5t75 -110.5t26 -132.5q0 -100 -39 -188t-105.5 -155t-156 -104.5t-187.5 -37.5q-78 0 -144.5 24.5t-114.5 69.5 t-74.5 109.5t-26.5 144.5z" />
<glyph unicode="&#xf1;" horiz-adv-x="1251" d="M51 0h101l157 590q23 86 69 156.5t105.5 123t127 81t134.5 28.5q125 0 197 -67.5t72 -184.5q0 -29 -4 -64.5t-13 -64.5l-159 -598h100l156 590q10 37 16 74.5t6 72.5q0 152 -93 242t-249 90q-66 0 -122 -17.5t-103 -46t-89 -69.5t-81 -86l51 194h-100zM491 1245l78 -31 q35 61 61.5 92t59.5 31q27 0 45.5 -14t52.5 -47q35 -33 62.5 -52.5t75.5 -19.5q66 0 114.5 48t98.5 149l-78 31q-35 -61 -61.5 -92t-59.5 -31q-27 0 -45.5 14t-52.5 47q-35 33 -63 52.5t-75 19.5q-66 0 -114.5 -48t-98.5 -149z" />
<glyph unicode="&#xf2;" horiz-adv-x="1296" d="M104 438q0 -100 34 -185t95.5 -146.5t146.5 -96.5t189 -35q121 0 233.5 51.5t198.5 137.5t137.5 200.5t51.5 241.5q0 100 -34 185.5t-95.5 146.5t-146.5 96t-189 35q-125 0 -237.5 -52t-197.5 -139t-135.5 -202t-50.5 -238zM213 442q0 104 41 200.5t110.5 170.5 t160.5 118t190 44q164 0 265 -97.5t101 -275.5q0 -109 -43 -205t-112.5 -168.5t-160.5 -115.5t-185 -43q-164 0 -265.5 97t-101.5 275zM612 1430l162 -211h71l-106 272z" />
<glyph unicode="&#xf3;" horiz-adv-x="1296" d="M104 438q0 -100 34 -185t95.5 -146.5t146.5 -96.5t189 -35q121 0 233.5 51.5t198.5 137.5t137.5 200.5t51.5 241.5q0 100 -34 185.5t-95.5 146.5t-146.5 96t-189 35q-125 0 -237.5 -52t-197.5 -139t-135.5 -202t-50.5 -238zM213 442q0 104 41 200.5t110.5 170.5 t160.5 118t190 44q164 0 265 -97.5t101 -275.5q0 -109 -43 -205t-112.5 -168.5t-160.5 -115.5t-185 -43q-164 0 -265.5 97t-101.5 275zM659 1219h104l277 211l-127 61z" />
<glyph unicode="&#xf4;" horiz-adv-x="1296" d="M104 438q0 -100 34 -185t95.5 -146.5t146.5 -96.5t189 -35q121 0 233.5 51.5t198.5 137.5t137.5 200.5t51.5 241.5q0 100 -34 185.5t-95.5 146.5t-146.5 96t-189 35q-125 0 -237.5 -52t-197.5 -139t-135.5 -202t-50.5 -238zM213 442q0 104 41 200.5t110.5 170.5 t160.5 118t190 44q164 0 265 -97.5t101 -275.5q0 -109 -43 -205t-112.5 -168.5t-160.5 -115.5t-185 -43q-164 0 -265.5 97t-101.5 275zM570 1219h98l197 139l106 -139h90l-137 249h-82z" />
<glyph unicode="&#xf5;" horiz-adv-x="1296" d="M104 438q0 -100 34 -185t95.5 -146.5t146.5 -96.5t189 -35q121 0 233.5 51.5t198.5 137.5t137.5 200.5t51.5 241.5q0 100 -34 185.5t-95.5 146.5t-146.5 96t-189 35q-125 0 -237.5 -52t-197.5 -139t-135.5 -202t-50.5 -238zM213 442q0 104 41 200.5t110.5 170.5 t160.5 118t190 44q164 0 265 -97.5t101 -275.5q0 -109 -43 -205t-112.5 -168.5t-160.5 -115.5t-185 -43q-164 0 -265.5 97t-101.5 275zM499 1245l78 -31q35 61 61.5 92t59.5 31q27 0 45.5 -14t52.5 -47q35 -33 62.5 -52.5t75.5 -19.5q66 0 114.5 48t98.5 149l-78 31 q-35 -61 -61.5 -92t-59.5 -31q-27 0 -45.5 14t-52.5 47q-35 33 -63 52.5t-75 19.5q-66 0 -114.5 -48t-98.5 -149z" />
<glyph unicode="&#xf6;" horiz-adv-x="1296" d="M104 438q0 -100 34 -185t95.5 -146.5t146.5 -96.5t189 -35q121 0 233.5 51.5t198.5 137.5t137.5 200.5t51.5 241.5q0 100 -34 185.5t-95.5 146.5t-146.5 96t-189 35q-125 0 -237.5 -52t-197.5 -139t-135.5 -202t-50.5 -238zM213 442q0 104 41 200.5t110.5 170.5 t160.5 118t190 44q164 0 265 -97.5t101 -275.5q0 -109 -43 -205t-112.5 -168.5t-160.5 -115.5t-185 -43q-164 0 -265.5 97t-101.5 275zM551 1219h142l45 163h-142zM885 1219h141l45 163h-141z" />
<glyph unicode="&#xf8;" horiz-adv-x="1296" d="M-72 -10h138l157 129q61 -66 148 -105t198 -39q121 0 233.5 51.5t198.5 137.5t137.5 200.5t51.5 241.5q0 143 -66 252l246 201h-137l-162 -131q-61 66 -148 103.5t-198 37.5q-125 0 -237.5 -52t-197.5 -139t-135.5 -202t-50.5 -238q0 -143 66 -252zM213 442 q0 104 41 200.5t110.5 170.5t160.5 118t190 44q180 0 280 -111l-743 -610q-18 41 -28.5 87t-10.5 101zM299 180l743 611q18 -41 28.5 -87.5t10.5 -101.5q0 -109 -43 -205t-112.5 -168.5t-160.5 -115.5t-185 -43q-182 0 -281 110z" />
<glyph unicode="&#xf9;" horiz-adv-x="1247" d="M131 307q0 -152 93 -242t249 -90q66 0 122 17.5t103 46.5t89 68.5t81 87.5l-51 -195h101l278 1044h-100l-158 -589q-23 -86 -69 -157t-105 -123t-127 -80.5t-135 -28.5q-125 0 -197 67.5t-72 183.5q0 29 4.5 65t12.5 64l160 598h-101l-155 -589q-10 -37 -16.5 -75 t-6.5 -73zM596 1430l162 -211h71l-106 272z" />
<glyph unicode="&#xfa;" horiz-adv-x="1247" d="M131 307q0 -152 93 -242t249 -90q66 0 122 17.5t103 46.5t89 68.5t81 87.5l-51 -195h101l278 1044h-100l-158 -589q-23 -86 -69 -157t-105 -123t-127 -80.5t-135 -28.5q-125 0 -197 67.5t-72 183.5q0 29 4.5 65t12.5 64l160 598h-101l-155 -589q-10 -37 -16.5 -75 t-6.5 -73zM676 1219h104l277 211l-127 61z" />
<glyph unicode="&#xfb;" horiz-adv-x="1247" d="M131 307q0 -152 93 -242t249 -90q66 0 122 17.5t103 46.5t89 68.5t81 87.5l-51 -195h101l278 1044h-100l-158 -589q-23 -86 -69 -157t-105 -123t-127 -80.5t-135 -28.5q-125 0 -197 67.5t-72 183.5q0 29 4.5 65t12.5 64l160 598h-101l-155 -589q-10 -37 -16.5 -75 t-6.5 -73zM539 1219h98l197 139l106 -139h90l-137 249h-82z" />
<glyph unicode="&#xfc;" horiz-adv-x="1247" d="M131 307q0 -152 93 -242t249 -90q66 0 122 17.5t103 46.5t89 68.5t81 87.5l-51 -195h101l278 1044h-100l-158 -589q-23 -86 -69 -157t-105 -123t-127 -80.5t-135 -28.5q-125 0 -197 67.5t-72 183.5q0 29 4.5 65t12.5 64l160 598h-101l-155 -589q-10 -37 -16.5 -75 t-6.5 -73zM549 1219h142l45 163h-142zM883 1219h141l45 163h-141z" />
<glyph unicode="&#xfd;" horiz-adv-x="1163" d="M-180 -262q102 -72 221 -72q113 0 213 66.5t215 230.5l743 1081h-120l-629 -933l-182 933h-107l213 -1038q-96 -139 -175 -192.5t-159 -53.5q-41 0 -93 16.5t-85 43.5zM604 1219h104l277 211l-127 61z" />
<glyph unicode="&#xfe;" horiz-adv-x="1339" d="M-37 -328h100l160 594q20 -55 55 -108.5t85.5 -94t119 -65.5t156.5 -25q117 0 223.5 50.5t188.5 138.5t130 207.5t48 259.5q0 96 -32 177t-88 139.5t-133 91t-167 32.5q-139 0 -247.5 -67.5t-186.5 -161.5l178 655h-100zM274 432q0 104 45.5 202.5t119 173.5t166.5 121 t192 46q72 0 131 -25.5t102 -73t66.5 -114t23.5 -146.5q0 -109 -35.5 -208t-100 -174.5t-154 -120.5t-195.5 -45q-80 0 -146.5 28.5t-114.5 77.5t-74 115.5t-26 142.5z" />
<glyph unicode="&#xff;" horiz-adv-x="1163" d="M-180 -262q102 -72 221 -72q113 0 213 66.5t215 230.5l743 1081h-120l-629 -933l-182 933h-107l213 -1038q-96 -139 -175 -192.5t-159 -53.5q-41 0 -93 16.5t-85 43.5zM495 1219h142l45 163h-142zM829 1219h141l45 163h-141z" />
<glyph unicode="&#x152;" horiz-adv-x="2363" d="M188 602q0 -133 41 -233.5t117 -175.5q98 -98 243.5 -145.5t313.5 -47.5h1192l27 98h-891l153 576h789l27 98h-789l152 563h880l27 99h-1329q-223 0 -411.5 -74t-317.5 -203q-109 -109 -166.5 -249t-57.5 -306zM299 610q0 143 50 265t143 215q119 119 279.5 182t354.5 63 h330l-332 -1237h-215q-154 0 -275.5 41t-201.5 121q-63 63 -98 151.5t-35 198.5z" />
<glyph unicode="&#x153;" horiz-adv-x="2142" d="M104 438q0 -100 34 -185t95.5 -146.5t145.5 -96.5t184 -35q90 0 169 26t143.5 70t116.5 101t91 121q33 -143 149 -230.5t284 -87.5q129 0 228 47.5t181 114.5l-59 72q-76 -61 -157 -100t-200 -39q-78 0 -141 24.5t-108.5 70.5t-71 109.5t-25.5 143.5q0 16 1 34.5t3 34.5 h858q29 82 29 183q0 80 -24.5 152.5t-74.5 128t-124 87t-172 31.5q-92 0 -170 -27.5t-140.5 -73.5t-110.5 -106.5t-83 -126.5q-16 68 -51 129.5t-89 106.5t-127 71.5t-163 26.5q-125 0 -237.5 -52t-197.5 -139t-135.5 -202t-50.5 -238zM213 442q0 104 41 200.5t110.5 170.5 t160.5 118t190 44q164 0 265 -98.5t101 -284.5q0 -104 -43 -198.5t-112.5 -167t-160.5 -114.5t-185 -42q-164 0 -265.5 97t-101.5 275zM1186 578q23 80 65.5 152.5t104 127.5t137.5 87t164 32q76 0 131 -25.5t92 -68.5t54.5 -99.5t17.5 -119.5q0 -29 -2 -50.5t-6 -35.5h-758 z" />
<glyph unicode="&#x178;" horiz-adv-x="1368" d="M260 1434l375 -852l-156 -582h107l147 555l862 879h-143l-745 -770l-330 770h-117zM702 1567h142l45 163h-142zM1036 1567h141l45 163h-141z" />
<glyph unicode="&#x2c6;" d="M455 1219h98l197 139l106 -139h90l-137 249h-82z" />
<glyph unicode="&#x2dc;" d="M399 1245l78 -31q35 61 61.5 92t59.5 31q27 0 45.5 -14t52.5 -47q35 -33 62.5 -52.5t75.5 -19.5q66 0 114.5 48t98.5 149l-78 31q-35 -61 -61.5 -92t-59.5 -31q-27 0 -45.5 14t-52.5 47q-35 33 -63 52.5t-75 19.5q-66 0 -114.5 -48t-98.5 -149z" />
<glyph unicode="&#x2000;" horiz-adv-x="919" />
<glyph unicode="&#x2001;" horiz-adv-x="1839" />
<glyph unicode="&#x2002;" horiz-adv-x="919" />
<glyph unicode="&#x2003;" horiz-adv-x="1839" />
<glyph unicode="&#x2004;" horiz-adv-x="613" />
<glyph unicode="&#x2005;" horiz-adv-x="459" />
<glyph unicode="&#x2006;" horiz-adv-x="306" />
<glyph unicode="&#x2007;" horiz-adv-x="306" />
<glyph unicode="&#x2008;" horiz-adv-x="229" />
<glyph unicode="&#x2009;" horiz-adv-x="367" />
<glyph unicode="&#x200a;" horiz-adv-x="102" />
<glyph unicode="&#x2010;" horiz-adv-x="837" d="M152 551h548l31 115h-549z" />
<glyph unicode="&#x2011;" horiz-adv-x="837" d="M152 551h548l31 115h-549z" />
<glyph unicode="&#x2012;" horiz-adv-x="837" d="M152 551h548l31 115h-549z" />
<glyph unicode="&#x2013;" horiz-adv-x="1081" d="M152 555h794l29 107h-795z" />
<glyph unicode="&#x2014;" horiz-adv-x="1839" d="M152 555h1552l29 107h-1553z" />
<glyph unicode="&#x2018;" horiz-adv-x="473" d="M301 1051h135l47 174h-55q10 59 49 100t115 68l-14 49q-51 -14 -89 -33.5t-66 -47.5t-47.5 -67t-33.5 -92z" />
<glyph unicode="&#x2019;" horiz-adv-x="473" d="M268 1092l15 -50q51 14 89 34t65.5 47.5t47 66.5t33.5 92l41 152h-135l-47 -174h55q-10 -59 -49 -100.5t-115 -67.5z" />
<glyph unicode="&#x201a;" horiz-adv-x="473" d="M-80 -168l14 -49q51 14 89 33.5t66 47t47.5 66.5t33.5 93l41 151h-135l-47 -174h55q-10 -59 -49 -100t-115 -68z" />
<glyph unicode="&#x201c;" horiz-adv-x="841" d="M299 1051h135l47 174h-55q10 59 49 100t115 68l-15 49q-51 -14 -88.5 -33.5t-65.5 -47.5t-47.5 -67t-33.5 -92zM668 1051h135l47 174h-55q10 59 49 100t114 68l-14 49q-51 -14 -89 -33.5t-65.5 -47.5t-47 -67t-33.5 -92z" />
<glyph unicode="&#x201d;" horiz-adv-x="841" d="M246 1092l14 -50q51 14 89 34t65.5 47.5t47 66.5t34.5 92l41 152h-136l-47 -174h56q-10 -59 -49 -100.5t-115 -67.5zM614 1092l15 -50q51 14 89 34t65.5 47.5t47 66.5t33.5 92l41 152h-135l-47 -174h55q-10 -59 -49 -100.5t-115 -67.5z" />
<glyph unicode="&#x201e;" horiz-adv-x="843" d="M-80 -168l14 -49q51 14 89 33.5t66 47t47.5 66.5t33.5 93l41 151h-135l-47 -174h55q-10 -59 -49 -100t-115 -68zM291 -168l14 -49q51 14 89 33.5t65.5 47t47 66.5t34.5 93l41 151h-136l-47 -174h56q-10 -59 -49 -100t-115 -68z" />
<glyph unicode="&#x2022;" horiz-adv-x="962" d="M260 678q0 -104 60.5 -163.5t154.5 -59.5q59 0 112.5 24.5t93.5 67.5t63.5 99t23.5 118q0 104 -60.5 163.5t-154.5 59.5q-59 0 -112.5 -24.5t-93.5 -67.5t-63.5 -99.5t-23.5 -117.5z" />
<glyph unicode="&#x2026;" horiz-adv-x="1398" d="M29 0h135l47 174h-135zM492 0h135l47 174h-135zM954 0h136l47 174h-136z" />
<glyph unicode="&#x202f;" horiz-adv-x="367" />
<glyph unicode="&#x2039;" horiz-adv-x="636" d="M92 514l213 -428l84 45l-170 377l393 393l-73 57l-443 -428z" />
<glyph unicode="&#x203a;" horiz-adv-x="636" d="M23 141l73 -57l443 428l4 16l-213 428l-84 -45l170 -376z" />
<glyph unicode="&#x205f;" horiz-adv-x="459" />
<glyph unicode="&#x2122;" horiz-adv-x="1413" d="M268 1364h207l-160 -561h72l160 561h207l20 70h-485zM737 803h72l145 504l146 -365h10l342 365l-145 -504h71l181 631h-84l-345 -375l-147 375h-65z" />
<glyph unicode="&#x25fc;" horiz-adv-x="1044" d="M0 0v1044h1044v-1044h-1044z" />
<glyph unicode="&#xfb01;" horiz-adv-x="1253" d="M113 0h100l256 952h377l24 92h-376l34 130q33 123 93.5 177t142.5 54q51 0 93 -12.5t95 -36.5l25 90q-43 23 -96.5 36t-112.5 13q-254 0 -334 -299l-41 -152h-151l-25 -92h152zM807 0h100l281 1044h-101zM1149 1317h125l37 137h-125z" />
<glyph unicode="&#xfb02;" horiz-adv-x="1253" d="M113 0h100l256 952h377l24 92h-376l34 130q33 123 93.5 177t142.5 54q51 0 93 -12.5t95 -36.5l25 90q-43 23 -96.5 36t-112.5 13q-254 0 -334 -299l-41 -152h-151l-25 -92h152zM807 0h100l402 1495h-101z" />
</font>
</defs>
</svg>
